<svg width="22" height="22" viewBox="0 0 22 22" fill="none" xmlns="http://www.w3.org/2000/svg">
<path d="M11 0C8.02083 0 7.63125 0.0229167 6.4625 0.06875C5.29375 0.114583 4.49167 0.297917 3.78125 0.572917C3.04792 0.847917 2.45208 1.2375 1.83333 1.83333C1.21458 2.45208 0.847917 3.04792 0.572917 3.78125C0.297917 4.49167 0.114583 5.27083 0.06875 6.4625C0.0229167 7.63125 0 8.02083 0 11C0 13.9792 0.0229167 14.3688 0.06875 15.5375C0.114583 16.7063 0.297917 17.5083 0.572917 18.2188C0.847917 18.9521 1.2375 19.5479 1.83333 20.1667C2.45208 20.7854 3.04792 21.1521 3.78125 21.4271C4.49167 21.7021 5.27083 21.8854 6.4625 21.9312C7.63125 21.9771 8.02083 22 11 22C13.9792 22 14.3688 21.9771 15.5375 21.9312C16.7063 21.8854 17.5083 21.7021 18.2188 21.4271C18.9521 21.1521 19.5479 20.7625 20.1667 20.1667C20.7854 19.5479 21.1521 18.9521 21.4271 18.2188C21.7021 17.5083 21.8854 16.7292 21.9312 15.5375C21.9771 14.3688 22 13.9792 22 11C22 8.02083 21.9771 7.63125 21.9312 6.4625C21.8854 5.29375 21.6792 4.49167 21.4271 3.78125C21.1521 3.04792 20.7625 2.45208 20.1667 1.83333C19.5479 1.21458 18.9521 0.847917 18.2188 0.572917C17.5083 0.297917 16.7063 0.114583 15.5375 0.06875C14.3688 0.0229167 13.9792 0 11 0ZM10.0146 1.99375C10.3125 1.99375 10.6333 1.99375 11 1.99375C13.9333 1.99375 14.2771 1.99375 15.4458 2.0625C16.5229 2.10833 17.0958 2.29167 17.4854 2.45208C17.9896 2.65833 18.3563 2.8875 18.7458 3.27708C19.1354 3.66667 19.3646 4.03333 19.5708 4.5375C19.7313 4.92708 19.8917 5.5 19.9604 6.57708C20.0063 7.74583 20.0292 8.08958 20.0292 11.0229C20.0292 13.9562 20.0063 14.3 19.9604 15.4688C19.9146 16.5458 19.7313 17.1188 19.5708 17.5083C19.3646 18.0125 19.1354 18.3792 18.7458 18.7688C18.3563 19.1583 17.9896 19.3875 17.4854 19.5938C17.0958 19.7542 16.5229 19.9146 15.4458 19.9833C14.2771 20.0292 13.9333 20.0521 11 20.0521C8.06667 20.0521 7.72292 20.0292 6.55417 19.9833C5.47708 19.9375 4.90417 19.7542 4.51458 19.5938C4.01042 19.3875 3.64375 19.1583 3.25417 18.7688C2.86458 18.3792 2.63542 18.0125 2.42917 17.5083C2.26875 17.1188 2.10833 16.5458 2.03958 15.4688C1.99375 14.2771 1.99375 13.9333 1.99375 11C1.99375 8.06667 1.99375 7.72292 2.0625 6.55417C2.10833 5.47708 2.29167 4.90417 2.45208 4.51458C2.65833 4.01042 2.8875 3.64375 3.27708 3.25417C3.66667 2.86458 4.03333 2.63542 4.5375 2.42917C4.92708 2.26875 5.5 2.10833 6.57708 2.03958C7.5625 1.99375 7.975 1.97083 10.0146 1.99375ZM16.8667 3.80417C16.1333 3.80417 15.5375 4.4 15.5375 5.13333C15.5375 5.86667 16.1333 6.4625 16.8667 6.4625C17.6 6.4625 18.1958 5.86667 18.1958 5.13333C18.1958 4.4 17.6 3.80417 16.8667 3.80417ZM11 5.3625C7.88333 5.3625 5.33958 7.88333 5.33958 11C5.33958 14.1167 7.86042 16.6375 11 16.6375C14.1167 16.6375 16.6375 14.1167 16.6375 11C16.6375 7.88333 14.1167 5.3625 11 5.3625ZM11 7.33333C13.0167 7.33333 14.6667 8.98333 14.6667 11C14.6667 13.0167 13.0167 14.6667 11 14.6667C8.98333 14.6667 7.33333 13.0167 7.33333 11C7.33333 8.98333 8.98333 7.33333 11 7.33333Z" fill="#262629"/>
</svg>
