<svg width="20" height="20" viewBox="0 0 20 20" fill="none" xmlns="http://www.w3.org/2000/svg">
<path fill-rule="evenodd" clip-rule="evenodd" d="M14.6293 5.55566C12.3939 5.55566 11.1171 6.9087 10.5851 7.81261H10.4798L10.2659 5.89421H6.43657C6.43657 7.1344 6.54191 8.60141 6.54191 10.2941V20.0001H10.7979V11.9868C10.7979 11.5366 10.7979 11.198 10.9054 10.8584C11.2246 10.0696 11.7565 9.05393 12.9259 9.05393C14.4165 9.05393 15.0539 10.4081 15.0539 12.2125V20.0001H19.3098V11.6483C19.3098 7.47294 17.2893 5.55566 14.6293 5.55566V5.55566ZM0 20.0001H4.29114V5.55566H0V20.0001ZM4.29114 2.22222C4.29114 3.44333 3.54019 4.44444 2.14557 4.44444C0.858227 4.44444 0 3.44333 0 2.33222C0 1.11111 0.858227 0 2.14557 0C3.43398 0 4.29114 0.998889 4.29114 2.22222V2.22222Z" fill="white"/>
</svg>
