<svg width="436" height="182" viewBox="0 0 436 182" fill="none" xmlns="http://www.w3.org/2000/svg">
<g clip-path="url(#clip0_2889_36307)">
<path d="M338.639 158.986H336.633V166.318C336.35 165.753 335.91 165.282 335.366 164.961C334.823 164.64 334.199 164.482 333.568 164.507C331.077 164.507 329.401 166.539 329.401 170.713C329.401 174.887 331.077 176.918 333.568 176.918C334.228 176.934 334.878 176.758 335.441 176.414C336.004 176.069 336.456 175.57 336.743 174.975V176.764H338.661C338.661 176.013 338.661 175.262 338.661 174.555L338.639 158.986ZM336.633 170.713C336.633 173.738 335.817 175.306 333.987 175.306C332.157 175.306 331.341 173.738 331.341 170.713C331.341 167.687 332.157 166.119 333.987 166.119C335.817 166.119 336.633 167.687 336.633 170.713ZM318.531 176.764H320.515V169.476C320.515 167.267 321.507 166.207 323.073 166.207C324.638 166.207 325.057 167.047 325.057 168.968V176.764H327.064V168.372C327.064 165.699 325.631 164.507 323.536 164.507C322.884 164.47 322.236 164.641 321.686 164.994C321.136 165.346 320.711 165.864 320.471 166.472V166.472V164.662H318.553C318.553 165.523 318.553 166.406 318.553 167.267L318.531 176.764ZM313.834 172.347C313.858 172.735 313.803 173.124 313.673 173.49C313.542 173.856 313.339 174.191 313.075 174.476C312.811 174.761 312.492 174.989 312.138 175.147C311.783 175.305 311.4 175.389 311.012 175.395C310.722 175.422 310.43 175.383 310.158 175.279C309.886 175.176 309.641 175.011 309.443 174.797C309.244 174.584 309.098 174.327 309.014 174.048C308.931 173.769 308.913 173.474 308.962 173.186C308.962 171.795 310.086 170.668 312.423 170.668C312.893 170.643 313.364 170.643 313.834 170.668V172.347ZM308.256 167.378C308.654 166.975 309.128 166.656 309.65 166.44C310.173 166.224 310.733 166.115 311.299 166.119C311.668 166.082 312.041 166.13 312.389 166.261C312.737 166.391 313.051 166.599 313.305 166.87C313.676 167.446 313.84 168.132 313.768 168.813V169.365H312.6C308.455 169.365 306.911 171.088 306.911 173.429C306.871 173.897 306.933 174.369 307.094 174.811C307.255 175.252 307.51 175.653 307.842 175.986C308.174 176.318 308.574 176.574 309.015 176.735C309.456 176.896 309.927 176.959 310.395 176.918C311.071 176.964 311.746 176.821 312.345 176.505C312.945 176.189 313.445 175.713 313.79 175.13V176.764H315.598C315.598 176.322 315.488 175.615 315.488 174.909V168.593C315.543 168.053 315.479 167.509 315.3 166.997C315.121 166.486 314.831 166.02 314.452 165.633C313.564 164.855 312.411 164.452 311.233 164.507C310.03 164.509 308.852 164.854 307.837 165.501L308.256 167.378ZM302.479 176.764H304.486V158.986H302.479V176.764ZM292.91 176.212C293.928 176.697 295.046 176.939 296.173 176.918C296.687 176.986 297.209 176.938 297.701 176.777C298.193 176.616 298.643 176.347 299.017 175.989C299.392 175.631 299.681 175.193 299.865 174.708C300.048 174.223 300.12 173.703 300.076 173.186C300.059 172.481 299.817 171.8 299.384 171.243C298.951 170.686 298.351 170.283 297.673 170.094L296.967 169.807C295.644 169.299 294.939 168.747 294.939 167.775C294.939 166.804 295.622 166.119 296.923 166.119C297.736 166.119 298.541 166.292 299.282 166.627V164.927C298.462 164.633 297.595 164.491 296.725 164.507C296.234 164.458 295.739 164.512 295.271 164.666C294.803 164.819 294.372 165.07 294.007 165.401C293.641 165.732 293.349 166.135 293.149 166.586C292.948 167.037 292.845 167.525 292.844 168.018C292.844 169.542 293.483 170.227 295.203 171.11L296.526 171.706C297.651 172.214 298.07 172.766 298.07 173.606C298.07 174.445 297.298 175.306 295.865 175.306C294.851 175.273 293.867 174.96 293.02 174.401L292.91 176.212ZM282.128 176.764H284.113V169.476C284.113 167.267 285.105 166.207 286.67 166.207C288.236 166.207 288.655 167.047 288.655 168.968V176.764H290.661V168.372C290.661 165.699 289.228 164.507 287.133 164.507C286.481 164.47 285.834 164.641 285.284 164.994C284.734 165.346 284.308 165.864 284.069 166.472V166.472V164.662H282.15C282.15 165.523 282.15 166.406 282.15 167.267L282.128 176.764ZM273.11 169.785C273.11 166.958 274.301 166.009 275.58 166.009C276.859 166.009 277.939 167.267 277.939 169.785H273.11ZM279.923 171.309V170.249C279.923 166.671 278.424 164.507 275.69 164.507C272.956 164.507 271.038 166.914 271.038 170.713C271.038 174.511 272.691 176.918 275.888 176.918C277.05 176.924 278.2 176.683 279.262 176.212V174.401C278.458 175.01 277.49 175.363 276.484 175.417C274.279 175.417 273.199 174.092 273.199 171.309H279.923ZM262.615 169.785C262.615 166.958 263.784 166.009 265.063 166.009C266.341 166.009 267.444 167.267 267.444 169.785H262.615ZM269.428 171.309V170.249C269.428 166.671 267.907 164.507 265.195 164.507C262.483 164.507 260.587 166.914 260.587 170.713C260.587 174.511 262.24 176.918 265.437 176.918C266.606 176.924 267.763 176.683 268.833 176.212L268.723 174.401C267.925 175.005 266.965 175.359 265.967 175.417C263.762 175.417 262.681 174.092 262.681 171.309H269.428ZM258.227 164.684H256.177V171.971C256.177 174.18 255.185 175.24 253.619 175.24C252.054 175.24 251.635 174.401 251.635 172.479V164.662H249.65V173.054C249.65 175.704 251.062 176.918 253.156 176.918C253.808 176.955 254.456 176.785 255.006 176.432C255.556 176.079 255.981 175.561 256.221 174.953V174.953V176.764H258.382C258.382 175.902 258.382 175.019 258.382 174.158L258.227 164.684ZM237.105 168.769C237.105 163.668 238.957 161.857 241.14 161.857C243.918 161.857 244.976 165.081 244.976 168.482C244.976 173.562 243.124 175.372 240.941 175.372C238.163 175.372 237.105 172.148 237.105 168.747V168.769ZM246.806 179.922L243.653 176.41C245.858 175.306 247.137 172.634 247.137 168.416C247.137 163.292 244.8 160.134 241.14 160.134C237.48 160.134 234.944 163.027 234.944 168.747C234.944 173.849 237.281 177.007 240.941 177.007H241.382C241.514 177.017 241.647 177.017 241.779 177.007L244.271 179.811L246.806 179.922ZM227.91 164.75H225.926L223.412 174.622L220.7 164.75H218.694L222.508 177.029L222.023 178.884C221.693 180.143 221.274 180.408 220.7 180.408C220.327 180.403 219.959 180.32 219.62 180.165L219.51 181.976C219.952 182.069 220.403 182.113 220.855 182.108C222.376 182.108 223.236 181.379 223.831 179.303L227.91 164.75ZM217.239 166.958C217.239 166.23 217.239 165.457 217.239 164.75H215.321V166.517C215.037 165.962 214.613 165.492 214.09 165.155C213.568 164.817 212.965 164.624 212.344 164.595C209.654 164.595 207.934 166.627 207.934 170.801C207.934 174.975 209.61 177.007 212.101 177.007C212.768 177.001 213.419 176.807 213.98 176.448C214.542 176.088 214.991 175.578 215.276 174.975V174.975V176.874C215.347 177.343 215.309 177.822 215.165 178.273C215.022 178.725 214.776 179.138 214.448 179.479C214.12 179.821 213.718 180.082 213.273 180.243C212.827 180.404 212.351 180.46 211.881 180.408C210.704 180.356 209.562 179.99 208.574 179.348V181.379C209.704 181.808 210.894 182.054 212.101 182.108C212.762 182.185 213.431 182.118 214.063 181.912C214.695 181.706 215.276 181.367 215.765 180.916C216.255 180.466 216.642 179.915 216.9 179.301C217.158 178.688 217.281 178.026 217.261 177.36L217.239 166.958ZM209.874 170.713C209.874 167.687 210.712 166.119 212.52 166.119C214.328 166.119 215.166 167.687 215.166 170.713C215.166 173.738 214.35 175.306 212.52 175.306C210.69 175.306 209.874 173.738 209.874 170.713ZM201.474 176.764H203.458V170.359C203.458 167.731 204.539 166.406 206.082 166.406C206.339 166.384 206.597 166.384 206.854 166.406V164.441C206.134 164.348 205.403 164.499 204.779 164.872C204.156 165.244 203.675 165.816 203.414 166.495V166.495V164.595H201.496C201.496 165.457 201.496 166.34 201.496 167.201L201.474 176.764ZM192.456 169.785C192.456 166.958 193.647 166.009 194.925 166.009C196.204 166.009 197.285 167.267 197.285 169.785H192.456ZM199.269 171.309V170.249C199.269 166.671 197.748 164.507 195.036 164.507C192.324 164.507 190.361 166.914 190.361 170.713C190.361 174.511 192.037 176.918 195.212 176.918C196.381 176.924 197.538 176.683 198.608 176.212V174.401C197.802 175.006 196.835 175.359 195.829 175.417C193.625 175.417 192.544 174.092 192.544 171.309H199.269ZM179.557 176.764H181.542V169.476C181.542 167.267 182.534 166.207 184.099 166.207C185.665 166.207 186.084 167.047 186.084 168.968V176.764H188.068V168.372C188.068 165.699 186.657 164.507 184.54 164.507C183.892 164.475 183.25 164.648 182.704 165C182.158 165.353 181.736 165.868 181.498 166.472V166.472V164.662H179.579C179.579 165.523 179.579 166.406 179.579 167.267L179.557 176.764ZM168.974 176.764H176.978V174.953H171.113V169.078H176.471V167.267H171.113V162.011H176.801V160.2H169.04L168.974 176.764ZM157.178 176.764H159.162V166.274H161.367V164.662H159.162V162.144C159.162 160.951 159.493 160.333 160.595 160.333C160.998 160.305 161.4 160.406 161.742 160.62V158.897C161.228 158.781 160.703 158.721 160.177 158.721C157.972 158.721 157.156 160.024 157.156 161.989V164.684H155.238V166.296H157.156L157.178 176.764ZM144.39 170.713C144.39 174.511 146.065 176.918 149.24 176.918C152.415 176.918 154.113 174.511 154.113 170.713C154.113 166.914 152.548 164.507 149.24 164.507C145.933 164.507 144.39 166.914 144.39 170.713ZM146.594 170.713C146.594 167.687 147.476 166.119 149.351 166.119C151.225 166.119 152.129 167.687 152.129 170.713C152.129 173.738 151.137 175.395 149.24 175.395C147.344 175.395 146.484 173.827 146.484 170.801L146.594 170.713ZM137.665 175.085C137.291 175.283 136.875 175.389 136.452 175.395C135.548 175.395 135.195 174.887 135.195 173.495V166.274H137.665V164.662H135.151V161.614L133.145 162.144V164.595H131.249V166.207H133.145V173.981C133.145 176.19 134.137 176.852 135.945 176.852C136.517 176.843 137.083 176.739 137.621 176.543L137.665 175.085ZM125.339 176.852H127.324V170.448C127.324 167.82 128.426 166.495 129.948 166.495C130.204 166.472 130.463 166.472 130.719 166.495V164.529C129.999 164.436 129.269 164.588 128.645 164.96C128.021 165.333 127.541 165.904 127.28 166.583V166.583V164.684H125.207C125.207 165.545 125.207 166.428 125.207 167.29L125.339 176.852ZM120.621 172.435C120.633 172.818 120.568 173.199 120.431 173.556C120.293 173.913 120.086 174.239 119.821 174.515C119.556 174.79 119.239 175.01 118.888 175.161C118.537 175.313 118.159 175.392 117.777 175.395C117.487 175.422 117.195 175.383 116.922 175.279C116.65 175.176 116.405 175.011 116.207 174.797C116.009 174.584 115.862 174.327 115.779 174.048C115.696 173.769 115.677 173.474 115.726 173.186C115.726 171.795 116.851 170.668 119.188 170.668C119.651 170.643 120.114 170.643 120.577 170.668L120.621 172.435ZM115.065 167.378C115.47 166.967 115.955 166.643 116.489 166.427C117.024 166.211 117.597 166.106 118.174 166.119C118.543 166.082 118.916 166.13 119.264 166.261C119.612 166.391 119.925 166.599 120.18 166.87C120.544 167.449 120.699 168.134 120.621 168.813V169.365H119.475C115.329 169.365 113.786 171.088 113.786 173.429C113.746 173.897 113.808 174.369 113.969 174.811C114.13 175.252 114.385 175.653 114.717 175.986C115.049 176.318 115.449 176.574 115.89 176.735C116.331 176.896 116.802 176.959 117.27 176.918C117.945 176.964 118.621 176.821 119.22 176.505C119.82 176.189 120.32 175.713 120.665 175.13V175.13V176.764H122.473C122.473 176.322 122.473 175.615 122.473 174.909V168.593C122.528 168.053 122.464 167.509 122.285 166.997C122.106 166.486 121.816 166.02 121.437 165.633C120.549 164.855 119.396 164.452 118.218 164.507C117.015 164.509 115.837 164.854 114.822 165.501L115.065 167.378ZM106.708 161.923H107.899C110.104 161.923 111.316 162.806 111.316 165.103C111.316 166.936 110.39 168.129 107.855 168.129H106.708V161.923ZM104.636 176.764H106.708V169.829H108.119C111.625 169.829 113.477 168.129 113.477 164.904C113.506 164.275 113.406 163.646 113.182 163.057C112.958 162.469 112.616 161.932 112.176 161.481C111.7 161.035 111.137 160.691 110.523 160.471C109.908 160.251 109.256 160.159 108.604 160.2H104.636V176.764Z" fill="white"/>
<path d="M241.779 128.178C241.735 129.89 242.043 131.593 242.683 133.181C243.322 134.769 244.28 136.209 245.497 137.411C246.714 138.614 248.165 139.554 249.759 140.173C251.353 140.791 253.057 141.076 254.766 141.009C258.163 141.009 261.422 139.657 263.824 137.251C266.226 134.845 267.576 131.581 267.576 128.178C267.576 124.775 266.226 121.511 263.824 119.105C261.422 116.699 258.163 115.347 254.766 115.347C253.058 115.283 251.356 115.57 249.763 116.19C248.17 116.81 246.721 117.75 245.504 118.952C244.288 120.154 243.33 121.592 242.689 123.179C242.048 124.766 241.739 126.467 241.779 128.178V128.178ZM53.5046 12.6323L40.2753 58.855L37.6956 69.3893H37.2987L34.6749 58.8329L21.4457 12.6102C20.9352 10.3425 19.662 8.31945 17.8396 6.88005C16.0172 5.44065 13.7562 4.67238 11.4355 4.70398C3.89483 4.70398 -1 9.23129 -1 15.2824C-0.950705 16.3975 -0.803137 17.506 -0.559023 18.5951L25.6349 94.8968L22.9891 102.052C20.9165 107.529 16.9697 112.807 13.001 114.132C10.6281 114.802 8.5412 116.235 7.06271 118.211C5.58423 120.187 4.79638 122.595 4.82088 125.064C4.82088 131.491 8.944 135.267 16.1098 135.267C29.8683 135.267 40.0328 121.862 44.5528 108.766L75.5533 18.5951C75.8232 17.3578 76.0074 16.1034 76.1046 14.8407C76.1046 8.7896 70.6365 4.63773 64.4187 4.63773C61.949 4.47734 59.5002 5.17992 57.4899 6.62569C55.4795 8.07145 54.0321 10.1709 53.3943 12.566L53.5046 12.6323ZM137.4 15.0395V65.8337C137.445 67.6259 137.127 69.4086 136.464 71.074C135.802 72.7394 134.808 74.2528 133.545 75.5225C132.281 76.7922 130.774 77.792 129.113 78.4611C127.453 79.1303 125.674 79.455 123.884 79.4156C116.167 79.4156 110.655 74.7116 110.655 65.8337V15.0395C110.437 12.1873 109.152 9.52267 107.057 7.57868C104.962 5.6347 102.211 4.55469 99.355 4.55469C96.499 4.55469 93.7484 5.6347 91.6533 7.57868C89.5581 9.52267 88.273 12.1873 88.055 15.0395V66.4079C88.055 85.8422 101.284 100.175 117.248 100.175C122.27 99.9347 127.113 98.2307 131.182 95.2722C132.88 94.3226 135.592 92.2466 137.973 92.2466C140.355 92.2466 142.67 95.0735 144.191 96.3985C146.182 98.1041 148.715 99.0436 151.335 99.0487C152.489 99.061 153.634 98.8398 154.701 98.3983C155.769 97.9567 156.736 97.304 157.545 96.4791C158.354 95.6542 158.988 94.6742 159.41 93.5978C159.832 92.5214 160.033 91.3708 160 90.2149V15.1278C159.782 12.2756 158.497 9.611 156.402 7.66702C154.307 5.72303 151.556 4.64302 148.7 4.64302C145.844 4.64302 143.094 5.72303 140.998 7.66702C138.903 9.611 137.618 12.2756 137.4 15.1278V15.0395ZM338.044 9.67298L316.392 39.487C315.069 41.1875 313.945 42.1371 312.82 42.1371C312.258 42.1381 311.716 41.9237 311.306 41.5378C310.896 41.1519 310.649 40.6236 310.615 40.0612V14.7524C310.576 13.3118 310.25 11.8936 309.658 10.5802C309.066 9.26674 308.219 8.08442 307.167 7.10201C306.114 6.1196 304.877 5.35675 303.527 4.85785C302.177 4.35895 300.742 4.13398 299.304 4.19604C297.864 4.11546 296.422 4.32776 295.065 4.82013C293.708 5.31251 292.465 6.07478 291.41 7.06105C290.356 8.04732 289.511 9.2372 288.928 10.559C288.344 11.8808 288.034 13.3073 288.015 14.7524V128.708C288.034 130.153 288.344 131.58 288.928 132.901C289.511 134.223 290.356 135.413 291.41 136.399C292.465 137.386 293.708 138.148 295.065 138.64C296.422 139.133 297.864 139.345 299.304 139.264C300.742 139.326 302.177 139.101 303.527 138.603C304.877 138.104 306.114 137.341 307.167 136.358C308.219 135.376 309.066 134.194 309.658 132.88C310.25 131.567 310.576 130.149 310.615 128.708V66.6287C310.603 66.3528 310.648 66.0772 310.747 65.8197C310.847 65.5621 310.999 65.3282 311.194 65.1329C311.389 64.9375 311.623 64.7851 311.88 64.6852C312.137 64.5853 312.412 64.5402 312.688 64.5528C314.011 64.5528 315.135 65.8778 316.083 67.0041L338.132 93.5055C340.58 96.3323 342.851 98.4082 347.172 98.4082C349.21 98.461 351.22 97.9193 352.956 96.849C354.692 95.7787 356.081 94.226 356.952 92.3798C357.824 90.5336 358.14 88.4735 357.864 86.4502C357.588 84.4269 356.731 82.5277 355.396 80.9836L331.562 53.4222L356.609 21.179C358.014 19.254 358.785 16.938 358.814 14.5536C358.745 11.7881 357.604 9.15799 355.633 7.22049C353.661 5.28299 351.014 4.19032 348.253 4.17396C346.243 4.21704 344.275 4.74801 342.516 5.72124C340.757 6.69446 339.26 8.08086 338.154 9.76132L338.044 9.67298ZM202.488 11.9698C198.541 11.9698 195.719 4.61565 189.7 4.61565C188.588 4.59197 187.483 4.79204 186.449 5.204C185.416 5.61597 184.476 6.23144 183.684 7.01399C182.892 7.79654 182.266 8.73023 181.841 9.75978C181.416 10.7893 181.202 11.8938 181.211 13.0077V88.4702C181.429 91.3224 182.714 93.987 184.809 95.931C186.904 97.875 189.655 98.955 192.511 98.955C195.367 98.955 198.118 97.875 200.213 95.931C202.308 93.987 203.593 91.3224 203.811 88.4702V41.32C203.811 30.7415 210.227 25.2646 219.444 25.2646C225.86 25.2646 229.63 20.8477 229.63 14.5316C229.73 13.1567 229.546 11.776 229.089 10.4757C228.633 9.17535 227.913 7.98329 226.976 6.97398C226.039 5.96467 224.904 5.1598 223.642 4.60963C222.38 4.05946 221.018 3.77583 219.642 3.77644C210.029 3.77644 207.405 11.8814 202.488 11.8814V11.9698ZM387.896 68.6605C387.896 62.0352 392.99 57.9054 399.957 57.9054H413.693V67.9096C413.892 74.5349 407.872 79.4156 400.332 79.4156C392.791 79.4156 387.896 74.3141 387.896 68.6605V68.6605ZM378.856 9.43005C374.446 11.6385 371.514 15.0837 371.514 19.9864C371.52 22.4856 372.514 24.8808 374.278 26.648C376.042 28.4152 378.434 29.4106 380.929 29.4165C383.69 29.3302 386.396 28.6206 388.844 27.3405C392.521 25.6521 396.489 24.6922 400.53 24.5137C402.281 24.5136 404.013 24.8614 405.629 25.5369C407.244 26.2125 408.709 27.2024 409.94 28.4492C411.17 29.6961 412.141 31.1751 412.797 32.8007C413.453 34.4262 413.78 36.1659 413.759 37.919V42.0708H400.53C383.575 42.0708 365.87 49.4249 365.87 69.4114C365.87 87.0789 378.481 99.7995 395.437 99.7995C400.552 99.5887 405.478 97.8077 409.548 94.698C410.948 93.7027 412.566 93.059 414.267 92.8208C418.412 92.8208 421.234 99.4462 427.496 99.4462C428.625 99.5027 429.753 99.3305 430.814 98.94C431.874 98.5495 432.846 97.9486 433.669 97.1733C434.492 96.398 435.151 95.4643 435.606 94.428C436.061 93.3918 436.302 92.2743 436.315 91.1424V37.919C436.315 17.7338 420.286 3.77644 400.53 3.77644C392.982 4.06355 385.586 5.99273 378.856 9.43005V9.43005ZM245.152 16.3866L245.968 90.3695C246.189 96.8844 250.202 101.765 256.111 101.92C258.992 101.856 261.735 100.665 263.75 98.6008C265.765 96.5368 266.893 93.7644 266.893 90.8774L271.611 17.0271C272.206 6.64742 266.848 0.242929 258.757 0H258.382C250.488 0 244.976 6.80201 244.976 16.2762" fill="white"/>
</g>
<defs>
<clipPath id="clip0_2889_36307">
<rect width="436" height="182" fill="white"/>
</clipPath>
</defs>
</svg>
