<svg width="512" height="512" viewBox="0 0 512 512" fill="none" xmlns="http://www.w3.org/2000/svg">
<g clip-path="url(#clip0_2889_36324)">
<path d="M407.052 39.9768C407.052 16.3203 385.621 0.0123418 361.172 0.0123418C339.741 0.0123418 323.491 11.8909 318.31 31.1182L266.543 212.317L256.18 253.741H254.721L244.358 212.367L192.591 31.1685C190.599 22.164 185.54 14.1323 178.281 8.44863C171.022 2.76494 162.013 -0.217343 152.798 0.0123418C123.217 0.0123418 104 17.7799 104 41.4868C104.328 45.9783 105.087 50.4279 106.264 54.7747L208.891 353.652L198.528 381.788C190.378 403.23 174.833 423.967 159.338 429.152C141.58 435.041 126.789 449.285 126.789 472.036C126.789 497.202 143.039 512 171.16 512C225.14 512 265.085 459.452 282.843 408.415L404.839 54.7747C405.945 49.9042 406.684 44.9578 407.052 39.9768Z" fill="url(#paint0_linear_2889_36324)"/>
</g>
<defs>
<linearGradient id="paint0_linear_2889_36324" x1="114.816" y1="437.759" x2="1777.31" y2="-41.8677" gradientUnits="userSpaceOnUse">
<stop stop-color="#662483"/>
<stop offset="0.56" stop-color="#EA5153"/>
<stop offset="1" stop-color="#F08100"/>
</linearGradient>
<clipPath id="clip0_2889_36324">
<rect width="512" height="512" fill="white"/>
</clipPath>
</defs>
</svg>
