<svg width="162" height="68" viewBox="0 0 162 68" fill="none" xmlns="http://www.w3.org/2000/svg">
<g clip-path="url(#clip0_3007_36424)">
<path d="M125.825 59.4013H125.079V62.1407C124.974 61.9297 124.811 61.7537 124.609 61.6337C124.407 61.5137 124.175 61.4548 123.94 61.4641C123.015 61.4641 122.392 62.2232 122.392 63.7827C122.392 65.3422 123.015 66.1013 123.94 66.1013C124.185 66.107 124.427 66.0416 124.636 65.9128C124.845 65.7841 125.013 65.5975 125.12 65.3752V66.0436H125.833C125.833 65.763 125.833 65.4825 125.833 65.2184L125.825 59.4013ZM125.079 63.7827C125.079 64.9131 124.776 65.499 124.096 65.499C123.416 65.499 123.113 64.9131 123.113 63.7827C123.113 62.6523 123.416 62.0664 124.096 62.0664C124.776 62.0664 125.079 62.6523 125.079 63.7827ZM118.353 66.0436H119.09V63.3206C119.09 62.4955 119.459 62.0994 120.041 62.0994C120.622 62.0994 120.778 62.413 120.778 63.1309V66.0436H121.524V62.9081C121.524 61.9097 120.991 61.4641 120.213 61.4641C119.97 61.4505 119.73 61.5141 119.526 61.6459C119.321 61.7777 119.163 61.9711 119.074 62.1985V62.1985V61.5219H118.361C118.361 61.8437 118.361 62.1737 118.361 62.4955L118.353 66.0436ZM116.608 64.3933C116.617 64.5383 116.597 64.6835 116.548 64.8203C116.5 64.957 116.424 65.0824 116.326 65.1889C116.228 65.2954 116.109 65.3807 115.978 65.4396C115.846 65.4986 115.704 65.53 115.56 65.532C115.452 65.5424 115.343 65.5277 115.242 65.489C115.141 65.4503 115.05 65.3887 114.976 65.3089C114.903 65.2291 114.848 65.1333 114.817 65.0289C114.786 64.9245 114.78 64.8143 114.798 64.7069C114.798 64.187 115.215 63.7662 116.084 63.7662C116.258 63.7568 116.434 63.7568 116.608 63.7662V64.3933ZM114.535 62.5368C114.683 62.3863 114.859 62.2672 115.054 62.1864C115.248 62.1056 115.456 62.0648 115.666 62.0664C115.803 62.0526 115.942 62.0707 116.071 62.1193C116.2 62.168 116.317 62.2459 116.412 62.347C116.549 62.5622 116.61 62.8184 116.584 63.0731V63.2794H116.149C114.609 63.2794 114.036 63.923 114.036 64.7976C114.021 64.9726 114.044 65.1488 114.104 65.3138C114.163 65.4789 114.258 65.6287 114.382 65.7529C114.505 65.8771 114.654 65.9727 114.818 66.0329C114.981 66.0931 115.156 66.1164 115.33 66.1013C115.581 66.1184 115.832 66.065 116.055 65.947C116.278 65.829 116.463 65.6511 116.592 65.433V66.0436H117.264C117.264 65.8786 117.223 65.6145 117.223 65.3505V62.9906C117.243 62.7891 117.219 62.5856 117.153 62.3945C117.086 62.2034 116.978 62.0294 116.838 61.8849C116.508 61.5943 116.079 61.4435 115.641 61.4641C115.194 61.465 114.757 61.5938 114.38 61.8354L114.535 62.5368ZM112.389 66.0436H113.135V59.4013H112.389V66.0436ZM108.834 65.8373C109.212 66.0188 109.627 66.1092 110.046 66.1013C110.237 66.1267 110.431 66.1087 110.614 66.0486C110.796 65.9885 110.964 65.8878 111.103 65.754C111.242 65.6202 111.349 65.4567 111.418 65.2754C111.486 65.0942 111.512 64.8999 111.496 64.7069C111.49 64.4433 111.4 64.1888 111.239 63.9808C111.078 63.7728 110.855 63.6224 110.603 63.5517L110.341 63.4444C109.849 63.2546 109.587 63.0483 109.587 62.6853C109.587 62.3222 109.841 62.0664 110.325 62.0664C110.627 62.0663 110.926 62.131 111.201 62.2562V61.6209C110.896 61.5112 110.574 61.4581 110.251 61.4641C110.069 61.4457 109.885 61.4658 109.711 61.5234C109.537 61.5809 109.377 61.6745 109.241 61.798C109.105 61.9216 108.997 62.0725 108.922 62.241C108.848 62.4094 108.809 62.5917 108.809 62.7761C108.809 63.3454 109.047 63.6012 109.686 63.9312L110.177 64.154C110.595 64.3438 110.751 64.5501 110.751 64.8636C110.751 65.1772 110.464 65.499 109.931 65.499C109.555 65.4867 109.189 65.3696 108.875 65.1607L108.834 65.8373ZM104.827 66.0436H105.565V63.3206C105.565 62.4955 105.933 62.0994 106.515 62.0994C107.097 62.0994 107.252 62.413 107.252 63.1309V66.0436H107.998V62.9081C107.998 61.9097 107.465 61.4641 106.687 61.4641C106.445 61.4505 106.204 61.5141 106 61.6459C105.796 61.7777 105.638 61.9711 105.548 62.1985V62.1985V61.5219H104.836C104.836 61.8437 104.836 62.1737 104.836 62.4955L104.827 66.0436ZM101.477 63.4362C101.477 62.38 101.919 62.0252 102.394 62.0252C102.869 62.0252 103.271 62.4955 103.271 63.4362H101.477ZM104.008 64.0055V63.6094C104.008 62.2727 103.451 61.4641 102.435 61.4641C101.419 61.4641 100.707 62.3635 100.707 63.7827C100.707 65.2019 101.321 66.1013 102.509 66.1013C102.941 66.1035 103.368 66.0135 103.762 65.8373V65.1607C103.464 65.3881 103.104 65.5203 102.73 65.5402C101.911 65.5402 101.51 65.0452 101.51 64.0055H104.008ZM97.5771 63.4362C97.5771 62.38 98.0113 62.0252 98.4865 62.0252C98.9617 62.0252 99.3713 62.4955 99.3713 63.4362H97.5771ZM100.109 64.0055V63.6094C100.109 62.2727 99.5433 61.4641 98.5357 61.4641C97.528 61.4641 96.8234 62.3635 96.8234 63.7827C96.8234 65.2019 97.4379 66.1013 98.6258 66.1013C99.06 66.1034 99.4899 66.0134 99.8874 65.8373L99.8465 65.1607C99.55 65.3866 99.1935 65.5187 98.8224 65.5402C98.0032 65.5402 97.6017 65.0452 97.6017 64.0055H100.109ZM95.9468 61.5301H95.185V64.253C95.185 65.0782 94.8163 65.4742 94.2346 65.4742C93.653 65.4742 93.4973 65.1607 93.4973 64.4428V61.5219H92.76V64.6574C92.76 65.6475 93.2843 66.1013 94.0626 66.1013C94.3049 66.115 94.5454 66.0513 94.7498 65.9195C94.9542 65.7877 95.1122 65.5944 95.2013 65.367V65.367V66.0436H96.0042C96.0042 65.7218 96.0042 65.3917 96.0042 65.0699L95.9468 61.5301ZM88.0985 63.0566C88.0985 61.1505 88.7867 60.4739 89.5977 60.4739C90.63 60.4739 91.0232 61.6786 91.0232 62.9493C91.0232 64.8471 90.335 65.5237 89.524 65.5237C88.4917 65.5237 88.0985 64.319 88.0985 63.0483V63.0566ZM91.7032 67.2235L90.5317 65.9116C91.3509 65.499 91.8261 64.5006 91.8261 62.9246C91.8261 61.0103 90.9577 59.8303 89.5977 59.8303C88.2378 59.8303 87.2956 60.9113 87.2956 63.0483C87.2956 64.9544 88.164 66.1343 89.524 66.1343H89.6878C89.7369 66.1383 89.7862 66.1383 89.8353 66.1343L90.761 67.1823L91.7032 67.2235ZM84.6823 61.5549H83.9449L83.011 65.2432L82.0033 61.5549H81.2578L82.6751 66.1426L82.4949 66.8357C82.372 67.306 82.2163 67.405 82.0033 67.405C81.8647 67.4032 81.728 67.3722 81.6019 67.3143L81.5609 67.9909C81.7252 68.0258 81.8928 68.0424 82.0607 68.0404C82.626 68.0404 82.9455 67.7681 83.1667 66.9925L84.6823 61.5549ZM80.7171 62.38C80.7171 62.1077 80.7171 61.8189 80.7171 61.5549H80.0044V62.215C79.8992 62.0077 79.7415 61.8322 79.5473 61.7061C79.3531 61.5801 79.1292 61.508 78.8984 61.4971C77.8989 61.4971 77.2599 62.2562 77.2599 63.8157C77.2599 65.3752 77.8825 66.1343 78.8083 66.1343C79.0558 66.1321 79.2978 66.0597 79.5064 65.9254C79.715 65.7912 79.8819 65.6005 79.988 65.3752V65.3752V66.0848C80.0142 66.26 80.0001 66.4388 79.9467 66.6076C79.8933 66.7764 79.8022 66.9305 79.6802 67.0581C79.5583 67.1857 79.4088 67.2834 79.2434 67.3435C79.078 67.4037 78.9011 67.4247 78.7264 67.405C78.289 67.3856 77.8648 67.2489 77.4975 67.009V67.7681C77.9174 67.9281 78.3598 68.02 78.8083 68.0404C79.0536 68.0689 79.3022 68.0439 79.5372 67.9671C79.7721 67.8902 79.9878 67.7633 80.1697 67.595C80.3516 67.4267 80.4953 67.2209 80.5912 66.9917C80.6871 66.7624 80.7328 66.515 80.7253 66.2664L80.7171 62.38ZM77.9808 63.7827C77.9808 62.6523 78.2922 62.0664 78.9639 62.0664C79.6357 62.0664 79.947 62.6523 79.947 63.7827C79.947 64.9131 79.6439 65.499 78.9639 65.499C78.284 65.499 77.9808 64.9131 77.9808 63.7827ZM74.8595 66.0436H75.5968V63.6507C75.5968 62.6688 75.9983 62.1737 76.5717 62.1737C76.6671 62.1653 76.7631 62.1653 76.8585 62.1737V61.4393C76.5909 61.4046 76.3195 61.4613 76.0877 61.6005C75.856 61.7396 75.6774 61.9531 75.5805 62.2067V62.2067V61.4971H74.8677C74.8677 61.8189 74.8677 62.149 74.8677 62.4708L74.8595 66.0436ZM71.5088 63.4362C71.5088 62.38 71.9512 62.0252 72.4264 62.0252C72.9015 62.0252 73.303 62.4955 73.303 63.4362H71.5088ZM74.0403 64.0055V63.6094C74.0403 62.2727 73.475 61.4641 72.4673 61.4641C71.4597 61.4641 70.7305 62.3635 70.7305 63.7827C70.7305 65.2019 71.3532 66.1013 72.5329 66.1013C72.9672 66.1034 73.397 66.0134 73.7945 65.8373V65.1607C73.495 65.3868 73.1359 65.5189 72.7623 65.5402C71.943 65.5402 71.5416 65.0452 71.5416 64.0055H74.0403ZM66.7162 66.0436H67.4536V63.3206C67.4536 62.4955 67.8222 62.0994 68.4039 62.0994C68.9856 62.0994 69.1412 62.413 69.1412 63.1309V66.0436H69.8785V62.9081C69.8785 61.9097 69.3542 61.4641 68.5677 61.4641C68.3268 61.4522 68.0881 61.5167 67.8854 61.6484C67.6826 61.7801 67.5259 61.9725 67.4372 62.1985V62.1985V61.5219H66.7244C66.7244 61.8437 66.7244 62.1737 66.7244 62.4955L66.7162 66.0436ZM62.7839 66.0436H65.7577V65.367H63.5785V63.1721H65.5693V62.4955H63.5785V60.5317H65.6922V59.8551H62.8085L62.7839 66.0436ZM58.4009 66.0436H59.1382V62.1242H59.9575V61.5219H59.1382V60.5812C59.1382 60.1356 59.2611 59.9046 59.6708 59.9046C59.8204 59.8943 59.9695 59.9318 60.0968 60.0119V59.3683C59.9059 59.3246 59.7108 59.3024 59.5151 59.3022C58.6959 59.3022 58.3927 59.7891 58.3927 60.5234V61.5301H57.68V62.1324H58.3927L58.4009 66.0436ZM53.6493 63.7827C53.6493 65.2019 54.2719 66.1013 55.4517 66.1013C56.6314 66.1013 57.2622 65.2019 57.2622 63.7827C57.2622 62.3635 56.6805 61.4641 55.4517 61.4641C54.2228 61.4641 53.6493 62.3635 53.6493 63.7827ZM54.4686 63.7827C54.4686 62.6523 54.7963 62.0664 55.4926 62.0664C56.189 62.0664 56.5249 62.6523 56.5249 63.7827C56.5249 64.9131 56.1562 65.532 55.4517 65.532C54.7471 65.532 54.4276 64.9461 54.4276 63.8157L54.4686 63.7827ZM51.1506 65.4165C51.0116 65.4904 50.8572 65.53 50.7 65.532C50.3641 65.532 50.2331 65.3422 50.2331 64.8224V62.1242H51.1506V61.5219H50.2167V60.3832L49.4712 60.5812V61.4971H48.7666V62.0994H49.4712V65.0039C49.4712 65.829 49.8398 66.0766 50.5116 66.0766C50.7241 66.0733 50.9345 66.0342 51.1342 65.9611L51.1506 65.4165ZM46.5711 66.0766H47.3084V63.6837C47.3084 62.7018 47.718 62.2067 48.2833 62.2067C48.3787 62.1983 48.4746 62.1983 48.57 62.2067V61.4723C48.3024 61.4376 48.031 61.4943 47.7993 61.6335C47.5675 61.7726 47.3889 61.9861 47.292 62.2397V62.2397V61.5301H46.5219C46.5219 61.8519 46.5219 62.182 46.5219 62.5038L46.5711 66.0766ZM44.8179 64.4263C44.8222 64.5692 44.7982 64.7116 44.7472 64.845C44.6961 64.9785 44.6191 65.1003 44.5206 65.2033C44.4222 65.3063 44.3042 65.3885 44.1738 65.4449C44.0433 65.5013 43.903 65.531 43.7611 65.532C43.6534 65.5424 43.5447 65.5277 43.4436 65.489C43.3425 65.4503 43.2515 65.3887 43.1778 65.3089C43.1042 65.2291 43.0497 65.1333 43.0187 65.0289C42.9877 64.9245 42.981 64.8143 42.9992 64.7069C42.9992 64.187 43.417 63.7662 44.2854 63.7662C44.4573 63.7567 44.6296 63.7567 44.8015 63.7662L44.8179 64.4263ZM42.7534 62.5368C42.904 62.3833 43.0841 62.2624 43.2827 62.1815C43.4814 62.1006 43.6943 62.0615 43.9085 62.0664C44.0458 62.0526 44.1844 62.0707 44.3137 62.1193C44.4429 62.168 44.5594 62.2459 44.654 62.347C44.7891 62.5632 44.8469 62.8193 44.8179 63.0731V63.2794H44.3919C42.8517 63.2794 42.2782 63.923 42.2782 64.7976C42.2632 64.9726 42.2864 65.1488 42.3462 65.3138C42.4059 65.4789 42.5008 65.6287 42.6241 65.7529C42.7474 65.8771 42.8962 65.9727 43.0601 66.0329C43.2239 66.0931 43.3989 66.1164 43.5726 66.1013C43.8237 66.1184 44.0746 66.065 44.2974 65.947C44.5201 65.829 44.706 65.6511 44.8343 65.433V65.433V66.0436H45.506C45.506 65.8786 45.506 65.6145 45.506 65.3505V62.9906C45.5265 62.7891 45.5026 62.5856 45.436 62.3945C45.3695 62.2034 45.2619 62.0294 45.121 61.8849C44.7912 61.5943 44.3626 61.4435 43.9249 61.4641C43.4779 61.465 43.0404 61.5938 42.6633 61.8354L42.7534 62.5368ZM39.6484 60.4987H40.0908C40.9101 60.4987 41.3607 60.8287 41.3607 61.6869C41.3607 62.3717 41.0166 62.8173 40.0745 62.8173H39.6484V60.4987ZM38.8784 66.0436H39.6484V63.4527H40.1728C41.4754 63.4527 42.1635 62.8173 42.1635 61.6126C42.1744 61.3774 42.137 61.1425 42.0539 60.9225C41.9707 60.7025 41.8435 60.5021 41.6802 60.3337C41.503 60.167 41.2939 60.0385 41.0657 59.9562C40.8375 59.8739 40.5949 59.8395 40.353 59.8551H38.8784V66.0436Z" fill="white"/>
<path d="M89.8353 47.8907C89.8191 48.5303 89.9334 49.1665 90.171 49.7598C90.4087 50.3532 90.7646 50.8912 91.2169 51.3405C91.6691 51.7899 92.2081 52.141 92.8004 52.3722C93.3928 52.6034 94.0259 52.7097 94.6607 52.6847C95.923 52.6847 97.1337 52.1796 98.0263 51.2806C98.919 50.3815 99.4205 49.1621 99.4205 47.8907C99.4205 46.6192 98.919 45.3999 98.0263 44.5008C97.1337 43.6018 95.923 43.0967 94.6607 43.0967C94.0262 43.0728 93.3936 43.1801 92.8018 43.4117C92.21 43.6433 91.6715 43.9945 91.2195 44.4436C90.7675 44.8926 90.4115 45.4301 90.1735 46.0229C89.9354 46.6158 89.8203 47.2514 89.8353 47.8907V47.8907ZM19.8801 4.71976L14.9647 21.9898L14.0061 25.9257H13.8587L12.8838 21.9815L7.96832 4.71151C7.77864 3.86423 7.3056 3.10837 6.62845 2.57057C5.95131 2.03277 5.11122 1.74572 4.24895 1.75753C1.44714 1.75753 -0.371582 3.44905 -0.371582 5.70992C-0.353266 6.12654 -0.298436 6.54072 -0.207733 6.94762L9.52488 35.4559L8.54179 38.1294C7.7717 40.1757 6.30525 42.1478 4.83061 42.6428C3.94894 42.8929 3.17354 43.4284 2.6242 44.1667C2.07485 44.9049 1.78212 45.8047 1.79122 46.7273C1.79122 49.1284 3.32321 50.5394 5.98575 50.5394C11.0978 50.5394 14.8745 45.5308 16.554 40.6378L28.0726 6.94762C28.1728 6.48535 28.2412 6.01666 28.2774 5.54489C28.2774 3.28403 26.2456 1.73278 23.9354 1.73278C23.0177 1.67285 22.1079 1.93536 21.3609 2.47553C20.6139 3.01571 20.0761 3.80011 19.8392 4.695L19.8801 4.71976ZM51.0523 5.61915V24.5972C51.0691 25.2668 50.9508 25.9329 50.7046 26.5551C50.4584 27.1774 50.0893 27.7428 49.6198 28.2172C49.1503 28.6916 48.5902 29.0651 47.9732 29.3151C47.3562 29.5652 46.6953 29.6865 46.0304 29.6718C43.163 29.6718 41.1149 27.9142 41.1149 24.5972V5.61915C41.0339 4.55349 40.5564 3.55792 39.7779 2.8316C38.9995 2.10527 37.9774 1.70175 36.9163 1.70175C35.8551 1.70175 34.8331 2.10527 34.0546 2.8316C33.2762 3.55792 32.7987 4.55349 32.7177 5.61915V24.8117C32.7177 32.0729 37.6331 37.428 43.5644 37.428C45.4306 37.3382 47.2301 36.7016 48.7421 35.5962C49.3729 35.2414 50.3805 34.4658 51.2653 34.4658C52.1501 34.4658 53.0103 35.522 53.5756 36.017C54.3155 36.6543 55.2565 37.0053 56.2299 37.0072C56.6589 37.0118 57.0843 36.9292 57.4808 36.7642C57.8773 36.5992 58.2366 36.3553 58.5372 36.0471C58.8379 35.7389 59.0737 35.3728 59.2304 34.9706C59.3872 34.5684 59.4617 34.1385 59.4496 33.7067V5.65216C59.3686 4.58649 58.8911 3.59092 58.1126 2.8646C57.3341 2.13828 56.3121 1.73476 55.2509 1.73476C54.1898 1.73476 53.1678 2.13828 52.3893 2.8646C51.6108 3.59092 51.1333 4.58649 51.0523 5.65216V5.61915ZM125.603 3.61408L117.559 14.7534C117.067 15.3887 116.649 15.7435 116.231 15.7435C116.022 15.7439 115.821 15.6638 115.669 15.5196C115.516 15.3754 115.425 15.1781 115.412 14.9679V5.51189C115.397 4.97366 115.277 4.44376 115.057 3.95303C114.837 3.4623 114.522 3.02055 114.131 2.6535C113.74 2.28645 113.28 2.00142 112.778 1.81502C112.277 1.62862 111.743 1.54457 111.209 1.56775C110.674 1.53765 110.138 1.61696 109.634 1.80093C109.13 1.98489 108.668 2.2697 108.276 2.63819C107.884 3.00669 107.571 3.45126 107.354 3.94513C107.137 4.43899 107.022 4.97194 107.015 5.51189V48.0887C107.022 48.6287 107.137 49.1616 107.354 49.6555C107.571 50.1493 107.884 50.5939 108.276 50.9624C108.668 51.3309 109.13 51.6157 109.634 51.7997C110.138 51.9836 110.674 52.063 111.209 52.0329C111.743 52.056 112.277 51.972 112.778 51.7856C113.28 51.5992 113.74 51.3142 114.131 50.9471C114.522 50.5801 114.837 50.1383 115.057 49.6476C115.277 49.1569 115.397 48.6269 115.412 48.0887V24.8942C115.407 24.7911 115.424 24.6882 115.461 24.592C115.498 24.4957 115.555 24.4083 115.627 24.3354C115.7 24.2624 115.787 24.2054 115.882 24.1681C115.978 24.1308 116.08 24.1139 116.182 24.1186C116.674 24.1186 117.092 24.6137 117.444 25.0345L125.636 34.9361C126.546 35.9923 127.389 36.7679 128.995 36.7679C129.752 36.7876 130.499 36.5852 131.144 36.1853C131.789 35.7854 132.305 35.2053 132.629 34.5155C132.953 33.8257 133.071 33.056 132.968 32.3001C132.865 31.5441 132.547 30.8345 132.051 30.2576L123.195 19.96L132.502 7.91302C133.024 7.19381 133.31 6.3285 133.321 5.43762C133.295 4.40435 132.871 3.42167 132.139 2.69776C131.406 1.97386 130.423 1.56561 129.397 1.5595C128.65 1.5756 127.919 1.77398 127.265 2.1376C126.612 2.50123 126.055 3.01922 125.644 3.64709L125.603 3.61408ZM75.2364 4.47222C73.7699 4.47222 72.7213 1.72453 70.4848 1.72453C70.0716 1.71568 69.6609 1.79043 69.277 1.94435C68.893 2.09827 68.5436 2.32823 68.2495 2.62061C67.9554 2.91299 67.7225 3.26184 67.5647 3.64651C67.4069 4.03117 67.3273 4.44383 67.3307 4.86003V33.0548C67.4117 34.1205 67.8892 35.116 68.6677 35.8424C69.4461 36.5687 70.4682 36.9722 71.5293 36.9722C72.5905 36.9722 73.6125 36.5687 74.391 35.8424C75.1694 35.116 75.6469 34.1205 75.7279 33.0548V15.4382C75.7279 11.4858 78.1119 9.43952 81.5364 9.43952C83.9204 9.43952 85.3213 7.78925 85.3213 5.42937C85.3584 4.91571 85.2901 4.39984 85.1204 3.914C84.9507 3.42815 84.6834 2.98277 84.3351 2.60566C83.9868 2.22856 83.5651 1.92784 83.0962 1.72228C82.6274 1.51672 82.1215 1.41075 81.6101 1.41098C78.0382 1.41098 77.0633 4.43921 75.2364 4.43921V4.47222ZM144.127 25.6534C144.127 23.178 146.019 21.635 148.608 21.635H153.712V25.3728C153.785 27.8482 151.549 29.6718 148.747 29.6718C145.945 29.6718 144.127 27.7657 144.127 25.6534V25.6534ZM140.768 3.52332C139.129 4.34845 138.04 5.63565 138.04 7.46745C138.042 8.40122 138.411 9.29612 139.067 9.9564C139.722 10.6167 140.611 10.9886 141.538 10.9908C142.564 10.9585 143.569 10.6934 144.479 10.2151C145.845 9.58429 147.319 9.22565 148.821 9.15897C149.471 9.15893 150.115 9.28887 150.715 9.54128C151.315 9.79368 151.86 10.1635 152.317 10.6294C152.774 11.0952 153.135 11.6479 153.379 12.2552C153.622 12.8625 153.744 13.5125 153.736 14.1675V15.7188H148.821C142.521 15.7188 135.942 18.4665 135.942 25.9339C135.942 32.535 140.628 37.2877 146.928 37.2877C148.829 37.209 150.659 36.5435 152.172 35.3817C152.692 35.0098 153.293 34.7693 153.925 34.6803C155.465 34.6803 156.514 37.1557 158.84 37.1557C159.26 37.1768 159.679 37.1125 160.073 36.9666C160.467 36.8207 160.828 36.5962 161.134 36.3065C161.44 36.0168 161.685 35.668 161.854 35.2808C162.023 34.8936 162.112 34.4761 162.117 34.0532V14.1675C162.117 6.62581 156.161 1.41098 148.821 1.41098C146.016 1.51825 143.268 2.23904 140.768 3.52332V3.52332ZM91.0888 6.12248L91.3919 33.7644C91.4738 36.1986 92.9648 38.0221 95.1604 38.0799C96.2311 38.0561 97.25 37.611 97.9988 36.8399C98.7476 36.0687 99.1668 35.0329 99.1665 33.9542L100.92 6.36177C101.141 2.48365 99.1501 0.0907646 96.1435 0H96.0042C93.0713 0 91.0232 2.54141 91.0232 6.08123" fill="white"/>
</g>
<defs>
<clipPath id="clip0_3007_36424">
<rect width="162" height="68" fill="white"/>
</clipPath>
</defs>
</svg>
