<svg width="162" height="68" viewBox="0 0 162 68" fill="none" xmlns="http://www.w3.org/2000/svg">
<g clip-path="url(#clip0_3007_36429)">
<path d="M125.789 58.8922H125.047V61.6041C124.942 61.3952 124.78 61.2209 124.579 61.1021C124.378 60.9834 124.147 60.9251 123.913 60.9343C122.992 60.9343 122.372 61.6857 122.372 63.2295C122.372 64.7733 122.992 65.5248 123.913 65.5248C124.157 65.5304 124.398 65.4656 124.606 65.3382C124.814 65.2107 124.981 65.026 125.088 64.806V65.4676H125.797C125.797 65.1899 125.797 64.9122 125.797 64.6508L125.789 58.8922ZM125.047 63.2295C125.047 64.3486 124.745 64.9285 124.068 64.9285C123.392 64.9285 123.09 64.3486 123.09 63.2295C123.09 62.1105 123.392 61.5305 124.068 61.5305C124.745 61.5305 125.047 62.1105 125.047 63.2295ZM118.352 65.4676H119.086V62.7721C119.086 61.9553 119.453 61.5632 120.032 61.5632C120.611 61.5632 120.766 61.8736 120.766 62.5842V65.4676H121.508V62.3637C121.508 61.3753 120.978 60.9343 120.203 60.9343C119.962 60.9208 119.722 60.9838 119.519 61.1143C119.315 61.2448 119.158 61.4361 119.069 61.6612V61.6612V60.9914H118.36C118.36 61.31 118.36 61.6367 118.36 61.9553L118.352 65.4676ZM116.615 63.834C116.624 63.9775 116.603 64.1212 116.555 64.2566C116.507 64.392 116.431 64.5161 116.334 64.6215C116.236 64.7269 116.118 64.8114 115.987 64.8698C115.856 64.9282 115.714 64.9593 115.571 64.9612C115.464 64.9715 115.356 64.9569 115.255 64.9186C115.154 64.8803 115.064 64.8193 114.99 64.7403C114.917 64.6613 114.863 64.5665 114.832 64.4631C114.801 64.3598 114.794 64.2507 114.812 64.1444C114.812 63.6298 115.228 63.2132 116.093 63.2132C116.267 63.2039 116.441 63.2039 116.615 63.2132V63.834ZM114.551 61.9961C114.699 61.8472 114.874 61.7292 115.067 61.6493C115.26 61.5693 115.468 61.5289 115.677 61.5305C115.814 61.5168 115.952 61.5348 116.08 61.5829C116.209 61.6311 116.325 61.7082 116.419 61.8083C116.556 62.0213 116.617 62.2749 116.59 62.5271V62.7313H116.158C114.625 62.7313 114.054 63.3684 114.054 64.2342C114.039 64.4075 114.062 64.5819 114.122 64.7452C114.181 64.9086 114.276 65.057 114.398 65.1799C114.521 65.3029 114.669 65.3975 114.832 65.457C114.995 65.5166 115.17 65.5397 115.343 65.5248C115.592 65.5417 115.842 65.4888 116.064 65.372C116.286 65.2552 116.471 65.0791 116.598 64.8632V65.4676H117.267C117.267 65.3043 117.226 65.0429 117.226 64.7815V62.4454C117.247 62.2459 117.223 62.0445 117.157 61.8553C117.09 61.6661 116.983 61.4939 116.843 61.3508C116.515 61.0631 116.088 60.9138 115.652 60.9343C115.207 60.9352 114.772 61.0626 114.397 61.3018L114.551 61.9961ZM112.415 65.4676H113.157V58.8922H112.415V65.4676ZM108.876 65.2634C109.252 65.4431 109.665 65.5326 110.083 65.5248C110.272 65.5499 110.465 65.5321 110.647 65.4726C110.83 65.4131 110.996 65.3134 111.134 65.181C111.273 65.0485 111.38 64.8866 111.448 64.7072C111.516 64.5278 111.542 64.3355 111.526 64.1444C111.52 63.8835 111.43 63.6315 111.27 63.4256C111.11 63.2197 110.888 63.0708 110.637 63.0008L110.376 62.8946C109.887 62.7068 109.626 62.5026 109.626 62.1432C109.626 61.7838 109.879 61.5305 110.36 61.5305C110.661 61.5305 110.958 61.5945 111.232 61.7184V61.0895C110.929 60.9809 110.608 60.9283 110.286 60.9343C110.105 60.916 109.922 60.936 109.749 60.9929C109.576 61.0499 109.416 61.1425 109.281 61.2649C109.146 61.3872 109.038 61.5366 108.964 61.7033C108.89 61.8701 108.851 62.0505 108.851 62.233C108.851 62.7966 109.088 63.0498 109.724 63.3766L110.213 63.5971C110.629 63.785 110.784 63.9892 110.784 64.2996C110.784 64.61 110.498 64.9285 109.968 64.9285C109.594 64.9163 109.229 64.8004 108.916 64.5936L108.876 65.2634ZM104.888 65.4676H105.622V62.7721C105.622 61.9553 105.989 61.5632 106.568 61.5632C107.147 61.5632 107.302 61.8736 107.302 62.5842V65.4676H108.044V62.3637C108.044 61.3753 107.514 60.9343 106.739 60.9343C106.498 60.9208 106.258 60.9838 106.055 61.1143C105.851 61.2448 105.694 61.4361 105.605 61.6612V61.6612V60.9914H104.896C104.896 61.31 104.896 61.6367 104.896 61.9553L104.888 65.4676ZM101.552 62.8865C101.552 61.8409 101.993 61.4897 102.466 61.4897C102.939 61.4897 103.338 61.9553 103.338 62.8865H101.552ZM104.072 63.4501V63.058C104.072 61.7348 103.518 60.9343 102.507 60.9343C101.495 60.9343 100.786 61.8246 100.786 63.2295C100.786 64.6345 101.397 65.5248 102.58 65.5248C103.01 65.5269 103.435 65.4378 103.828 65.2634V64.5936C103.53 64.8188 103.172 64.9497 102.8 64.9694C101.985 64.9694 101.585 64.4793 101.585 63.4501H104.072ZM97.6706 62.8865C97.6706 61.8409 98.1028 61.4897 98.5758 61.4897C99.0488 61.4897 99.4565 61.9553 99.4565 62.8865H97.6706ZM100.19 63.4501V63.058C100.19 61.7348 99.6278 60.9343 98.6247 60.9343C97.6216 60.9343 96.9203 61.8246 96.9203 63.2295C96.9203 64.6345 97.5319 65.5248 98.7144 65.5248C99.1467 65.5268 99.5746 65.4378 99.9703 65.2634L99.9295 64.5936C99.6344 64.8173 99.2796 64.9481 98.9101 64.9694C98.0946 64.9694 97.695 64.4793 97.695 63.4501H100.19ZM96.0477 60.9996H95.2893V63.6951C95.2893 64.5119 94.9223 64.904 94.3433 64.904C93.7643 64.904 93.6094 64.5936 93.6094 63.883V60.9914H92.8754V64.0954C92.8754 65.0756 93.3973 65.5248 94.1721 65.5248C94.4133 65.5383 94.6526 65.4753 94.8561 65.3448C95.0596 65.2143 95.2169 65.0229 95.3056 64.7978V64.7978V65.4676H96.1048C96.1048 65.1491 96.1048 64.8223 96.1048 64.5038L96.0477 60.9996ZM88.2352 62.5107C88.2352 60.6239 88.9202 59.9541 89.7276 59.9541C90.7551 59.9541 91.1465 61.1466 91.1465 62.4045C91.1465 64.2832 90.4615 64.953 89.6542 64.953C88.6266 64.953 88.2352 63.7605 88.2352 62.5026V62.5107ZM91.8234 66.6357L90.6572 65.3369C91.4728 64.9285 91.9457 63.9402 91.9457 62.38C91.9457 60.485 91.0813 59.317 89.7276 59.317C88.3738 59.317 87.436 60.387 87.436 62.5026C87.436 64.3894 88.3004 65.5575 89.6542 65.5575H89.8173C89.8661 65.5614 89.9152 65.5614 89.9641 65.5575L90.8856 66.5948L91.8234 66.6357ZM84.8346 61.0241H84.1006L83.1709 64.6753L82.1679 61.0241H81.4258L82.8366 65.5656L82.6572 66.2518C82.5348 66.7174 82.3799 66.8154 82.1679 66.8154C82.0299 66.8135 81.8938 66.7829 81.7683 66.7255L81.7275 67.3953C81.891 67.4299 82.0578 67.4463 82.225 67.4443C82.7877 67.4443 83.1057 67.1748 83.3259 66.407L84.8346 61.0241ZM80.8875 61.8409C80.8875 61.5714 80.8875 61.2855 80.8875 61.0241H80.178V61.6776C80.0733 61.4724 79.9164 61.2987 79.723 61.1739C79.5297 61.0491 79.3069 60.9777 79.0771 60.9669C78.0822 60.9669 77.4461 61.7184 77.4461 63.2622C77.4461 64.806 78.0659 65.5575 78.9874 65.5575C79.2338 65.5552 79.4746 65.4836 79.6823 65.3507C79.89 65.2178 80.0561 65.029 80.1617 64.806V64.806V65.5085C80.1878 65.6818 80.1738 65.8589 80.1206 66.026C80.0675 66.193 79.9767 66.3456 79.8554 66.4719C79.734 66.5983 79.5852 66.6949 79.4206 66.7545C79.2559 66.814 79.0798 66.8349 78.9059 66.8154C78.4705 66.7961 78.0482 66.6608 77.6826 66.4233V67.1748C78.1006 67.3332 78.541 67.4242 78.9874 67.4443C79.2317 67.4726 79.4791 67.4478 79.713 67.3718C79.9468 67.2957 80.1615 67.1701 80.3426 67.0035C80.5237 66.8368 80.6668 66.6331 80.7622 66.4062C80.8576 66.1792 80.9032 65.9343 80.8957 65.6882L80.8875 61.8409ZM78.1637 63.2295C78.1637 62.1105 78.4736 61.5305 79.1423 61.5305C79.8111 61.5305 80.121 62.1105 80.121 63.2295C80.121 64.3486 79.8192 64.9285 79.1423 64.9285C78.4655 64.9285 78.1637 64.3486 78.1637 63.2295ZM75.0567 65.4676H75.7906V63.0988C75.7906 62.1268 76.1902 61.6367 76.7611 61.6367C76.856 61.6284 76.9515 61.6284 77.0465 61.6367V60.9098C76.7801 60.8753 76.51 60.9315 76.2793 61.0693C76.0486 61.207 75.8708 61.4184 75.7743 61.6694V61.6694V60.9669H75.0648C75.0648 61.2855 75.0648 61.6122 75.0648 61.9308L75.0567 65.4676ZM71.7213 62.8865C71.7213 61.8409 72.1616 61.4897 72.6346 61.4897C73.1076 61.4897 73.5072 61.9553 73.5072 62.8865H71.7213ZM74.2412 63.4501V63.058C74.2412 61.7348 73.6785 60.9343 72.6754 60.9343C71.6723 60.9343 70.9466 61.8246 70.9466 63.2295C70.9466 64.6345 71.5663 65.5248 72.7407 65.5248C73.1729 65.5268 73.6008 65.4378 73.9965 65.2634V64.5936C73.6984 64.8175 73.341 64.9482 72.969 64.9694C72.1535 64.9694 71.7539 64.4793 71.7539 63.4501H74.2412ZM66.9506 65.4676H67.6845V62.7721C67.6845 61.9553 68.0515 61.5632 68.6305 61.5632C69.2095 61.5632 69.3645 61.8736 69.3645 62.5842V65.4676H70.0984V62.3637C70.0984 61.3753 69.5765 60.9343 68.7936 60.9343C68.5537 60.9225 68.3162 60.9863 68.1144 61.1167C67.9125 61.2471 67.7565 61.4375 67.6682 61.6612V61.6612V60.9914H66.9587C66.9587 61.31 66.9587 61.6367 66.9587 61.9553L66.9506 65.4676ZM63.0362 65.4676H65.9964V64.7978H63.8272V62.6251H65.8089V61.9553H63.8272V60.0113H65.9312V59.3415H63.0606L63.0362 65.4676ZM58.6732 65.4676H59.4072V61.5877H60.2227V60.9914H59.4072V60.0603C59.4072 59.6192 59.5295 59.3905 59.9373 59.3905C60.0863 59.3803 60.2346 59.4174 60.3613 59.4967V58.8595C60.1713 58.8163 59.9771 58.7944 59.7823 58.7942C58.9668 58.7942 58.6651 59.2761 58.6651 60.0031V60.9996H57.9556V61.5959H58.6651L58.6732 65.4676ZM53.9433 63.2295C53.9433 64.6345 54.5631 65.5248 55.7374 65.5248C56.9117 65.5248 57.5397 64.6345 57.5397 63.2295C57.5397 61.8246 56.9607 60.9343 55.7374 60.9343C54.5142 60.9343 53.9433 61.8246 53.9433 63.2295ZM54.7588 63.2295C54.7588 62.1105 55.085 61.5305 55.7782 61.5305C56.4714 61.5305 56.8057 62.1105 56.8057 63.2295C56.8057 64.3486 56.4388 64.9612 55.7374 64.9612C55.0361 64.9612 54.718 64.3813 54.718 63.2622L54.7588 63.2295ZM51.456 64.8468C51.3177 64.92 51.164 64.9592 51.0075 64.9612C50.6732 64.9612 50.5427 64.7733 50.5427 64.2587V61.5877H51.456V60.9914H50.5264V59.8642L49.7843 60.0603V60.9669H49.0829V61.5632H49.7843V64.4384C49.7843 65.2553 50.1512 65.5003 50.8199 65.5003C51.0315 65.497 51.2409 65.4584 51.4397 65.3859L51.456 64.8468ZM46.8974 65.5003H47.6313V63.1315C47.6313 62.1595 48.0391 61.6694 48.6018 61.6694C48.6967 61.6611 48.7922 61.6611 48.8872 61.6694V60.9424C48.6208 60.908 48.3507 60.9642 48.12 61.1019C47.8893 61.2397 47.7115 61.451 47.615 61.7021V61.7021V60.9996H46.8484C46.8484 61.3182 46.8484 61.6449 46.8484 61.9635L46.8974 65.5003ZM45.1522 63.8667C45.1566 64.0081 45.1326 64.1491 45.0818 64.2812C45.031 64.4132 44.9543 64.5338 44.8563 64.6358C44.7583 64.7378 44.6409 64.8191 44.5111 64.875C44.3812 64.9309 44.2415 64.9602 44.1002 64.9612C43.993 64.9715 43.8849 64.9569 43.7842 64.9186C43.6835 64.8803 43.593 64.8193 43.5197 64.7403C43.4463 64.6613 43.3921 64.5665 43.3613 64.4631C43.3304 64.3598 43.3238 64.2507 43.3418 64.1444C43.3418 63.6298 43.7577 63.2132 44.6221 63.2132C44.7933 63.2038 44.9648 63.2038 45.1359 63.2132L45.1522 63.8667ZM43.0971 61.9961C43.247 61.8442 43.4263 61.7245 43.6241 61.6444C43.8218 61.5644 44.0338 61.5256 44.247 61.5305C44.3837 61.5168 44.5216 61.5348 44.6503 61.5829C44.779 61.6311 44.8949 61.7082 44.9891 61.8083C45.1236 62.0223 45.1811 62.2759 45.1522 62.5271V62.7313H44.7281C43.195 62.7313 42.6241 63.3684 42.6241 64.2342C42.6092 64.4075 42.6323 64.5819 42.6918 64.7452C42.7513 64.9086 42.8457 65.057 42.9685 65.1799C43.0912 65.3029 43.2393 65.3975 43.4024 65.457C43.5655 65.5166 43.7397 65.5397 43.9126 65.5248C44.1626 65.5417 44.4123 65.4888 44.6341 65.372C44.8558 65.2552 45.0408 65.0791 45.1685 64.8632V64.8632V65.4676H45.8372C45.8372 65.3043 45.8372 65.0429 45.8372 64.7815V62.4454C45.8576 62.2459 45.8338 62.0445 45.7675 61.8553C45.7013 61.6661 45.5942 61.4939 45.4539 61.3508C45.1257 61.0631 44.699 60.9138 44.2633 60.9343C43.8184 60.9352 43.3828 61.0626 43.0074 61.3018L43.0971 61.9961ZM40.0064 59.9786H40.4468C41.2623 59.9786 41.7108 60.3053 41.7108 61.1548C41.7108 61.8328 41.3683 62.2739 40.4304 62.2739H40.0064V59.9786ZM39.2398 65.4676H40.0064V62.9028H40.5283C41.8249 62.9028 42.51 62.2739 42.51 61.0813C42.5208 60.8485 42.4836 60.616 42.4008 60.3981C42.3181 60.1803 42.1914 59.9819 42.0288 59.8152C41.8525 59.6502 41.6443 59.5231 41.4172 59.4416C41.19 59.3601 40.9485 59.326 40.7077 59.3415H39.2398V65.4676Z" fill="black"/>
<path d="M101.031 6.27493L99.2086 33.5886C99.1041 35.7587 97.4098 37.7103 95.2171 37.6486C93.0243 37.5869 91.5483 35.7777 91.4676 33.3749L91.1591 6.0185C91.1591 2.46184 93.2711 -0.0833841 96.2707 0.00208984C99.2703 0.0875638 101.259 2.4381 101.031 6.27493ZM28.5907 5.48667C28.5907 3.25485 26.5689 1.71632 24.2623 1.71632C22.2404 1.71632 20.7074 2.83697 20.2186 4.65092L15.3348 21.7457L14.3571 25.6538H14.2194L13.2417 21.7505L8.35795 4.65567C8.16998 3.80616 7.69271 3.04843 7.00785 2.51222C6.32299 1.976 5.47313 1.69465 4.60376 1.71632C1.81303 1.71632 0 3.39255 0 5.62912C0.0309894 6.05286 0.102509 6.47266 0.213577 6.88274L9.8957 35.0796L8.918 37.7341C8.14912 39.757 6.68257 41.7134 5.22075 42.2025C3.54537 42.758 2.15 44.1019 2.15 46.2482C2.15 48.6225 3.68301 50.0186 6.3361 50.0186C11.4287 50.0186 15.1971 45.0611 16.8725 40.2461L28.3819 6.88274C28.4863 6.42325 28.5561 5.95659 28.5907 5.48667V5.48667ZM59.7064 33.3369V5.54365C59.7064 3.44954 57.9599 1.63559 55.5203 1.63559C53.0808 1.63559 51.3343 3.37831 51.3343 5.54365V24.3337C51.3547 24.9994 51.2386 25.6622 50.9932 26.2813C50.7478 26.9004 50.3782 27.4626 49.9073 27.9333C49.4363 28.4041 48.874 28.7733 48.255 29.0182C47.636 29.2632 46.9734 29.3787 46.3081 29.3576C43.4604 29.3576 41.4291 27.6149 41.4291 24.3337V5.54365C41.4291 3.44954 39.6825 1.63559 37.243 1.63559C34.8034 1.63559 33.0806 3.3973 33.0806 5.54365V24.5379C33.0806 31.7272 37.9644 37.0313 43.8923 37.0313C45.9853 37.0313 47.5895 36.1243 49.0561 35.2173C49.6826 34.866 50.7315 34.1014 51.5668 34.1014C52.4021 34.1014 53.3086 35.1461 53.8687 35.6352C54.6066 36.2701 55.5486 36.6174 56.5218 36.6134C56.9481 36.6149 57.3703 36.5305 57.7633 36.3652C58.1563 36.1999 58.5119 35.9572 58.8091 35.6514C59.1063 35.3456 59.339 34.9831 59.4931 34.5855C59.6473 34.1878 59.7198 33.7632 59.7064 33.3369V33.3369ZM162 14.0008V33.6883C161.996 34.1077 161.906 34.5219 161.737 34.9058C161.568 35.2897 161.324 35.6354 161.018 35.9221C160.712 36.2088 160.351 36.4304 159.957 36.5737C159.563 36.717 159.144 36.779 158.725 36.7559C156.423 36.7559 155.374 34.3151 153.841 34.3151C153.212 34.4044 152.613 34.6438 152.095 35.0132C150.562 35.9914 149.024 36.9126 146.874 36.9126C140.595 36.9126 135.92 32.2353 135.92 25.6728C135.92 18.2745 142.479 15.5536 148.735 15.5536H153.633V14.0008C153.644 13.3533 153.526 12.71 153.286 12.1086C153.045 11.5073 152.688 10.9599 152.233 10.4987C151.779 10.0374 151.237 9.67152 150.64 9.42244C150.042 9.17336 149.401 9.04608 148.754 9.04808C147.257 9.11492 145.787 9.46961 144.425 10.0928C143.519 10.5664 142.518 10.8293 141.497 10.862C140.572 10.8595 139.686 10.491 139.033 9.83701C138.379 9.18301 138.011 8.29672 138.008 7.37184C138.008 5.55789 139.052 4.29953 140.728 3.46378C142.541 2.55681 145.683 1.36967 148.754 1.36967C156.072 1.36967 162 6.53609 162 14.0008ZM153.633 21.3991H148.54C145.958 21.3991 144.074 22.9376 144.074 25.3783C144.074 27.4725 145.972 29.3576 148.678 29.3576C151.383 29.3576 153.699 27.5437 153.628 25.0839L153.633 21.3991ZM133.324 5.3632C133.298 4.34309 132.877 3.37285 132.15 2.65707C131.423 1.94128 130.447 1.5359 129.427 1.52637C128.677 1.52754 127.939 1.71254 127.277 2.06518C126.615 2.41783 126.05 2.92738 125.63 3.54926L117.628 14.5659C117.154 15.1927 116.722 15.5156 116.304 15.5156C116.199 15.522 116.093 15.5072 115.993 15.472C115.893 15.4368 115.801 15.3819 115.723 15.3107C115.645 15.2394 115.581 15.1532 115.537 15.0571C115.492 14.961 115.468 14.8569 115.464 14.7511V5.43443C115.464 3.34032 113.718 1.52637 111.278 1.52637C108.838 1.52637 107.092 3.26909 107.092 5.43443V47.5921C107.092 49.7574 108.838 51.5001 111.278 51.5001C113.718 51.5001 115.464 49.6862 115.464 47.5921V24.6281C115.459 24.526 115.476 24.4241 115.513 24.3288C115.55 24.2336 115.607 24.1472 115.679 24.0751C115.751 24.0031 115.838 23.947 115.934 23.9106C116.029 23.8742 116.131 23.8581 116.233 23.8636C116.708 23.8636 117.139 24.3384 117.486 24.7705L125.63 34.6095C126.537 35.659 127.377 36.4235 128.981 36.4235C129.505 36.4299 130.024 36.3314 130.509 36.1339C130.994 35.9364 131.434 35.6439 131.804 35.2736C132.174 34.9032 132.467 34.4625 132.664 33.9774C132.862 33.4923 132.96 32.9727 132.954 32.4489C132.927 31.5232 132.584 30.6346 131.981 29.9322L123.21 19.7418L132.484 7.80871C133.011 7.10093 133.305 6.246 133.324 5.3632V5.3632ZM81.7523 1.36967C78.1927 1.36967 77.2149 4.37076 75.4019 4.37076C73.9354 4.37076 72.8912 1.64984 70.6558 1.64984C70.2413 1.64145 69.8293 1.71688 69.4447 1.87159C69.06 2.0263 68.7105 2.25712 68.4171 2.5502C68.1238 2.84329 67.8925 3.19261 67.7373 3.57725C67.5821 3.96188 67.5061 4.3739 67.5138 4.78863V32.7101C67.5138 34.8707 69.2604 36.6182 71.6999 36.6182C74.1394 36.6182 75.886 34.8042 75.886 32.7101V15.2592C75.886 11.3511 78.2591 9.32824 81.6763 9.32824C84.0494 9.32824 85.4448 7.72323 85.4448 5.34896C85.4495 3.11239 83.9829 1.36967 81.7523 1.36967ZM94.7804 42.6536C93.5217 42.6536 92.3145 43.1539 91.4244 44.0444C90.5343 44.9349 90.0343 46.1427 90.0343 47.4021C90.0343 48.6615 90.5343 49.8693 91.4244 50.7599C92.3145 51.6504 93.5217 52.1507 94.7804 52.1507C96.0392 52.1507 97.2464 51.6504 98.1364 50.7599C99.0265 49.8693 99.5266 48.6615 99.5266 47.4021C99.5266 46.1427 99.0265 44.9349 98.1364 44.0444C97.2464 43.1539 96.0392 42.6536 94.7804 42.6536Z" fill="url(#paint0_linear_3007_36429)"/>
</g>
<defs>
<linearGradient id="paint0_linear_3007_36429" x1="1.02042" y1="43.0145" x2="157.864" y2="-2.23476" gradientUnits="userSpaceOnUse">
<stop stop-color="#662483"/>
<stop offset="0.56" stop-color="#EA5153"/>
<stop offset="1" stop-color="#F08100"/>
</linearGradient>
<clipPath id="clip0_3007_36429">
<rect width="162" height="67.3151" fill="white"/>
</clipPath>
</defs>
</svg>
