<svg width="438" height="182" viewBox="0 0 438 182" fill="none" xmlns="http://www.w3.org/2000/svg">
<g clip-path="url(#clip0_2889_36316)">
<path d="M340.096 159.227H338.09V166.559C337.807 165.994 337.367 165.523 336.824 165.202C336.28 164.881 335.656 164.723 335.025 164.748C332.534 164.748 330.858 166.78 330.858 170.954C330.858 175.128 332.534 177.16 335.025 177.16C335.685 177.175 336.335 177 336.898 176.655C337.461 176.311 337.913 175.811 338.2 175.216V177.005H340.118C340.118 176.254 340.118 175.503 340.118 174.797L340.096 159.227ZM338.09 170.954C338.09 173.98 337.274 175.548 335.444 175.548C333.614 175.548 332.798 173.98 332.798 170.954C332.798 167.928 333.614 166.36 335.444 166.36C337.274 166.36 338.09 167.928 338.09 170.954ZM319.988 177.005H321.972V169.717C321.972 167.509 322.965 166.449 324.53 166.449C326.095 166.449 326.514 167.288 326.514 169.209V177.005H328.521V168.613C328.521 165.941 327.088 164.748 324.993 164.748C324.341 164.712 323.694 164.882 323.144 165.235C322.593 165.588 322.168 166.105 321.928 166.714V166.714V164.903H320.01C320.01 165.764 320.01 166.647 320.01 167.509L319.988 177.005ZM315.292 172.588C315.315 172.976 315.26 173.365 315.13 173.731C314.999 174.097 314.796 174.433 314.532 174.718C314.268 175.002 313.949 175.231 313.595 175.389C313.24 175.547 312.857 175.631 312.469 175.636C312.179 175.664 311.887 175.624 311.615 175.521C311.343 175.417 311.098 175.252 310.9 175.039C310.701 174.825 310.555 174.569 310.471 174.289C310.388 174.01 310.37 173.715 310.419 173.427C310.419 172.036 311.543 170.91 313.88 170.91C314.35 170.885 314.822 170.885 315.292 170.91V172.588ZM309.713 167.619C310.111 167.216 310.585 166.898 311.107 166.681C311.63 166.465 312.191 166.356 312.756 166.36C313.125 166.323 313.499 166.372 313.846 166.502C314.194 166.632 314.508 166.841 314.762 167.111C315.134 167.687 315.297 168.373 315.225 169.055V169.607H314.057C309.912 169.607 308.368 171.329 308.368 173.67C308.328 174.139 308.39 174.61 308.551 175.052C308.712 175.494 308.967 175.895 309.299 176.227C309.631 176.56 310.032 176.815 310.473 176.976C310.914 177.137 311.384 177.2 311.852 177.16C312.528 177.205 313.203 177.062 313.802 176.747C314.402 176.431 314.902 175.954 315.247 175.371V177.005H317.055C317.055 176.563 316.945 175.857 316.945 175.15V168.834C317 168.295 316.936 167.75 316.757 167.238C316.578 166.727 316.288 166.261 315.909 165.875C315.021 165.097 313.868 164.693 312.69 164.748C311.487 164.751 310.309 165.095 309.294 165.742L309.713 167.619ZM303.936 177.005H305.943V159.227H303.936V177.005ZM294.367 176.453C295.386 176.939 296.503 177.181 297.631 177.16C298.144 177.228 298.666 177.179 299.158 177.018C299.65 176.858 300.1 176.588 300.475 176.23C300.849 175.872 301.139 175.434 301.322 174.949C301.505 174.464 301.577 173.944 301.533 173.427C301.516 172.722 301.274 172.041 300.841 171.484C300.408 170.927 299.808 170.525 299.13 170.336L298.424 170.048C297.101 169.541 296.396 168.988 296.396 168.017C296.396 167.045 297.079 166.36 298.38 166.36C299.194 166.36 299.998 166.533 300.739 166.868V165.168C299.919 164.874 299.053 164.732 298.182 164.748C297.692 164.699 297.196 164.753 296.728 164.907C296.26 165.061 295.83 165.311 295.464 165.642C295.098 165.973 294.806 166.377 294.606 166.827C294.406 167.278 294.302 167.766 294.301 168.26C294.301 169.783 294.941 170.468 296.66 171.351L297.983 171.948C299.108 172.456 299.527 173.008 299.527 173.847C299.527 174.686 298.755 175.548 297.322 175.548C296.308 175.515 295.324 175.201 294.478 174.642L294.367 176.453ZM283.585 177.005H285.57V169.717C285.57 167.509 286.562 166.449 288.127 166.449C289.693 166.449 290.112 167.288 290.112 169.209V177.005H292.118V168.613C292.118 165.941 290.685 164.748 288.59 164.748C287.938 164.712 287.291 164.882 286.741 165.235C286.191 165.588 285.766 166.105 285.526 166.714V166.714V164.903H283.607C283.607 165.764 283.607 166.647 283.607 167.509L283.585 177.005ZM274.567 170.026C274.567 167.2 275.758 166.25 277.037 166.25C278.316 166.25 279.396 167.509 279.396 170.026H274.567ZM281.381 171.55V170.49C281.381 166.912 279.881 164.748 277.147 164.748C274.413 164.748 272.495 167.155 272.495 170.954C272.495 174.752 274.149 177.16 277.346 177.16C278.507 177.165 279.657 176.925 280.719 176.453V174.642C279.915 175.251 278.947 175.605 277.941 175.658C275.736 175.658 274.656 174.333 274.656 171.55H281.381ZM264.072 170.026C264.072 167.2 265.241 166.25 266.52 166.25C267.799 166.25 268.901 167.509 268.901 170.026H264.072ZM270.885 171.55V170.49C270.885 166.912 269.364 164.748 266.652 164.748C263.94 164.748 262.044 167.155 262.044 170.954C262.044 174.752 263.697 177.16 266.895 177.16C268.063 177.165 269.22 176.924 270.29 176.453L270.18 174.642C269.382 175.247 268.423 175.6 267.424 175.658C265.219 175.658 264.138 174.333 264.138 171.55H270.885ZM259.685 164.925H257.634V172.213C257.634 174.421 256.642 175.481 255.076 175.481C253.511 175.481 253.092 174.642 253.092 172.721V164.903H251.108V173.295C251.108 175.945 252.519 177.16 254.613 177.16C255.266 177.196 255.913 177.026 256.463 176.673C257.013 176.32 257.438 175.803 257.678 175.194V175.194V177.005H259.839C259.839 176.144 259.839 175.26 259.839 174.399L259.685 164.925ZM238.562 169.011C238.562 163.909 240.414 162.098 242.597 162.098C245.375 162.098 246.433 165.322 246.433 168.723C246.433 173.803 244.581 175.614 242.398 175.614C239.62 175.614 238.562 172.389 238.562 168.988V169.011ZM248.263 180.163L245.11 176.652C247.315 175.548 248.594 172.875 248.594 168.657C248.594 163.534 246.257 160.375 242.597 160.375C238.937 160.375 236.401 163.269 236.401 168.988C236.401 174.09 238.738 177.248 242.398 177.248H242.839C242.971 177.259 243.104 177.259 243.236 177.248L245.728 180.053L248.263 180.163ZM229.368 164.991H227.383L224.87 174.863L222.158 164.991H220.151L223.966 177.27L223.48 179.125C223.15 180.384 222.731 180.649 222.158 180.649C221.785 180.644 221.417 180.561 221.077 180.406L220.967 182.217C221.409 182.31 221.86 182.355 222.312 182.35C223.833 182.35 224.693 181.621 225.288 179.545L229.368 164.991ZM218.696 167.2C218.696 166.471 218.696 165.698 218.696 164.991H216.778V166.758C216.495 166.203 216.07 165.733 215.547 165.396C215.025 165.059 214.422 164.866 213.801 164.837C211.111 164.837 209.391 166.868 209.391 171.042C209.391 175.216 211.067 177.248 213.559 177.248C214.225 177.242 214.876 177.048 215.437 176.689C215.999 176.33 216.448 175.819 216.734 175.216V175.216V177.115C216.804 177.584 216.766 178.063 216.622 178.515C216.479 178.966 216.233 179.379 215.905 179.72C215.577 180.062 215.175 180.323 214.73 180.484C214.285 180.645 213.808 180.702 213.338 180.649C212.161 180.597 211.019 180.231 210.031 179.589V181.621C211.161 182.049 212.352 182.295 213.559 182.35C214.219 182.426 214.888 182.359 215.52 182.153C216.152 181.948 216.733 181.608 217.223 181.158C217.712 180.707 218.099 180.156 218.357 179.543C218.615 178.929 218.738 178.267 218.718 177.601L218.696 167.2ZM211.332 170.954C211.332 167.928 212.169 166.36 213.977 166.36C215.785 166.36 216.623 167.928 216.623 170.954C216.623 173.98 215.808 175.548 213.977 175.548C212.147 175.548 211.332 173.98 211.332 170.954ZM202.931 177.005H204.915V170.601C204.915 167.973 205.996 166.647 207.539 166.647C207.796 166.625 208.054 166.625 208.311 166.647V164.682C207.591 164.589 206.86 164.741 206.237 165.113C205.613 165.486 205.132 166.057 204.871 166.736V166.736V164.837H202.953C202.953 165.698 202.953 166.581 202.953 167.443L202.931 177.005ZM193.913 170.026C193.913 167.2 195.104 166.25 196.383 166.25C197.661 166.25 198.742 167.509 198.742 170.026H193.913ZM200.726 171.55V170.49C200.726 166.912 199.205 164.748 196.493 164.748C193.781 164.748 191.818 167.155 191.818 170.954C191.818 174.752 193.494 177.16 196.669 177.16C197.838 177.165 198.995 176.924 200.065 176.453V174.642C199.259 175.247 198.292 175.601 197.287 175.658C195.082 175.658 194.001 174.333 194.001 171.55H200.726ZM181.015 177.005H182.999V169.717C182.999 167.509 183.991 166.449 185.557 166.449C187.122 166.449 187.541 167.288 187.541 169.209V177.005H189.525V168.613C189.525 165.941 188.114 164.748 185.998 164.748C185.349 164.717 184.707 164.889 184.161 165.242C183.615 165.594 183.194 166.109 182.955 166.714V166.714V164.903H181.037C181.037 165.764 181.037 166.647 181.037 167.509L181.015 177.005ZM170.431 177.005H178.435V175.194H172.57V169.32H177.928V167.509H172.57V162.253H178.258V160.442H170.497L170.431 177.005ZM158.635 177.005H160.619V166.515H162.824V164.903H160.619V162.385C160.619 161.193 160.95 160.574 162.053 160.574C162.455 160.547 162.857 160.647 163.199 160.861V159.139C162.685 159.022 162.16 158.963 161.634 158.962C159.429 158.962 158.613 160.265 158.613 162.231V164.925H156.695V166.537H158.613L158.635 177.005ZM145.847 170.954C145.847 174.752 147.522 177.16 150.697 177.16C153.873 177.16 155.57 174.752 155.57 170.954C155.57 167.155 154.005 164.748 150.697 164.748C147.39 164.748 145.847 167.155 145.847 170.954ZM148.052 170.954C148.052 167.928 148.934 166.36 150.808 166.36C152.682 166.36 153.586 167.928 153.586 170.954C153.586 173.98 152.594 175.636 150.697 175.636C148.801 175.636 147.941 174.068 147.941 171.042L148.052 170.954ZM139.122 175.327C138.748 175.525 138.332 175.631 137.909 175.636C137.005 175.636 136.652 175.128 136.652 173.737V166.515H139.122V164.903H136.608V161.855L134.602 162.385V164.837H132.706V166.449H134.602V174.222C134.602 176.431 135.594 177.093 137.402 177.093C137.974 177.085 138.54 176.98 139.078 176.784L139.122 175.327ZM126.797 177.093H128.781V170.689C128.781 168.061 129.883 166.736 131.405 166.736C131.662 166.713 131.92 166.713 132.177 166.736V164.77C131.456 164.677 130.726 164.829 130.102 165.202C129.478 165.574 128.998 166.145 128.737 166.824V166.824V164.925H126.664C126.664 165.786 126.664 166.67 126.664 167.531L126.797 177.093ZM122.078 172.677C122.09 173.059 122.025 173.44 121.888 173.797C121.75 174.154 121.543 174.48 121.278 174.756C121.013 175.032 120.696 175.252 120.345 175.403C119.994 175.554 119.616 175.633 119.234 175.636C118.944 175.664 118.652 175.624 118.38 175.521C118.107 175.417 117.863 175.252 117.664 175.039C117.466 174.825 117.319 174.569 117.236 174.289C117.153 174.01 117.135 173.715 117.183 173.427C117.183 172.036 118.308 170.91 120.645 170.91C121.108 170.884 121.571 170.884 122.034 170.91L122.078 172.677ZM116.522 167.619C116.927 167.208 117.412 166.885 117.947 166.668C118.481 166.452 119.054 166.347 119.631 166.36C120 166.323 120.373 166.372 120.721 166.502C121.069 166.632 121.382 166.841 121.637 167.111C122.001 167.69 122.156 168.375 122.078 169.055V169.607H120.932C116.786 169.607 115.243 171.329 115.243 173.67C115.203 174.139 115.265 174.61 115.426 175.052C115.587 175.494 115.842 175.895 116.174 176.227C116.506 176.56 116.906 176.815 117.347 176.976C117.788 177.137 118.259 177.2 118.727 177.16C119.403 177.205 120.078 177.062 120.677 176.747C121.277 176.431 121.777 175.954 122.122 175.371V175.371V177.005H123.93C123.93 176.563 123.93 175.857 123.93 175.15V168.834C123.985 168.295 123.921 167.75 123.742 167.238C123.563 166.727 123.273 166.261 122.894 165.875C122.007 165.097 120.853 164.693 119.675 164.748C118.472 164.751 117.294 165.095 116.279 165.742L116.522 167.619ZM108.165 162.164H109.356C111.561 162.164 112.774 163.048 112.774 165.344C112.774 167.178 111.848 168.37 109.312 168.37H108.165V162.164ZM106.093 177.005H108.165V170.071H109.577C113.082 170.071 114.934 168.37 114.934 165.146C114.964 164.516 114.863 163.888 114.639 163.299C114.416 162.71 114.073 162.173 113.634 161.723C113.157 161.276 112.594 160.933 111.98 160.712C111.365 160.492 110.713 160.4 110.062 160.442H106.093V177.005Z" fill="black"/>
<path d="M273.158 16.9655L268.231 90.8136C267.948 96.6809 263.367 101.958 257.439 101.791C251.51 101.624 247.519 96.7322 247.301 90.2359L246.467 16.2723C246.467 6.65608 252.178 -0.225446 260.287 0.00565032C268.397 0.236747 273.774 6.59189 273.158 16.9655ZM77.3009 14.8343C77.3009 8.80014 71.8344 4.64041 65.598 4.64041C60.1315 4.64041 55.9867 7.67034 54.665 12.5747L41.4607 58.794L38.8173 69.3602H38.4451L35.8017 58.8068L22.5974 12.5876C22.0892 10.2907 20.7988 8.24206 18.9472 6.79229C17.0955 5.34253 14.7977 4.58182 12.4472 4.64041C4.90188 4.64041 0 9.17246 0 15.2195C0.0837861 16.3652 0.277154 17.5001 0.577448 18.6089L26.755 94.845L24.1116 102.022C22.0328 107.491 18.0677 112.781 14.1154 114.103C9.58562 115.605 5.81297 119.238 5.81297 125.042C5.81297 131.461 9.95776 135.235 17.1309 135.235C30.8998 135.235 41.0886 121.832 45.6183 108.813L76.7363 18.6089C77.0184 17.3666 77.2071 16.1048 77.3009 14.8343V14.8343ZM161.429 90.1332V14.9884C161.429 9.32653 156.706 4.42215 150.111 4.42215C143.515 4.42215 138.793 9.13395 138.793 14.9884V65.791C138.848 67.5909 138.534 69.383 137.87 71.0568C137.207 72.7307 136.208 74.2508 134.934 75.5235C133.661 76.7961 132.141 77.7944 130.467 78.4567C128.794 79.119 127.002 79.4313 125.203 79.3744C117.504 79.3744 112.012 74.6626 112.012 65.791V14.9884C112.012 9.32653 107.29 4.42215 100.694 4.42215C94.0982 4.42215 89.4401 9.1853 89.4401 14.9884V66.3431C89.4401 85.7809 102.644 100.122 118.672 100.122C124.331 100.122 128.668 97.6695 132.633 95.2173C134.327 94.2672 137.163 92.2002 139.421 92.2002C141.68 92.2002 144.131 95.0247 145.645 96.3471C147.64 98.0636 150.187 99.0026 152.818 98.9919C153.971 98.9959 155.112 98.7676 156.175 98.3208C157.237 97.8739 158.199 97.2176 159.002 96.3909C159.806 95.5641 160.435 94.584 160.852 93.5089C161.269 92.4338 161.465 91.2857 161.429 90.1332V90.1332ZM438 37.8541V91.0832C437.988 92.2172 437.746 93.337 437.29 94.3749C436.833 95.4129 436.171 96.3477 435.344 97.1227C434.516 97.8978 433.541 98.4971 432.475 98.8845C431.41 99.272 430.278 99.4395 429.146 99.377C422.922 99.377 420.086 92.7779 415.942 92.7779C414.239 93.0193 412.619 93.6666 411.219 94.6652C407.075 97.31 402.917 99.8007 397.104 99.8007C380.127 99.8007 367.487 87.1546 367.487 69.4115C367.487 49.4089 385.221 42.0523 402.134 42.0523H415.377V37.8541C415.408 36.1033 415.089 34.364 414.439 32.7381C413.79 31.1122 412.822 29.6324 411.594 28.3853C410.365 27.1382 408.9 26.1489 407.285 25.4755C405.669 24.802 403.936 24.4579 402.185 24.4633C398.139 24.644 394.166 25.603 390.483 27.2878C388.033 28.5683 385.327 29.2793 382.565 29.3677C380.066 29.3609 377.671 28.3646 375.903 26.5964C374.136 24.8281 373.14 22.4319 373.133 19.9313C373.133 15.0269 375.957 11.6246 380.486 9.36504C385.388 6.91286 393.883 3.70319 402.185 3.70319C421.973 3.70319 438 17.6717 438 37.8541ZM415.377 57.8567H401.608C394.627 57.8567 389.533 62.0165 389.533 68.6155C389.533 74.2774 394.666 79.3744 401.98 79.3744C409.294 79.3744 415.557 74.47 415.364 67.8195L415.377 57.8567ZM360.468 14.5005C360.398 11.7424 359.261 9.11918 357.296 7.18392C355.33 5.24866 352.69 4.15261 349.933 4.12686C347.905 4.13002 345.91 4.6302 344.12 5.58365C342.33 6.53709 340.802 7.91476 339.667 9.59614L318.032 39.3819C316.749 41.0766 315.581 41.9496 314.452 41.9496C314.166 41.9669 313.88 41.9268 313.61 41.8317C313.34 41.7365 313.092 41.5882 312.88 41.3955C312.669 41.2029 312.498 40.9697 312.378 40.7099C312.257 40.45 312.19 40.1687 312.181 39.8826V14.6931C312.181 9.03124 307.458 4.12686 300.863 4.12686C294.267 4.12686 289.545 8.83866 289.545 14.6931V128.675C289.545 134.529 294.267 139.241 300.863 139.241C307.458 139.241 312.181 134.337 312.181 128.675V66.587C312.168 66.3111 312.213 66.0354 312.313 65.7779C312.413 65.5204 312.566 65.2867 312.762 65.092C312.958 64.8972 313.192 64.7457 313.45 64.6472C313.708 64.5487 313.984 64.5053 314.26 64.52C315.543 64.52 316.71 65.8039 317.647 66.9722L339.667 93.5739C342.118 96.4113 344.389 98.4783 348.727 98.4783C350.142 98.4955 351.546 98.2293 352.857 97.6954C354.168 97.1615 355.359 96.3706 356.36 95.3693C357.361 94.368 358.151 93.1765 358.685 91.8649C359.218 90.5534 359.484 89.1483 359.467 87.7323C359.397 85.2294 358.468 82.8269 356.837 80.9278L333.123 53.376L358.197 21.1124C359.624 19.1988 360.418 16.8873 360.468 14.5005V14.5005ZM221.034 3.70319C211.41 3.70319 208.766 11.8172 203.864 11.8172C199.899 11.8172 197.076 4.46067 191.032 4.46067C189.912 4.43801 188.798 4.64193 187.758 5.06023C186.718 5.47852 185.773 6.10257 184.98 6.89499C184.186 7.68741 183.561 8.63188 183.142 9.67181C182.722 10.7117 182.516 11.8257 182.537 12.947V88.4385C182.537 94.2801 187.26 99.0047 193.855 99.0047C200.451 99.0047 205.173 94.1003 205.173 88.4385V41.2563C205.173 30.6901 211.589 25.2208 220.829 25.2208C227.245 25.2208 231.017 20.8813 231.017 14.462C231.03 8.41498 227.065 3.70319 221.034 3.70319ZM256.258 115.323C252.855 115.323 249.591 116.675 247.184 119.083C244.778 121.491 243.426 124.756 243.426 128.161C243.426 131.566 244.778 134.832 247.184 137.24C249.591 139.647 252.855 141 256.258 141C259.661 141 262.925 139.647 265.332 137.24C267.738 134.832 269.09 131.566 269.09 128.161C269.09 124.756 267.738 121.491 265.332 119.083C262.925 116.675 259.661 115.323 256.258 115.323Z" fill="url(#paint0_linear_2889_36316)"/>
</g>
<defs>
<linearGradient id="paint0_linear_2889_36316" x1="2.75891" y1="116.298" x2="426.818" y2="-6.04212" gradientUnits="userSpaceOnUse">
<stop stop-color="#662483"/>
<stop offset="0.56" stop-color="#EA5153"/>
<stop offset="1" stop-color="#F08100"/>
</linearGradient>
<clipPath id="clip0_2889_36316">
<rect width="438" height="182" fill="white"/>
</clipPath>
</defs>
</svg>
