<svg width="124" height="52" viewBox="0 0 124 52" fill="none" xmlns="http://www.w3.org/2000/svg">
<g clip-path="url(#clip0_2891_36335)">
<path d="M96.283 45.078H95.715V47.1538C95.6348 46.9939 95.5103 46.8605 95.3565 46.7696C95.2026 46.6787 95.0258 46.634 94.8473 46.6411C94.142 46.6411 93.6676 47.2163 93.6676 48.3979C93.6676 49.5796 94.142 50.1548 94.8473 50.1548C95.0341 50.1591 95.2181 50.1095 95.3774 50.012C95.5368 49.9144 95.6648 49.773 95.7462 49.6046V50.1111H96.2893C96.2893 49.8985 96.2893 49.6859 96.2893 49.4858L96.283 45.078ZM95.715 48.3979C95.715 49.2545 95.484 49.6984 94.9659 49.6984C94.4478 49.6984 94.2169 49.2545 94.2169 48.3979C94.2169 47.5414 94.4478 47.0975 94.9659 47.0975C95.484 47.0975 95.715 47.5414 95.715 48.3979ZM90.5902 50.1111H91.152V48.0478C91.152 47.4226 91.4329 47.1225 91.8761 47.1225C92.3193 47.1225 92.4379 47.3601 92.4379 47.904V50.1111H93.0059V47.7352C93.0059 46.9787 92.6002 46.6411 92.0072 46.6411C91.8225 46.6308 91.6393 46.679 91.4835 46.7789C91.3278 46.8787 91.2074 47.0252 91.1395 47.1975V47.1975V46.6848H90.5964C90.5964 46.9287 90.5964 47.1788 90.5964 47.4226L90.5902 50.1111ZM89.2606 48.8606C89.2674 48.9704 89.2518 49.0805 89.2149 49.1841C89.1779 49.2877 89.1203 49.3828 89.0456 49.4634C88.9709 49.5441 88.8807 49.6087 88.7803 49.6534C88.6799 49.6981 88.5715 49.7219 88.4616 49.7234C88.3796 49.7313 88.2968 49.7202 88.2198 49.6908C88.1427 49.6615 88.0734 49.6148 88.0173 49.5544C87.9611 49.4939 87.9196 49.4213 87.896 49.3422C87.8724 49.2631 87.8673 49.1796 87.8811 49.0982C87.8811 48.7043 88.1995 48.3854 88.8611 48.3854C88.9942 48.3783 89.1276 48.3783 89.2606 48.3854V48.8606ZM87.6814 47.4539C87.7939 47.3399 87.9281 47.2496 88.0761 47.1884C88.224 47.1272 88.3827 47.0963 88.5428 47.0975C88.6474 47.087 88.753 47.1007 88.8515 47.1376C88.95 47.1744 89.0387 47.2334 89.1108 47.3101C89.2159 47.4731 89.2622 47.6672 89.2419 47.8603V48.0166H88.9111C87.7375 48.0166 87.3006 48.5042 87.3006 49.167C87.2892 49.2996 87.3069 49.4331 87.3524 49.5581C87.3979 49.6832 87.4702 49.7967 87.5642 49.8908C87.6581 49.9849 87.7715 50.0573 87.8963 50.1029C88.0212 50.1485 88.1545 50.1662 88.2869 50.1548C88.4782 50.1678 88.6693 50.1273 88.8391 50.0379C89.0088 49.9485 89.1504 49.8136 89.2481 49.6484V50.1111H89.76C89.76 49.986 89.7288 49.7859 89.7288 49.5859V47.7977C89.7444 47.6451 89.7261 47.4908 89.6754 47.346C89.6247 47.2012 89.5428 47.0694 89.4354 46.9599C89.1842 46.7397 88.8576 46.6254 88.5241 46.6411C88.1835 46.6418 87.8501 46.7393 87.5628 46.9224L87.6814 47.4539ZM86.0459 50.1111H86.614V45.078H86.0459V50.1111ZM83.3369 49.9547C83.6252 50.0923 83.9414 50.1607 84.2607 50.1548C84.406 50.1741 84.5538 50.1604 84.6931 50.1148C84.8325 50.0693 84.9598 49.993 85.0659 49.8916C85.1719 49.7902 85.2538 49.6663 85.3057 49.529C85.3576 49.3917 85.378 49.2445 85.3655 49.0982C85.3608 48.8985 85.2921 48.7056 85.1696 48.548C85.0471 48.3904 84.8773 48.2764 84.6852 48.2229L84.4854 48.1416C84.1109 47.9978 83.9111 47.8415 83.9111 47.5664C83.9111 47.2913 84.1046 47.0975 84.4729 47.0975C84.7032 47.0974 84.9309 47.1464 85.1408 47.2413V46.7599C84.9086 46.6768 84.6633 46.6365 84.4167 46.6411C84.278 46.6271 84.1378 46.6424 84.0053 46.686C83.8728 46.7296 83.7508 46.8005 83.6474 46.8941C83.5439 46.9878 83.4611 47.1021 83.4044 47.2297C83.3477 47.3574 83.3183 47.4955 83.3181 47.6352C83.3181 48.0666 83.4991 48.2604 83.986 48.5105L84.3606 48.6793C84.6789 48.8231 84.7975 48.9794 84.7975 49.217C84.7975 49.4546 84.579 49.6984 84.1733 49.6984C83.8864 49.6891 83.6077 49.6003 83.3681 49.4421L83.3369 49.9547ZM80.2845 50.1111H80.8462V48.0478C80.8462 47.4226 81.1271 47.1225 81.5703 47.1225C82.0135 47.1225 82.1321 47.3601 82.1321 47.904V50.1111H82.7002V47.7352C82.7002 46.9787 82.2944 46.6411 81.7014 46.6411C81.5168 46.6308 81.3336 46.679 81.1778 46.7789C81.0221 46.8787 80.9017 47.0252 80.8338 47.1975V47.1975V46.6848H80.2907C80.2907 46.9287 80.2907 47.1788 80.2907 47.4226L80.2845 50.1111ZM77.7314 48.1354C77.7314 47.3351 78.0685 47.0662 78.4306 47.0662C78.7926 47.0662 79.0985 47.4226 79.0985 48.1354H77.7314ZM79.6602 48.5668V48.2666C79.6602 47.2538 79.2358 46.6411 78.4618 46.6411C77.6877 46.6411 77.1447 47.3226 77.1447 48.3979C77.1447 49.4733 77.6128 50.1548 78.5179 50.1548C78.8468 50.1564 79.1723 50.0883 79.473 49.9547V49.4421C79.2454 49.6144 78.9714 49.7146 78.6865 49.7297C78.0623 49.7297 77.7564 49.3545 77.7564 48.5668H79.6602ZM74.7602 48.1354C74.7602 47.3351 75.091 47.0662 75.4531 47.0662C75.8151 47.0662 76.1272 47.4226 76.1272 48.1354H74.7602ZM76.689 48.5668V48.2666C76.689 47.2538 76.2583 46.6411 75.4905 46.6411C74.7227 46.6411 74.1859 47.3226 74.1859 48.3979C74.1859 49.4733 74.6541 50.1548 75.5592 50.1548C75.8901 50.1564 76.2176 50.0882 76.5205 49.9547L76.4893 49.4421C76.2634 49.6132 75.9918 49.7134 75.709 49.7297C75.0848 49.7297 74.7789 49.3545 74.7789 48.5668H76.689ZM73.518 46.6911H72.9375V48.7543C72.9375 49.3795 72.6566 49.6796 72.2134 49.6796C71.7702 49.6796 71.6516 49.4421 71.6516 48.8981V46.6848H71.0898V49.0607C71.0898 49.8109 71.4893 50.1548 72.0823 50.1548C72.267 50.1651 72.4502 50.1169 72.6059 50.017C72.7617 49.9172 72.8821 49.7707 72.95 49.5984V49.5984V50.1111H73.5617C73.5617 49.8672 73.5617 49.6171 73.5617 49.3733L73.518 46.6911ZM67.5381 47.8477C67.5381 46.4035 68.0624 45.8908 68.6804 45.8908C69.4669 45.8908 69.7665 46.8036 69.7665 47.7665C69.7665 49.2045 69.2422 49.7172 68.6242 49.7172C67.8377 49.7172 67.5381 48.8043 67.5381 47.8415V47.8477ZM70.2846 51.0051L69.392 50.011C70.0162 49.6984 70.3782 48.9419 70.3782 47.7477C70.3782 46.2972 69.7166 45.4031 68.6804 45.4031C67.6442 45.4031 66.9263 46.2222 66.9263 47.8415C66.9263 49.2858 67.588 50.1798 68.6242 50.1798H68.749C68.7864 50.1828 68.824 50.1828 68.8614 50.1798L69.5667 50.9739L70.2846 51.0051ZM64.9351 46.7098H64.3733L63.6617 49.5046L62.8939 46.7098H62.3259L63.4058 50.1861L63.2684 50.7113C63.1748 51.0676 63.0562 51.1427 62.8939 51.1427C62.7883 51.1412 62.6841 51.1178 62.5881 51.0739L62.5568 51.5866C62.682 51.613 62.8097 51.6256 62.9376 51.6241C63.3683 51.6241 63.6118 51.4178 63.7803 50.8301L64.9351 46.7098ZM61.9139 47.3351C61.9139 47.1287 61.9139 46.9099 61.9139 46.7098H61.3708V47.21C61.2907 47.053 61.1706 46.92 61.0226 46.8245C60.8746 46.729 60.704 46.6743 60.5282 46.6661C59.7666 46.6661 59.2797 47.2413 59.2797 48.423C59.2797 49.6046 59.7541 50.1798 60.4595 50.1798C60.6481 50.1781 60.8324 50.1232 60.9914 50.0215C61.1504 49.9198 61.2775 49.7753 61.3584 49.6046V49.6046V50.1423C61.3783 50.275 61.3676 50.4105 61.3269 50.5384C61.2862 50.6663 61.2168 50.7831 61.1239 50.8798C61.0309 50.9765 60.9171 51.0505 60.791 51.0961C60.665 51.1416 60.5302 51.1576 60.3971 51.1427C60.0639 51.1279 59.7406 51.0243 59.4608 50.8426V51.4178C59.7807 51.539 60.1178 51.6087 60.4595 51.6241C60.6464 51.6457 60.8359 51.6268 61.0149 51.5685C61.1938 51.5103 61.3582 51.4142 61.4968 51.2866C61.6354 51.1591 61.7449 51.0032 61.818 50.8294C61.891 50.6557 61.9259 50.4683 61.9201 50.2799L61.9139 47.3351ZM59.829 48.3979C59.829 47.5414 60.0662 47.0975 60.5781 47.0975C61.0899 47.0975 61.3271 47.5414 61.3271 48.3979C61.3271 49.2545 61.0962 49.6984 60.5781 49.6984C60.06 49.6984 59.829 49.2545 59.829 48.3979ZM57.4508 50.1111H58.0126V48.2979C58.0126 47.5539 58.3184 47.1788 58.7554 47.1788C58.8281 47.1724 58.9012 47.1724 58.9739 47.1788V46.6223C58.77 46.596 58.5632 46.639 58.3866 46.7444C58.21 46.8498 58.0739 47.0116 58.0001 47.2038V47.2038V46.6661H57.457C57.457 46.9099 57.457 47.16 57.457 47.4038L57.4508 50.1111ZM54.8978 48.1354C54.8978 47.3351 55.2348 47.0662 55.5969 47.0662C55.9589 47.0662 56.2648 47.4226 56.2648 48.1354H54.8978ZM56.8266 48.5668V48.2666C56.8266 47.2538 56.3959 46.6411 55.6281 46.6411C54.8603 46.6411 54.3048 47.3226 54.3048 48.3979C54.3048 49.4733 54.7792 50.1548 55.678 50.1548C56.0089 50.1564 56.3364 50.0882 56.6393 49.9547V49.4421C56.4111 49.6134 56.1375 49.7135 55.8528 49.7297C55.2286 49.7297 54.9227 49.3545 54.9227 48.5668H56.8266ZM51.2461 50.1111H51.8079V48.0478C51.8079 47.4226 52.0888 47.1225 52.532 47.1225C52.9752 47.1225 53.0938 47.3601 53.0938 47.904V50.1111H53.6556V47.7352C53.6556 46.9787 53.2561 46.6411 52.6568 46.6411C52.4732 46.6321 52.2914 46.6809 52.1369 46.7807C51.9824 46.8805 51.863 47.0263 51.7954 47.1975V47.1975V46.6848H51.2524C51.2524 46.9287 51.2524 47.1788 51.2524 47.4226L51.2461 50.1111ZM48.2499 50.1111H50.5158V49.5984H48.8554V47.9353H50.3722V47.4226H48.8554V45.9346H50.4659V45.4219H48.2686L48.2499 50.1111ZM44.9104 50.1111H45.4722V47.1413H46.0964V46.6848H45.4722V45.9721C45.4722 45.6345 45.5658 45.4594 45.8779 45.4594C45.9919 45.4516 46.1055 45.48 46.2025 45.5407V45.053C46.0571 45.0199 45.9084 45.0031 45.7593 45.003C45.1351 45.003 44.9041 45.3719 44.9041 45.9283V46.6911H44.3611V47.1475H44.9041L44.9104 50.1111ZM41.2899 48.3979C41.2899 49.4733 41.7643 50.1548 42.6632 50.1548C43.5621 50.1548 44.0427 49.4733 44.0427 48.3979C44.0427 47.3226 43.5995 46.6411 42.6632 46.6411C41.7269 46.6411 41.2899 47.3226 41.2899 48.3979ZM41.9142 48.3979C41.9142 47.5414 42.1638 47.0975 42.6944 47.0975C43.225 47.0975 43.4809 47.5414 43.4809 48.3979C43.4809 49.2545 43.2 49.7234 42.6632 49.7234C42.1264 49.7234 41.8829 49.2795 41.8829 48.423L41.9142 48.3979ZM39.3861 49.6359C39.2802 49.6919 39.1625 49.7219 39.0428 49.7234C38.7869 49.7234 38.687 49.5796 38.687 49.1857V47.1413H39.3861V46.6848H38.6745V45.822L38.1065 45.9721V46.6661H37.5696V47.1225H38.1065V49.3233C38.1065 49.9485 38.3874 50.1361 38.8992 50.1361C39.0611 50.1335 39.2215 50.1039 39.3736 50.0485L39.3861 49.6359ZM35.8968 50.1361H36.4585V48.3229C36.4585 47.5789 36.7707 47.2038 37.2014 47.2038C37.274 47.1974 37.3471 47.1974 37.4198 47.2038V46.6473C37.216 46.621 37.0091 46.664 36.8326 46.7694C36.656 46.8748 36.5199 47.0366 36.4461 47.2288V47.2288V46.6911H35.8593C35.8593 46.9349 35.8593 47.185 35.8593 47.4289L35.8968 50.1361ZM34.5609 48.8856C34.5643 48.9939 34.546 49.1018 34.5071 49.2029C34.4682 49.304 34.4095 49.3963 34.3345 49.4743C34.2594 49.5524 34.1696 49.6146 34.0702 49.6574C33.9708 49.7002 33.8639 49.7226 33.7557 49.7234C33.6737 49.7313 33.5909 49.7202 33.5138 49.6908C33.4368 49.6615 33.3675 49.6148 33.3113 49.5544C33.2552 49.4939 33.2137 49.4213 33.1901 49.3422C33.1665 49.2631 33.1614 49.1796 33.1752 49.0982C33.1752 48.7043 33.4935 48.3854 34.1552 48.3854C34.2862 48.3782 34.4175 48.3782 34.5485 48.3854L34.5609 48.8856ZM32.9879 47.4539C33.1027 47.3376 33.2399 47.2459 33.3913 47.1847C33.5426 47.1234 33.7049 47.0937 33.8681 47.0975C33.9727 47.087 34.0783 47.1007 34.1768 47.1376C34.2753 47.1744 34.364 47.2334 34.4361 47.3101C34.539 47.4739 34.5831 47.668 34.5609 47.8603V48.0166H34.2364C33.0628 48.0166 32.6259 48.5042 32.6259 49.167C32.6145 49.2996 32.6322 49.4331 32.6777 49.5581C32.7232 49.6832 32.7955 49.7967 32.8894 49.8908C32.9834 49.9849 33.0968 50.0573 33.2216 50.1029C33.3465 50.1485 33.4797 50.1662 33.6121 50.1548C33.8035 50.1678 33.9946 50.1273 34.1643 50.0379C34.3341 49.9485 34.4757 49.8136 34.5734 49.6484V49.6484V50.1111H35.0853C35.0853 49.986 35.0853 49.7859 35.0853 49.5859V47.7977C35.1009 47.6451 35.0826 47.4908 35.0319 47.346C34.9812 47.2012 34.8993 47.0694 34.7919 46.9599C34.5407 46.7397 34.2141 46.6254 33.8806 46.6411C33.54 46.6418 33.2066 46.7393 32.9193 46.9224L32.9879 47.4539ZM30.6222 45.9096H30.9592C31.5835 45.9096 31.9268 46.1596 31.9268 46.8099C31.9268 47.3288 31.6646 47.6664 30.9468 47.6664H30.6222V45.9096ZM30.0354 50.1111H30.6222V48.1479H31.0217C32.0142 48.1479 32.5385 47.6664 32.5385 46.7536C32.5468 46.5754 32.5183 46.3974 32.455 46.2307C32.3916 46.064 32.2947 45.9121 32.1702 45.7845C32.0353 45.6582 31.8759 45.5609 31.702 45.4985C31.5281 45.4362 31.3433 45.4101 31.159 45.4219H30.0354V50.1111Z" fill="white"/>
<path d="M77.3324 4.80303L75.9374 25.7098C75.8575 27.3708 74.5606 28.8647 72.8822 28.8175C71.2038 28.7702 70.074 27.3854 70.0122 25.5462L69.7761 4.60676C69.7761 1.88437 71.3927 -0.0638249 73.6887 0.00159963C75.9846 0.0670241 77.5068 1.8662 77.3324 4.80303ZM21.8843 4.19967C21.8843 2.49137 20.3367 1.31372 18.5711 1.31372C17.0235 1.31372 15.8501 2.17151 15.4759 3.55996L11.7377 16.6449L10.9894 19.6362H10.884L10.1356 16.6485L6.39744 3.5636C6.25357 2.91336 5.88825 2.33337 5.36403 1.92293C4.83982 1.5125 4.18931 1.29714 3.52386 1.31372C1.38775 1.31372 0 2.59677 0 4.30871C0.0237203 4.63306 0.0784636 4.95438 0.163478 5.26827L7.57449 26.8511L6.82612 28.8829C6.2376 30.4313 5.11505 31.9288 3.99613 32.3031C2.71374 32.7284 1.64568 33.757 1.64568 35.3999C1.64568 37.2172 2.81909 38.2858 4.84985 38.2858C8.7479 38.2858 11.6324 34.4912 12.9148 30.8056L21.7244 5.26827C21.8043 4.91656 21.8577 4.55936 21.8843 4.19967V4.19967ZM45.7012 25.5172V4.24329C45.7012 2.64039 44.3643 1.25193 42.4971 1.25193C40.6298 1.25193 39.2929 2.58587 39.2929 4.24329V18.6258C39.3085 19.1353 39.2197 19.6427 39.0318 20.1165C38.844 20.5904 38.5611 21.0208 38.2006 21.3811C37.8402 21.7414 37.4098 22.024 36.9359 22.2115C36.4621 22.399 35.955 22.4874 35.4457 22.4713C33.266 22.4713 31.7111 21.1373 31.7111 18.6258V4.24329C31.7111 2.64039 30.3742 1.25193 28.507 1.25193C26.6397 1.25193 25.3209 2.60041 25.3209 4.24329V18.7821C25.3209 24.285 29.0591 28.3449 33.5966 28.3449C35.1987 28.3449 36.4266 27.6507 37.5491 26.9565C38.0286 26.6875 38.8315 26.1023 39.4709 26.1023C40.1103 26.1023 40.8041 26.902 41.2328 27.2763C41.7976 27.7623 42.5187 28.0281 43.2636 28.0251C43.5899 28.0262 43.9131 27.9616 44.2139 27.8351C44.5147 27.7086 44.7869 27.5228 45.0144 27.2887C45.2419 27.0547 45.4199 26.7772 45.5379 26.4728C45.6559 26.1685 45.7115 25.8435 45.7012 25.5172V25.5172ZM124 10.7167V25.7861C123.997 26.1072 123.928 26.4242 123.799 26.718C123.67 27.0119 123.482 27.2765 123.248 27.4959C123.014 27.7153 122.738 27.885 122.436 27.9947C122.134 28.1044 121.814 28.1518 121.493 28.1341C119.731 28.1341 118.929 26.2659 117.755 26.2659C117.273 26.3342 116.815 26.5175 116.418 26.8002C115.245 27.5489 114.068 28.2541 112.422 28.2541C107.616 28.2541 104.037 24.6739 104.037 19.6508C104.037 13.9879 109.058 11.9052 113.846 11.9052H117.595V10.7167C117.604 10.221 117.514 9.72863 117.33 9.26833C117.146 8.80803 116.872 8.38907 116.524 8.03601C116.176 7.68296 115.762 7.4029 115.304 7.21224C114.847 7.02158 114.356 6.92416 113.861 6.92569C112.715 6.97685 111.59 7.24834 110.548 7.72532C109.854 8.08784 109.088 8.28911 108.306 8.31414C107.599 8.31223 106.92 8.03015 106.42 7.52956C105.92 7.02897 105.638 6.35058 105.636 5.64264C105.636 4.25419 106.435 3.291 107.718 2.65129C109.105 1.95706 111.51 1.04839 113.861 1.04839C119.463 1.04839 124 5.00294 124 10.7167ZM117.595 16.3795H113.697C111.721 16.3795 110.279 17.5572 110.279 19.4254C110.279 21.0283 111.732 22.4713 113.803 22.4713C115.873 22.4713 117.646 21.0828 117.592 19.2001L117.595 16.3795ZM102.05 4.10517C102.031 3.32434 101.709 2.58169 101.152 2.0338C100.596 1.48592 99.8484 1.17562 99.0678 1.16834C98.4938 1.16923 97.9287 1.31083 97.4221 1.58076C96.9154 1.85068 96.4826 2.24071 96.1615 2.71672L90.0365 11.1492C89.6732 11.629 89.3426 11.8761 89.0229 11.8761C88.9421 11.881 88.861 11.8697 88.7846 11.8428C88.7082 11.8158 88.638 11.7738 88.578 11.7193C88.5181 11.6647 88.4697 11.5987 88.4357 11.5252C88.4016 11.4516 88.3827 11.372 88.3799 11.291V4.15969C88.3799 2.55679 87.043 1.16834 85.1757 1.16834C83.3085 1.16834 81.9716 2.50227 81.9716 4.15969V36.4285C81.9716 38.0859 83.3085 39.4199 85.1757 39.4199C87.043 39.4199 88.3799 38.0314 88.3799 36.4285V18.8511C88.3762 18.773 88.389 18.695 88.4173 18.6221C88.4457 18.5492 88.4889 18.483 88.5444 18.4279C88.5998 18.3727 88.6662 18.3298 88.7393 18.3019C88.8123 18.2741 88.8904 18.2618 88.9684 18.2659C89.3317 18.2659 89.6623 18.6294 89.9275 18.9602L96.1615 26.4913C96.8554 27.2945 97.4984 27.8797 98.7263 27.8797C99.1269 27.8846 99.5245 27.8092 99.8956 27.6581C100.267 27.5069 100.604 27.283 100.887 26.9995C101.171 26.716 101.394 26.3787 101.545 26.0074C101.697 25.6361 101.772 25.2383 101.767 24.8375C101.747 24.1289 101.484 23.4487 101.022 22.9111L94.3087 15.111L101.407 5.97704C101.811 5.43528 102.036 4.78089 102.05 4.10517V4.10517ZM62.5758 1.04839C59.8512 1.04839 59.1028 3.34552 57.715 3.34552C56.5925 3.34552 55.7933 1.26284 54.0822 1.26284C53.7649 1.25642 53.4496 1.31415 53.1552 1.43258C52.8607 1.551 52.5932 1.72767 52.3687 1.95201C52.1441 2.17634 51.9671 2.44373 51.8483 2.73814C51.7295 3.03255 51.6713 3.34793 51.6773 3.66537V25.0374C51.6773 26.6912 53.0141 28.0287 54.8814 28.0287C56.7487 28.0287 58.0856 26.6403 58.0856 25.0374V11.6799C58.0856 8.68852 59.902 7.14014 62.5177 7.14014C64.3341 7.14014 65.4022 5.91161 65.4022 4.09426C65.4058 2.38232 64.2832 1.04839 62.5758 1.04839ZM72.548 32.6484C71.5845 32.6484 70.6604 33.0314 69.9792 33.713C69.2979 34.3946 68.9151 35.3191 68.9151 36.2831C68.9151 37.2471 69.2979 38.1716 69.9792 38.8532C70.6604 39.5349 71.5845 39.9178 72.548 39.9178C73.5115 39.9178 74.4355 39.5349 75.1168 38.8532C75.7981 38.1716 76.1808 37.2471 76.1808 36.2831C76.1808 35.3191 75.7981 34.3946 75.1168 33.713C74.4355 33.0314 73.5115 32.6484 72.548 32.6484Z" fill="url(#paint0_linear_2891_36335)"/>
</g>
<defs>
<linearGradient id="paint0_linear_2891_36335" x1="0.781062" y1="32.9247" x2="120.834" y2="-1.71055" gradientUnits="userSpaceOnUse">
<stop stop-color="#662483"/>
<stop offset="0.56" stop-color="#EA5153"/>
<stop offset="1" stop-color="#F08100"/>
</linearGradient>
<clipPath id="clip0_2891_36335">
<rect width="124" height="51.5251" fill="white"/>
</clipPath>
</defs>
</svg>
