<svg width="342" height="110" viewBox="0 0 342 110" fill="none" xmlns="http://www.w3.org/2000/svg">
<g clip-path="url(#clip0_2889_36291)">
<path d="M212.9 13.27L209.06 70.79C208.84 75.36 205.27 79.47 200.65 79.34C196.03 79.21 192.92 75.4 192.75 70.34L192.1 12.73C192.1 5.24 196.55 -0.119996 202.87 0.060004C209.19 0.240004 213.38 5.19 212.9 13.27ZM60.27 11.61C60.27 6.91 56.01 3.67 51.15 3.67C46.89 3.67 43.66 6.03 42.63 9.85L32.34 45.85L30.28 54.08H29.99L27.93 45.86L17.64 9.86C17.244 8.07101 16.2384 6.47531 14.7954 5.3461C13.3524 4.21688 11.5617 3.62437 9.73 3.67C3.85 3.67 0.0299988 7.2 0.0299988 11.91C0.0952926 12.8024 0.245983 13.6864 0.48 14.55L20.88 73.93L18.82 79.52C17.2 83.78 14.11 87.9 11.03 88.93C7.5 90.1 4.56 92.93 4.56 97.45C4.56 102.45 7.79 105.39 13.38 105.39C24.11 105.39 32.05 94.95 35.58 84.81L59.83 14.55C60.0498 13.5824 60.1969 12.5996 60.27 11.61V11.61ZM125.83 70.26V11.73C125.83 7.32 122.15 3.5 117.01 3.5C111.87 3.5 108.19 7.17 108.19 11.73V51.3C108.233 52.7019 107.988 54.0977 107.471 55.4015C106.954 56.7052 106.176 57.8893 105.183 58.8806C104.191 59.8718 103.006 60.6494 101.702 61.1653C100.398 61.6811 99.0018 61.9244 97.6 61.88C91.6 61.88 87.32 58.21 87.32 51.3V11.73C87.32 7.32 83.64 3.5 78.5 3.5C73.36 3.5 69.73 7.21 69.73 11.73V51.73C69.73 66.87 80.02 78.04 92.51 78.04C96.92 78.04 100.3 76.13 103.39 74.22C104.71 73.48 106.92 71.87 108.68 71.87C110.44 71.87 112.35 74.07 113.53 75.1C115.085 76.437 117.069 77.1684 119.12 77.16C120.018 77.1631 120.908 76.9854 121.736 76.6373C122.564 76.2892 123.313 75.778 123.939 75.1341C124.566 74.4902 125.056 73.7268 125.381 72.8894C125.705 72.052 125.858 71.1577 125.83 70.26V70.26ZM341.36 29.54V71C341.351 71.8832 341.162 72.7554 340.807 73.5639C340.451 74.3724 339.935 75.1004 339.29 75.7041C338.645 76.3078 337.885 76.7746 337.055 77.0764C336.225 77.3782 335.342 77.5087 334.46 77.46C329.61 77.46 327.4 72.32 324.17 72.32C322.843 72.508 321.581 73.0122 320.49 73.79C317.26 75.85 314.02 77.79 309.49 77.79C296.26 77.79 286.41 67.94 286.41 54.12C286.41 38.54 300.23 32.81 313.41 32.81H323.73V29.54C323.754 28.1764 323.506 26.8216 322.999 25.5552C322.493 24.2888 321.739 23.1361 320.782 22.1648C319.824 21.1934 318.683 20.4229 317.424 19.8984C316.165 19.3738 314.814 19.1058 313.45 19.11C310.297 19.2508 307.2 19.9977 304.33 21.31C302.421 22.3074 300.312 22.8611 298.16 22.93C296.212 22.9247 294.346 22.1487 292.969 20.7714C291.591 19.3942 290.815 17.5277 290.81 15.58C290.81 11.76 293.01 9.11 296.54 7.35C300.36 5.44 306.98 2.94 313.45 2.94C328.87 2.94 341.36 13.82 341.36 29.54ZM323.73 45.12H313C307.56 45.12 303.59 48.36 303.59 53.5C303.59 57.91 307.59 61.88 313.29 61.88C318.99 61.88 323.87 58.06 323.72 52.88L323.73 45.12ZM280.94 11.35C280.886 9.20173 279.999 7.1585 278.468 5.65113C276.936 4.14376 274.879 3.29005 272.73 3.27C271.15 3.27246 269.595 3.66205 268.2 4.40469C266.805 5.14732 265.614 6.22038 264.73 7.53L247.87 30.73C246.87 32.05 245.96 32.73 245.08 32.73C244.857 32.7435 244.634 32.7123 244.424 32.6381C244.214 32.564 244.02 32.4485 243.855 32.2984C243.69 32.1484 243.557 31.9668 243.463 31.7644C243.37 31.562 243.318 31.3429 243.31 31.12V11.5C243.31 7.09 239.63 3.27 234.49 3.27C229.35 3.27 225.67 6.94 225.67 11.5V100.28C225.67 104.84 229.35 108.51 234.49 108.51C239.63 108.51 243.31 104.69 243.31 100.28V51.92C243.3 51.705 243.335 51.4904 243.413 51.2898C243.491 51.0892 243.61 50.9072 243.763 50.7555C243.915 50.6038 244.098 50.4858 244.299 50.4091C244.5 50.3323 244.715 50.2986 244.93 50.31C245.93 50.31 246.84 51.31 247.57 52.22L264.73 72.94C266.64 75.15 268.41 76.76 271.79 76.76C272.893 76.7734 273.987 76.5661 275.009 76.1502C276.03 75.7343 276.958 75.1183 277.738 74.3384C278.518 73.5585 279.134 72.6304 279.55 71.6089C279.966 70.5873 280.173 69.4929 280.16 68.39C280.105 66.4405 279.381 64.5692 278.11 63.09L259.63 41.63L279.17 16.5C280.282 15.0095 280.901 13.2091 280.94 11.35V11.35ZM172.28 2.94C164.78 2.94 162.72 9.26 158.9 9.26C155.81 9.26 153.61 3.53 148.9 3.53C148.027 3.51235 147.159 3.67119 146.348 3.997C145.538 4.3228 144.801 4.80888 144.183 5.42609C143.565 6.0433 143.078 6.77894 142.751 7.58894C142.424 8.39894 142.264 9.26663 142.28 10.14V68.94C142.28 73.49 145.96 77.17 151.1 77.17C156.24 77.17 159.92 73.35 159.92 68.94V32.19C159.92 23.96 164.92 19.7 172.12 19.7C177.12 19.7 180.06 16.32 180.06 11.32C180.07 6.61 176.98 2.94 172.28 2.94ZM199.73 89.88C197.078 89.88 194.534 90.9336 192.659 92.8089C190.784 94.6843 189.73 97.2278 189.73 99.88C189.73 102.532 190.784 105.076 192.659 106.951C194.534 108.826 197.078 109.88 199.73 109.88C202.382 109.88 204.926 108.826 206.801 106.951C208.676 105.076 209.73 102.532 209.73 99.88C209.73 97.2278 208.676 94.6843 206.801 92.8089C204.926 90.9336 202.382 89.88 199.73 89.88Z" fill="url(#paint0_linear_2889_36291)"/>
</g>
<defs>
<linearGradient id="paint0_linear_2889_36291" x1="2.18" y1="90.64" x2="332.62" y2="-4.74002" gradientUnits="userSpaceOnUse">
<stop stop-color="#662483"/>
<stop offset="0.56" stop-color="#EA5153"/>
<stop offset="1" stop-color="#F08100"/>
</linearGradient>
<clipPath id="clip0_2889_36291">
<rect width="341.36" height="109.87" fill="white"/>
</clipPath>
</defs>
</svg>
