<svg width="272" height="223" viewBox="0 0 272 223" fill="none" xmlns="http://www.w3.org/2000/svg">
<path d="M267.9 112.7L184.4 64.5C182.5 63.4 180.3 63 178.2 63.4L47.2 88.6C44.6 89.1 42.4 90.7 41 93L1.6 161.4C-0.899998 165.7 0.60005 171.3 4.90005 173.8L86.4 220.9C88.3 222 90.5 222.4 92.6 222L223.6 196.8C226.2 196.3 228.4 194.7 229.8 192.4L270.4 122C272.3 118.7 271.2 114.5 267.9 112.7Z" fill="#DEDEDF"/>
<path d="M219.2 79.7L77.5 161.2V181.4L219.2 99.8V79.7Z" fill="#7D7D7F"/>
<path d="M195.8 54.2L48.7 138.8V147.4L195.8 62.6V54.2Z" fill="#262629"/>
<path d="M186.1 57.4V60.6L212.1 75.7L214.9 74.1L186.1 57.4Z" fill="white" stroke="#7D7D7F" stroke-width="0.2835" stroke-miterlimit="10" stroke-linecap="round" stroke-linejoin="round"/>
<path d="M187.5 60.4L50.2 139.6L75.9 154.5L213.2 75.2L187.5 60.4Z" fill="#DEDEDF"/>
<path d="M224.6 71L77.5 155.7V164.2L224.6 79.5V71Z" fill="white"/>
<path d="M77.5 155.7L75.6 154.5L222.4 69.7L224.6 71L77.5 155.7Z" fill="#262629"/>
<path d="M75.6 154.5V163.2L77.5 164.2V155.7L75.6 154.5Z" fill="white" stroke="#7D7D7F" stroke-width="0.2835" stroke-miterlimit="10" stroke-linecap="round" stroke-linejoin="round"/>
<path d="M48.7 138.8L46.8 137.6L193.7 52.9L195.8 54.1L48.7 138.8Z" fill="white"/>
<path d="M46.8 137.5V146.2L48.7 147.2V138.7L46.8 137.5Z" fill="white" stroke="#7D7D7F" stroke-width="0.2835" stroke-miterlimit="10" stroke-linecap="round" stroke-linejoin="round"/>
<path d="M222.4 69.7L193.5 52.7L186.1 57.4L214.9 74.1L222.4 69.7Z" fill="white" stroke="#7D7D7F" stroke-width="0.2835" stroke-miterlimit="10" stroke-linecap="round" stroke-linejoin="round"/>
<path d="M197.7 112.2V50.8L167.6 34V68.6L195.6 85.2V113.4L197.7 112.2Z" fill="#A8A8A9"/>
<path d="M195.6 85.2V62.9L168.8 47.3V69.6L195.6 85.2Z" fill="#515154"/>
<path d="M226.1 35V95.9L197.7 112.2V50.8L226.1 35Z" fill="#A8A8A9"/>
<path d="M225.2 37.3V95L198.5 110.4V52.2L225.2 37.3Z" fill="#D4D4D4"/>
<path d="M189.5 59.3L170 70.4L195.3 85.4L195.6 85.2V62.9L189.5 59.3Z" fill="#DEDEDF"/>
<path d="M168.8 71.1V69.6L188.2 58.6L189.5 59.3L168.8 71.1Z" fill="#262629"/>
<path d="M184.5 53.6C184.5 53.6 184.6 53.5 184.5 53.6L184.6 47.4C184.6 47.4 184.6 47.3 184.5 47.3C184.4 47.3 184.4 47.3 184.4 47.4L184.5 53.6C184.4 53.6 184.4 53.5 184.5 53.6Z" fill="white"/>
<path d="M183.1 52.8C183.2 52.8 183.2 52.7 183.1 52.8L183.2 45.2C183.2 45.2 183.2 45.1 183.1 45.1C183 45.1 183 45.1 183 45.2L183.1 52.8C183.1 52.8 183.1 52.7 183.1 52.8Z" fill="white"/>
<path d="M181.8 54.2C181.9 54.2 181.9 54.2 181.8 54.2L181.9 46.2C181.9 46.2 181.9 46.1 181.8 46.1C181.8 46.1 181.7 46.1 181.7 46.2L181.8 54.2C181.8 54.2 181.7 54.2 181.8 54.2Z" fill="white"/>
<path d="M180.5 51.2C180.5 51.2 180.5 51.1 180.5 51.2L180.6 42.7C180.6 42.7 180.6 42.6 180.5 42.6C180.5 42.6 180.4 42.6 180.4 42.7L180.5 51.2C180.4 51.2 180.4 51.1 180.5 51.2Z" fill="white"/>
<path d="M179.1 50.8C179.2 50.8 179.2 50.8 179.1 50.8L179.2 44.6C179.2 44.6 179.2 44.5 179.1 44.5C179.1 44.5 179 44.5 179 44.6L179.1 50.8C179.1 50.8 179 50.8 179.1 50.8Z" fill="white"/>
<path d="M177.8 49.6C177.8 49.6 177.9 49.5 177.8 49.6L177.9 42.5C177.9 42.5 177.9 42.4 177.8 42.4C177.8 42.4 177.7 42.4 177.7 42.5L177.8 49.6C177.7 49.6 177.7 49.5 177.8 49.6Z" fill="white"/>
<path d="M176.4 50.1C176.5 50.1 176.5 50.1 176.4 50.1L176.5 43C176.5 43 176.5 42.9 176.4 42.9C176.4 42.9 176.3 42.9 176.3 43L176.4 50.1C176.4 50.1 176.3 50.1 176.4 50.1Z" fill="white"/>
<path d="M175.1 48C175.1 48 175.2 47.9 175.1 48L175.2 40.9C175.2 40.9 175.2 40.8 175.1 40.8C175.1 40.8 175 40.8 175 40.9L175.1 48C175 48 175 47.9 175.1 48Z" fill="white"/>
<path d="M173.7 48.5C173.8 48.5 173.8 48.5 173.7 48.5L173.8 40.5C173.8 40.5 173.8 40.4 173.7 40.4C173.7 40.4 173.6 40.4 173.6 40.5L173.7 48.5C173.7 48.5 173.6 48.5 173.7 48.5Z" fill="white"/>
<path d="M184.5 51.9C184.6 51.9 184.7 51.8 184.7 51.7V49.1C184.7 49 184.6 48.9 184.5 48.9C184.4 48.9 184.3 49 184.3 49.1V51.7C184.3 51.8 184.4 51.9 184.5 51.9Z" fill="white"/>
<path d="M183.1 51.1C183.2 51.1 183.3 51 183.3 50.9V47C183.3 46.9 183.2 46.8 183.1 46.8C183 46.8 182.9 46.9 182.9 47V50.9C183 51 183 51.1 183.1 51.1Z" fill="white"/>
<path d="M181.8 52.5C181.9 52.5 182 52.4 182 52.3V47.1C182 47 181.9 46.9 181.8 46.9C181.7 46.9 181.6 47 181.6 47.1V52.3C181.6 52.4 181.7 52.5 181.8 52.5Z" fill="white"/>
<path d="M180.5 50.4C180.6 50.4 180.7 50.3 180.7 50.2V43.6C180.7 43.5 180.6 43.4 180.5 43.4C180.4 43.4 180.3 43.5 180.3 43.6V50.2C180.3 50.3 180.4 50.4 180.5 50.4Z" fill="white"/>
<path d="M179.1 49.1C179.2 49.1 179.3 49 179.3 48.9V45.9C179.3 45.8 179.2 45.7 179.1 45.7C179 45.7 178.9 45.8 178.9 45.9V48.9C178.9 49 179 49.1 179.1 49.1Z" fill="white"/>
<path d="M177.8 48.3C177.9 48.3 178 48.2 178 48.1V44.2C178 44.1 177.9 44 177.8 44C177.7 44 177.6 44.1 177.6 44.2V48.1C177.6 48.2 177.7 48.3 177.8 48.3Z" fill="white"/>
<path d="M176.4 48.9C176.5 48.9 176.6 48.8 176.6 48.7V44.4C176.6 44.3 176.5 44.2 176.4 44.2C176.3 44.2 176.2 44.3 176.2 44.4V48.7C176.2 48.8 176.3 48.9 176.4 48.9Z" fill="white"/>
<path d="M175.1 46.7C175.2 46.7 175.3 46.6 175.3 46.5V42.2C175.3 42.1 175.2 42 175.1 42C175 42 174.9 42.1 174.9 42.2V46.5C174.9 46.6 175 46.7 175.1 46.7Z" fill="white"/>
<path d="M173.7 47.2C173.8 47.2 173.9 47.1 173.9 47V41.8C173.9 41.7 173.8 41.6 173.7 41.6C173.6 41.6 173.5 41.7 173.5 41.8V47C173.6 47.2 173.6 47.2 173.7 47.2Z" fill="white"/>
<path opacity="0.5" d="M192.1 50.5L187.2 47.7V48.6L192.1 51.5V50.5Z" fill="white"/>
<path opacity="0.5" d="M192.1 53.1L185.6 49.3V49.9L192.1 53.6V53.1Z" fill="white"/>
<path opacity="0.5" d="M192.1 54.4L185.6 50.6V51.2L192.1 55V54.4Z" fill="white"/>
<path opacity="0.5" d="M192.1 55.7L185.6 51.9V52.5L192.1 56.3V55.7Z" fill="white"/>
<path opacity="0.5" d="M192.1 57L185.6 53.3V53.8L192.1 57.6V57Z" fill="white"/>
<path opacity="0.5" d="M192.1 58.4L188.6 56.3V56.9L192.1 58.9V58.4Z" fill="white"/>
<path d="M167.9 33.5L194.8 18C195.4 17.6 196.2 17.6 196.8 18L225.7 34.5C226.1 34.7 226.1 35.4 225.7 35.6L198.6 51.4C198 51.8 197.2 51.8 196.6 51.4L167.9 34.7C167.5 34.3 167.5 33.7 167.9 33.5Z" fill="#F8F8F9"/>
<path d="M201.7 55.1L222.4 43V62.4L201.7 74.5V55.1Z" fill="white"/>
<path d="M202.4 86.1L211.6 80.8V89.2L202.4 94.6V86.1Z" fill="#A8A8A9"/>
<path d="M213.2 80.6L222.6 75.2V76.3L213.2 81.6V80.6Z" fill="#A8A8A9"/>
<path d="M213.3 82.7L222.7 77.3V78.3L213.3 83.7V82.7Z" fill="#A8A8A9"/>
<path d="M217.8 82.3L222.9 79.4V80.4L217.8 83.3V82.3Z" fill="#A8A8A9"/>
<path d="M202 79L222.3 67.3V68.3L202 80V79Z" fill="#A8A8A9"/>
<path d="M202.1 81.1L222.4 69.4V70.4L202.1 82V81.1Z" fill="#A8A8A9"/>
<path d="M206.6 80.7L222.5 71.4V72.5L206.6 81.6V80.7Z" fill="#A8A8A9"/>
<path d="M201.7 73.2V68.2L202.8 63.2L205.4 65.6L207.4 61.7L210.1 63.5L211 61.1L212.6 58.8L214.2 59.7L216.6 58L219.1 57.7L220.3 56.3L222.4 56.2V61.2L201.7 73.2Z" fill="#7D7D7F"/>
<path d="M201.7 74.5V71.4L204.1 67.9L205.4 68.8L208 63.6L209 65.3H210.4L212.6 62L213.9 61.2H216.6L218.4 58.7L220.3 59.6L222.4 59.5V62.5L201.7 74.5Z" fill="#262629"/>
<path d="M218.6 49.7L220.9 48.4V49.3L218.6 50.6V49.7Z" fill="#A8A8A9"/>
<path d="M212.7 54.5L220.9 49.7V50.6L212.7 55.4V54.5Z" fill="#A8A8A9"/>
<path d="M90.6 123.4L100.5 117.6L110.5 123.4L100.5 129.1L90.6 123.4Z" fill="#515154" stroke="#7D7D7F" stroke-width="0.2835" stroke-miterlimit="10" stroke-linecap="round" stroke-linejoin="round"/>
<path d="M90.6 123.4V127.7L100.5 133.5V129.1L90.6 123.4Z" fill="#515154" stroke="#7D7D7F" stroke-width="0.2835" stroke-miterlimit="10" stroke-linecap="round" stroke-linejoin="round"/>
<path d="M91 124.4V125.5L93.5 127V125.9L91 124.4Z" fill="white"/>
<path d="M100.5 133.5L110.5 127.7V123.4L100.5 129.1V133.5Z" fill="#515154" stroke="#7D7D7F" stroke-width="0.2835" stroke-miterlimit="10" stroke-linecap="round" stroke-linejoin="round"/>
<path d="M94.6 130V125.7L96.5 126.8V131.2L94.6 130Z" fill="#DEDEDF"/>
<path d="M94.6 125.7L104.5 120L106.6 121.1L96.5 126.8L94.6 125.7Z" fill="#DEDEDF"/>
<path d="M117.5 107.5L127.5 101.7L137.4 107.5L127.5 113.2L117.5 107.5Z" fill="#515154" stroke="#7D7D7F" stroke-width="0.2835" stroke-miterlimit="10" stroke-linecap="round" stroke-linejoin="round"/>
<path d="M117.5 107.5V111.8L127.5 117.5V113.2L117.5 107.5Z" fill="#515154" stroke="#7D7D7F" stroke-width="0.2835" stroke-miterlimit="10" stroke-linecap="round" stroke-linejoin="round"/>
<path d="M118 108.5V109.6L120.5 111V109.9L118 108.5Z" fill="white"/>
<path d="M127.5 117.5L137.4 111.8V107.5L127.5 113.2V117.5Z" fill="#515154" stroke="#7D7D7F" stroke-width="0.2835" stroke-miterlimit="10" stroke-linecap="round" stroke-linejoin="round"/>
<path d="M121.5 114.1V109.8L123.5 110.9V115.2L121.5 114.1Z" fill="#A8A8A9"/>
<path d="M121.5 109.8L131.5 104L133.5 105.1L123.5 110.9L121.5 109.8Z" fill="#A8A8A9"/>
<path d="M144.4 87.6L154.4 81.8L164.3 87.6L154.4 93.3L144.4 87.6Z" fill="#515154" stroke="#7D7D7F" stroke-width="0.2835" stroke-miterlimit="10" stroke-linecap="round" stroke-linejoin="round"/>
<path d="M144.4 87.6V96L154.4 101.7V93.3L144.4 87.6Z" fill="#515154" stroke="#7D7D7F" stroke-width="0.2835" stroke-miterlimit="10" stroke-linecap="round" stroke-linejoin="round"/>
<path d="M144.8 88.6V89.7L147.4 91.1V90L144.8 88.6Z" fill="white"/>
<path d="M154.4 101.7L164.3 96V87.6L154.4 93.3V101.7Z" fill="#515154" stroke="#7D7D7F" stroke-width="0.2835" stroke-miterlimit="10" stroke-linecap="round" stroke-linejoin="round"/>
<path d="M148.4 98.3V89.9L150.4 91V99.4L148.4 98.3Z" fill="#A8A8A9"/>
<path d="M148.4 89.9L158.3 84.1L160.4 85.3L150.4 91L148.4 89.9Z" fill="#A8A8A9"/>
<path d="M171.3 75.9L181.2 70.1L191.2 75.9L181.2 81.6L171.3 75.9Z" fill="#515154" stroke="#7D7D7F" stroke-width="0.2835" stroke-miterlimit="10" stroke-linecap="round" stroke-linejoin="round"/>
<path d="M171.3 75.9V80.2L181.2 86V81.6L171.3 75.9Z" fill="#515154" stroke="#7D7D7F" stroke-width="0.2835" stroke-miterlimit="10" stroke-linecap="round" stroke-linejoin="round"/>
<path d="M171.7 76.9V78L174.3 79.5V78.4L171.7 76.9Z" fill="white"/>
<path d="M181.2 86L191.2 80.2V75.9L181.2 81.6V86Z" fill="#515154" stroke="#7D7D7F" stroke-width="0.2835" stroke-miterlimit="10" stroke-linecap="round" stroke-linejoin="round"/>
<path d="M175.3 82.5V78.2L177.3 79.3V83.7L175.3 82.5Z" fill="#A8A8A9"/>
<path d="M175.3 78.2L185.2 72.5L187.3 73.6L177.3 79.3L175.3 78.2Z" fill="#A8A8A9"/>
<path d="M41.2 46.8L40.6 49.5C39.8 50 39.8 53 39.8 53.8L40.8 157.5C40.8 162.5 43.8 166.2 48.8 168.7L91.4 193.8C92.1 194.2 93 195.8 93.7 195.5L97.7 196.2C101.9 194.9 104.8 191.4 104.8 187.5V84.2C104.8 79.2 100.7 73.1 95.8 70.6L55.4 47.1C50.3 44.6 46 43.9 41.2 46.8Z" fill="#A8A8A9"/>
<path d="M47.7 47.3C42.7 44.8 38.7 46.8 38.7 51.8V157C38.7 162 42.8 168.1 47.7 170.6L91.5 195.8C96.5 198.3 100.5 196.3 100.5 191.3V86.1C100.5 81.1 96.4 75 91.5 72.5L47.7 47.3Z" fill="white"/>
<path d="M95.5 195.5C94.6 195.5 93.5 195.2 92.3 194.6L48.5 169.4C44.1 167.2 40.3 161.5 40.3 157V51.8C40.3 50.4 40.7 49.3 41.3 48.6C41.9 48 42.6 47.7 43.6 47.7C44.5 47.7 45.6 48 46.8 48.6L90.6 73.8C95 76 98.8 81.7 98.8 86.2V191.4C98.8 192.8 98.4 193.9 97.8 194.6C97.2 195.2 96.5 195.5 95.5 195.5Z" fill="#DEDEDF"/>
<path d="M91.3 80.2L94.2 81.8V82.8L91.3 81.1V80.2Z" fill="black"/>
<path d="M91.3 81.8L94.2 83.4V84.4L91.3 82.7V81.8Z" fill="black"/>
<path d="M91.3 83.4L94.2 85V86L91.3 84.3V83.4Z" fill="black"/>
<path d="M58 63.7001C57.9 63.8001 57.9 63.9001 57.9 64.1001C57.9 64.3001 58 64.5001 58.1 64.7001C58.2 64.9001 58.5 65.2001 59 65.6001C59.5 66.0001 59.8 66.4 60.1 66.9C60.4 67.3 60.5 67.9 60.5 68.4C60.5 69 60.4 69.4 60.1 69.5C59.8 69.7 59.4 69.6 58.9 69.3C58.2 68.9 57.5 68.1 56.8 67L57.4 66.3C57.9 67.2 58.4 67.8 58.8 68C59 68.1 59.1 68.1001 59.2 68.1001C59.3 68.0001 59.4 67.9001 59.3 67.7001C59.3 67.5001 59.2 67.3001 59.1 67.1001C59 66.9001 58.7 66.7 58.4 66.4C57.8 65.9 57.4 65.4 57.2 65C56.9 64.6 56.8 64 56.8 63.4C56.8 62.8 56.9 62.4 57.2 62.3C57.5 62.1 57.9 62.2 58.4 62.5C58.7 62.7 59 62.9 59.4 63.3C59.7 63.6 60 64 60.2 64.4L59.7 65.2001C59.3 64.5001 58.8 64.1 58.4 63.8C58.3 63.7 58.1 63.7001 58 63.7001Z" fill="black"/>
<path d="M63.2 66.6L63.4 71.8L62.3 71.2L62.1 66L60.8 65.2V64L64.5 66.1V67.3L63.2 66.6Z" fill="black"/>
<path d="M69.3 74.3C68.8 74.7 68.3 74.7 67.6 74.3C66.9 73.9 66.3 73.3 65.8 72.3C65.3 71.4 65 70.5 65 69.5C65 68.5 65.2 67.9 65.6 67.5C66 67.1 66.6 67.1 67.3 67.5C68 67.9 68.6 68.5 69.1 69.5C69.6 70.4 69.9 71.3 69.9 72.3C69.9 73.3 69.7 73.9 69.3 74.3ZM68.8 71.7001C68.8 71.1001 68.6 70.6 68.3 70C68 69.4 67.7 69 67.3 68.8C66.9 68.6 66.6 68.6 66.3 68.8C66 69.1 65.9 69.5 65.9 70C65.9 70.6 66.1 71.1001 66.4 71.7001C66.7 72.3001 67 72.6 67.4 72.9C67.8 73.1 68.1 73.1 68.4 72.9C68.7 72.7 68.9 72.3001 68.8 71.7001Z" fill="black"/>
<path d="M74.6 73.9C74.6 74.9 74.4 75.4 73.8 75.4L75.1 78.4L73.8 77.7L72.7 75L72 74.6L72.1 76.7L71 76.1L70.8 69.6L72.6 70.6C73.3 71 73.9 71.5 74.2 72C74.4 72.6 74.6 73.2 74.6 73.9ZM73.3 74C73.4 73.9 73.5 73.7 73.5 73.3C73.5 73 73.4 72.7 73.3 72.5C73.2 72.3 72.9 72.1 72.6 71.9L71.8 71.5L71.9 73.4L72.7 73.8C73 74 73.2 74.1 73.3 74Z" fill="black"/>
<path d="M79 74.3V75.6L76.7 74.3V75.6L78.8 76.8V78L76.7 76.8V78.1L79.1 79.5V80.8L75.6 78.8L75.4 72.3L79 74.3Z" fill="black"/>
<path d="M49.2 169.4V110.2L90.6 131V193.3L49.2 169.4Z" fill="#A8A8A9"/>
<path d="M49.2 169.4L90.6 145.9V118.6L49.2 94.9V169.4Z" fill="#515154"/>
<path d="M33.6 71.1V75.1C33.6 77.3 35.2 80.2 37.3 81.4C39.3 82.7 41 81.8 41 79.5V75.3L33.6 71.1Z" fill="#7D7D7F"/>
<path d="M40.9 75.3V79.3C40.9 81.5 42.5 84.4 44.6 85.6C46.6 86.9 48.3 86 48.3 83.7V79.5L40.9 75.3Z" fill="white"/>
<path d="M48.2 79.4V83.4C48.2 85.6 49.8 88.5 51.9 89.7C53.9 91 55.6 90.1 55.6 87.8V83.6L48.2 79.4Z" fill="#7D7D7F"/>
<path d="M62.9 87.8V91.8C62.9 94 64.5 96.9 66.6 98.1C68.6 99.4 70.3 98.5 70.3 96.2V92L62.9 87.8Z" fill="#7D7D7F"/>
<path d="M55.6 83.6V87.6C55.6 89.8 57.2 92.7 59.3 93.9C61.3 95.2 63 94.3 63 92V87.8L55.6 83.6Z" fill="white"/>
<path d="M71 92.4L77.7 86.1L84.2 89.9V90.7L78.3 96.6L71 92.4Z" fill="white"/>
<path d="M70.2 92V96C70.2 98.2 71.8 101.1 73.9 102.3C75.9 103.6 77.6 102.7 77.6 100.4V96.2L70.2 92Z" fill="white"/>
<path d="M33.6 71.1L40.4 64.7L47.7 69L40.9 75.3L33.6 71.1Z" fill="#A8A8A9"/>
<path d="M40.9 75.3L47.7 68.9L55 73.2L48.2 79.4L40.9 75.3Z" fill="white"/>
<path d="M48.2 79.4L55 73.1L62.3 77.3L55.6 83.6L48.2 79.4Z" fill="#A8A8A9"/>
<path d="M55.6 83.6L62.3 77.3L69.6 81.5L62.9 87.8L55.6 83.6Z" fill="white"/>
<path d="M62.9 87.8L69.6 81.5L76.9 85.7L70.2 92L62.9 87.8Z" fill="#A8A8A9"/>
<path d="M70.2 92L76.9 85.7L84.2 89.9L77.5 96.2L70.2 92Z" fill="white"/>
<path d="M77.5 96.2V100.2C77.5 102.4 79.1 105.3 81.2 106.5C83.2 107.8 84.9 106.9 84.9 104.6V100.4L77.5 96.2Z" fill="#7D7D7F"/>
<path d="M85.6 100.8V104.8C85.6 107 87.2 109.9 89.3 111.1C91.3 112.4 93 111.5 93 109.2V105L85.6 100.8Z" fill="#A8A8A9"/>
<path d="M85.6 100.8L92.4 94.5L98.9 98.3V99.1L92.9 105L85.6 100.8Z" fill="#A8A8A9"/>
<path d="M84.8 100.4V104.4C84.8 106.6 86.4 109.5 88.5 110.7C90.5 112 92.2 111.1 92.2 108.8V104.6L84.8 100.4Z" fill="white"/>
<path d="M77.5 96.2L84.2 89.9L91.6 94.1L84.8 100.4L77.5 96.2Z" fill="#A8A8A9"/>
<path d="M84.8 100.4L91.6 94.1L98.9 98.3L92.1 104.6L84.8 100.4Z" fill="white"/>
<path d="M72.3 164.9L216.2 82V73.5L72.3 156.4C70.5 157.4 69.1 160.1 69.1 162.5C69.1 164.9 70.6 166 72.3 164.9Z" fill="#262629"/>
<path d="M74.5 166L218.4 83.1V74.6L74.5 157.5C72.7 158.5 71.3 161.2 71.3 163.6C71.3 165.9 72.7 167 74.5 166Z" fill="white"/>
<path d="M74.5 164.2C75.5 163.6 76.3 162 76.3 160.7C76.3 159.3 75.5 158.7 74.5 159.3C73.5 159.9 72.7 161.5 72.7 162.8C72.6 164.2 73.5 164.8 74.5 164.2Z" fill="#7D7D7F"/>
<path d="M74.5 162.8C74.9 162.5 75.3 161.9 75.3 161.3C75.3 160.7 74.9 160.4 74.5 160.7C74.1 161 73.7 161.6 73.7 162.2C73.7 162.8 74.1 163.1 74.5 162.8Z" fill="white"/>
<path d="M42.9 148.5L186.8 65.6V57.1L42.9 140C41.1 141 39.7 143.7 39.7 146.1C39.7 148.4 41.1 149.5 42.9 148.5Z" fill="white"/>
<path d="M45 149.5L189 66.7V58.2L45 141C43.2 142 41.8 144.7 41.8 147.1C41.9 149.5 43.3 150.5 45 149.5Z" fill="#262629"/>
<path d="M45.1 147.7C46.1 147.1 46.9 145.5 46.9 144.2C46.9 142.8 46.1 142.2 45.1 142.8C44.1 143.4 43.3 145 43.3 146.3C43.2 147.7 44 148.3 45.1 147.7Z" fill="#7D7D7F"/>
<path d="M45.1 146.3C45.5 146 45.9 145.4 45.9 144.8C45.9 144.2 45.5 143.9 45.1 144.2C44.7 144.5 44.3 145.1 44.3 145.7C44.3 146.3 44.6 146.6 45.1 146.3Z" fill="white"/>
<path d="M211.2 31.2L210.6 32.2H210.5L201.1 26.8C201 26.7 200.7 26.7 200.5 26.7L189 28.9C188.7 29 188.4 29.1 188.3 29.3L185.5 34.1L195.2 39.7L193 40.1L183.3 34.5L186.8 28.5C186.9 28.3 187.2 28.1 187.6 28L200.9 25.4C201.3 25.3 201.7 25.4 201.9 25.5L210.9 30.7C211.3 30.8 211.3 31 211.2 31.2ZM198.3 27.8L208 33.4L205.2 38.2C205.1 38.4 204.8 38.6 204.5 38.6L193 40.8C192.8 40.8 192.6 40.8 192.4 40.7L182.9 35.2L182.4 36.1C182.4 36.2 182.3 36.2 182.3 36.3L192.2 42C192.3 42 192.4 42 192.5 42L205.8 39.4C206.2 39.3 206.5 39.1 206.6 38.9L210.1 32.9L200.4 27.3L198.3 27.8ZM192 36.1L199.4 34.7C199.5 34.7 199.5 34.6 199.4 34.6L197.8 33.7L201.7 31.5C201.7 31.5 201.7 31.5 201.7 31.4C201.7 31.4 201.7 31.4 201.6 31.4L194.2 32.8C194.1 32.8 194.1 32.9 194.2 32.9L195.8 33.8L192 36.1C191.9 36.1 191.9 36 192 36.1Z" fill="#A8A8A9"/>
<path d="M47.3 141.3L88.6 117.5L90.6 118.6V145.9L72.7 156.2C72.7 156.2 69.6 157.8 69.4 161.6C69.3 163.2 69.7 164.4 69.7 164.4L44.3 149.7C44.3 149.7 43.2 148.9 43.2 147.3C42.9 142.7 47.3 141.3 47.3 141.3Z" fill="#DEDEDF"/>
<path d="M242.4 124.1L127.3 190.5L115.7 183.8L230.8 117.3L242.4 124.1Z" fill="#A8A8A9"/>
<path d="M125.2 130.8L147.7 117.8L151.5 119.8L147.7 169.7L129 184.7L125.2 182.6V130.8Z" fill="#A8A8A9" stroke="#7D7D7F" stroke-width="0.2835" stroke-miterlimit="10" stroke-linejoin="round"/>
<path d="M129 132.8L151.5 119.8V171.7L129 184.7V132.8Z" fill="white" stroke="#7D7D7F" stroke-width="0.2835" stroke-miterlimit="10" stroke-linecap="round" stroke-linejoin="round"/>
<path d="M132.3 133.8L148.2 124.6V130.1L132.3 139.3V133.8Z" fill="#D4D4D4" stroke="#7D7D7F" stroke-width="0.2835" stroke-miterlimit="10" stroke-linecap="round" stroke-linejoin="round"/>
<path d="M132.3 143L148.2 133.8V138.3L132.3 147.5V143Z" fill="white" stroke="#7D7D7F" stroke-width="0.2835" stroke-miterlimit="10" stroke-linecap="round" stroke-linejoin="round"/>
<path d="M132.3 151.8L140.2 147.2V151.7L132.3 156.3V151.8Z" fill="white" stroke="#7D7D7F" stroke-width="0.2835" stroke-miterlimit="10" stroke-linecap="round" stroke-linejoin="round"/>
<path d="M168.3 159.8L167.5 162.1C167.5 162.1 162.9 160.9 162.6 160.8C159.9 159.9 158.1 156.8 158.1 152.1V130.9C158.1 123.4 162.7 114.7 168.3 111.5C170.2 110.4 172 110.1 173.6 110.4C176.5 111.1 178.2 111.6 178.2 111.6L178.6 140.4C178.5 147.9 174 156.6 168.3 159.8Z" fill="#A8A8A9" stroke="#7D7D7F" stroke-width="0.2835" stroke-miterlimit="10" stroke-linejoin="round"/>
<path d="M173.2 143C172 143.7 171.1 143 171.1 141.4V126.7C171.1 125.1 172.1 123.3 173.2 122.6C174.4 121.9 175.3 122.6 175.3 124.2V138.9C175.4 140.5 174.4 142.4 173.2 143Z" fill="white" stroke="#7D7D7F" stroke-width="0.2835" stroke-miterlimit="10" stroke-linecap="round" stroke-linejoin="round"/>
<path d="M172.6 161C167 164.2 162.4 160.8 162.4 153.3V132.1C162.4 124.6 167 115.9 172.6 112.7C178.2 109.5 182.8 112.9 182.8 120.4V141.6C182.8 149 178.2 157.7 172.6 161Z" fill="white" stroke="#7D7D7F" stroke-width="0.2835" stroke-miterlimit="10" stroke-linecap="round" stroke-linejoin="round"/>
<path d="M177.4 144.2C176.2 144.9 175.3 144.2 175.3 142.6V127.9C175.3 126.3 176.3 124.5 177.4 123.8C178.6 123.1 179.5 123.8 179.5 125.4V140.1C179.6 141.7 178.6 143.5 177.4 144.2Z" fill="#D4D4D4" stroke="#7D7D7F" stroke-width="0.2835" stroke-miterlimit="10" stroke-linecap="round" stroke-linejoin="round"/>
<path d="M202 105.8C195.3 109.6 189.9 120 189.9 128.9C189.9 137.8 195.3 141.9 202 138C208.7 134.2 214.1 123.8 214.1 114.9C214.1 106 208.7 101.9 202 105.8ZM202 133.6C197.1 136.4 193.2 133.4 193.2 126.9C193.2 120.4 197.1 112.9 202 110.1C206.9 107.3 210.8 110.3 210.8 116.8C210.8 123.3 206.9 130.8 202 133.6Z" fill="#A8A8A9" stroke="#7D7D7F" stroke-width="0.2835" stroke-miterlimit="10" stroke-linecap="round" stroke-linejoin="round"/>
<path d="M198.292 106.78C199.2 104.646 198.948 102.495 197.728 101.975C196.508 101.456 194.783 102.766 193.875 104.9C192.966 107.035 193.219 109.186 194.438 109.705C195.658 110.224 197.383 108.915 198.292 106.78Z" fill="white" stroke="#7D7D7F" stroke-width="0.2835" stroke-miterlimit="10" stroke-linecap="round" stroke-linejoin="round"/>
<path d="M210.468 125.421C213.951 117.239 213.024 109.01 208.399 107.042C203.775 105.074 197.203 110.112 193.721 118.294C190.239 126.476 191.165 134.704 195.79 136.673C200.415 138.641 206.986 133.603 210.468 125.421Z" stroke="#7D7D7F" stroke-width="0.2835" stroke-miterlimit="10" stroke-linecap="round" stroke-linejoin="round"/>
<path d="M194.4 132.3L188.5 135.7V121.8V117.5C188.5 116 188.9 114.4 189.7 112.9L193.1 106.3C193.6 105.3 194.3 104.5 195 104.1C197.4 102.7 198.6 105.8 196.9 109L194.3 114.1V132.3H194.4Z" fill="white" stroke="#7D7D7F" stroke-width="0.2835" stroke-miterlimit="10" stroke-linecap="round" stroke-linejoin="round"/>
<path d="M212.5 115.8V129.4L210.8 130.4V116.8" fill="#A8A8A9"/>
<path d="M212.5 115.8V129.4L210.8 130.4V116.8" stroke="#7D7D7F" stroke-width="0.2835" stroke-miterlimit="10" stroke-linecap="round" stroke-linejoin="round"/>
<path d="M213.7 132.2L209.7 134.5L210.8 130.4L212.5 129.4L213.7 132.2Z" fill="#A8A8A9" stroke="#7D7D7F" stroke-width="0.2835" stroke-miterlimit="10" stroke-linecap="round" stroke-linejoin="round"/>
<path d="M194.4 129.3L188.5 132.7V135.7L194.4 132.3V129.3Z" fill="#A8A8A9" stroke="#7D7D7F" stroke-width="0.2835" stroke-miterlimit="10"/>
<path d="M213.7 134.4L209.7 136.8V134.5L213.7 132.2V134.4Z" fill="#A8A8A9" stroke="#7D7D7F" stroke-width="0.2835" stroke-miterlimit="10" stroke-linecap="round" stroke-linejoin="round"/>
<path opacity="0.3" d="M229.5 115.6L216 123.4C215.1 123.9 215.1 125.2 216 125.7L229.6 133.3C230.4 133.8 231.5 133.8 232.3 133.3L245.9 125.7C246.8 125.2 246.8 123.9 245.9 123.4L232.4 115.6C231.4 115.1 230.3 115.1 229.5 115.6Z" fill="black" stroke="white" stroke-width="0.4535" stroke-miterlimit="10" stroke-linecap="round" stroke-linejoin="round"/>
<path d="M229.5 112.4L215.3 118.8V121.2C215.3 121.8 215.6 122.3 216.1 122.5L229.5 130.2C230.3 130.7 231.4 130.7 232.2 130.2L245.6 122.6C246.1 122.3 246.4 121.8 246.4 121.3V119L232.2 112.3C231.4 111.9 230.3 111.9 229.5 112.4Z" fill="#A8A8A9"/>
<path d="M229.5 109.8L216 117.6C215.1 118.1 215.1 119.4 216 119.9L229.6 127.5C230.4 128 231.5 128 232.3 127.5L245.9 119.9C246.8 119.4 246.8 118.1 245.9 117.6L232.4 109.8C231.4 109.3 230.3 109.3 229.5 109.8Z" fill="white"/>
<path d="M233 93L236 91.3L238.8 93L236 94.7L233 93Z" fill="white"/>
<path d="M233 93V116.7L236 118.3V94.7L233 93Z" fill="#DEDEDF"/>
<path d="M238.8 93V116.6L236 118.3V94.7L238.8 93Z" fill="#A8A8A9"/>
<path d="M228.3 103.8L231.3 102.1L234.1 103.8L231.3 105.5L228.3 103.8Z" fill="white"/>
<path d="M228.3 103.8V119.4L231.3 121V105.5L228.3 103.8Z" fill="#DEDEDF"/>
<path d="M234.1 103.8V119.3L231.3 121V105.5L234.1 103.8Z" fill="#A8A8A9"/>
<path d="M223.6 101L226.5 99.3L229.4 101L226.5 102.7L223.6 101Z" fill="white"/>
<path d="M223.6 101V122.1L226.5 123.7V102.7L223.6 101Z" fill="#DEDEDF"/>
<path d="M229.4 101V122L226.5 123.7V102.7L229.4 101Z" fill="#A8A8A9"/>
<path d="M51.4 141.5L64.7 133.8L78 141.5L64.7 149.2L51.4 141.5Z" fill="#515154" stroke="#7D7D7F" stroke-width="0.2835" stroke-miterlimit="10" stroke-linecap="round" stroke-linejoin="round"/>
<path d="M51.4 141.5V147.3L64.7 154.9V149.2L51.4 141.5Z" fill="#515154" stroke="#7D7D7F" stroke-width="0.2835" stroke-miterlimit="10" stroke-linecap="round" stroke-linejoin="round"/>
<path d="M52 142.9V144.3L55.4 146.3V144.8L52 142.9Z" fill="white"/>
<path d="M64.7 154.9L78 147.3V141.5L64.7 149.2V154.9Z" fill="#515154" stroke="#7D7D7F" stroke-width="0.2835" stroke-miterlimit="10" stroke-linecap="round" stroke-linejoin="round"/>
<path d="M56.7 150.3V144.6L59.4 146.1V151.9L56.7 150.3Z" fill="#A8A8A9"/>
<path d="M56.7 144.6L70 136.9L72.8 138.4L59.4 146.1L56.7 144.6Z" fill="#A8A8A9"/>
<path d="M21.7 202.3L21.6 208.3L23.9 208.9L26.3 210.5L28.2 209.7L28 208.3H26.9L23.9 204.9L24.1 202.3H21.7Z" fill="white" stroke="#7D7D7F" stroke-width="0.2835" stroke-miterlimit="10" stroke-linecap="round" stroke-linejoin="round"/>
<path d="M25 206.1L31.4 207.1C32.2 207.4 32.6 208.4 32.1 209.3C32 209.5 31.8 209.7 31.6 209.8C30.8 210.3 29.2 211.1 26.2 211.5C25.9 211.5 25.7 211.2 25.4 211.3L24.7 211.7L23.4 211.8C22.4 211.9 21.5 211.1 21.5 210.1L21.7 206.3L22.2 207.2C22.5 207.7 23 208 23.6 208C24.3 208 24.9 207.4 25 206.7V206.1Z" fill="#A8A8A9" stroke="#7D7D7F" stroke-width="0.2835" stroke-miterlimit="10" stroke-linecap="round" stroke-linejoin="round"/>
<path d="M23.3 211L24.6 210.9L25.3 210.5C25.6 210.5 25.9 210.8 26.1 210.7C29.2 210.3 30.8 209.5 31.6 209C31.9 208.8 32.1 208.5 32.2 208.1C32.3 208.3 32.3 208.6 32.2 208.8C32.1 209.2 31.9 209.5 31.6 209.7C30.9 210.2 29.2 211 26.1 211.4C25.8 211.4 25.6 211.1 25.3 211.2L24.6 211.6L23.3 211.7C22.3 211.8 21.4 211 21.4 210V209.5C21.5 210.4 22.3 211.1 23.3 211Z" fill="white" stroke="#7D7D7F" stroke-width="0.2835" stroke-miterlimit="10" stroke-linecap="round" stroke-linejoin="round"/>
<path d="M27 205L26.9 211L29.2 211.7L31.5 213.2L33.4 212.4L33.2 211.1L32.1 211L29.2 207.6L29.3 205H27Z" fill="white" stroke="#7D7D7F" stroke-width="0.2835" stroke-miterlimit="10" stroke-linecap="round" stroke-linejoin="round"/>
<path d="M22.7 203.8C21.4 203.8 20.9 203.8 21 202.6L21.2 188.6L20.6 179.5C20.6 177.3 19.8 175.5 19.7 173.8L20.2 169.6C20.1 168.4 20.1 168.1 21.3 167.9C22.5 167.8 26.9 168.5 27.1 169.8L25.5 187.5L24.3 202.8C24.3 204 23.9 203.8 22.7 203.8Z" fill="#515154" stroke="#7D7D7F" stroke-width="0.2835" stroke-miterlimit="10" stroke-linecap="round" stroke-linejoin="round"/>
<path d="M24.1 190.7L22.5 203.9H22.6H22.7C23.9 203.9 24.2 204.1 24.3 202.9L25.5 187.6L27.1 170.3C26.4 170.1 25.7 170 25.4 170C24.2 170.1 22 169 22.1 170.2L23 171.8C22.8 172.8 22.5 173.4 23.1 174.3C23.1 176 23.6 177.6 24.5 179.1C24.7 179.4 24.8 179.7 24.8 180.3" stroke="#7D7D7F" stroke-width="0.2835" stroke-miterlimit="10" stroke-linecap="round" stroke-linejoin="round"/>
<path d="M27.9 206.5C26.6 206.5 26.3 206.5 26.3 205.3L26.4 190.6L26.1 180.3C25.9 178.6 25.3 179 24.4 177.5L23.3 175.8C22.7 174.9 22.5 173.9 22.6 172.8L23.1 170.2C23 169 25.2 170 26.4 169.9C27.6 169.8 32 170.9 32.5 174.3L32.7 175.2C33 176.4 33.1 177.7 32.8 179L30.9 189.7L29.5 205.4C29.7 206.6 29.1 206.5 27.9 206.5Z" fill="#515154" stroke="#7D7D7F" stroke-width="0.2835" stroke-miterlimit="10" stroke-linecap="round" stroke-linejoin="round"/>
<path d="M21.1 167.7C20.3 167.7 19.6 167.1 19.4 166.3L17.9 159.7C17.8 159.1 17.7 158.4 17.9 157.8L19.8 148.4C20 147.5 20.8 146.8 21.7 146.9C22.8 147 23.5 148 23.3 149L21.4 158.7L22.9 165.5C23.1 166.4 22.6 167.4 21.8 167.7C21.5 167.7 21.3 167.7 21.1 167.7Z" fill="white" stroke="#7D7D7F" stroke-width="0.2835" stroke-miterlimit="10" stroke-linecap="round" stroke-linejoin="round"/>
<path d="M19.4 166.3C19.6 167.1 20.3 167.7 21.1 167.7C21.3 167.7 21.5 167.7 21.8 167.6C22.7 167.3 23.1 166.3 22.9 165.4L21.4 158.6L23.3 148.9C23.5 147.9 22.8 146.9 21.7 146.8C20.8 146.7 19.9 147.4 19.8 148.3L20 149.1V158.4C20.3 160.8 20.2 164.1 19.4 166.3Z" fill="white" stroke="#7D7D7F" stroke-width="0.2835" stroke-miterlimit="10" stroke-linecap="round" stroke-linejoin="round"/>
<path d="M24.2 146.4L29.1 149C31.8 150.4 33.4 153.2 33.4 156.2L32.3 164.6C32.2 165.6 32.2 166.5 32.4 167.5L33 170.8C33.1 171.3 33.2 171.8 33.2 172.3L33.5 176.2C31.7 177.3 24.3 175.5 24.1 175.5C22.1 174.6 20.5 173.5 19.7 172.2L20.1 168C20.2 167.4 20.3 166.9 20.5 166.4C21.4 163.9 21.7 161.2 21.3 158.6L19.7 149.3C19.6 146.8 22.1 145.3 24.2 146.4Z" fill="#A8A8A9"/>
<path d="M24 164.8C23 164.3 22 163.8 21.2 163.2C21.2 163 21.3 162.7 21.3 162.5C22.1 163.1 23 163.6 24 164.1C24.2 164.2 29.4 165.4 32.2 165.2C32.2 165.5 32.2 165.7 32.2 166C29.4 166.1 24.2 164.9 24 164.8Z" fill="#DEDEDF"/>
<path d="M24 166.3C22.8 165.8 21.8 165.2 20.9 164.5C21 164.3 21 164.1 21 163.9C21.8 164.5 22.8 165.1 23.9 165.6C24.1 165.7 29.3 166.9 32.1 166.7C32.1 167 32.2 167.2 32.2 167.5C29.6 167.7 24.2 166.4 24 166.3Z" fill="#DEDEDF"/>
<path d="M24 167.8C22.7 167.2 21.5 166.5 20.6 165.7C20.7 165.5 20.7 165.3 20.8 165.1C21.6 165.8 22.8 166.5 24 167.1C24.2 167.2 29.7 168.5 32.4 168.1L32.5 168.8C29.9 169.3 24.2 167.9 24 167.8Z" fill="#DEDEDF"/>
<path d="M24 163.3C23 162.9 22.1 162.4 21.4 161.8C21.4 161.6 21.4 161.3 21.4 161.1C22.2 161.7 23.1 162.2 24 162.6C24.2 162.7 29.7 164 32.4 163.6L32.3 164.4C29.6 164.7 24.2 163.4 24 163.3Z" fill="#DEDEDF"/>
<path d="M24 157.2C22.7 156.6 21.5 155.9 20.6 155.1L20.4 154.2C21.3 155.1 22.5 155.8 23.9 156.5C24.1 156.6 31.1 158.2 33.1 157.3L33 158.1C30.9 158.9 24.2 157.3 24 157.2Z" fill="#DEDEDF"/>
<path d="M24 161.8C23 161.4 22.1 160.9 21.4 160.3C21.4 160 21.4 159.8 21.3 159.5C22.1 160.1 23 160.6 24 161C24.2 161.1 30 162.5 32.6 162L32.5 162.8C29.9 163.2 24.2 161.9 24 161.8Z" fill="#DEDEDF"/>
<path d="M24 158.8C22.8 158.3 21.7 157.6 20.9 156.9L20.7 156C21.6 156.8 22.7 157.4 23.9 158C24.1 158.1 30.6 159.6 32.9 158.9L32.8 159.7C30.5 160.3 24.2 158.8 24 158.8Z" fill="#DEDEDF"/>
<path d="M24 173.9C22.1 173.1 20.5 172 19.7 170.8L19.8 170.1C20.6 171.3 22.2 172.3 24 173.1C24.2 173.2 31.1 174.8 33.2 173.9L33.3 174.6C31.3 175.6 24.2 174 24 173.9Z" fill="#DEDEDF"/>
<path d="M24 160.3C23 159.8 22 159.3 21.2 158.7C21.2 158.6 21.2 158.6 21.2 158.5L21.1 157.8C21.9 158.5 22.9 159 24 159.5C24.2 159.6 30.3 161 32.8 160.5L32.7 161.3C30.2 161.8 24.2 160.3 24 160.3Z" fill="#DEDEDF"/>
<path d="M24 155C24.2 155.1 31.4 156.8 33.3 155.8V156.4V156.6C31.4 157.6 24.2 155.9 24 155.8C22.5 155.1 21.2 154.3 20.3 153.4L20.1 152.5C21 153.4 22.4 154.3 24 155Z" fill="#DEDEDF"/>
<path d="M20.7 146.8C21.6 147.6 22.7 148.3 24 148.9C24.1 149 27.7 149.8 30.4 150C30.7 150.2 31 150.5 31.2 150.8C28.4 150.8 24.1 149.8 23.9 149.7C22.4 149 21.1 148.2 20.2 147.3C20.4 147.1 20.5 147 20.7 146.8Z" fill="#DEDEDF"/>
<path d="M24 150.4C24.2 150.5 29 151.6 31.8 151.5C32 151.7 32.1 152 32.3 152.2C29.6 152.5 24.2 151.2 24 151.2C22.2 150.4 20.6 149.3 19.8 148.1C19.9 147.9 19.9 147.8 20 147.6C20.9 148.7 22.3 149.7 24 150.4Z" fill="#DEDEDF"/>
<path d="M19.7 148.7C20.5 149.9 22.1 151.1 24 151.9C24.2 152 30.1 153.4 32.7 152.9C32.8 153.1 32.9 153.4 33 153.6C30.7 154.3 24.3 152.8 24.1 152.7C22.2 151.9 20.5 150.7 19.8 149.5V149.3L19.7 148.7Z" fill="#DEDEDF"/>
<path d="M24 174.6C24.2 174.7 31.4 176.4 33.3 175.4L33.4 176.1C33.3 176.1 33.2 176.2 33.1 176.2H33C32.9 176.2 32.9 176.2 32.8 176.2C32.7 176.2 32.5 176.3 32.4 176.3C32.3 176.3 32.2 176.3 32.1 176.3C32 176.3 32 176.3 31.9 176.3C31.7 176.3 31.5 176.3 31.2 176.3C31.1 176.3 31 176.3 30.8 176.3C30.6 176.3 30.6 176.3 30.4 176.3C30.3 176.3 30.1 176.3 30 176.3C29.9 176.3 29.7 176.3 29.6 176.3C29.5 176.3 29.3 176.3 29.2 176.3C28 176.2 26.7 175.9 25.6 175.7C25 175.6 24.4 175.5 24.1 175.4H24C23.8 175.4 23.7 175.3 23.7 175.3C23.2 175.1 22.7 174.8 22.3 174.6C22.1 174.5 21.9 174.3 21.7 174.2C21.5 174.1 21.4 174 21.2 173.9C21 173.7 20.8 173.6 20.6 173.4C20.5 173.3 20.3 173.2 20.2 173C20.1 172.9 20 172.8 19.9 172.7C19.7 172.5 19.5 172.2 19.4 172L19.5 171.3C20.5 172.7 22.1 173.8 24 174.6Z" fill="#DEDEDF"/>
<path d="M24 148.2C22.9 147.7 21.9 147.2 21.1 146.5C21.3 146.4 21.5 146.3 21.8 146.2C22.5 146.6 23.2 147 24 147.4C24.1 147.4 25.5 147.8 27.2 148.1L29 149C29.1 149 29.1 149.1 29.2 149.1C26.7 148.8 24.1 148.2 24 148.2Z" fill="#DEDEDF"/>
<path d="M24 168.6C24.2 168.7 30.1 170.1 32.7 169.6L32.8 170.3C30.4 170.9 24.2 169.4 24 169.3C22.5 168.6 21.1 167.7 20.2 166.8C20.3 166.6 20.3 166.4 20.4 166.2C21.3 167.1 22.6 167.9 24 168.6Z" fill="#DEDEDF"/>
<path d="M20.1 167.4C21 168.4 22.4 169.4 24 170.1C24.2 170.2 30.6 171.7 32.9 171C32.9 171.2 33 171.5 33 171.7C30.7 172.4 24.2 170.9 24 170.8C22.3 170.1 20.9 169.1 20 168V167.8C20.1 167.7 20.1 167.6 20.1 167.4Z" fill="#DEDEDF"/>
<path d="M24 153.5C24.2 153.6 31 155.2 33.1 154.3C33.2 154.5 33.2 154.8 33.2 155C31.2 156 24.1 154.3 23.9 154.2C22.2 153.5 20.8 152.5 19.9 151.4L19.7 150.4C20.7 151.6 22.2 152.7 24 153.5Z" fill="#DEDEDF"/>
<path d="M24 171.6C24.2 171.7 30.9 173.3 33.1 172.5L33.2 173.2C31.1 174.1 24.3 172.4 24.1 172.4C22.3 171.6 20.8 170.6 20 169.5L20.1 168.8C20.8 169.9 22.3 170.8 24 171.6Z" fill="#DEDEDF"/>
<path d="M28.2 148.6H25L24.6 146.7V143.1H28.2V148.6Z" fill="white" stroke="#7D7D7F" stroke-width="0.2835" stroke-miterlimit="10" stroke-linecap="round" stroke-linejoin="round"/>
<path d="M29.6 138L30.2 138.7C30.4 138.9 30.5 139.2 30.5 139.5L30.6 141.3V143.7C30.7 144.8 29.8 145.8 28.7 145.7L26.9 145.5C26.4 145.4 25.8 145.2 25.4 144.9L23.7 143.5C23.1 143 22.7 142.2 22.7 141.4V139.8C22.7 138.9 23.3 138.2 24.1 137.9L28.3 136.6C28.8 136.4 29.3 136.7 29.6 137.1C29.8 137.2 29.6 137.7 29.6 138Z" fill="white" stroke="#7D7D7F" stroke-width="0.2835" stroke-miterlimit="10" stroke-linecap="round" stroke-linejoin="round"/>
<path d="M28.8 135.4C26.9 134.7 24.7 135 23 136.2C22.7 136.4 22.2999 136.7 22.0999 137C21.2999 138 21.3 139.3 21.5 140.5C21.7 141.4 22 142.1 22.4 142.9C22.9 144 23.6 146.2 25.2 145.5C26 145.1 26.7 144.5 27 143.7C27.3 143 27.4 142.1 27.7 141.4C28 140.8 28.5 140.2 29.2 139.9C29.7 139.6 30.2 139.4 30.7 139.1C32.5 137.7 30.1 135.9 28.8 135.4Z" fill="#7D7D7F" stroke="#7D7D7F" stroke-width="0.2835" stroke-miterlimit="10" stroke-linecap="round" stroke-linejoin="round"/>
<path d="M24.6 145.9C24.6 145.9 24.5 149.3 28.2 148L29 149.1C29 149.1 22.6 150.6 24.3 146.1L24.6 145.9Z" fill="white" stroke="#7D7D7F" stroke-width="0.2835" stroke-miterlimit="10" stroke-linecap="round" stroke-linejoin="round"/>
<path d="M30.2 208.8L36.6 209.8C37.4 210.1 37.8 211.1 37.3 212C37.2 212.2 37 212.4 36.8 212.5C36 213 34.4 213.8 31.4 214.2C31.1 214.2 30.9 213.9 30.6 214L29.9 214.4L28.6 214.5C27.6 214.6 26.7 213.8 26.7 212.8L26.9 209L27.4 209.9C27.7 210.4 28.2 210.7 28.8 210.7C29.5 210.7 30.1 210.1 30.2 209.4V208.8Z" fill="#A8A8A9" stroke="#7D7D7F" stroke-width="0.2835" stroke-miterlimit="10" stroke-linecap="round" stroke-linejoin="round"/>
<path d="M28.5 213.7L29.8 213.6L30.5 213.2C30.8 213.2 31.1 213.5 31.3 213.4C34.4 213 36 212.2 36.8 211.7C37.1 211.5 37.3 211.2 37.4 210.8C37.5 211 37.5 211.3 37.4 211.5C37.3 211.9 37.1 212.2 36.8 212.4C36.1 212.9 34.4 213.7 31.3 214.1C31 214.1 30.8 213.8 30.5 213.9L29.8 214.3L28.5 214.4C27.5 214.5 26.6 213.7 26.6 212.7V212.2C26.8 213.1 27.6 213.8 28.5 213.7Z" fill="white" stroke="#7D7D7F" stroke-width="0.2835" stroke-miterlimit="10" stroke-linecap="round" stroke-linejoin="round"/>
<path d="M28.9 151.4C28.1 152.4 28.5 153.1 29.1 154.3L32.5 163.3L33.5 156.2C33.5 156 33.5 155.7 33.5 155.5L32 152C31.2 150.7 29.8 150.3 28.9 151.4Z" fill="#7D7D7F"/>
<path d="M42.7 151.5C42.7 152 42.5 152.3 42.2 152.3C41.9 152.3 41.7 151.9 41.7 151.5V150.2C41.7 149.7 41.9 149.4 42.2 149.4C42.5 149.4 42.7 149.8 42.7 150.2V151.5Z" fill="white" stroke="#7D7D7F" stroke-width="0.2835" stroke-miterlimit="10" stroke-linecap="round" stroke-linejoin="round"/>
<path d="M43.8 149.9C43.6 150.2 43.2 150.3 43 150.1C42.8 149.9 42.8 149.6 43.1 149.3L44.8 147.2C45 146.9 45.4 146.8 45.6 147C45.8 147.2 45.8 147.5 45.5 147.8L43.8 149.9Z" fill="white" stroke="#7D7D7F" stroke-width="0.2835" stroke-miterlimit="10" stroke-linecap="round" stroke-linejoin="round"/>
<path d="M45.1 149.9C44.9 150.2 44.5 150.3 44.3 150.1C44.1 149.9 44.1001 149.6 44.4001 149.3L46.1 147.2C46.3 146.9 46.7001 146.8 46.9001 147C47.1001 147.2 47.1 147.5 46.8 147.8L45.1 149.9Z" fill="white" stroke="#7D7D7F" stroke-width="0.2835" stroke-miterlimit="10" stroke-linecap="round" stroke-linejoin="round"/>
<path d="M45.6 150.9C45.4 151.2 45 151.3 44.8 151.1C44.6 150.9 44.6001 150.6 44.9001 150.3L46.6 148.2C46.8 147.9 47.2001 147.8 47.4001 148C47.6001 148.2 47.6 148.5 47.3 148.8L45.6 150.9Z" fill="white" stroke="#7D7D7F" stroke-width="0.2835" stroke-miterlimit="10" stroke-linecap="round" stroke-linejoin="round"/>
<path d="M45.6 151.9C45.3 152.1 45 152.2 44.8 152C44.6 151.8 44.7 151.5 45 151.2L46.9 149.4C47.2 149.2 47.5 149.1 47.7 149.3C47.9 149.5 47.8 149.8 47.5 150.1L45.6 151.9Z" fill="white" stroke="#7D7D7F" stroke-width="0.2835" stroke-miterlimit="10" stroke-linecap="round" stroke-linejoin="round"/>
<path d="M16.8 146.3C16.9 145.7 16.9 145 16.8 144.4C16.6 143.3 16.2 142.2 16 141C15.8 139.9 15.9 138.6 16.7 137.7C17.6 136.9 19 136.8 20.1 137.3C21.2 137.7 22.1 138.6 23 139.4L22.7 140.5C22.2 140.1 21.4 140.7 21.3 141.3C21.2 141.9 21.5 142.5 21.8 143.1C22.3 144 22.7 144.9 22.9 145.9C23.1 146.9 23 148 22.4 148.8C21.6 149.8 20.1 150.2 18.9 149.9C17.6 149.6 16.6 148.7 15.8 147.6C16.3 147.6 16.7 146.9 16.8 146.3Z" fill="#7D7D7F" stroke="#7D7D7F" stroke-width="0.2835" stroke-miterlimit="10" stroke-linecap="round" stroke-linejoin="round"/>
<path d="M20.6 148.9C21.3 148.2 21.5 147.1 21.4 146.1C21.3 145.1 21 144.1 20.6 143.2C20.4 142.6 20.1 142 20.3 141.4C20.5 140.8 21.2 140.4 21.7 140.7C21.5 140.9 21.3 141.1 21.3 141.4C21.2 142 21.5 142.6 21.8 143.2C22.3 144.1 22.7 145 22.9 146C23.1 147 23 148.1 22.4 148.9C21.6 149.9 20.1 150.3 18.9 150H18.8C19.4 149.7 20.1 149.4 20.6 148.9Z" fill="#7D7D7F" stroke="#7D7D7F" stroke-width="0.2835" stroke-miterlimit="10" stroke-linecap="round" stroke-linejoin="round"/>
<path d="M22.6 141C23 141.1 23.3 140.8 23.3 140.4L23.5 139.3C23.6 138.9 23.3 138.6 22.9 138.6C22.5 138.5 22.2 138.8 22.2 139.2C22.5 139.6 22.4 140 22 140.3C22 140.6 22.3 141 22.6 141Z" fill="white" stroke="#7D7D7F" stroke-width="0.2835" stroke-miterlimit="10" stroke-linecap="round" stroke-linejoin="round"/>
<path d="M33.8 161.4L28.7 153.6C28.2 152.9 28.3 151.9 28.9 151.3C29.7 150.5 31.1 150.7 31.7 151.6L35.6 157.5L42.3 151.6L43.3 149.4C44.1 148.6 45.4 148.6 46.1 149.6C46.6 150.3 46.5 151.3 45.9 151.9L43.6 153.9L36.7 161.8C35.7 162.5 34.4 162.3 33.8 161.4Z" fill="white" stroke="#7D7D7F" stroke-width="0.2835" stroke-miterlimit="10" stroke-linecap="round" stroke-linejoin="round"/>
<path d="M21.5 83.6L61.5 106.7C62.4 107.2 62.9 108.1 62.9 109.2V119.7C62.9 120.6 61.9 121.2 61.1 120.7L21.1 97.6C20.2 97.1 19.7 96.2 19.7 95.1V84.6C19.7 83.8 20.7 83.2 21.5 83.6Z" fill="white" stroke="#7D7D7F" stroke-width="0.2835" stroke-miterlimit="10" stroke-linejoin="round"/>
<path d="M21.2 90.2L60.8 113V114.7L21.2 91.9V90.2Z" fill="#DEDEDF"/>
<path d="M21.2 93.8L43.6 106.7V108.4L21.2 95.5V93.8Z" fill="#DEDEDF"/>
<path d="M22.7 86.5L23.2 87.9L24.3 88.5V88.6L23.5 89.1L23.6 90.3C23.6 90.3 23.6 90.4 23.5 90.3L22.6 89.2L21.8 89.3C21.8 89.3 21.7 89.3 21.7 89.2L21.9 88.1L21.2 86.8C21.2 86.8 21.2 86.7 21.3 86.7L22.3 87.3L22.7 86.5ZM26.6 88.8L26.2 89.6L25.2 89C25.2 89 25.1 89 25.1 89.1L25.8 90.4L25.6 91.5C25.6 91.5 25.6 91.6 25.7 91.6L26.5 91.5L27.4 92.6H27.5L27.4 91.4L28.2 90.9V90.8L27.1 90.2L26.6 88.8C26.6 88.7 26.6 88.7 26.6 88.8ZM30.5 91L30.1 91.8L29.1 91.2C29.1 91.2 29 91.2 29 91.3L29.7 92.6L29.5 93.7C29.5 93.7 29.5 93.8 29.6 93.8L30.4 93.7L31.3 94.8H31.4L31.3 93.6L32.1 93.1V93L31 92.4L30.5 91ZM34.3 93.3L33.9 94.1L32.9 93.5C32.9 93.5 32.8 93.5 32.8 93.6L33.5 94.9L33.3 96C33.3 96 33.3 96.1 33.4 96.1L34.2 96L35.1 97.1H35.2L35.1 95.9L35.9 95.4V95.3L34.8 94.7L34.3 93.3C34.4 93.3 34.4 93.3 34.3 93.3ZM38.2 95.6L37.8 96.4L36.8 95.8C36.8 95.8 36.7 95.8 36.7 95.9L37.4 97.2L37.2 98.3C37.2 98.3 37.2 98.4 37.3 98.4L38.1 98.3L39 99.4H39.1L39 98.2L39.8 97.7V97.6L38.7 97L38.2 95.6C38.3 95.5 38.3 95.5 38.2 95.6Z" fill="#DEDEDF"/>
<path d="M82.2 119.1C82.2 118.6 82.5 118.4 83 118.7L107.4 132.8C107.8 133 108.2 133.6 108.2 134.1V162.3C108.2 162.8 107.9 163 107.4 162.7L83 148.6C82.6 148.4 82.2 147.8 82.2 147.3V119.1Z" fill="white" stroke="#7D7D7F" stroke-width="0.2835" stroke-miterlimit="10" stroke-linejoin="round"/>
<path d="M84.2 125.6L98.6 133.7V135.2L84.2 126.9V125.6Z" fill="#DEDEDF"/>
<path d="M84.2 127.9L88.8 130.4V131.9L84.2 129.2V127.9Z" fill="#DEDEDF"/>
<path d="M84.2 122.8L90 126.1V127.6L84.2 124V122.8Z" fill="#DEDEDF"/>
<path d="M92.6988 136.632C93.207 136.416 93.3209 135.54 92.9533 134.676C92.5856 133.812 91.8756 133.287 91.3673 133.503C90.8591 133.719 90.7452 134.595 91.1129 135.459C91.4805 136.323 92.1906 136.848 92.6988 136.632Z" fill="white" stroke="#7D7D7F" stroke-width="0.2835" stroke-miterlimit="10" stroke-linecap="round" stroke-linejoin="round"/>
<path d="M97.45 151.581C99.6353 150.651 100.074 146.766 98.4307 142.903C96.787 139.041 93.683 136.664 91.4977 137.594C89.3124 138.524 88.8732 142.409 90.5169 146.271C92.1606 150.133 95.2647 152.511 97.45 151.581Z" fill="white" stroke="#7D7D7F" stroke-width="0.2835" stroke-miterlimit="10" stroke-linecap="round" stroke-linejoin="round"/>
<path d="M97.0584 150.66C98.9388 149.86 99.306 146.492 97.8786 143.138C96.4512 139.784 93.7697 137.714 91.8893 138.514C90.0089 139.314 89.6417 142.682 91.0691 146.036C92.4965 149.39 95.178 151.461 97.0584 150.66Z" fill="white" stroke="#7D7D7F" stroke-width="0.2835" stroke-miterlimit="10" stroke-linecap="round" stroke-linejoin="round"/>
<path d="M96.6277 149.648C98.2031 148.978 98.516 146.168 97.3265 143.373C96.1369 140.578 93.8955 138.856 92.3201 139.526C90.7446 140.196 90.4317 143.006 91.6212 145.801C92.8107 148.596 95.0522 150.319 96.6277 149.648Z" fill="white" stroke="#7D7D7F" stroke-width="0.2835" stroke-miterlimit="10" stroke-linecap="round" stroke-linejoin="round"/>
<path d="M91.3 145.2L88.9 143.8V138.1V136.4C88.9 135.8 89.1 135.3 89.4 135.1L90.8 134C91 133.8 91.3 133.8 91.6 134C92.6 134.6 93.1 136.4 92.4 137L91.3 137.9V145.2V145.2Z" fill="white" stroke="#7D7D7F" stroke-width="0.2835" stroke-miterlimit="10" stroke-linecap="round" stroke-linejoin="round"/>
<path d="M98.8 147V152.6L98 152.2V146.6" fill="white"/>
<path d="M98.8 147V152.6L98 152.2V146.6" stroke="#7D7D7F" stroke-width="0.2835" stroke-miterlimit="10" stroke-linecap="round" stroke-linejoin="round"/>
<path d="M99.2 154.3L97.6 153.4L98 152.2L98.8 152.6L99.2 154.3Z" fill="white" stroke="#7D7D7F" stroke-width="0.2835" stroke-miterlimit="10" stroke-linecap="round" stroke-linejoin="round"/>
<path d="M91.3 144L88.9 142.6V143.8L91.3 145.2V144Z" fill="white" stroke="#7D7D7F" stroke-width="0.2835" stroke-miterlimit="10" stroke-linecap="round" stroke-linejoin="round"/>
<path d="M99.2 155.2L97.6 154.3V153.4L99.2 154.3V155.2Z" fill="white" stroke="#7D7D7F" stroke-width="0.2835" stroke-miterlimit="10" stroke-linecap="round" stroke-linejoin="round"/>
<path d="M27.8 108V123.8C27.8 125.2 28.5 126.5 29.7 127.2L43.4 135.1C44.3 135.6 45.4 135 45.4 133.9V118.1C45.4 116.7 44.7 115.4 43.5 114.7L29.8 106.8C28.9 106.4 27.8 107 27.8 108Z" fill="#7D7D7F"/>
<path d="M26.4 108.6V124.4C26.4 125.8 27.1 127.1 28.3 127.8L42 135.7C42.9 136.2 44 135.6 44 134.5V118.7C44 117.3 43.3 116 42.1 115.3L28.4 107.4C27.5 106.9 26.4 107.6 26.4 108.6Z" fill="white"/>
<path d="M31.2 115.8C31 115.7 30.8 115.6 30.6 115.4C30.4 115.3 30.2 115.2 30 115C29.8 114.9 29.6 114.6 29.6 114.4C29.6 114.2 29.7 114.1 30 114.2C30.5 114.5 30.9 114.7 31.4 115C31.7 115.2 31.8 115.4 31.9 115.8C32 116.1 32 116.4 32.1 116.7C32.1 116.7 32.1 116.8 32.2 116.8C32.3 116.9 32.4 116.9 32.5 117C34.6 118.2 36.6 119.4 38.7 120.6C38.8 120.7 38.9 120.7 39 120.8C39.3 121 39.4 121.3 39.3 121.7C39 123 38.8 124.3 38.5 125.7C38.4 126 38.3 126 38.1 125.9C38 125.9 37.9 125.8 37.8 125.7C36.4 124.9 35 124.1 33.6 123.3C33.5 123.2 33.4 123.2 33.2 123.1C33.3 123.5 33.3 123.9 33.4 124.3C33.5 124.4 33.6 124.4 33.7 124.5C35 125.3 36.4 126 37.7 126.8C38 127 38.2 127.2 38.2 127.5C38.2 127.8 38.1 127.8 37.7 127.6C36.2 126.8 34.8 125.9 33.3 125.1C32.9 124.9 32.9 124.8 32.8 124.2C32.3 121.6 31.9 119.1 31.4 116.5C31.3 116.3 31.2 116.1 31.2 115.8ZM33.6 120.1C33.6 119.6 33.5 119.1 33.5 118.5C33 118.2 32.6 118 32.2 117.7C32.3 118.3 32.4 118.8 32.5 119.4C32.8 119.7 33.2 119.9 33.6 120.1ZM35.1 121C35.1 120.5 35.1 120 35.1 119.5C34.8 119.3 34.4 119.1 34.1 118.9C34.1 119.4 34.2 119.9 34.2 120.5C34.5 120.6 34.8 120.8 35.1 121ZM37.4 120.8C37.4 121.3 37.3 121.8 37.3 122.2C37.6 122.4 37.9 122.6 38.2 122.7C38.3 122.3 38.4 121.8 38.5 121.4C38.1 121.2 37.8 121 37.4 120.8ZM36.8 120.5C36.4 120.3 36.1 120.1 35.8 119.9C35.8 120.4 35.8 120.9 35.8 121.4C36.1 121.6 36.4 121.7 36.7 121.9C36.7 121.4 36.8 121 36.8 120.5ZM33.6 121C33.2 120.8 32.9 120.6 32.6 120.4C32.7 121 32.8 121.5 32.9 122C33.2 122.2 33.4 122.3 33.7 122.5C33.7 122 33.7 121.5 33.6 121ZM34.3 121.4C34.3 121.9 34.4 122.5 34.4 123C34.7 123.1 34.9 123.3 35.1 123.4C35.1 122.9 35.1 122.4 35.1 121.9C34.8 121.7 34.6 121.6 34.3 121.4ZM36.5 124.2C36.5 123.7 36.6 123.2 36.6 122.8C36.3 122.6 36 122.5 35.8 122.3C35.8 122.8 35.8 123.3 35.8 123.8C36 123.9 36.2 124 36.5 124.2ZM37.1 124.5C37.3 124.6 37.5 124.8 37.8 124.9C37.9 124.5 38 124 38.1 123.6C37.8 123.4 37.5 123.3 37.3 123.1C37.2 123.6 37.2 124 37.1 124.5Z" fill="#262629"/>
<path d="M33.6 125.5C33.9 125.7 34.2 126.2 34.2 126.7C34.2 127.1 33.9 127.3 33.6 127.1C33.3 126.9 33 126.4 33 125.9C33 125.6 33.2 125.4 33.6 125.5Z" fill="#262629"/>
<path d="M36.6 128.1C36.6 127.6 36.8 127.4 37.2 127.6C37.5 127.8 37.8 128.3 37.8 128.7C37.8 129.1 37.5 129.3 37.2 129.2C36.8 129 36.6 128.5 36.6 128.1Z" fill="#262629"/>
<path d="M105.8 17.8C105.8 10.2 109.2 3.5 109.2 3.5C109.2 3.5 113.2 1.5 113.9 1.2C118.1 -0.600003 123.8 0.199994 130.1 3.89999C143.4 11.6 154.2 30.4 154.2 45.8C154.2 50.9 153 55 150.9 57.9L131.1 81.9C131 82 130.9 82.1 130.7 82.2C130.2 82.5 126.8 84.1 126.8 84.1L109.2 34C107.1 28.6 105.8 23 105.8 17.8ZM130.1 46.9C137.3 51 143.1 47.7 143.1 39.4C143.1 31.1 137.2 21 130.1 16.9C122.9 12.8 117.1 16.1 117.1 24.4C117.1 32.6 122.9 42.7 130.1 46.9Z" fill="#A8A8A9"/>
<path d="M130.4 19.2V30.3L134.4 32.6C134.5 32.7 134.6 32.8 134.5 32.9L128.4 43.5C128.3 43.6 124.8 45 124.8 45L125 31.4C124.9 31.3 126.6 20.6 126.6 20.5L130.2 19C130.2 18.9 130.4 19 130.4 19.2Z" fill="#515154"/>
<path d="M126.8 20.7V31.8L130.8 34.1C130.9 34.2 131 34.3 130.9 34.4L124.8 45C124.7 45.1 124.6 45 124.6 44.8V33.7L120.6 31.4C120.5 31.3 120.4 31.2 120.5 31.1L126.6 20.5C126.6 20.3 126.8 20.5 126.8 20.7Z" fill="#A8A8A9"/>
<path d="M102.1 19.7C102.1 3.60002 112.6 -2.29998 126.4 5.80002C139.7 13.5 150.5 32.3 150.5 47.7C150.5 52.8 149.3 56.9 147.2 59.8L127.4 83.8C126.9 84.4 125.9 84.3 125.6 83.5L105.4 35.8C103.3 30.4 102.1 24.9 102.1 19.7ZM126.3 48.7C133.5 52.8 139.3 49.5 139.3 41.2C139.3 32.9 133.4 22.8 126.3 18.7C119.1 14.6 113.3 17.9 113.3 26.2C113.3 34.5 119.1 44.6 126.3 48.7Z" fill="#CCCCCC"/>
</svg>
