<svg width="277" height="240" viewBox="0 0 277 240" fill="none" xmlns="http://www.w3.org/2000/svg">
<path d="M268.3 87.3L184.8 39.1C182.9 38 180.7 37.6 178.6 38L47.6 63.2C45 63.7 42.8001 65.3 41.4001 67.6L2.00003 136C-0.499974 140.3 1.00007 145.9 5.30008 148.4L86.8001 195.5C88.7001 196.6 90.9 197 93 196.6L224 171.4C226.6 170.9 228.8 169.3 230.2 167L270.8 96.6C272.7 93.4 271.6 89.2 268.3 87.3Z" fill="#DEDEDF"/>
<path d="M168.2 84.9L187.9 73.5L184.6 71.7L164.9 83L168.2 84.9Z" fill="white"/>
<path d="M168.2 79.5L187.9 68.2L184.6 66.3L164.9 77.6L168.2 79.5Z" fill="white"/>
<path d="M168.2 79.5V84.9L164.9 83V77.6L168.2 79.5Z" fill="#DEDEDF"/>
<path d="M187.9 68.2V73.5L168.2 84.9V79.5L187.9 68.2Z" fill="#A8A8A9"/>
<path d="M170.7 70.7L164.3 67.1L127.8 88.2L134.1 91.8L170.7 70.7Z" fill="#DEDEDF"/>
<path d="M127.8 88.3L102.9 73.5V38.7L127.8 53.5V88.3Z" fill="#DEDEDF"/>
<path d="M164.3 64.3L127.8 85.3V53.5L146 18.9L164.3 32.4V64.3Z" fill="#A8A8A9"/>
<path d="M134.1 91.8L102.9 73.3V75.2L134.1 93.7V91.8Z" fill="#A8A8A9"/>
<path d="M134.1 91.8L170.6 70.7V72.7L134.1 93.7V91.8Z" fill="#A8A8A9"/>
<path d="M127.8 85.3L164.3 64.3V67.1L127.8 88.2V85.3Z" fill="#A8A8A9"/>
<path d="M146.1 18.9L164.3 32.4L165.4 31.3L166.6 30L146.1 14.8L125.5 53.8L127.8 53.5L146.1 18.9Z" fill="#7D7D7F"/>
<path d="M145.7 78.9V80.4L147.2 81.3V82.6L142.4 79.8V76.9L145.7 78.9Z" fill="white"/>
<path d="M157 73.9L145.7 80.4V78.9L157 72.4V73.9Z" fill="#A8A8A9"/>
<path d="M158.5 76.1L147.2 82.6V81.3L158.5 74.8V76.1Z" fill="#A8A8A9"/>
<path d="M158.5 74.8L157 73.9L145.7 80.4L147.2 81.3L158.5 74.8Z" fill="#DEDEDF"/>
<path d="M142.4 58.4L152.8 52.4V70.9L142.4 76.9V58.4Z" fill="#7D7D7F"/>
<path d="M142.4 58.4L151.7 53.1V70.2L142.4 75.6V58.4Z" fill="#515154"/>
<path d="M145.4 66.1L152.9 52.2L160.4 57.5L159.3 59L152.9 54.5L146.5 66.4L145.4 66.1Z" fill="#7D7D7F"/>
<path d="M153.6 70.5L157 72.4L145.7 78.9L142.4 76.9L153.6 70.5Z" fill="#DEDEDF"/>
<path d="M146.1 14.8L121.2 0L100.6 39L125.5 53.8L146.1 14.8Z" fill="white"/>
<path d="M146.1 18.9L146.7 17.4L165.4 31.3L164.3 32.4L146.1 18.9Z" fill="#7D7D7F"/>
<path d="M152.9 52.2L147 48.8L139.5 62.7L145.4 66.1L152.9 52.2Z" fill="#DEDEDF"/>
<path d="M159.3 59L151.4 57.3L153.2 53.8L159.8 58.3L159.3 59Z" fill="#515154"/>
<path d="M141.2 46.1L152.1 39.8V34.1L141.2 40.4V46.1Z" fill="#7D7D7F"/>
<path d="M152.7 40.1H151.7V34.3L152.7 33.8V40.1Z" fill="white"/>
<path d="M151.7 39.6L152.5 40.1L141.2 46.6V45.7L151.7 39.6Z" fill="#DEDEDF"/>
<path d="M150.7 40.2L151.7 39.6V34.3L150.7 34.9V40.2Z" fill="#7D7D7F"/>
<path d="M141.2 45.7L142.1 45.1V39.8L141.2 40.4V45.7Z" fill="#7D7D7F"/>
<path d="M141.2 44.6V45.7L151.7 39.6V38.6L141.2 44.6Z" fill="#7D7D7F"/>
<path d="M178.5 64.6C176.8 65.6 174 65.6 172.2 64.6C170.5 63.6 170.5 62 172.2 61C173.9 60 176.7 60 178.5 61C180.3 62 180.3 63.6 178.5 64.6Z" fill="#7D7D7F"/>
<path d="M174.7 35.1H176.1L176.5 62.5C176.5 62.7 176.4 62.8 176.2 63C175.8 63.2 175.1 63.2 174.6 63C174.4 62.9 174.3 62.7 174.3 62.5L174.7 35.1Z" fill="white" stroke="#7D7D7F" stroke-width="0.2835" stroke-miterlimit="10" stroke-linejoin="round"/>
<path d="M175.4 28.8C172.3 28.8 166.4 34.8 166.4 44.7C166.4 49 170.4 52.4 175.4 52.4C180.4 52.4 184.4 49 184.4 44.7C184.4 34.8 178.5 28.8 175.4 28.8Z" fill="#A8A8A9"/>
<path d="M98.9 87.8C99.2314 87.8 99.5 87.4418 99.5 87C99.5 86.5582 99.2314 86.2 98.9 86.2C98.5687 86.2 98.3 86.5582 98.3 87C98.3 87.4418 98.5687 87.8 98.9 87.8Z" fill="#7D7D7F"/>
<path d="M136.8 102.3L156.5 90.9L153.2 89.1L133.5 100.4L136.8 102.3Z" fill="white"/>
<path d="M136.8 96.9L156.5 85.6L153.2 83.7L133.5 95.1L136.8 96.9Z" fill="white"/>
<path d="M136.8 96.9V102.3L133.5 100.4V95.1L136.8 96.9Z" fill="#DEDEDF"/>
<path d="M156.5 85.6V90.9L136.8 102.3V96.9L156.5 85.6Z" fill="#A8A8A9"/>
<path d="M126.3 108.5L145.9 97.1L142.7 95.2L123 106.6L126.3 108.5Z" fill="white"/>
<path d="M126.3 103.1L145.9 91.7L142.7 89.9L123 101.2L126.3 103.1Z" fill="white"/>
<path d="M126.3 103.1V108.5L123 106.6V101.2L126.3 103.1Z" fill="#DEDEDF"/>
<path d="M145.9 91.7V97.1L126.3 108.5V103.1L145.9 91.7Z" fill="#A8A8A9"/>
<path d="M128.8 94.3L122.4 90.7L85.8 111.8L92.2 115.4L128.8 94.3Z" fill="#DEDEDF"/>
<path d="M85.8 111.9L61 97V62.2L85.8 77.1V111.9Z" fill="#DEDEDF"/>
<path d="M122.4 87.8L85.8 108.9V77.1L104.1 42.5L122.4 56V87.8Z" fill="#A8A8A9"/>
<path d="M92.2 115.4L60.9 96.9V98.8L92.2 117.3V115.4Z" fill="#A8A8A9"/>
<path d="M92.2 115.4L128.7 94.3V96.2L92.2 117.3V115.4Z" fill="#A8A8A9"/>
<path d="M85.8 108.9L122.4 87.8V90.7L85.8 111.8V108.9Z" fill="#A8A8A9"/>
<path d="M104.1 42.5L122.4 56L123.5 54.9L124.7 53.6L104.1 38.4L83.5 77.4L85.9 77L104.1 42.5Z" fill="#7D7D7F"/>
<path d="M103.8 102.4V104L105.3 104.8V106.2L100.4 103.3V100.5L103.8 102.4Z" fill="white"/>
<path d="M115.1 97.5L103.8 104V102.4L115.1 95.9V97.5Z" fill="#A8A8A9"/>
<path d="M116.6 99.6L105.3 106.2V104.8L116.6 98.3V99.6Z" fill="#A8A8A9"/>
<path d="M116.6 98.3L115.1 97.4L103.8 104L105.3 104.8L116.6 98.3Z" fill="#DEDEDF"/>
<path d="M100.4 82L110.8 76V94.5L100.4 100.5V82Z" fill="#7D7D7F"/>
<path d="M100.4 82L109.7 76.7V93.8L100.4 99.1V82Z" fill="#515154"/>
<path d="M103.5 89.7L111 75.8L118.4 81L117.4 82.6L111 78L104.5 90L103.5 89.7Z" fill="#7D7D7F"/>
<path d="M111.7 94L115.1 95.9L103.8 102.4L100.4 100.5L111.7 94Z" fill="#DEDEDF"/>
<path d="M104.1 38.4L79.3 23.6L58.7 62.6L83.5 77.4L104.1 38.4Z" fill="white"/>
<path d="M104.1 42.5L104.7 41L123.5 54.9L122.4 56L104.1 42.5Z" fill="#7D7D7F"/>
<path d="M111 75.8L105 72.3L97.6 86.2L103.5 89.7L111 75.8Z" fill="#DEDEDF"/>
<path d="M117.4 82.6L109.4 80.9L111.3 77.4L117.8 81.9L117.4 82.6Z" fill="#515154"/>
<path d="M99.3 69.7L110.1 63.4V57.7L99.3 63.9V69.7Z" fill="#7D7D7F"/>
<path d="M110.7 63.6H109.7V57.9L110.7 57.3V63.6Z" fill="white"/>
<path d="M109.7 63.2L110.5 63.6L99.3 70.2V69.2L109.7 63.2Z" fill="#DEDEDF"/>
<path d="M108.8 63.7L109.7 63.2V57.9L108.8 58.4V63.7Z" fill="#7D7D7F"/>
<path d="M99.3 69.2L100.2 68.7V63.4L99.3 63.9V69.2Z" fill="#7D7D7F"/>
<path d="M99.3 68.2V69.2L109.7 63.2V62.1L99.3 68.2Z" fill="#7D7D7F"/>
<path d="M56.9 111.4C57.2314 111.4 57.5 111.042 57.5 110.6C57.5 110.158 57.2314 109.8 56.9 109.8C56.5687 109.8 56.3 110.158 56.3 110.6C56.3 111.042 56.5687 111.4 56.9 111.4Z" fill="#7D7D7F"/>
<path d="M94.9 125.9L114.5 114.5L111.3 112.6L91.6 124L94.9 125.9Z" fill="white"/>
<path d="M94.9 120.5L114.5 109.2L111.3 107.3L91.6 118.6L94.9 120.5Z" fill="white"/>
<path d="M94.9 120.5V125.9L91.6 124V118.6L94.9 120.5Z" fill="#DEDEDF"/>
<path d="M114.5 109.2V114.5L94.9 125.9V120.5L114.5 109.2Z" fill="#A8A8A9"/>
<path d="M84.3 132L103.9 120.7L100.7 118.8L81 130.1L84.3 132Z" fill="white"/>
<path d="M84.3 126.7L103.9 115.3L100.7 113.4L81 124.8L84.3 126.7Z" fill="white"/>
<path d="M84.3 126.7V132L81 130.1V124.8L84.3 126.7Z" fill="#DEDEDF"/>
<path d="M103.9 115.3V120.7L84.3 132V126.7L103.9 115.3Z" fill="#A8A8A9"/>
<path d="M86.8 117.9L80.4 114.2L43.8 135.3L50.2 139L86.8 117.9Z" fill="#DEDEDF"/>
<path d="M43.9 135.4L19 120.6V85.8L43.9 100.6V135.4Z" fill="#DEDEDF"/>
<path d="M80.4 111.4L43.9 132.5V100.6L62.1 66.1L80.4 79.6V111.4Z" fill="#A8A8A9"/>
<path d="M50.2 139L19 120.5V122.4L50.2 140.9V139Z" fill="#A8A8A9"/>
<path d="M50.2 139L86.7 117.9V119.8L50.2 140.9V139Z" fill="#A8A8A9"/>
<path d="M43.9 132.5L80.4 111.4V114.2L43.9 135.3V132.5Z" fill="#A8A8A9"/>
<path d="M62.1 66L80.4 79.5L81.5 78.4L82.7 77.1L62.1 61.9L41.5 101L43.9 100.6L62.1 66Z" fill="#7D7D7F"/>
<path d="M61.8 126V127.5L63.3 128.4V129.7L58.4 126.9V124.1L61.8 126Z" fill="white"/>
<path d="M73.1 121L61.8 127.5V126L73.1 119.5V121Z" fill="#A8A8A9"/>
<path d="M74.6 123.2L63.3 129.7V128.4L74.6 121.9V123.2Z" fill="#A8A8A9"/>
<path d="M74.6 121.9L73.1 121L61.8 127.5L63.3 128.4L74.6 121.9Z" fill="#DEDEDF"/>
<path d="M58.4 105.5L68.8 99.5V118.1L58.4 124.1V105.5Z" fill="#7D7D7F"/>
<path d="M58.4 105.5L67.7 100.2V117.4L58.4 122.7V105.5Z" fill="#515154"/>
<path d="M61.5 113.2L69 99.3L76.4 104.6L75.4 106.1L69 101.6L62.5 113.6L61.5 113.2Z" fill="#7D7D7F"/>
<path d="M69.7 117.6L73.1 119.5L61.8 126L58.4 124.1L69.7 117.6Z" fill="#DEDEDF"/>
<path d="M62.1 61.9L37.3 47.1L16.7 86.1L41.5 101L62.1 61.9Z" fill="white"/>
<path d="M62.1 66L62.8 64.6L81.5 78.4L80.4 79.5L62.1 66Z" fill="#7D7D7F"/>
<path d="M69 99.3L63 95.9L55.6 109.8L61.5 113.2L69 99.3Z" fill="#DEDEDF"/>
<path d="M75.4 106.1L67.4 104.5L69.3 101L75.8 105.5L75.4 106.1Z" fill="#515154"/>
<path d="M57.3 93.3L68.2 87V81.2L57.3 87.5V93.3Z" fill="#7D7D7F"/>
<path d="M68.7 87.2H67.7V81.5L68.7 80.9V87.2Z" fill="white"/>
<path d="M67.7 86.8L68.5 87.2L57.3 93.7V92.8L67.7 86.8Z" fill="#DEDEDF"/>
<path d="M66.8 87.3L67.7 86.8V81.5L66.8 82V87.3Z" fill="#7D7D7F"/>
<path d="M57.3 92.8L58.2 92.3V87L57.3 87.5V92.8Z" fill="#7D7D7F"/>
<path d="M57.3 91.7V92.8L67.7 86.8V85.7L57.3 91.7Z" fill="#7D7D7F"/>
<path d="M52.9 149.4L72.5 138.1L69.3 136.2L49.6 147.6L52.9 149.4Z" fill="white"/>
<path d="M52.9 144.1L72.5 132.7L69.3 130.8L49.6 142.2L52.9 144.1Z" fill="white"/>
<path d="M52.9 144.1V149.4L49.6 147.6V142.2L52.9 144.1Z" fill="#DEDEDF"/>
<path d="M72.5 132.7V138.1L52.9 149.4V144.1L72.5 132.7Z" fill="#A8A8A9"/>
<path d="M22.9 145.7C20.9 146.8 17.8 146.8 15.8 145.7C13.8 144.6 13.8 142.7 15.8 141.6C17.8 140.5 20.9 140.5 22.9 141.6C24.9 142.7 24.8 144.6 22.9 145.7Z" fill="#7D7D7F"/>
<path d="M32.0999 132.8C31.8999 132.6 31.6 132.5 31.4 132.3C30.6 131.9 29.8 131.5 28.8 131.3C28.1 130.1 26.6 129.3 24.8 129.3C22.6 129.3 20.7 130.6 20.5 132.3C17.6 134 17.6 136.8 20.5 138.5C22.7 139.7 25.8 140.1 28.5 139.5C29.2 139.7 29.8999 139.7 30.5999 139.7C33.7999 139.7 36.4 138.1 36.4 136.1C36.4 134.6 34.5999 133.2 32.0999 132.8Z" fill="#A8A8A9"/>
<path d="M20.7 119.8L26 111L25.5 110L20.6 118L20.3 99.8H18.1L17.9 116.2L12.4 106.9L11.8 108.1L17.8 118.3L17.4 143.4C17.4 143.7 17.6 143.9 17.9 144.1C18.6 144.5 19.7 144.5 20.4 144.1C20.7 143.9 20.9 143.6 20.9 143.4L20.7 119.8Z" fill="white" stroke="#7D7D7F" stroke-width="0.2835" stroke-miterlimit="10" stroke-linejoin="round"/>
<path d="M21.9 90C20.5 88.5 18.5 87.5 16.1 87.5C12 87.5 8.69995 90.5 8.69995 94.2C8.69995 97.9 12 100.9 16.1 100.9C17.2 100.9 18.3 100.7 19.3 100.2C19.6 100.2 19.8 100.3 20.1 100.3C23.3 100.3 25.9 97.9 25.9 95C25.9 92.7 24.2 90.7 21.9 90Z" fill="#A8A8A9"/>
<path d="M34.1 107.1C34.1 106 33.3 105.1 32.2 104.8C32.1 103.1 30.6 101.7 28.7 101.7C27.1 101.7 25.8 102.6 25.4 103.9C23.7 104.5 22.4 106.1 22.4 107.9C22.4 110.3 24.5 112.2 27.2 112.2C29.2 112.2 30.9 111.1 31.6 109.5C32.9 109.5 34.1 108.4 34.1 107.1Z" fill="#A8A8A9"/>
<path d="M33.8 98.1C33.8 95.6 32.1 93.4 29.7 92.3C29.4 87.9 26 84.4 22 84.4C18.1 84.4 14.9 87.5 14.4 91.6C9.80002 93.1 6.6 96.7 6.5 100.9C5.7 101.9 5.30005 103.2 5.30005 104.5C5.30005 108 8.40005 110.9 12.3 110.9C13 110.9 13.7 110.8 14.3 110.6C15.8 111.1 17.4 111.4 19 111.4C25.2 111.4 30.3 107.7 31.3 102.9C32.8 101.8 33.8 100.1 33.8 98.1Z" fill="#A8A8A9"/>
<path d="M120.4 197L109.9 203.1L109 202.6L119.5 196.5L120.4 197ZM99.4 209.2L88.9 215.3L88 214.8L98.5 208.7L99.4 209.2ZM78.4 221.3L67.9 227.4L67 226.9L77.5 220.8L78.4 221.3ZM57.4 233.4L46.9 239.5L46 239L56.5 232.9L57.4 233.4Z" fill="white"/>
<path d="M215.7 166.8L214.8 167.3L193.3 154.9L129.8 191.6L128.9 191.1L193.3 153.9L215.7 166.8Z" fill="white"/>
<path d="M221.2 163.7L240.5 152.6L235.7 149.9L216.5 161L221.2 163.7Z" fill="white"/>
<path d="M211 157.8L230.2 146.7L225.5 144L206.2 155.1L211 157.8Z" fill="white"/>
<path d="M200.7 151.9L219.9 140.8L215.2 138.1L196 149.2L200.7 151.9Z" fill="white"/>
<path d="M190.4 146L209.7 134.9L205 132.1L185.7 143.2L190.4 146Z" fill="white"/>
<path d="M175.5 137.3L180.2 140L199.4 128.9L194.7 126.2L175.5 137.3Z" fill="white"/>
<path d="M169.9 134.1L189.2 123L184.4 120.3L165.2 131.4L169.9 134.1Z" fill="white"/>
<path d="M159.7 128.2L178.9 117.1L174.2 114.4L155 125.5L159.7 128.2Z" fill="white"/>
<path d="M276.2 92.1C270.6 95.4 262 95.7 257.1 92.9L239.3 82.6C234.4 79.8 225.9 80.1 220.2 83.4L85 161.9C79.4 165.2 78.7 170.1 83.6 172.9L101.4 183.2C106.3 186 105.7 190.9 100 194.2L89.8001 200.7V198.7L100 192.2C105.6 188.9 106.3 184 101.4 181.2L83.6 170.9C78.7 168.1 79.3 163.2 85 159.9L220.2 81.4C225.8 78.1 234.4 77.8 239.3 80.6L257.1 90.9C262 93.7 270.5 93.4 276.2 90.1V92.1V92.1Z" fill="white"/>
<path d="M177.3 99.7L178.6 98.9C178.9 98.7 178.9 98.5 178.6 98.3L177.3 97.5C177 97.3 176.5 97.3 176.2 97.5L174.9 98.3C174.6 98.5 174.6 98.7 174.9 98.9L176.2 99.7C176.5 99.9 177 99.9 177.3 99.7Z" fill="#DEDEDF"/>
<path d="M177.3 70.4L178.6 69.6C178.9 69.4 178.9 69.2 178.6 69L177.3 68.2C177 68 176.5 68 176.2 68.2L174.9 69C174.6 69.2 174.6 69.4 174.9 69.6L176.2 70.4C176.5 70.5 177 70.5 177.3 70.4Z" fill="white"/>
<path d="M174.7 69.3V98.6C174.7 98.5 174.8 98.4 174.9 98.3L176.2 97.5V70.3L174.9 69.5C174.8 69.5 174.7 69.4 174.7 69.3Z" fill="#DEDEDF"/>
<path d="M178.8 69.3V98.6C178.8 98.5 178.7 98.4 178.6 98.3L177.3 97.5V70.3L178.6 69.5C178.7 69.5 178.8 69.4 178.8 69.3Z" fill="#262629"/>
<path d="M177.3 98.8V70.4C177 70.6 176.5 70.6 176.2 70.4V97.6V99.7C176.5 99.9 177 99.9 177.3 99.7V98.8Z" fill="#7D7D7F"/>
<path d="M177.3 97.6L178.6 98.4C178.9 98.6 178.9 98.8 178.6 99L177.3 99.8V97.6Z" fill="#262629"/>
<path d="M177.8 69L176.6 69.8V42.2L177.8 42.6V69Z" fill="#262629"/>
<path d="M190.5 49.7L176.3 41.5C176.1 41.4 176 41.5 176 41.7V69.5L176.6 69.8V42.7C176.6 42.5 176.7 42.5 176.9 42.5L190.5 50.4V49.7Z" fill="#DEDEDF"/>
<path d="M176.2 41.2L177 40.7C177.1 40.6 177.3 40.6 177.4 40.7L191.7 48.9L190.5 49.6L176.4 41.4H176.3C176.1 41.3 176 41.4 176 41.5V41.4C176 41.4 176 41.3 176.2 41.2Z" fill="white"/>
<path d="M194.6 50.3L191.8 49L191.2 49.4L190.6 49.8L192.9 51.4C194.3 52.4 198 55.4 198.4 55.6C199.5 56.2 200.1 55.8 201.2 55.2C202.3 54.6 203 54.2 201.9 53.6C201.5 53.3 196.2 51.1 194.6 50.3Z" fill="white"/>
<path d="M202.4 54C202.4 54.2 202.3 54.3 202.1 54.5C201.9 54.7 201.5 54.9 201.2 55.1C200.6 55.4 200.2 55.7 199.7 55.8V56.7C200.2 56.6 200.6 56.3 201.2 56C201.9 55.6 202.5 55.3 202.5 54.9C202.4 55 202.4 54 202.4 54Z" fill="#262629"/>
<path d="M198.6 55.7V56.6C199 56.8 199.3 56.8 199.6 56.7V55.8C199.3 55.9 199 55.8 198.6 55.7Z" fill="#7D7D7F"/>
<path d="M198.6 55.7C198.5 55.7 198.4 55.6 198.3 55.6C197.9 55.4 194.1 52.3 192.8 51.4L191.7 50.7L190.4 49.8V50.5L192.7 52.4C194.1 53.4 197.8 56.4 198.2 56.6C198.3 56.7 198.4 56.7 198.5 56.7V55.7H198.6Z" fill="#DEDEDF"/>
<path d="M240.5 96.9L238.5 96.7C238.5 96.7 236.7 95.4 236.6 95.3C236.5 95.2 235.6 94.3 235.5 94.1C235.4 93.9 236.7 92.4 237 92.4C237.3 92.4 238.7 92.6 239 92.9C239.4 93.2 240.5 94.3 240.7 94.7C240.9 95 240.5 96.9 240.5 96.9Z" fill="#262629"/>
<path d="M214.6 112.5L212.3 111.3L209.2 109.5C209.2 109.5 209.2 108.8 209.5 108.7C209.8 108.6 214.4 107.3 214.5 107.4C214.6 107.5 216 108.6 216 109.1C216 109.6 214.6 112.5 214.6 112.5Z" fill="#262629"/>
<path d="M239.2 95.4C239.1 95.4 239.1 95.4 239.2 95.4C239.1 95.4 239.1 95.3 239.1 95.3C239.1 95.3 239.1 95.3 239 95.3C239 95.3 239 95.3 238.9 95.3C238.9 95.3 238.9 95.3 238.8 95.3C238.8 95.3 238.8 95.3 238.7 95.3C238.7 95.3 238.7 95.3 238.6 95.3C238.6 95.3 238.6 95.3 238.5 95.3C238.5 95.3 238.5 95.3 238.4 95.3C238.4 95.3 238.4 95.3 238.3 95.3H238.2C238.2 95.3 238.2 95.3 238.1 95.3C238.1 95.3 238.1 95.3 238 95.3H237.9C237.9 95.3 237.9 95.3 237.8 95.3H237.7C237.7 95.3 237.7 95.3 237.6 95.3H237.5H237.4C237.4 95.3 237.4 95.3 237.3 95.3C237.3 95.3 237.3 95.3 237.2 95.3C237.2 95.3 237.2 95.3 237.1 95.3C237.1 95.3 237.1 95.3 237 95.3C237 95.3 237 95.3 236.9 95.3C236.9 95.3 236.9 95.3 236.8 95.3C236.8 95.3 236.8 95.3 236.7 95.3C236.6 95.3 236.6 95.4 236.5 95.4C236.4 95.5 236.3 95.5 236.2 95.6C236.1 95.7 236 95.7 236 95.8C235.9 95.9 235.8 95.9 235.8 96C235.7 96.1 235.6 96.1 235.6 96.2C235.5 96.3 235.5 96.3 235.4 96.4C235.3 96.5 235.3 96.5 235.2 96.6C235.1 96.7 235 96.8 235 96.9C234.9 97 234.9 97.1 234.8 97.2C234.7 97.3 234.7 97.4 234.6 97.5C234.6 97.5 234.6 97.5 234.6 97.6C234.6 97.7 234.5 97.7 234.5 97.8C234.5 97.9 234.4 98 234.4 98C234.4 98 234.4 98 234.4 98.1C234.4 98.2 234.3 98.2 234.3 98.3C234.3 98.3 234.3 98.3 234.3 98.4C234.3 98.5 234.2 98.6 234.2 98.7C234.2 98.8 234.1 98.9 234.1 98.9C234.1 98.9 234.1 98.9 234.1 99C234.1 99.1 234 99.2 234 99.3C234 99.4 233.9 99.5 233.9 99.6C233.9 99.6 233.9 99.6 233.9 99.7C233.9 99.8 233.8 99.9 233.8 100C233.8 100 233.8 100 233.8 100.1V100.2V100.3V100.4V100.5C233.8 100.6 233.8 100.7 233.8 100.8C233.8 100.8 233.8 100.8 233.8 100.9C233.8 101 233.8 101.1 233.8 101.2C233.8 101.3 233.8 101.3 233.8 101.4C233.8 101.4 233.8 101.4 233.8 101.5V101.6C233.8 101.6 233.8 101.6 233.8 101.7V101.8C233.8 101.8 233.8 101.8 233.8 101.9V102C233.8 102 233.8 102 233.8 102.1V102.2C233.8 102.2 233.8 102.2 233.8 102.3V102.4C233.8 102.4 233.8 102.4 233.8 102.5V102.6C233.8 102.6 233.8 102.6 233.8 102.7V102.8C233.8 102.8 233.8 102.8 233.8 102.9C233.8 102.9 233.8 102.9 233.8 103C233.8 103 233.8 103 233.8 103.1C233.8 103.1 233.8 103.1 233.8 103.2C233.8 103.2 233.8 103.2 233.8 103.3C233.8 103.3 233.8 103.3 233.8 103.4C233.8 103.4 233.8 103.4 233.8 103.5C233.8 103.5 233.8 103.5 233.8 103.6C233.8 103.6 233.8 103.6 233.8 103.7C233.8 103.7 233.8 103.7 233.9 103.7C233.9 103.7 233.9 103.7 234 103.7C234 103.7 234 103.7 234.1 103.7C234.7 104.1 235.6 104.1 236.5 103.5C238.4 102.4 239.8 99.8 239.8 97.7C240.2 96.5 239.8 95.8 239.2 95.4Z" fill="#7D7D7F" stroke="#262629" stroke-width="0.2835" stroke-miterlimit="10"/>
<path d="M239.2 95.4L236.8 94C236.8 94 236.7 94 236.7 93.9C236.7 93.9 236.6 93.9 236.5 93.8C236.4 93.8 236.4 93.8 236.3 93.8C236.3 93.8 236.2 93.8 236.1 93.8C236 93.8 236 93.8 235.9 93.8C235.8 93.8 235.8 93.8 235.7 93.8C235.7 93.8 235.6 93.8 235.5 93.8H235.4C235.3 93.8 235.3 93.8 235.2 93.9C235.2 93.9 235.1 93.9 235.1 94C235 94 235 94 234.9 94.1C234.9 94.1 234.9 94.1 234.8 94.1C234.7 94.1 234.7 94.2 234.6 94.2C234.5 94.3 234.4 94.3 234.3 94.4C234.2 94.5 234.1 94.5 234.1 94.6C234 94.7 233.9 94.7 233.9 94.8C233.8 94.9 233.7 94.9 233.7 95C233.6 95.1 233.6 95.1 233.5 95.2C233.4 95.3 233.4 95.3 233.3 95.4C233.2 95.5 233.1 95.6 233.1 95.7C233 95.8 233 95.9 232.9 96C232.8 96.1 232.8 96.2 232.7 96.3C232.7 96.4 232.6 96.4 232.6 96.5C232.6 96.6 232.5 96.7 232.5 96.7C232.5 96.8 232.4 96.8 232.4 96.9C232.4 97 232.3 97.1 232.3 97.2C232.3 97.3 232.2 97.4 232.2 97.4C232.2 97.5 232.1 97.6 232.1 97.7C232.1 97.8 232 97.9 232 98C232 98.1 231.9 98.2 231.9 98.3V98.4V98.5V98.6C231.9 98.6 231.9 98.6 231.9 98.7C231.9 98.8 231.9 98.9 231.9 99C231.9 99 231.9 99 231.9 99.1C231.9 99.2 231.9 99.3 231.9 99.4C231.9 100.5 232.3 101.2 232.9 101.5L235.3 102.9C235.3 102.9 235.3 102.9 235.2 102.9C235.2 102.9 235.2 102.9 235.1 102.9C235.1 102.9 235.1 102.9 235 102.9C235 102.9 235 102.9 234.9 102.9C234.9 102.9 234.9 102.9 234.9 102.8C234.9 102.8 234.9 102.8 234.9 102.7C234.9 102.7 234.9 102.7 234.9 102.6C234.9 102.6 234.9 102.6 234.9 102.5C234.9 102.5 234.9 102.5 234.9 102.4C234.9 102.4 234.9 102.4 234.9 102.3C234.9 102.3 234.9 102.3 234.9 102.2C234.9 102.2 234.9 102.2 234.9 102.1C234.9 102.1 234.9 102.1 234.9 102C234.9 102 234.9 102 234.9 101.9C234.9 101.9 234.9 101.9 234.9 101.8V101.7C234.9 101.7 234.9 101.7 234.9 101.6V101.5C234.9 101.5 234.9 101.5 234.9 101.4V101.3C234.9 101.3 234.9 101.3 234.9 101.2V101.1C234.9 101.1 234.9 101.1 234.9 101V100.9C234.9 100.9 234.9 100.9 234.9 100.8V100.7C234.9 100.7 234.9 100.7 234.9 100.6C234.9 100.5 234.9 100.5 234.9 100.4C234.9 100.3 234.9 100.2 234.9 100.1C234.9 100.1 234.9 100.1 234.9 100C234.9 99.9 234.9 99.8 234.9 99.7V99.6V99.5V99.4V99.3C234.9 99.3 234.9 99.3 234.9 99.2C234.9 99.1 235 99 235 98.9C235 98.9 235 98.9 235 98.8C235 98.7 235.1 98.6 235.1 98.5C235.1 98.4 235.2 98.3 235.2 98.2C235.2 98.2 235.2 98.2 235.2 98.1C235.2 98 235.3 97.9 235.3 97.9C235.3 97.8 235.4 97.7 235.4 97.6C235.4 97.6 235.4 97.6 235.4 97.5C235.4 97.4 235.5 97.4 235.5 97.3C235.5 97.3 235.5 97.3 235.5 97.2C235.5 97.1 235.6 97 235.6 97C235.6 96.9 235.7 96.9 235.7 96.8C235.7 96.8 235.7 96.8 235.7 96.7C235.8 96.6 235.8 96.5 235.9 96.4C236 96.3 236 96.2 236.1 96.1C236.2 96 236.3 95.9 236.3 95.8C236.4 95.7 236.4 95.7 236.5 95.6C236.6 95.5 236.6 95.5 236.7 95.4C236.8 95.3 236.9 95.3 236.9 95.2C237 95.1 237.1 95.1 237.1 95C237.2 94.9 237.3 94.9 237.3 94.8C237.4 94.7 237.5 94.7 237.6 94.6C237.7 94.6 237.7 94.5 237.8 94.5C237.8 94.5 237.8 94.5 237.9 94.5C237.9 94.5 237.9 94.5 238 94.5C238 94.5 238 94.5 238.1 94.5C238.1 94.5 238.1 94.5 238.2 94.5C238.2 94.5 238.2 94.5 238.3 94.5C238.3 94.5 238.3 94.5 238.4 94.5C238.4 94.5 238.4 94.5 238.5 94.5H238.6H238.7C238.7 94.5 238.7 94.5 238.8 94.5H238.9C238.9 94.5 238.9 94.5 239 94.5H239.1C239.1 94.5 239.1 94.5 239.2 94.5C239.2 94.5 239.2 94.5 239.3 94.5H239.4C239.4 94.5 239.4 94.5 239.5 94.5C239.5 94.5 239.5 94.5 239.6 94.5C239.6 94.5 239.6 94.5 239.7 94.5C239.7 94.5 239.7 94.5 239.8 94.5C239.8 94.5 239.8 94.5 239.9 94.5C239.9 94.5 239.9 94.5 240 94.5C240 94.5 240 94.5 240.1 94.5C240.1 94.5 240.1 94.5 240.2 94.5C239.1 95.4 239.1 95.4 239.2 95.4C239.1 95.4 239.1 95.4 239.2 95.4Z" fill="#262629"/>
<path d="M239.4 98.3C239.4 99.8 238.4 101.6 237.1 102.3C236.4 102.7 235.8 102.7 235.4 102.4C235.4 102.4 235.4 102.4 235.4 102.3C235.4 102.3 235.4 102.3 235.4 102.2C235.4 102.2 235.4 102.2 235.4 102.1C235.4 102.1 235.4 102.1 235.4 102C235.4 102 235.4 102 235.4 101.9C235.4 101.9 235.4 101.9 235.4 101.8C235.4 101.8 235.4 101.8 235.4 101.7C235.4 101.7 235.4 101.7 235.4 101.6V101.5V101.4V101.3V101.2V101.1C235.4 101.1 235.4 101.1 235.4 101V100.9C235.4 100.9 235.4 100.9 235.4 100.8V100.7C235.4 100.7 235.4 100.7 235.4 100.6C235.4 100.6 235.4 100.6 235.4 100.5V100.4C235.4 100.4 235.4 100.4 235.4 100.3C235.4 100.2 235.4 100.2 235.5 100.1C235.5 100 235.5 100 235.6 99.9C235.6 99.8 235.6 99.8 235.7 99.7C235.7 99.6 235.8 99.6 235.8 99.5C235.8 99.5 235.8 99.4 235.9 99.4C235.9 99.3 236 99.3 236 99.2L236.1 99.1C236.1 99 236.2 99 236.2 98.9C236.2 98.8 236.3 98.8 236.3 98.7C236.3 98.7 236.3 98.7 236.3 98.6C236.3 98.6 236.3 98.6 236.4 98.5C236.4 98.5 236.4 98.5 236.4 98.4C236.4 98.4 236.4 98.4 236.5 98.3L236.6 98.2L236.7 98.1C236.7 98.1 236.8 98.1 236.8 98L236.9 97.9C236.9 97.9 237 97.9 237 97.8C237 97.8 237 97.8 237.1 97.7C237.1 97.7 237.1 97.7 237.2 97.7C237.2 97.7 237.2 97.7 237.3 97.7C237.3 97.7 237.4 97.7 237.4 97.6C237.4 97.6 237.5 97.6 237.5 97.5C237.5 97.5 237.5 97.5 237.6 97.5C237.6 97.5 237.6 97.5 237.7 97.5C237.7 97.5 237.7 97.5 237.8 97.5C237.8 97.5 237.8 97.5 237.9 97.5C237.9 97.5 237.9 97.5 238 97.5C238 97.5 238 97.5 238.1 97.5C239.1 97 239.4 97.5 239.4 98.3Z" fill="#A8A8A9"/>
<path d="M239.1 98.1C239.1 99.6 238.1 101.4 236.8 102.1C236.2 102.4 235.7 102.5 235.2 102.3C235.2 102.3 235.2 102.3 235.2 102.2C235.2 102.2 235.2 102.2 235.2 102.1C235.2 102.1 235.2 102.1 235.2 102C235.2 102 235.2 102 235.2 101.9C235.2 101.9 235.2 101.9 235.2 101.8C235.2 101.8 235.2 101.8 235.2 101.7C235.2 101.7 235.2 101.7 235.2 101.6C235.2 101.6 235.2 101.6 235.2 101.5V101.4V101.3V101.2V101.1V101C235.2 101 235.2 101 235.2 100.9V100.8C235.2 100.8 235.2 100.8 235.2 100.7V100.6C235.2 100.6 235.2 100.6 235.2 100.5C235.2 100.5 235.2 100.5 235.2 100.4V100.3C235.2 100.3 235.2 100.3 235.2 100.2C235.2 100.1 235.2 100.1 235.3 100C235.3 99.9 235.3 99.9 235.4 99.8C235.4 99.7 235.4 99.7 235.5 99.6C235.5 99.5 235.6 99.5 235.6 99.4C235.6 99.4 235.6 99.3 235.7 99.3C235.7 99.2 235.8 99.2 235.8 99.1L235.9 99C235.9 98.9 236 98.9 236 98.8C236 98.7 236.1 98.7 236.1 98.6C236.1 98.6 236.1 98.6 236.1 98.5C236.1 98.5 236.1 98.5 236.2 98.4C236.2 98.4 236.2 98.4 236.2 98.3C236.2 98.3 236.2 98.3 236.3 98.2L236.4 98.1L236.5 98C236.5 98 236.6 98 236.6 97.9L236.7 97.8C236.7 97.8 236.8 97.8 236.8 97.7C236.8 97.7 236.8 97.7 236.9 97.6C236.9 97.6 236.9 97.6 237 97.6C237 97.6 237 97.6 237.1 97.6C237.1 97.6 237.2 97.6 237.2 97.5C237.2 97.5 237.3 97.5 237.3 97.4C237.3 97.4 237.3 97.4 237.4 97.4C237.4 97.4 237.4 97.4 237.5 97.4C237.5 97.4 237.5 97.4 237.6 97.4C237.6 97.4 237.6 97.4 237.7 97.4C237.7 97.4 237.7 97.4 237.8 97.4C237.8 97.4 237.8 97.4 237.9 97.4C238.9 97 239.1 97.5 239.1 98.1Z" fill="#A8A8A9"/>
<path d="M237.9 98.1C237.9 98.1 237.8 98.1 237.9 98.1C237.8 98.1 237.8 98.1 237.8 98.1C237.8 98.1 237.8 98.1 237.7 98.1C237.7 98.1 237.7 98.1 237.6 98.1C237.6 98.1 237.6 98.1 237.5 98.1C237.5 98.1 237.5 98.1 237.4 98.2C237.4 98.2 237.4 98.2 237.3 98.3C237.3 98.3 237.3 98.4 237.2 98.4C237.2 98.4 237.2 98.5 237.1 98.5V98.6C237.1 98.6 237.1 98.7 237 98.7C237 98.7 237 98.7 237 98.8V98.9V99V99.1V99.2C237 99.2 237 99.2 237 99.3C237 99.3 237 99.3 237 99.4C237.2 99.5 237.5 99.5 237.9 99.3C238.6 98.9 239.1 98 239.1 97.2C238.3 98.5 238.1 98.2 237.9 98.1Z" fill="#333333"/>
<path d="M236.6 97.8C236.5 97.8 236.5 97.8 236.6 97.8C236.5 97.8 236.5 97.8 236.6 97.8C236.5 97.8 236.5 97.8 236.6 97.8C236.5 97.8 236.5 97.8 236.6 97.8C236.5 97.8 236.5 97.8 236.6 97.8C236.5 97.8 236.5 97.8 236.6 97.8C236.5 97.8 236.5 97.8 236.6 97.8C236.5 97.8 236.5 97.8 236.6 97.8C236.5 97.8 236.5 97.8 236.6 97.8C236.5 97.8 236.5 97.8 236.6 97.8C236.5 97.8 236.5 97.8 236.6 97.8C236.5 97.8 236.5 97.8 236.6 97.8C236.5 97.8 236.5 97.8 236.6 97.8C236.5 97.8 236.5 97.8 236.6 97.8C236.5 97.8 236.5 97.8 236.6 97.8C236.5 97.8 236.5 97.8 236.6 97.8C236.5 97.8 236.5 97.8 236.6 97.8C236.5 97.8 236.5 97.8 236.6 97.8C236.5 97.8 236.5 97.8 236.6 97.8C236.5 97.8 236.5 97.8 236.6 97.8C236.5 97.8 236.5 97.8 236.6 97.8C236.5 97.8 236.5 97.8 236.6 97.8C236.5 97.8 236.5 97.8 236.6 97.8C236.5 97.8 236.5 97.8 236.5 97.8H236.6C236.7 97.7 236.8 97.6 236.8 97.5C236.6 97.8 236.6 97.8 236.6 97.8Z" fill="#333333"/>
<path d="M237.7 97.2C237.6 97.2 237.6 97.2 237.7 97.2C237.6 97.2 237.6 97.2 237.7 97.2C237.6 97.2 237.6 97.2 237.7 97.2C237.6 97.2 237.6 97.2 237.7 97.2C237.6 97.2 237.6 97.2 237.7 97.2C237.6 97.2 237.6 97.2 237.7 97.2C237.6 97.2 237.6 97.2 237.7 97.2C237.6 97.2 237.6 97.2 237.7 97.2C237.6 97.2 237.6 97.2 237.7 97.2C237.6 97.2 237.6 97.2 237.7 97.2C237.6 97.2 237.6 97.2 237.7 97.2C237.6 97.2 237.6 97.2 237.7 97.2C237.6 97.2 237.6 97.2 237.7 97.2C237.6 97.2 237.6 97.2 237.7 97.2C237.6 97.2 237.6 97.2 237.7 97.2C237.6 97.2 237.6 97.2 237.7 97.2C237.6 97.2 237.6 97.2 237.7 97.2C237.6 97.2 237.6 97.2 237.7 97.2C237.6 97.2 237.6 97.2 237.7 97.2C237.6 97.2 237.6 97.2 237.7 97.2C237.6 97.2 237.6 97.2 237.7 97.2C237.6 97.2 237.6 97.2 237.7 97.2C237.6 97.2 237.6 97.2 237.7 97.2C237.6 97.2 237.6 97.2 237.7 97.2C237.6 97.2 237.6 97.2 237.7 97.2C237.6 97.2 237.6 97.2 237.7 97.2C237.6 97.2 237.6 97.2 237.7 97.2C237.6 97.2 237.6 97.2 237.7 97.2C237.6 97.2 237.6 97.2 237.7 97.2C237.6 97.2 237.6 97.2 237.7 97.2C237.6 97.2 237.6 97.2 237.7 97.2C237.6 97.2 237.6 97.2 237.7 97.2C237.6 97.2 237.6 97.2 237.7 97.2C237.6 97.2 237.6 97.2 237.7 97.2C237.6 97.2 237.6 97.2 237.7 97.2C237.6 97.2 237.6 97.2 237.7 97.2C237.6 97.2 237.6 97.2 237.7 97.2C237.6 97.2 237.6 97.2 237.7 97.2C237.6 97.2 237.6 97.2 237.6 97.2H237.7C237.8 97.1 237.9 97 237.9 96.9C237.7 97.2 237.7 97.2 237.7 97.2Z" fill="#333333"/>
<path d="M238.5 97.7C238.5 97.7 238.4 97.7 238.5 97.7C238.4 97.7 238.4 97.7 238.5 97.7C238.4 97.7 238.4 97.7 238.5 97.7C238.4 97.7 238.4 97.7 238.5 97.7C238.4 97.7 238.4 97.7 238.5 97.7C238.4 97.7 238.4 97.7 238.5 97.7C238.4 97.7 238.4 97.7 238.5 97.7C238.4 97.7 238.4 97.7 238.5 97.7C238.4 97.7 238.4 97.7 238.5 97.7C238.4 97.7 238.4 97.7 238.5 97.7C238.4 97.7 238.4 97.7 238.4 97.7H238.5C238.6 97.6 238.7 97.5 238.7 97.4C238.6 97.7 238.6 97.7 238.5 97.7Z" fill="#333333"/>
<path d="M238.7 98.7C238.7 98.7 238.6 98.7 238.7 98.7C238.6 98.7 238.6 98.7 238.7 98.7C238.6 98.7 238.6 98.7 238.7 98.7C238.6 98.7 238.6 98.7 238.7 98.7C238.6 98.7 238.6 98.7 238.7 98.7C238.6 98.7 238.6 98.7 238.6 98.7H238.7C238.8 98.6 238.9 98.5 238.9 98.4C238.8 98.8 238.8 98.7 238.7 98.7Z" fill="#333333"/>
<path d="M238.4 99.8C238.4 99.8 238.3 99.8 238.4 99.8C238.3 99.8 238.3 99.8 238.4 99.8C238.3 99.8 238.3 99.8 238.4 99.8C238.3 99.8 238.3 99.8 238.4 99.8C238.3 99.8 238.3 99.8 238.4 99.8C238.3 99.8 238.3 99.8 238.4 99.8C238.3 99.8 238.3 99.8 238.4 99.8C238.3 99.8 238.3 99.8 238.4 99.8C238.3 99.8 238.3 99.8 238.4 99.8C238.3 99.8 238.3 99.8 238.4 99.8C238.3 99.8 238.3 99.8 238.4 99.8C238.3 99.8 238.3 99.8 238.4 99.8C238.3 99.8 238.3 99.8 238.4 99.8C238.3 99.8 238.3 99.8 238.4 99.8C238.3 99.8 238.3 99.8 238.4 99.8C238.3 99.8 238.3 99.8 238.4 99.8C238.3 99.8 238.3 99.8 238.4 99.8C238.3 99.8 238.3 99.8 238.4 99.8C238.3 99.8 238.3 99.8 238.4 99.8C238.3 99.8 238.3 99.8 238.3 99.8H238.4C238.5 99.7 238.6 99.6 238.6 99.5C238.4 99.8 238.4 99.8 238.4 99.8Z" fill="#333333"/>
<path d="M237.6 100.8C237.5 100.8 237.5 100.8 237.6 100.8C237.5 100.8 237.5 100.8 237.6 100.8C237.5 100.8 237.5 100.8 237.6 100.8C237.5 100.8 237.5 100.8 237.6 100.8C237.5 100.8 237.5 100.8 237.6 100.8C237.5 100.8 237.5 100.8 237.6 100.8C237.5 100.8 237.5 100.8 237.6 100.8C237.5 100.8 237.5 100.8 237.6 100.8C237.5 100.8 237.5 100.8 237.6 100.8C237.5 100.8 237.5 100.8 237.6 100.8C237.5 100.8 237.5 100.8 237.6 100.8C237.5 100.8 237.5 100.8 237.6 100.8C237.5 100.8 237.5 100.8 237.6 100.8C237.5 100.8 237.5 100.8 237.6 100.8C237.5 100.8 237.5 100.8 237.6 100.8C237.5 100.8 237.5 100.8 237.5 100.8H237.6C237.7 100.7 237.8 100.6 237.8 100.5C237.7 100.9 237.6 100.9 237.6 100.8Z" fill="#333333"/>
<path d="M236.4 101.4C236.4 101.4 236.3 101.4 236.4 101.4C236.3 101.4 236.3 101.4 236.4 101.4C236.3 101.4 236.3 101.4 236.4 101.4C236.3 101.4 236.3 101.4 236.4 101.4C236.3 101.4 236.3 101.4 236.4 101.4C236.3 101.4 236.3 101.4 236.4 101.4C236.3 101.4 236.3 101.4 236.4 101.4C236.3 101.4 236.3 101.4 236.4 101.4C236.3 101.4 236.3 101.4 236.4 101.4C236.3 101.4 236.3 101.4 236.4 101.4C236.3 101.4 236.3 101.4 236.4 101.4C236.3 101.4 236.3 101.4 236.4 101.4C236.3 101.4 236.3 101.4 236.4 101.4C236.3 101.4 236.3 101.4 236.4 101.4C236.3 101.4 236.3 101.4 236.4 101.4C236.3 101.4 236.3 101.4 236.4 101.4C236.3 101.4 236.3 101.4 236.4 101.4C236.3 101.4 236.3 101.4 236.4 101.4C236.3 101.4 236.3 101.4 236.4 101.4C236.3 101.4 236.3 101.4 236.4 101.4C236.3 101.4 236.3 101.4 236.4 101.4C236.3 101.4 236.3 101.4 236.4 101.4C236.3 101.4 236.3 101.4 236.4 101.4C236.3 101.4 236.3 101.4 236.4 101.4C236.3 101.4 236.3 101.4 236.4 101.4C236.3 101.4 236.3 101.4 236.3 101.4H236.4C236.5 101.3 236.6 101.2 236.6 101.1C236.4 101.4 236.4 101.4 236.4 101.4Z" fill="#333333"/>
<path d="M235.5 100.6C235.4 100.6 235.4 100.6 235.5 100.6C235.4 100.6 235.4 100.6 235.5 100.6C235.4 100.6 235.4 100.6 235.5 100.6C235.4 100.6 235.4 100.6 235.5 100.6C235.4 100.6 235.4 100.6 235.5 100.6C235.4 100.6 235.4 100.6 235.5 100.6C235.4 100.6 235.4 100.6 235.5 100.6C235.4 100.6 235.4 100.6 235.5 100.6C235.4 100.6 235.4 100.6 235.5 100.6C235.4 100.6 235.4 100.6 235.5 100.6C235.4 100.6 235.4 100.6 235.5 100.6C235.4 100.6 235.4 100.6 235.5 100.6C235.4 100.6 235.4 100.6 235.5 100.6C235.4 100.6 235.4 100.6 235.5 100.6C235.4 100.6 235.4 100.6 235.5 100.6C235.4 100.6 235.4 100.6 235.5 100.6C235.4 100.6 235.4 100.6 235.4 100.6H235.5C235.6 100.5 235.7 100.4 235.7 100.3C235.6 100.6 235.5 100.6 235.5 100.6Z" fill="#333333"/>
<path d="M235.7 99.1C235.6 99.1 235.6 99.1 235.7 99.1C235.6 99.1 235.6 99.1 235.7 99.1C235.6 99.1 235.6 99.1 235.7 99.1C235.6 99.1 235.6 99.1 235.7 99.1C235.6 99.1 235.6 99.1 235.7 99.1C235.6 99.1 235.6 99.1 235.7 99.1C235.6 99.1 235.6 99.1 235.7 99.1C235.6 99.1 235.6 99.1 235.7 99.1C235.6 99.1 235.6 99.1 235.7 99.1C235.6 99.1 235.6 99.1 235.7 99.1C235.6 99.1 235.6 99.1 235.7 99.1C235.6 99.1 235.6 99.1 235.7 99.1C235.6 99.1 235.6 99.1 235.7 99.1C235.6 99.1 235.6 99.1 235.7 99.1C235.6 99.1 235.6 99.1 235.7 99.1C235.6 99.1 235.6 99.1 235.7 99.1C235.6 99.1 235.6 99.1 235.6 99.1H235.7C235.8 99 235.9 98.9 235.9 98.8C235.8 99.2 235.7 99.1 235.7 99.1Z" fill="#333333"/>
<path d="M213.2 110.4C213.1 110.4 213.1 110.3 213.1 110.3C213.1 110.3 213.1 110.3 213 110.3C213 110.3 213 110.3 212.9 110.3C212.9 110.3 212.9 110.3 212.8 110.3C212.8 110.3 212.8 110.3 212.7 110.3C212.7 110.3 212.7 110.3 212.6 110.3C212.6 110.3 212.6 110.3 212.5 110.3C212.5 110.3 212.5 110.3 212.4 110.3C212.4 110.3 212.4 110.3 212.3 110.3H212.2C212.2 110.3 212.2 110.3 212.1 110.3C212.1 110.3 212.1 110.3 212 110.3H211.9C211.9 110.3 211.9 110.3 211.8 110.3H211.7C211.7 110.3 211.7 110.3 211.6 110.3H211.5H211.4C211.4 110.3 211.4 110.3 211.3 110.3C211.3 110.3 211.3 110.3 211.2 110.3C211.2 110.3 211.2 110.3 211.1 110.3C211.1 110.3 211.1 110.3 211 110.3C211 110.3 211 110.3 210.9 110.3C210.9 110.3 210.9 110.3 210.8 110.3C210.8 110.3 210.8 110.3 210.7 110.3C210.6 110.3 210.6 110.4 210.5 110.4C210.4 110.5 210.3 110.5 210.2 110.6C210.1 110.7 210 110.7 210 110.8C209.9 110.9 209.8 110.9 209.8 111C209.7 111.1 209.6 111.1 209.6 111.2C209.5 111.3 209.5 111.3 209.4 111.4C209.3 111.5 209.3 111.5 209.2 111.6C209.1 111.7 209 111.8 209 111.9C208.9 112 208.9 112.1 208.8 112.2C208.7 112.3 208.7 112.4 208.6 112.5C208.6 112.5 208.6 112.5 208.6 112.6C208.6 112.7 208.5 112.7 208.5 112.8C208.5 112.9 208.4 113 208.4 113C208.4 113 208.4 113 208.4 113.1C208.4 113.2 208.3 113.2 208.3 113.3C208.3 113.3 208.3 113.3 208.3 113.4C208.3 113.5 208.2 113.6 208.2 113.7C208.2 113.8 208.1 113.9 208.1 113.9C208.1 113.9 208.1 113.9 208.1 114C208.1 114.1 208 114.2 208 114.3C208 114.4 207.9 114.5 207.9 114.6C207.9 114.6 207.9 114.6 207.9 114.7C207.9 114.8 207.8 114.9 207.8 115C207.8 115 207.8 115 207.8 115.1V115.2V115.3V115.4V115.5C207.8 115.6 207.8 115.7 207.8 115.8C207.8 115.8 207.8 115.8 207.8 115.9C207.8 116 207.8 116.1 207.8 116.2C207.8 116.3 207.8 116.3 207.8 116.4C207.8 116.4 207.8 116.4 207.8 116.5V116.6C207.8 116.6 207.8 116.6 207.8 116.7V116.8C207.8 116.8 207.8 116.8 207.8 116.9V117C207.8 117 207.8 117 207.8 117.1V117.2C207.8 117.2 207.8 117.2 207.8 117.3V117.4C207.8 117.4 207.8 117.4 207.8 117.5V117.6C207.8 117.6 207.8 117.6 207.8 117.7V117.8C207.8 117.8 207.8 117.8 207.8 117.9C207.8 117.9 207.8 117.9 207.8 118C207.8 118 207.8 118 207.8 118.1C207.8 118.1 207.8 118.1 207.8 118.2C207.8 118.2 207.8 118.2 207.8 118.3C207.8 118.3 207.8 118.3 207.8 118.4C207.8 118.4 207.8 118.4 207.8 118.5C207.8 118.5 207.8 118.5 207.8 118.6C207.8 118.6 207.8 118.6 207.8 118.7C207.8 118.7 207.8 118.7 207.9 118.7C207.9 118.7 207.9 118.7 208 118.7C208 118.7 208 118.7 208.1 118.7C208.7 119.1 209.6 119.1 210.5 118.5C212.4 117.4 213.8 114.8 213.8 112.7C214.2 111.5 213.8 110.8 213.2 110.4Z" fill="#7D7D7F" stroke="#262629" stroke-width="0.2835" stroke-miterlimit="10"/>
<path d="M213.2 110.4L210.8 109C210.8 109 210.7 109 210.7 108.9C210.7 108.9 210.6 108.9 210.5 108.8C210.4 108.8 210.4 108.8 210.3 108.8C210.3 108.8 210.2 108.8 210.1 108.8C210 108.8 210 108.8 209.9 108.8C209.8 108.8 209.8 108.8 209.7 108.8C209.7 108.8 209.6 108.8 209.5 108.8H209.4C209.3 108.8 209.3 108.8 209.2 108.9C209.2 108.9 209.1 108.9 209.1 109C209 109 209 109 208.9 109.1C208.9 109.1 208.9 109.1 208.8 109.1C208.7 109.1 208.7 109.2 208.6 109.2C208.5 109.3 208.4 109.3 208.3 109.4C208.2 109.5 208.1 109.5 208.1 109.6C208 109.7 207.9 109.7 207.9 109.8C207.8 109.9 207.7 109.9 207.7 110C207.6 110.1 207.6 110.1 207.5 110.2C207.4 110.3 207.4 110.3 207.3 110.4C207.2 110.5 207.1 110.6 207.1 110.7C207 110.8 207 110.9 206.9 111C206.8 111.1 206.8 111.2 206.7 111.3C206.7 111.4 206.6 111.4 206.6 111.5C206.6 111.6 206.5 111.7 206.5 111.7C206.5 111.8 206.4 111.8 206.4 111.9C206.4 112 206.3 112.1 206.3 112.2C206.3 112.3 206.2 112.4 206.2 112.4C206.2 112.5 206.1 112.6 206.1 112.7C206.1 112.8 206 112.9 206 113C206 113.1 205.9 113.2 205.9 113.3V113.4V113.5V113.6C205.9 113.6 205.9 113.6 205.9 113.7C205.9 113.8 205.9 113.9 205.9 114C205.9 114 205.9 114 205.9 114.1C205.9 114.2 205.9 114.3 205.9 114.4C205.9 115.5 206.3 116.2 206.9 116.5L209.3 117.9C209.3 117.9 209.3 117.9 209.2 117.9C209.2 117.9 209.2 117.9 209.1 117.9C209.1 117.9 209.1 117.9 209 117.9C209 117.9 209 117.9 208.9 117.9C208.9 117.9 208.9 117.9 208.9 117.8C208.9 117.8 208.9 117.8 208.9 117.7C208.9 117.7 208.9 117.7 208.9 117.6C208.9 117.6 208.9 117.6 208.9 117.5C208.9 117.5 208.9 117.5 208.9 117.4C208.9 117.4 208.9 117.4 208.9 117.3C208.9 117.3 208.9 117.3 208.9 117.2C208.9 117.2 208.9 117.2 208.9 117.1C208.9 117.1 208.9 117.1 208.9 117C208.9 117 208.9 117 208.9 116.9C208.9 116.9 208.9 116.9 208.9 116.8V116.7C208.9 116.7 208.9 116.7 208.9 116.6V116.5C208.9 116.5 208.9 116.5 208.9 116.4V116.3C208.9 116.3 208.9 116.3 208.9 116.2V116.1C208.9 116.1 208.9 116.1 208.9 116V115.9C208.9 115.9 208.9 115.9 208.9 115.8V115.7C208.9 115.7 208.9 115.7 208.9 115.6C208.9 115.5 208.9 115.5 208.9 115.4C208.9 115.3 208.9 115.2 208.9 115.1C208.9 115.1 208.9 115.1 208.9 115C208.9 114.9 208.9 114.8 208.9 114.7V114.6V114.5V114.4V114.3C208.9 114.3 208.9 114.3 208.9 114.2C208.9 114.1 209 114 209 113.9C209 113.9 209 113.9 209 113.8C209 113.7 209.1 113.6 209.1 113.5C209.1 113.4 209.2 113.3 209.2 113.2C209.2 113.2 209.2 113.2 209.2 113.1C209.2 113 209.3 112.9 209.3 112.9C209.3 112.8 209.4 112.7 209.4 112.6C209.4 112.6 209.4 112.6 209.4 112.5C209.4 112.4 209.5 112.4 209.5 112.3C209.5 112.3 209.5 112.3 209.5 112.2C209.5 112.1 209.6 112 209.6 112C209.6 111.9 209.7 111.9 209.7 111.8C209.7 111.8 209.7 111.8 209.7 111.7C209.8 111.6 209.8 111.5 209.9 111.4C210 111.3 210 111.2 210.1 111.1C210.2 111 210.3 110.9 210.3 110.8C210.4 110.7 210.4 110.7 210.5 110.6C210.6 110.5 210.6 110.5 210.7 110.4C210.8 110.3 210.9 110.3 210.9 110.2C211 110.1 211.1 110.1 211.1 110C211.2 109.9 211.3 109.9 211.3 109.8C211.4 109.7 211.5 109.7 211.6 109.6C211.7 109.6 211.7 109.5 211.8 109.5C211.8 109.5 211.8 109.5 211.9 109.5C211.9 109.5 211.9 109.5 212 109.5C212 109.5 212 109.5 212.1 109.5C212.1 109.5 212.1 109.5 212.2 109.5C212.2 109.5 212.2 109.5 212.3 109.5C212.3 109.5 212.3 109.5 212.4 109.5C212.4 109.5 212.4 109.5 212.5 109.5H212.6H212.7C212.7 109.5 212.7 109.5 212.8 109.5H212.9C212.9 109.5 212.9 109.5 213 109.5H213.1C213.1 109.5 213.1 109.5 213.2 109.5C213.2 109.5 213.2 109.5 213.3 109.5H213.4C213.4 109.5 213.4 109.5 213.5 109.5C213.5 109.5 213.5 109.5 213.6 109.5C213.6 109.5 213.6 109.5 213.7 109.5C213.7 109.5 213.7 109.5 213.8 109.5C213.8 109.5 213.8 109.5 213.9 109.5C213.9 109.5 213.9 109.5 214 109.5C214 109.5 214 109.5 214.1 109.5C214.1 109.5 214.1 109.5 214.2 109.5C213.1 110.4 213.1 110.4 213.2 110.4Z" fill="#262629"/>
<path d="M213.4 113.3C213.4 114.8 212.4 116.6 211.1 117.3C210.4 117.7 209.8 117.7 209.4 117.4C209.4 117.4 209.4 117.4 209.4 117.3C209.4 117.3 209.4 117.3 209.4 117.2C209.4 117.2 209.4 117.2 209.4 117.1C209.4 117.1 209.4 117.1 209.4 117C209.4 117 209.4 117 209.4 116.9C209.4 116.9 209.4 116.9 209.4 116.8C209.4 116.8 209.4 116.8 209.4 116.7C209.4 116.7 209.4 116.7 209.4 116.6V116.5V116.4V116.3V116.2V116.1C209.4 116.1 209.4 116.1 209.4 116V115.9C209.4 115.9 209.4 115.9 209.4 115.8V115.7C209.4 115.7 209.4 115.7 209.4 115.6C209.4 115.6 209.4 115.6 209.4 115.5V115.4C209.4 115.4 209.4 115.4 209.4 115.3C209.4 115.2 209.4 115.2 209.5 115.1C209.5 115 209.5 115 209.6 114.9C209.6 114.8 209.6 114.8 209.7 114.7C209.7 114.6 209.8 114.6 209.8 114.5C209.8 114.5 209.8 114.4 209.9 114.4C209.9 114.3 210 114.3 210 114.2L210.1 114.1C210.1 114 210.2 114 210.2 113.9C210.2 113.8 210.3 113.8 210.3 113.7C210.3 113.7 210.3 113.7 210.3 113.6C210.3 113.6 210.3 113.6 210.4 113.5C210.4 113.5 210.4 113.5 210.4 113.4C210.4 113.4 210.4 113.4 210.5 113.3L210.6 113.2L210.7 113.1C210.7 113.1 210.8 113.1 210.8 113L210.9 112.9C210.9 112.9 211 112.9 211 112.8C211 112.8 211 112.8 211.1 112.7C211.1 112.7 211.1 112.7 211.2 112.7C211.2 112.7 211.2 112.7 211.3 112.7C211.3 112.7 211.4 112.7 211.4 112.6C211.4 112.6 211.5 112.6 211.5 112.5C211.5 112.5 211.5 112.5 211.6 112.5C211.6 112.5 211.6 112.5 211.7 112.5C211.7 112.5 211.7 112.5 211.8 112.5C211.8 112.5 211.8 112.5 211.9 112.5C211.9 112.5 211.9 112.5 212 112.5C212 112.5 212 112.5 212.1 112.5C213.1 112 213.4 112.5 213.4 113.3Z" fill="#A8A8A9"/>
<path d="M213.1 113.1C213.1 114.6 212.1 116.4 210.8 117.1C210.2 117.4 209.7 117.5 209.2 117.3C209.2 117.3 209.2 117.3 209.2 117.2C209.2 117.2 209.2 117.2 209.2 117.1C209.2 117.1 209.2 117.1 209.2 117C209.2 117 209.2 117 209.2 116.9C209.2 116.9 209.2 116.9 209.2 116.8C209.2 116.8 209.2 116.8 209.2 116.7C209.2 116.7 209.2 116.7 209.2 116.6C209.2 116.6 209.2 116.6 209.2 116.5V116.4V116.3V116.2V116.1V116C209.2 116 209.2 116 209.2 115.9V115.8C209.2 115.8 209.2 115.8 209.2 115.7V115.6C209.2 115.6 209.2 115.6 209.2 115.5C209.2 115.5 209.2 115.5 209.2 115.4V115.3C209.2 115.3 209.2 115.3 209.2 115.2C209.2 115.1 209.2 115.1 209.3 115C209.3 114.9 209.3 114.9 209.4 114.8C209.4 114.7 209.4 114.7 209.5 114.6C209.5 114.5 209.6 114.5 209.6 114.4C209.6 114.4 209.6 114.3 209.7 114.3C209.7 114.2 209.8 114.2 209.8 114.1L209.9 114C209.9 113.9 210 113.9 210 113.8C210 113.7 210.1 113.7 210.1 113.6C210.1 113.6 210.1 113.6 210.1 113.5C210.1 113.5 210.1 113.5 210.2 113.4C210.2 113.4 210.2 113.4 210.2 113.3C210.2 113.3 210.2 113.3 210.3 113.2L210.4 113.1L210.5 113C210.5 113 210.6 113 210.6 112.9L210.7 112.8C210.7 112.8 210.8 112.8 210.8 112.7C210.8 112.7 210.8 112.7 210.9 112.6C210.9 112.6 210.9 112.6 211 112.6C211 112.6 211 112.6 211.1 112.6C211.1 112.6 211.2 112.6 211.2 112.5C211.2 112.5 211.3 112.5 211.3 112.4C211.3 112.4 211.3 112.4 211.4 112.4C211.4 112.4 211.4 112.4 211.5 112.4C211.5 112.4 211.5 112.4 211.6 112.4C211.6 112.4 211.6 112.4 211.7 112.4C211.7 112.4 211.7 112.4 211.8 112.4C211.8 112.4 211.8 112.4 211.9 112.4C212.9 112 213.1 112.5 213.1 113.1Z" fill="#A8A8A9"/>
<path d="M211.9 113.1C211.8 113.1 211.8 113.1 211.8 113.1C211.8 113.1 211.8 113.1 211.7 113.1C211.7 113.1 211.7 113.1 211.6 113.1C211.6 113.1 211.6 113.1 211.5 113.1C211.5 113.1 211.5 113.1 211.4 113.2C211.4 113.2 211.4 113.2 211.3 113.3C211.3 113.3 211.3 113.4 211.2 113.4C211.2 113.4 211.2 113.5 211.1 113.5V113.6C211.1 113.6 211.1 113.7 211 113.7C211 113.7 211 113.7 211 113.8V113.9V114V114.1V114.2C211 114.2 211 114.2 211 114.3C211 114.3 211 114.3 211 114.4C211.2 114.5 211.5 114.5 211.9 114.3C212.6 113.9 213.1 113 213.1 112.2C212.3 113.5 212.2 113.2 211.9 113.1Z" fill="#333333"/>
<path d="M210.6 112.8C210.6 112.8 210.5 112.8 210.6 112.8C210.5 112.8 210.5 112.8 210.6 112.8C210.5 112.8 210.5 112.8 210.6 112.8C210.5 112.8 210.5 112.8 210.6 112.8C210.5 112.8 210.5 112.8 210.6 112.8C210.5 112.8 210.5 112.8 210.6 112.8C210.5 112.8 210.5 112.8 210.6 112.8C210.5 112.8 210.5 112.8 210.6 112.8C210.5 112.8 210.5 112.8 210.6 112.8C210.5 112.8 210.5 112.8 210.6 112.8C210.5 112.8 210.5 112.8 210.6 112.8C210.5 112.8 210.5 112.8 210.6 112.8C210.5 112.8 210.5 112.8 210.6 112.8C210.5 112.8 210.5 112.8 210.6 112.8C210.5 112.8 210.5 112.8 210.5 112.8H210.6C210.7 112.7 210.8 112.6 210.8 112.5C210.7 112.8 210.6 112.8 210.6 112.8Z" fill="#333333"/>
<path d="M211.7 112.2C211.6 112.2 211.6 112.2 211.7 112.2C211.6 112.2 211.6 112.2 211.7 112.2C211.6 112.2 211.6 112.2 211.7 112.2C211.6 112.2 211.6 112.2 211.7 112.2C211.6 112.2 211.6 112.2 211.7 112.2C211.6 112.2 211.6 112.2 211.7 112.2C211.6 112.2 211.6 112.2 211.7 112.2C211.6 112.2 211.6 112.2 211.7 112.2C211.6 112.2 211.6 112.2 211.7 112.2C211.6 112.2 211.6 112.2 211.7 112.2C211.6 112.2 211.6 112.2 211.7 112.2C211.6 112.2 211.6 112.2 211.7 112.2C211.6 112.2 211.6 112.2 211.7 112.2C211.6 112.2 211.6 112.2 211.7 112.2C211.6 112.2 211.6 112.2 211.7 112.2C211.6 112.2 211.6 112.2 211.7 112.2C211.6 112.2 211.6 112.2 211.7 112.2C211.6 112.2 211.6 112.2 211.7 112.2C211.6 112.2 211.6 112.2 211.7 112.2C211.6 112.2 211.6 112.2 211.7 112.2C211.6 112.2 211.6 112.2 211.7 112.2C211.6 112.2 211.6 112.2 211.7 112.2C211.6 112.2 211.6 112.2 211.7 112.2C211.6 112.2 211.6 112.2 211.7 112.2C211.6 112.2 211.6 112.2 211.7 112.2C211.6 112.2 211.6 112.2 211.7 112.2C211.6 112.2 211.6 112.2 211.6 112.2H211.7C211.8 112.1 211.9 112 211.9 111.9C211.7 112.2 211.7 112.2 211.7 112.2Z" fill="#333333"/>
<path d="M212.6 112.7C212.5 112.7 212.5 112.7 212.6 112.7C212.5 112.7 212.5 112.7 212.6 112.7C212.5 112.7 212.5 112.7 212.6 112.7C212.5 112.7 212.5 112.7 212.6 112.7C212.5 112.7 212.5 112.7 212.6 112.7C212.5 112.7 212.5 112.7 212.6 112.7C212.5 112.7 212.5 112.7 212.6 112.7C212.5 112.7 212.5 112.7 212.6 112.7C212.5 112.7 212.5 112.7 212.6 112.7C212.5 112.7 212.5 112.7 212.6 112.7C212.5 112.7 212.5 112.7 212.6 112.7C212.5 112.7 212.5 112.7 212.6 112.7C212.5 112.7 212.5 112.7 212.6 112.7C212.5 112.7 212.5 112.7 212.6 112.7C212.5 112.7 212.5 112.7 212.6 112.7C212.5 112.7 212.5 112.7 212.6 112.7C212.5 112.7 212.5 112.7 212.6 112.7C212.5 112.7 212.5 112.7 212.6 112.7C212.5 112.7 212.5 112.7 212.6 112.7C212.5 112.7 212.5 112.7 212.6 112.7C212.5 112.7 212.5 112.7 212.6 112.7C212.5 112.7 212.5 112.7 212.6 112.7C212.5 112.7 212.5 112.7 212.6 112.7C212.5 112.7 212.5 112.7 212.6 112.7C212.5 112.7 212.5 112.7 212.6 112.7C212.5 112.7 212.5 112.7 212.6 112.7C212.5 112.7 212.5 112.7 212.6 112.7C212.5 112.7 212.5 112.7 212.6 112.7C212.5 112.7 212.5 112.7 212.6 112.7C212.5 112.7 212.5 112.7 212.6 112.7C212.5 112.7 212.5 112.7 212.6 112.7C212.5 112.7 212.5 112.7 212.6 112.7C212.5 112.7 212.5 112.7 212.6 112.7C212.5 112.7 212.5 112.7 212.6 112.7C212.5 112.7 212.5 112.7 212.6 112.7C212.5 112.7 212.5 112.7 212.6 112.7C212.5 112.7 212.5 112.7 212.6 112.7C212.5 112.7 212.5 112.7 212.6 112.7C212.5 112.7 212.5 112.7 212.6 112.7C212.5 112.7 212.5 112.7 212.6 112.7C212.5 112.7 212.5 112.7 212.5 112.7H212.6C212.7 112.6 212.8 112.5 212.8 112.4C212.6 112.7 212.6 112.7 212.6 112.7Z" fill="#333333"/>
<path d="M212.8 113.7C212.7 113.7 212.7 113.7 212.8 113.7C212.7 113.7 212.7 113.7 212.8 113.7C212.7 113.7 212.7 113.7 212.8 113.7C212.7 113.7 212.7 113.7 212.8 113.7C212.7 113.7 212.7 113.7 212.8 113.7C212.7 113.7 212.7 113.7 212.8 113.7C212.7 113.7 212.7 113.7 212.8 113.7C212.7 113.7 212.7 113.7 212.8 113.7C212.7 113.7 212.7 113.7 212.8 113.7C212.7 113.7 212.7 113.7 212.8 113.7C212.7 113.7 212.7 113.7 212.8 113.7C212.7 113.7 212.7 113.7 212.8 113.7C212.7 113.7 212.7 113.7 212.8 113.7C212.7 113.7 212.7 113.7 212.8 113.7C212.7 113.7 212.7 113.7 212.8 113.7C212.7 113.7 212.7 113.7 212.8 113.7C212.7 113.7 212.7 113.7 212.8 113.7C212.7 113.7 212.7 113.7 212.8 113.7C212.7 113.7 212.7 113.7 212.8 113.7C212.7 113.7 212.7 113.7 212.8 113.7C212.7 113.7 212.7 113.7 212.8 113.7C212.7 113.7 212.7 113.7 212.8 113.7C212.7 113.7 212.7 113.7 212.8 113.7C212.7 113.7 212.7 113.7 212.8 113.7C212.7 113.7 212.7 113.7 212.8 113.7C212.7 113.7 212.7 113.7 212.8 113.7C212.7 113.7 212.7 113.7 212.8 113.7C212.7 113.7 212.7 113.7 212.8 113.7C212.7 113.7 212.7 113.7 212.8 113.7C212.7 113.7 212.7 113.7 212.8 113.7C212.7 113.7 212.7 113.7 212.8 113.7C212.7 113.7 212.7 113.7 212.8 113.7C212.7 113.7 212.7 113.7 212.8 113.7C212.7 113.7 212.7 113.7 212.8 113.7C212.7 113.7 212.7 113.7 212.7 113.7H212.8C212.9 113.6 213 113.5 213 113.4C212.8 113.8 212.8 113.7 212.8 113.7Z" fill="#333333"/>
<path d="M212.4 114.8C212.3 114.8 212.3 114.8 212.4 114.8C212.3 114.8 212.3 114.8 212.4 114.8C212.3 114.8 212.3 114.8 212.4 114.8C212.3 114.8 212.3 114.8 212.4 114.8C212.3 114.8 212.3 114.8 212.4 114.8C212.3 114.8 212.3 114.8 212.4 114.8C212.3 114.8 212.3 114.8 212.4 114.8C212.3 114.8 212.3 114.8 212.4 114.8C212.3 114.8 212.3 114.8 212.4 114.8C212.3 114.8 212.3 114.8 212.4 114.8C212.3 114.8 212.3 114.8 212.3 114.8H212.4C212.5 114.7 212.6 114.6 212.6 114.5C212.5 114.8 212.5 114.8 212.4 114.8Z" fill="#333333"/>
<path d="M211.6 115.8C211.5 115.8 211.5 115.8 211.6 115.8C211.5 115.8 211.5 115.8 211.6 115.8C211.5 115.8 211.5 115.8 211.6 115.8C211.5 115.8 211.5 115.8 211.6 115.8C211.5 115.8 211.5 115.8 211.6 115.8C211.5 115.8 211.5 115.8 211.6 115.8C211.5 115.8 211.5 115.8 211.5 115.8H211.6C211.7 115.7 211.8 115.6 211.8 115.5C211.7 115.9 211.7 115.9 211.6 115.8Z" fill="#333333"/>
<path d="M210.4 116.4C210.3 116.4 210.3 116.4 210.4 116.4C210.3 116.4 210.3 116.4 210.4 116.4C210.3 116.4 210.3 116.4 210.4 116.4C210.3 116.4 210.3 116.4 210.4 116.4C210.3 116.4 210.3 116.4 210.4 116.4C210.3 116.4 210.3 116.4 210.4 116.4C210.3 116.4 210.3 116.4 210.4 116.4C210.3 116.4 210.3 116.4 210.4 116.4C210.3 116.4 210.3 116.4 210.4 116.4C210.3 116.4 210.3 116.4 210.4 116.4C210.3 116.4 210.3 116.4 210.4 116.4C210.3 116.4 210.3 116.4 210.4 116.4C210.3 116.4 210.3 116.4 210.4 116.4C210.3 116.4 210.3 116.4 210.4 116.4C210.3 116.4 210.3 116.4 210.3 116.4H210.4C210.5 116.3 210.6 116.2 210.6 116.1C210.5 116.5 210.4 116.4 210.4 116.4Z" fill="#333333"/>
<path d="M209.5 115.6C209.5 115.6 209.4 115.6 209.5 115.6C209.4 115.6 209.4 115.6 209.5 115.6C209.4 115.6 209.4 115.6 209.5 115.6C209.4 115.6 209.4 115.6 209.5 115.6C209.4 115.6 209.4 115.6 209.5 115.6C209.4 115.6 209.4 115.6 209.5 115.6C209.4 115.6 209.4 115.6 209.5 115.6C209.4 115.6 209.4 115.6 209.5 115.6C209.4 115.6 209.4 115.6 209.5 115.6C209.4 115.6 209.4 115.6 209.4 115.6H209.5C209.6 115.5 209.7 115.4 209.7 115.3C209.6 115.6 209.6 115.6 209.5 115.6Z" fill="#333333"/>
<path d="M209.7 114.1C209.6 114.1 209.6 114.1 209.7 114.1C209.6 114.1 209.6 114.1 209.7 114.1C209.6 114.1 209.6 114.1 209.7 114.1C209.6 114.1 209.6 114.1 209.7 114.1C209.6 114.1 209.6 114.1 209.7 114.1C209.6 114.1 209.6 114.1 209.7 114.1C209.6 114.1 209.6 114.1 209.7 114.1C209.6 114.1 209.6 114.1 209.7 114.1C209.6 114.1 209.6 114.1 209.6 114.1H209.7C209.8 114 209.9 113.9 209.9 113.8C209.8 114.2 209.8 114.2 209.7 114.1Z" fill="#333333"/>
<path d="M196 94.7C196.7 95.2 196.9 95.3 197 95.2C197 95.2 197.1 95.2 197.3 95.1C197.5 95 197.7 94.8 197.8 94.5C197.8 94.4 197.8 94.3 197.7 94.1C197.6 94 196.9 93 196 93C195.9 93 195.7 93 195.7 93.1C195.2 93.3 195.5 94.3 196 94.7Z" fill="#DEDEDF"/>
<path d="M196 94.7C196.7 95.2 196.9 95.3 197 95.2C197 95.2 197.1 95.2 197.3 95.1C197.3 95.1 196.6 94.9 196.1 94.3C195.6 93.7 195.5 93.2 195.7 93C195.2 93.3 195.5 94.3 196 94.7Z" fill="#A8A8A9"/>
<path d="M242.1 90.5V93.2C242.1 93.9 242 94.6 242 95.1C241.9 95.4 241.9 95.7 241.8 95.9C241.7 96.1 241.3 96.5 240.6 97C239.8 95 239.1 94.7 238 94.5C237.6 94.4 237.3 94.5 237 94.6C236.4 94.8 235.9 95.2 235.9 95.2C234.5 96.3 233.7 97.7 233.2 98.9C232.5 100.6 232.5 102 232.5 102C227.5 105 221.2 108.6 215.8 111.8L215.7 111.9L214.7 112.5C214.7 112.1 214.7 111.7 214.6 111.4C214.1 109.9 212.5 109.6 212.5 109.5C212 109.5 211.5 109.5 210.9 109.8C208.7 110.8 207.7 113.3 207.7 113.4C206.7 115.2 206.7 117 206.7 117C206.5 117.1 206.2 117.2 206 117.4C205.8 117.5 205.6 117.6 205.5 117.7C204.6 118.2 203.8 118.6 203.2 118.9C199.2 120.7 196.7 119.9 196.4 119.8C188.6 116.7 185.1 113.1 185.1 113.1C185 112.7 184.8 112.3 184.8 111.9C184.7 111.6 184.7 111.4 184.7 111.1C184.7 111 184.7 110.9 184.7 110.8C184.7 110.6 184.7 110.4 184.7 110.2C184.7 109.9 184.7 109.6 184.7 109.3C184.8 108.7 184.9 108.1 185.1 107.5C185.1 107.3 185.2 107.2 185.3 107C186.1 104.7 187.9 102.4 190.4 100.4C190.5 100.3 190.6 100.2 190.7 100.1C191.6 99.4 192.6 98.6 193.5 97.9C194.7 97 195.9 96.4 195.9 96.4L198.9 92.9C200.7 91.2 201.9 89.3 204.4 87.2C205 86.7 212.3 82.1 215 80.7C215.1 80.7 222.3 76.2 224 75.9C224.9 75.7 226.8 76.5 228.4 77.2C229.8 77.9 231 78.5 231 78.5C231.8 78.9 232.5 79.3 233.3 79.7C233.8 80 234.4 80.3 234.9 80.6C235 80.7 235.1 80.7 235.2 80.8C235.3 80.8 235.4 80.9 235.4 80.9C235.6 81 235.7 81.1 235.9 81.2C237.1 81.9 238.2 82.7 239.1 83.4C239.8 83.9 240.4 84.5 240.8 84.9C241 85.2 241.2 85.4 241.3 85.6C241.4 85.8 241.4 85.9 241.5 86.1C241.6 86.3 241.6 86.4 241.7 86.6C242.2 88.2 242.4 89.6 242.5 90.2C242.1 90.4 242.1 90.5 242.1 90.5Z" fill="#DEDEDF"/>
<path d="M209.7 103.6C209.9 103.5 210 103.4 210 103.3C210 103.3 209.9 103.5 209.7 103.6ZM209.7 103.6C209.9 103.5 210 103.4 210 103.3C210 103.3 209.9 103.5 209.7 103.6Z" fill="#DBCCE5"/>
<path d="M209.7 103.6C209.9 103.4 210 103.3 210 103.3C209.9 103.4 209.8 103.5 209.7 103.6ZM210 103.3C210 103.3 210.1 103.1 210.3 102.8C210.2 103.1 210.1 103.3 210 103.3Z" fill="#DBCCE5"/>
<path d="M216.1 93.8C216 94 214.3 96.7 212.6 99.3C211.7 100.9 210.1 103.7 209.7 105.2C209.7 105.3 209.7 105.3 209.6 105.4V105.5C209.5 105.7 209.5 105.8 209.5 105.8H209.4C208.1 105.3 198.5 101.4 196 97.3C196 97.2 195.9 97.1 195.9 97.1C195.9 97.1 203.6 88.1 204.6 87.5C205.1 88 205.9 88.6 207 89.4C208.8 90.6 211.5 92.2 215 93.6C215.2 93.7 215.5 93.8 215.8 93.9C215.9 93.7 216 93.7 216.1 93.8Z" fill="#A8A8A9"/>
<path d="M241.1 86.2C240.7 87.1 240.1 87.7 240.1 87.7C239.9 86.9 238.9 85.8 237.5 84.8C236.6 84.1 235.8 83.8 235.4 83.6C235.2 83.5 235.1 83.5 235.1 83.5C235.2 83.3 235.3 83.1 235.3 82.9C235.5 82.4 235.5 82 235.5 81.7C235.5 81.4 235.4 81.2 235.4 81.2C236.6 81.9 237.7 82.7 238.6 83.4C238.7 83.5 238.8 83.5 238.8 83.6C239.4 84.1 239.9 84.5 240.3 85C240.5 85.3 240.7 85.5 240.8 85.7C241 85.9 241.1 86.1 241.1 86.2Z" fill="#A8A8A9"/>
<path d="M186.4 111.1C186.4 111.1 185.2 110.8 184.3 109.6C184.3 109.5 184.3 109.4 184.3 109.3C184.3 109.1 184.4 108.9 184.4 108.6C184.5 108.2 184.6 107.8 184.7 107.4C184.7 107.2 184.8 107.1 184.9 106.9C185.1 107.1 185.5 107.5 185.8 108.3C186 109 186.3 109.9 186.4 111.1Z" fill="#DEDEDF"/>
<path d="M238.8 88.7C238.8 88.7 232.8 92.2 227.4 95.5C226.9 95.8 226.4 96.1 225.8 96.4C225.6 96.5 225.4 96.6 225.2 96.8C223.6 97.7 222.2 98.6 221.1 99.3C215.7 102.7 211.1 105.4 211.1 105.5C211.1 105.5 211.2 105.3 211.3 104.9C212.1 103 214.7 96.8 218.4 93.8C218.6 93.7 218.8 93.5 219 93.4C220.1 92.7 221.2 91.9 222.4 91.1C222.5 91.1 223.1 90.7 224.1 90.1C224.4 89.9 224.8 89.7 225.2 89.5C227.6 88.1 230.9 86.3 232.6 85.7C232.8 85.6 233.1 85.6 233.3 85.6C234.1 85.5 234.8 85.6 235.4 85.8C235.7 85.9 236 86 236.2 86.1C236.6 86.3 237 86.6 237.3 86.8C238.1 87.5 238.5 88.2 238.8 88.7Z" fill="#A8A8A9"/>
<path d="M202.1 114.9C202 115.3 201.8 115.7 201.5 116C201.4 116.1 201.3 116.2 201.2 116.3C200.7 116.7 199.4 116.8 198.1 116.6C196.9 116.5 196 116 196 116C196.1 115.4 197.1 114.9 197.9 114.8C198 114.8 198.2 114.8 198.3 114.7C198.3 114.7 198.9 114.7 199.7 114.6C200.2 114.5 200.8 114.5 201.3 114.4C201.5 114.4 202 114.4 202.1 114.9Z" fill="#DEDEDF"/>
<path d="M187 109C187 109 189.2 112.6 196 114C196 114 195.3 115.6 193.4 115.4C191.5 115.2 187.7 112.5 187.1 112C186.2 111.3 187 109 187 109Z" fill="#E6DAEF"/>
<path d="M195.6 114.1C195.5 114.2 195.4 114.4 195.2 114.5C194.9 114.7 194.4 115 193.8 115C193.7 115 193.6 115 193.5 115C191.9 114.9 188.5 112.5 187.3 111.6C186.8 111.3 186.9 110.3 187.1 109.6C187.4 110 187.9 110.5 188.7 111.1C190 112.1 192.2 113.4 195.6 114.1Z" fill="#7D7D7F"/>
<path d="M196.5 113.2C196.5 113.2 196.7 112.5 198.3 111.2C199.9 109.9 206.2 105.9 206.2 105.9C206.2 105.9 200 110.3 198.4 111.6C197 112.9 196.5 113.2 196.5 113.2Z" fill="#A8A8A9"/>
<path d="M187.3 107.7C187.3 107.7 187.6 105.8 189.1 104C190.6 102.2 194.6 99.1 194.6 99.1C194.6 99.1 190 103.6 188.8 105.1C187.6 106.5 187.3 107.7 187.3 107.7Z" fill="#A8A8A9"/>
<path d="M227.4 95.5C226.9 95.8 226.4 96.1 225.8 96.4C225.8 93.4 224.4 90.6 224.1 90.1C224.4 89.9 224.8 89.7 225.2 89.5C226.7 91.5 227.3 94.9 227.4 95.5Z" fill="#262629"/>
<path d="M242.1 90.5V92.7C241.8 92.9 241.4 93.1 241.2 93.1C240.5 93.2 240.3 91.7 240.5 91.5C240.7 91.3 242.1 90.3 242.1 90.3C242.1 90.4 242.1 90.5 242.1 90.5Z" fill="#DEDEDF"/>
<path d="M209.7 109.3C209.2 109.5 208.6 109.9 208 110.4C206.2 112.3 205.6 115 205.6 115C205.6 115 200.9 117.6 198.1 117.6C195.3 117.6 191.7 115.9 191 115.4C190.8 115.3 185.8 112.4 184.3 111V111.1C184.3 111.4 184.4 111.6 184.4 111.9C185.9 112.9 190.6 116 190.6 116C190.6 116 195.7 118.8 196.1 118.8C196.5 118.8 200.3 118.7 200.3 118.7L206 116.4L207.3 113.3L208.6 111.2C208.6 111.2 211 108.9 212.1 108.8C212.1 108.9 211 108.7 209.7 109.3Z" fill="#A8A8A9"/>
<path d="M235 94.9C234.3 95.6 233.2 96.8 232.6 98.3C231.7 100.8 231.9 101.7 231.9 101.7L231.6 101.5C231.7 101.6 232 97 235 94.9Z" fill="#F2E8F9"/>
<path d="M207 89.2L195.9 97C195.9 97 203.6 88 204.6 87.4C205.1 87.8 205.9 88.4 207 89.2Z" fill="#A8A8A9"/>
<path d="M195.8 96.9C195.8 96.9 203.8 103 209.3 105.7C208 105.2 198.1 101.2 195.8 96.9Z" fill="#262629"/>
<path d="M204.5 87.3L197.4 95.3L197.2 96.6L195.9 97.1C195.9 97 195.8 96.9 195.8 96.9C195.8 96.9 203.5 87.9 204.5 87.3Z" fill="#262629"/>
<path d="M209.4 105.7C209.4 105.8 209.4 105.8 209.4 105.7C208 105.1 198.4 101.3 195.9 97.1C195.9 97.1 197.8 95.8 199.2 96.1C200.6 96.4 201.1 98.3 202.4 99.1C203.7 99.8 205.8 100.7 207.4 101.8C208.9 102.8 210.1 103 209.4 105.7Z" fill="#515154"/>
<path d="M235.5 83.6C234.6 84.5 222.7 90.3 222.6 90.3C222.7 90.2 234.8 83.9 235.2 83.3C235.3 83.2 235.4 83 235.4 82.9C235.6 82.4 235.6 82 235.6 81.7C235.6 81.5 235.5 81.3 235.5 81.2C235.5 81.3 236.4 82.8 235.5 83.6Z" fill="#DEDEDF"/>
<path d="M225.2 96.8C223.6 97.7 222.2 98.6 221.1 99.3C215.7 102.7 211.1 105.4 211.1 105.5C211.1 105.5 211.2 105.3 211.3 104.9C212.1 103 214.7 96.8 218.4 93.8C219.6 93.9 221.2 94.2 222.6 94.9C223.6 95.4 224.5 96.1 225.2 96.8Z" fill="#A8A8A9"/>
<path d="M241.1 86.2C240.7 87.1 240.1 87.7 240.1 87.7C239.9 86.9 238.9 85.8 237.5 84.8C236.6 84.1 235.8 83.7999 235.4 83.5999C235.4 83.5999 237.4 83.5 238.7 84.3C238.7 84.3 238.8 83.9999 238.8 83.5999C239.4 84.0999 239.9 84.5 240.3 85C240.5 85.3 240.7 85.5 240.8 85.7C241 85.9 241.1 86.1 241.1 86.2Z" fill="#515154"/>
<path d="M237.3 94L236.9 94.5L236.5 94.9C234.8 95.8 233.7 97.7 233.6 97.8C233.4 98.1 233.3 98.5 233.1 98.8V98.9V99C233.1 99.1 233.1 99.1 233 99.2V99.3V99.4C233 99.5 232.9 99.6 232.9 99.7V99.8C232.9 99.9 232.9 99.9 232.9 100V100.1V100.2V100.3C232.9 100.4 232.9 100.5 232.8 100.5C232.8 100.6 232.8 100.7 232.8 100.7V100.8V100.9C232.8 101 232.8 101.1 232.8 101.2V101.3C232.8 101.4 232.8 101.5 232.8 101.5C232.8 101.6 232.8 101.6 232.8 101.6C227.8 104.6 221.5 108.2 216.1 111.4L216 111.5L215.5 111.3L215 111.1L215.4 110.9L232.2 101.3C232.2 101.3 232.5 96.8 235.6 94.6C236.6 93.8 237.3 94 237.3 94Z" fill="#A8A8A9"/>
<path d="M241.9 95.1C241.8 95.4 241.8 95.7 241.7 95.9C241.6 96.1 241.2 96.5 240.5 97C240 95.7 239.5 95.2 239 94.9C238.6 94.7 238.3 94.6 237.9 94.7C237.4 94.8 237 94.9 236.5 95.1C234.8 96 233.7 97.9 233.6 98C233.4 98.3 233.3 98.7 233.1 99V99.1V99.2C233.1 99.3 233.1 99.3 233 99.4V99.5V99.6C233 99.7 232.9 99.8 232.9 99.9V100C232.9 100.1 232.9 100.1 232.9 100.2V100.3V100.4V100.5C232.9 100.6 232.9 100.7 232.8 100.7C232.8 100.8 232.8 100.9 232.8 100.9V101V101.1C232.8 101.2 232.8 101.3 232.8 101.4V101.5C232.8 101.6 232.8 101.7 232.8 101.7C232.8 101.8 232.8 101.8 232.8 101.8C227.8 104.8 221.5 108.4 216.1 111.6L216 111.7L215 112.3C215 111.9 215 111.5 214.9 111.2C214.4 109.7 212.8 109.4 212.8 109.3C212.3 109.3 211.8 109.3 211.2 109.6C209 110.6 208 113.1 208 113.2C207 115 207 116.8 207 116.8C207 116.8 203.2 119.3 200.7 119.8C199.2 120.1 197.9 119.9 197.1 119.6C196.8 119.5 196.7 119.5 196.6 119.5C196.5 119.5 196.5 119.5 196.4 119.4C196.2 119.3 196.2 119.3 196.2 119.3C188.7 116.3 185.3 112.7 185.3 112.7C185.1 112 184.7 111.6 184.7 110.9C184.7 110.9 191.5 116.3 196.3 117.5C196.3 117.5 196.8 117.7 197.5 117.8C197.6 117.8 197.8 117.8 198 117.9C198.1 117.9 198.1 117.9 198.2 117.9C198.7 117.9 199.4 117.9 200.3 117.8C203.1 117.4 206.4 115.5 206.4 115.5C206.4 115.5 206.6 114.7 206.8 114V113.9C207.5 112.4 209 109.6 211.4 108.8C214 108 215 109.9 215.4 110.9C215.5 111.1 215.5 111.3 215.5 111.4L232.5 101.6C232.5 101.6 232.6 100.4 233 98.9C233 98.9 233.4 97.7 234.3 96.4C234.8 95.7 235.5 95 236.2 94.5C236.8 94.1 237.3 93.9 237.7 93.8C238 93.7 238.3 93.7 238.4 93.7C239.9 93.8 240.7 95.1 240.9 95.9C241.3 95.8 241.7 95.5 241.9 95.3C241.7 95.3 241.8 95.2 241.9 95.1Z" fill="#515154"/>
<path d="M202.1 114.9C202 115.3 201.8 115.7 201.5 116C201.5 114.6 199.7 114.7 199.7 114.7C200.2 114.6 200.8 114.6 201.3 114.5C201.5 114.4 202 114.4 202.1 114.9Z" fill="#7D7D7F"/>
<path d="M185.7 108.4C184.8 107.3 184.3 108.6 184.3 108.6C184.4 108.2 184.5 107.8 184.6 107.4C184.6 107.2 184.7 107.1 184.8 106.9C185 107.2 185.4 107.6 185.7 108.4Z" fill="#7D7D7F"/>
<path d="M237.4 86.9C237.4 86.8 237.3 86.8 237.4 86.9C237.3 86.8 237.3 86.8 237.4 86.9C237.3 86.8 237.3 86.8 237.3 86.8C237.3 86.8 237.3 86.8 237.2 86.7C237.2 86.7 237.2 86.7 237.1 86.7C237.1 86.7 237.1 86.7 237 86.6L236.9 86.5C236.9 86.5 236.8 86.5 236.8 86.4C236.8 86.4 236.8 86.4 236.7 86.4H236.6C236.6 86.4 236.6 86.4 236.5 86.4H236.4C236.4 86.4 236.4 86.4 236.3 86.4C236.3 86.4 236.2 86.4 236.2 86.3C236 86.2 235.7 86.1 235.4 86C235.6 86.1 236.3 86.3 237.2 87.1C238.3 88.1 238.3 88.6 238.3 88.6L211.1 105.1C211 105.5 210.9 105.7 210.9 105.7C210.9 105.7 215.5 102.9 220.9 99.5C222.2 98.7 223.8 97.7 225.6 96.6C226.1 96.3 226.6 96 227.2 95.7C232.7 92.4 238.6 88.9 238.6 88.9C238.5 88.2 238.1 87.5 237.4 86.9Z" fill="#262629"/>
<path d="M213.5 105.3C212.4 105.2 212.1 105.1 212 104.9C212 104.9 211.9 104.8 211.8 104.6C211.7 104.3 211.6 103.9 211.8 103.5C211.9 103.4 212 103.2 212.2 103.2C212.3 103.2 214.1 102.8 215 103.6C215.2 103.7 215.2 103.9 215.3 104C215.7 104.6 214.5 105.4 213.5 105.3Z" fill="#DEDEDF"/>
<path d="M213.5 105.3C212.4 105.2 212.1 105.1 212 104.9C212 104.9 211.9 104.8 211.8 104.6C211.8 104.6 212.7 105 213.8 104.8C214.9 104.6 215.4 104.2 215.4 103.9C215.7 104.6 214.5 105.4 213.5 105.3Z" fill="#A8A8A9"/>
<path d="M195 110.5L189.3 107.2V109.3L193.8 112L195 110.5Z" fill="#CCCCCC"/>
<path d="M195 110.5L189.3 107.2L191 105.1L194.8 107.4L195 110.5Z" fill="white"/>
<path d="M191.3 110.7C191.687 110.7 192 110.252 192 109.7C192 109.148 191.687 108.7 191.3 108.7C190.913 108.7 190.6 109.148 190.6 109.7C190.6 110.252 190.913 110.7 191.3 110.7Z" fill="#7D7D7F"/>
<path d="M179 88.3V99.6C179 100.8 178.4 102 177.3 102.6L165.9 109.7C164.7 110.4 164.7 112.2 166 112.9L181.3 121.4C182.2 121.9 183.4 121.9 184.3 121.3L187.1 119.6C187.8 119.1 188.3 118.3 188.3 117.5V113.1C188.3 112.3 188.7 111.5 189.4 111L191.2 109.8" stroke="#262629" stroke-width="1.4173" stroke-miterlimit="10" stroke-linecap="round" stroke-linejoin="round"/>
<path d="M178.2 90.6C177.7 90.9 178.9 92.1 178.5 92.1C178.2 92.1 176.2 91 175.9 90.8C175.1 90.4 174.6 89.4 174.6 87.9V76.2C174.6 75.4 175.1 74.5 175.7 74.1L180.6 71.2C180.9 71 181.1 71.1 181.4 71.2C181.9 71.4 182.2 71.6 183.3 72.2L181.7 83.7C181.7 86.4 180.1 89.4 178.2 90.6Z" fill="#515154" stroke="#7D7D7F" stroke-width="0.2835" stroke-miterlimit="10"/>
<path d="M180.3 91.7C178.3 92.8 176.7 91.6 176.7 89V77.3C176.7 76.5 177.2 75.6 177.8 75.2L182.7 72.3C183.3 72 183.8 72.3 183.8 73.1V84.8C183.8 87.5 182.3 90.5 180.3 91.7Z" fill="#A8A8A9" stroke="#7D7D7F" stroke-width="0.2835" stroke-miterlimit="10"/>
<path d="M180.3 89.9C179.1 90.6 178.2 89.9 178.2 88.3C178.2 86.7 179.1 84.9 180.3 84.3C181.5 83.6 182.4 84.3 182.4 85.9C182.4 87.4 181.5 89.3 180.3 89.9Z" fill="#515154"/>
<path d="M182.7 78.1L177.8 80.9V76.6L182.7 73.8V78.1Z" fill="#262629"/>
<path d="M179.8 78.8L181.1 78L181.6 76.6C181.6 76.5 181.6 76.5 181.6 76.5L181 75.4H180.9L179.7 76.1L179.6 76.2L179.5 76.4L180.8 75.7L181.3 76.6V76.7L180.9 77.8L179.6 78.6L179.8 78.8Z" fill="#A8A8A9"/>
<path d="M180.2 76.7L180.5 77.3L180.3 77.4V78L180 77.4L180.2 77.3V76.7ZM180.8 75.9L180.9 76.1L179.6 76.9L179.2 78V78.1L179.7 79L181 78.2L180.9 78.4L179.5 79.2L178.9 78.1V78L179.4 76.6L180.8 75.9Z" fill="#A8A8A9"/>
<path d="M178.3 83.1L177.7 83.5L177.5 83.1C177.5 83.1 177.5 83.1 177.5 83L177.8 82.2C177.8 82.2 177.8 82.2 177.8 82.1L178.4 81.8V81.9L177.8 82.3L177.5 83C177.5 83 177.5 83 177.5 83.1L177.7 83.4L178.3 83V83.1Z" fill="#3B3A3C"/>
<path d="M178.7 82.4L178.4 83.2C178.4 83.2 178.4 83.2 178.4 83.3L177.8 83.6V83.5L178.4 83.1L178.7 82.4C178.6 82.4 178.6 82.4 178.7 82.4L178.4 82.1L177.8 82.5V82.4L178.4 82L178.7 82.4C178.7 82.3 178.7 82.3 178.7 82.4ZM178.1 82.3V82.6L178.2 82.5L178 83V82.7L177.9 82.8L178.1 82.3Z" fill="white"/>
<path d="M179.8 81.5C179.8 81.5 179.9 81.5 179.9 81.4C179.9 81.5 179.9 81.7 179.9 81.8H180C180 81.7 180 81.5 180 81.4C180 81.4 180.1 81.4 180.1 81.3V81.2C180 81.3 179.9 81.3 179.8 81.4C179.8 81.4 179.8 81.5 179.8 81.5Z" fill="#3B3A3C"/>
<path d="M179.2 81.7C179.2 81.8 179.2 81.8 179.2 81.7C179.2 81.8 179.2 81.8 179.2 81.7C179.1 81.9 179.1 82 179.1 82.1V82.2C179.1 82.3 179 82.3 179 82.2H178.9C178.9 82.3 178.9 82.3 178.9 82.3H179C179.1 82.2 179.1 82.1 179.1 82.1C179.2 82 179.2 81.9 179.2 81.7C179.2 81.8 179.2 81.8 179.2 81.7Z" fill="#3B3A3C"/>
<path d="M182.1 80.4C182.2 80.3 182.2 80.2 182.1 80.1H182L181.9 80.2C181.9 80.4 181.9 80.5 181.9 80.7H182C182 80.6 182 80.6 182 80.5C181.9 80.5 182 80.5 182.1 80.4C182 80.5 182 80.5 182.1 80.4C182 80.5 182.1 80.6 182.1 80.6C182.1 80.6 182.1 80.6 182.2 80.6C182.1 80.5 182.1 80.5 182.1 80.4ZM182 80.4C181.9 80.4 181.9 80.3 182 80.4C181.9 80.3 181.9 80.3 182 80.4C182 80.3 182 80.3 182 80.3C182 80.2 182.1 80.3 182 80.4C182 80.4 182.1 80.3 182 80.4Z" fill="#3B3A3C"/>
<path d="M181 80.9L180.9 81C180.9 80.9 180.9 80.9 180.9 80.8H180.8C180.8 81 180.8 81.1 180.8 81.3H180.9C180.9 81.2 180.9 81.2 180.9 81.1L181 81C181 81.1 181 81.1 181 81.2H181.1C181.1 81 181.1 80.9 181.1 80.7H181C181 80.8 181 80.8 181 80.9Z" fill="#3B3A3C"/>
<path d="M180.6 81.3C180.6 81.4 180.6 81.4 180.5 81.4H180.4V81.3C180.4 81.2 180.4 81.2 180.5 81.2C180.6 81.1 180.6 81.1 180.6 81.2C180.6 81.2 180.6 81.2 180.7 81.2C180.7 81.1 180.7 81.1 180.6 81.1C180.5 81.1 180.4 81.1 180.4 81.3C180.3 81.4 180.3 81.5 180.3 81.6C180.3 81.7 180.4 81.8 180.5 81.7C180.6 81.5 180.6 81.4 180.6 81.3C180.7 81.2 180.7 81.2 180.6 81.3Z" fill="#3B3A3C"/>
<path d="M181.5 80.4C181.5 80.4 181.5 80.5 181.5 80.4C181.4 80.5 181.4 80.5 181.5 80.4C181.4 80.6 181.3 80.8 181.3 80.9V81H181.4L181.5 80.7V80.6V80.7C181.5 80.7 181.5 80.7 181.5 80.8V80.9C181.5 80.9 181.5 80.9 181.5 81H181.6C181.6 80.7 181.6 80.6 181.5 80.4Z" fill="#3B3A3C"/>
<path d="M183 80V79.9L183.1 79.8V79.7L183 79.8V79.7C183 79.7 183.1 79.6 183.2 79.6V79.5C183.1 79.5 183 79.6 183 79.6C183 79.8 183 79.9 183 80.1C183.1 80.1 183.2 80 183.2 80V79.9C183.1 79.9 183 80 183 80Z" fill="#3B3A3C"/>
<path d="M182.5 79.8C182.4 79.9 182.3 80 182.3 80.2C182.3 80.4 182.4 80.4 182.5 80.3C182.6 80.2 182.7 80.1 182.7 79.9C182.7 79.9 182.7 79.9 182.7 79.8H182.6L182.5 79.9V80L182.6 79.9C182.6 80 182.5 80.1 182.5 80.1C182.4 80.1 182.4 80.1 182.4 80C182.4 79.9 182.5 79.8 182.5 79.8H182.6L182.7 79.7C182.7 79.8 182.6 79.8 182.5 79.8Z" fill="#3B3A3C"/>
<path d="M179.5 82V81.9L179.6 81.8V81.7L179.5 81.8V81.7C179.5 81.7 179.6 81.6 179.7 81.6V81.5C179.6 81.5 179.5 81.6 179.5 81.6C179.5 81.8 179.5 81.9 179.5 82.1C179.6 82.1 179.7 82 179.7 82V81.9C179.6 81.9 179.5 82 179.5 82Z" fill="#3B3A3C"/>
<path d="M177.2 85L183.4 81.3" stroke="#7D7D7F" stroke-width="0.2835" stroke-miterlimit="10" stroke-linecap="round" stroke-linejoin="round"/>
<path fill-rule="evenodd" clip-rule="evenodd" d="M114.9 162.4L122.9 167V172.2L114.9 167.5V162.4Z" fill="#222E3A"/>
<path fill-rule="evenodd" clip-rule="evenodd" d="M146.5 144.2L154.6 148.8V153.9L146.5 149.3V144.2Z" fill="#222E3A"/>
<path fill-rule="evenodd" clip-rule="evenodd" d="M115.4 134.4C114.6 133.9 114.3 134 114.4 134.8C114.5 135.7 114.6 137.1 115.1 137.6C115.6 138.1 116.8 138.7 117 138.3C117.2 137.9 117.2 137.3 116.9 136.4C116.6 135.4 116.1 134.8 115.4 134.4Z" fill="#262629"/>
<path fill-rule="evenodd" clip-rule="evenodd" d="M117.1 138C116.8 137.7 116.4 137.4 115.7 137C115.3 136.8 114.9 136.6 114.7 136.5C114.8 137 114.9 137.4 115.1 137.6C115.6 138.1 116.8 138.7 117 138.3C117 138.2 117.1 138.1 117.1 138Z" fill="#2A3B51"/>
<path fill-rule="evenodd" clip-rule="evenodd" d="M112.7 166.4C112.7 171.8 119.3 171.3 121.2 170.2L161.3 147L163.8 144.8C165.2 143.6 166.4 141.8 166.4 139.9C166.4 136.6 166.9 133.3 164.9 127.6C164.7 126.9 164.2 126.4 163.6 126C158.1 122.8 148.9 131.6 142.1 136.8C136.7 140.9 134.1 144.9 129.9 150.2C125.6 155.6 112.7 159.2 112.7 166.4Z" fill="#A8A8A9"/>
<path d="M132.5 150.3C134.1 146.6 135.8 143.5 139.2 139.6C142 136.4 150.8 132.4 150.8 132.3C151.2 132.1 159.9 128 162.3 129.1C163 129.4 163.5 130.7 163.6 131.4C163.6 131.5 132.3 150.4 132.3 150.4L132.5 150.3Z" fill="#262629"/>
<path fill-rule="evenodd" clip-rule="evenodd" d="M161.5 129.7C159.3 128.6 151 132.9 151 132.9C151 132.9 142.9 136.7 140.2 139.7C137.2 143.1 135.5 145.6 133.9 149.4L162.7 131.8C162.6 131.2 162.2 130 161.5 129.7Z" fill="#A8A8A9"/>
<path fill-rule="evenodd" clip-rule="evenodd" d="M124.1 158.8L127.1 157.1C129.2 155.9 130.6 157.1 131.2 159.1L151.6 147.3C152.2 144.5 153.6 141.7 155.7 140.5L158.7 138.8C160.7 137.6 162.1 138.7 162.7 140.6L164.2 139.4C165.1 138.7 165.9 137.5 166.6 136.3C166.6 137.7 166.5 139 166.5 140.1C166.5 142 165.3 143.8 163.9 145L161.4 147.2L120.5 170.7L119.8 170.9C119.3 168.7 120 165.7 120 165.7C120.6 162.8 122 160 124.1 158.8Z" fill="#515154"/>
<path fill-rule="evenodd" clip-rule="evenodd" d="M121.2 170.3C120.9 170.5 120.4 170.6 120.4 170.6C120.1 168.2 120.4 166.7 120.4 166.7C120.8 163.9 122 160.9 124 159.8L127 158.1C129 157 130.2 158.5 130.6 160.8L130.9 162.6L151.6 150.6L151.9 148.5C152.3 145.7 153.5 142.7 155.5 141.6L158.5 139.9C160.5 138.8 161.7 140.3 162.1 142.6C162.2 143 162.3 143.5 162.4 144.1L163.7 143C164.6 142.3 165.6 141.1 166.3 139.8C166.3 139.9 166.3 140 166.3 140.1C166.3 142 165.1 143.8 163.7 145L162.6 145.9L161.2 147.1L151.3 152.8L131.1 164.5L121.2 170.3Z" fill="#262629"/>
<path fill-rule="evenodd" clip-rule="evenodd" d="M125.6 171.9C127.9 170.6 129.7 167.1 129.7 164C129.7 161 127.8 159.6 125.6 160.9C123.3 162.2 121.5 165.7 121.5 168.8C121.4 171.8 123.3 173.2 125.6 171.9Z" fill="#7D7D7F" stroke="#262629" stroke-width="0.2835" stroke-miterlimit="10"/>
<path fill-rule="evenodd" clip-rule="evenodd" d="M125.6 169.9C127 169.1 128.2 166.8 128.2 164.9C128.2 163 127 162.1 125.6 162.9C124.2 163.7 123 166 123 167.9C122.9 169.9 124.1 170.7 125.6 169.9Z" fill="#DEDEDF"/>
<path fill-rule="evenodd" clip-rule="evenodd" d="M125.6 166.1C125.7 166 125.9 166.1 125.9 166.3C125.9 166.5 125.8 166.7 125.6 166.8C125.5 166.9 125.3 166.8 125.3 166.6C125.3 166.4 125.4 166.2 125.6 166.1ZM126.3 163.4C126.8 163.3 127.1 163.5 127.4 163.9C127.4 164 127.3 164.2 127.2 164.4C127 164.6 126.7 164.8 126.5 164.9C126.2 165 126.2 165 126.2 164.6C126.2 164.3 126.2 163.9 126.3 163.6C126.2 163.6 126.2 163.5 126.3 163.4ZM127.6 165.4C127.6 166.1 127.4 166.8 127 167.4C126.9 167.5 126.8 167.4 126.7 167.4C126.6 167.3 126.5 166.9 126.5 166.7C126.5 166.3 126.5 166.3 126.7 166C126.9 165.8 127.2 165.5 127.4 165.4C127.5 165.4 127.6 165.4 127.6 165.4ZM126.3 168.6C126.1 168.8 125.8 169 125.6 169.2C125.4 169.3 125.1 169.4 124.9 169.4C124.9 169.3 124.9 169.2 124.9 169.1C124.9 168.8 125.2 168.4 125.4 168.1C125.6 167.7 125.7 167.7 125.9 167.8C126.1 167.9 126.3 168 126.3 168.2C126.3 168.4 126.3 168.5 126.3 168.6ZM124 169.2C123.7 168.9 123.5 168.5 123.4 167.8C123.4 167.7 123.5 167.7 123.6 167.6C123.8 167.4 124.1 167.4 124.3 167.4C124.6 167.4 124.6 167.4 124.5 167.8C124.5 168.1 124.4 168.6 124.3 168.8C124.3 169 124.1 169.1 124 169.2ZM123.8 166C124 165.3 124.4 164.7 124.9 164.2L125 164.3C125.1 164.5 125.1 164.9 125.1 165.2C125.1 165.6 125 165.7 124.8 165.9C124.6 166.1 124.3 166.3 124.1 166.2C123.9 166.2 123.8 166.1 123.8 166ZM125.6 167.2C125.7 167.2 125.8 167.2 125.8 167.3C125.8 167.4 125.7 167.5 125.6 167.6C125.5 167.6 125.4 167.6 125.4 167.5C125.4 167.4 125.5 167.3 125.6 167.2ZM126.2 166.2C126.3 166.2 126.4 166.2 126.4 166.3C126.4 166.4 126.3 166.5 126.2 166.6C126.1 166.6 126 166.6 126 166.5C126 166.4 126.1 166.3 126.2 166.2ZM124.9 167C125 167 125.1 167 125.1 167.1C125.1 167.2 125 167.3 124.9 167.4C124.8 167.4 124.7 167.4 124.7 167.3C124.7 167.2 124.9 167 124.9 167ZM126 165.3C126.1 165.3 126.2 165.3 126.2 165.4C126.2 165.5 126.1 165.6 126 165.7C125.9 165.7 125.8 165.7 125.8 165.6C125.8 165.4 125.9 165.3 126 165.3ZM125.1 165.8C125.2 165.8 125.3 165.8 125.3 165.9C125.3 166 125.2 166.1 125.1 166.2C125 166.2 124.9 166.2 124.9 166.1C125 165.9 125.1 165.8 125.1 165.8Z" fill="#262629"/>
<path fill-rule="evenodd" clip-rule="evenodd" d="M157.2 153.7C159.5 152.4 161.3 148.9 161.3 145.8C161.3 142.7 159.4 141.4 157.2 142.7C154.9 144 153.1 147.5 153.1 150.6C153 153.6 154.9 155 157.2 153.7Z" fill="#7D7D7F" stroke="#262629" stroke-width="0.2835" stroke-miterlimit="10"/>
<path d="M159.332 148.996C160.198 146.963 159.952 144.912 158.784 144.414C157.615 143.916 155.966 145.16 155.1 147.193C154.234 149.225 154.479 151.276 155.648 151.774C156.816 152.272 158.466 151.028 159.332 148.996Z" fill="#DEDEDF"/>
<path fill-rule="evenodd" clip-rule="evenodd" d="M157.2 147.9C157.3 147.8 157.5 147.9 157.5 148.1C157.5 148.3 157.4 148.5 157.2 148.6C157.1 148.7 156.9 148.6 156.9 148.4C156.9 148.2 157 147.9 157.2 147.9ZM157.8 145.2C158.3 145.1 158.6 145.3 158.9 145.7C158.9 145.8 158.8 146 158.7 146.2C158.5 146.4 158.2 146.6 158 146.7C157.7 146.8 157.7 146.8 157.7 146.4C157.7 146.1 157.7 145.7 157.8 145.4C157.8 145.4 157.8 145.3 157.8 145.2ZM159.2 147.2C159.2 147.9 159 148.6 158.6 149.2C158.5 149.3 158.4 149.2 158.3 149.2C158.2 149.1 158.1 148.7 158.1 148.5C158.1 148.1 158.1 148.1 158.3 147.8C158.5 147.6 158.8 147.3 159 147.2C159.1 147.2 159.2 147.2 159.2 147.2ZM157.9 150.4C157.7 150.6 157.4 150.8 157.2 151C157 151.1 156.7 151.2 156.5 151.2C156.5 151.1 156.5 151 156.5 150.9C156.5 150.6 156.8 150.2 157 149.9C157.2 149.5 157.3 149.5 157.5 149.6C157.7 149.7 157.9 149.8 157.9 150C157.9 150.2 157.9 150.3 157.9 150.4ZM155.6 151C155.3 150.7 155.1 150.3 155 149.6C155 149.5 155.1 149.5 155.2 149.4C155.4 149.2 155.7 149.2 155.9 149.2C156.2 149.2 156.2 149.2 156.1 149.6C156.1 149.9 156 150.4 155.9 150.6C155.9 150.8 155.7 150.9 155.6 151ZM155.4 147.8C155.6 147.1 156 146.5 156.5 146L156.6 146.1C156.7 146.3 156.7 146.7 156.7 147C156.7 147.4 156.6 147.5 156.4 147.7C156.2 147.9 155.9 148.1 155.7 148C155.5 148 155.4 147.9 155.4 147.8ZM157.2 149C157.3 149 157.4 149 157.4 149.1C157.4 149.2 157.3 149.3 157.2 149.4C157.1 149.4 157 149.4 157 149.3C157 149.1 157.1 149 157.2 149ZM157.8 148C157.9 148 158 148 158 148.1C158 148.2 157.9 148.3 157.8 148.4C157.7 148.4 157.6 148.4 157.6 148.3C157.6 148.2 157.7 148 157.8 148ZM156.5 148.7C156.6 148.7 156.7 148.7 156.7 148.8C156.7 148.9 156.6 149 156.5 149.1C156.4 149.1 156.3 149.1 156.3 149C156.3 148.9 156.4 148.8 156.5 148.7ZM157.6 147C157.7 147 157.8 147 157.8 147.1C157.8 147.2 157.7 147.3 157.6 147.4C157.5 147.4 157.4 147.4 157.4 147.3C157.4 147.2 157.5 147.1 157.6 147ZM156.7 147.5C156.8 147.5 156.9 147.5 156.9 147.6C156.9 147.7 156.8 147.8 156.7 147.9C156.6 147.9 156.5 147.9 156.5 147.8C156.6 147.7 156.7 147.6 156.7 147.5Z" fill="#262629"/>
<path fill-rule="evenodd" clip-rule="evenodd" d="M166 131.7L165.1 132.2C162.2 134 165.5 134.9 166.3 134.6C166.4 133.6 166.2 132.4 166 131.7Z" fill="#D4D4D4"/>
<path fill-rule="evenodd" clip-rule="evenodd" d="M145.1 135.5L146.3 142L144.7 143L143.4 136.5C144 136.1 144.5 135.9 145.1 135.5Z" fill="#A8A8A9"/>
<path fill-rule="evenodd" clip-rule="evenodd" d="M153.5 131.3L154.7 136.9L154 137.4L152.8 131.6C153 131.5 153.3 131.4 153.5 131.3Z" fill="#A8A8A9"/>
<path fill-rule="evenodd" clip-rule="evenodd" d="M135 145.5L136 148.3L132.5 150.4C133.3 148.6 134 146.8 135 145.5Z" fill="#262629"/>
<path fill-rule="evenodd" clip-rule="evenodd" d="M142.4 145.1L144.5 143.9C144.7 143.8 144.9 143.9 144.9 144.2C144.9 144.5 144.7 144.8 144.5 144.9L142.4 146.1C142.2 146.2 142 146.1 142 145.8C142 145.5 142.2 145.2 142.4 145.1Z" fill="#262629"/>
<path fill-rule="evenodd" clip-rule="evenodd" d="M142.2 145.5L144.7 144C144.8 143.9 144.9 144 144.9 144.1C144.9 144.2 144.8 144.4 144.7 144.4L142.2 145.9C142.1 146 142 145.9 142 145.8C142 145.7 142.1 145.5 142.2 145.5Z" fill="#A8A8A9"/>
<path fill-rule="evenodd" clip-rule="evenodd" d="M151.2 139.7L153.3 138.5C153.5 138.4 153.7 138.5 153.7 138.8C153.7 139.1 153.5 139.4 153.3 139.5L151.2 140.7C151 140.8 150.8 140.7 150.8 140.4C150.8 140.2 151 139.9 151.2 139.7Z" fill="#262629"/>
<path fill-rule="evenodd" clip-rule="evenodd" d="M151 140.1L153.5 138.6C153.6 138.5 153.7 138.6 153.7 138.7C153.7 138.8 153.6 139 153.5 139L151 140.5C150.9 140.6 150.8 140.5 150.8 140.4C150.8 140.3 150.9 140.2 151 140.1Z" fill="#A8A8A9"/>
<path d="M134.3 160.6L134.4 160.5C134.4 160.5 134.2 158.2 133.8 155.6C133.1 150.4 132.7 150.4 132.5 150.4V150.6C133 150.5 133.8 155.6 134.3 160.6Z" fill="#515154"/>
<path d="M147.3 153.2L147.5 153C147.5 153 147.2 150.5 146.9 147.8C146.3 143 145.9 142.5 145.7 142.4L144.4 136H144.2L145.5 142.6C146.1 142.6 146.8 148 147.3 153.2Z" fill="#515154"/>
<path fill-rule="evenodd" clip-rule="evenodd" d="M149.7 118.3C143.3 115 131 122.1 124.9 126.8C119.5 130.9 116.5 134.8 112.3 140C106.6 144 100.7 146.6 97.9 151.3C96.4 153.8 95.1 158.2 99 160.9C100.9 162.2 111.8 168.3 114.8 170.2C113.7 168.9 112.8 166.4 112.8 166.4C112.8 159.2 125.7 155.6 130 150.3C134.2 145.1 136.9 141 142.3 136.9C148.5 132.2 159.5 125.8 163.7 126.2C163.8 126.2 163.8 126.2 163.9 126.2C163.1 125.7 151.8 119.4 149.7 118.3Z" fill="#DEDEDF"/>
<path d="M128.3 148.8L114.1 140.5C113.8 140.3 113.6 140.1 113.6 139.8C113.5 139.5 113.6 139.2 113.8 138.9C115.4 137 119.3 132.3 121.8 130C121.9 129.9 122.1 129.9 122.2 130L137 138.5C137.1 138.6 137.2 138.6 137.2 138.8C137.2 138.9 137.2 139 137.1 139.1C135.5 140.7 133.2 143.9 130.6 148.2C130.3 148.7 129.7 149 129.1 149C128.8 149 128.6 149 128.3 148.8Z" fill="#262629"/>
<path fill-rule="evenodd" clip-rule="evenodd" d="M136.4 138.6L122.3 130.4C122.2 130.3 122.1 130.4 122 130.4C119.6 132.6 115.9 137.1 114.3 138.9C113.9 139.3 114.1 140 114.6 140.3L128.1 148.2C128.8 148.6 129.8 148.4 130.2 147.7C131.5 145.5 134.2 141.1 136.4 139C136.6 138.9 136.5 138.7 136.4 138.6Z" fill="#A8A8A9"/>
<path fill-rule="evenodd" clip-rule="evenodd" d="M116.8 169.7C116.8 169.7 116.4 166.7 114.5 165.9C112.9 165.2 100.4 158 97.2 155.9C96.8 155.6 96.5 155.4 96.3 155.7C96.3 155.8 97.2 158.7 97.2 158.7L115.3 169.6L116.8 169.7Z" fill="#515154"/>
<path fill-rule="evenodd" clip-rule="evenodd" d="M96.5 154.8C96.6 156.2 96.7 157.8 99.7 159.9C100.7 160.6 105.8 163.6 108.9 165.4C111.2 166.7 113.6 168.1 115.1 169C115.8 169.5 116.8 169.8 117.9 169.8C119 169.8 120.1 169.5 120.6 169.3L120.7 169.2V170.7C119.1 171.3 116.2 171.5 114.4 170.2C111.1 168.2 100.8 162.4 98.9 161.1C96.8 159.7 96.3 157.8 96.3 156L96.5 154.8Z" fill="#262629"/>
<path fill-rule="evenodd" clip-rule="evenodd" d="M139 146.8C139.8 147.2 140.2 147.6 139.5 147.9C138.7 148.3 137.3 149.1 136.6 148.9C135.9 148.7 134.8 147.9 135 147.6C135.2 147.3 135.7 146.9 136.7 146.7C137.7 146.6 138.3 146.4 139 146.8Z" fill="#DEDEDF"/>
<path fill-rule="evenodd" clip-rule="evenodd" d="M135.2 147.4C135.6 147.5 136.1 147.7 136.8 148.1C137.2 148.3 137.5 148.5 137.8 148.7C137.3 148.9 136.9 149 136.6 148.9C135.9 148.7 134.8 147.9 135 147.6C135.1 147.6 135.1 147.5 135.2 147.4Z" fill="#262629"/>
<path fill-rule="evenodd" clip-rule="evenodd" d="M135 147.6L134.3 148.8L135 148.6L136 148.3L135 147.6Z" fill="#262629"/>
<path fill-rule="evenodd" clip-rule="evenodd" d="M119.9 157.5C119.6 158.9 118.3 160.2 118.3 160.2C118.3 160.2 115.7 162.1 113.9 162.1C112.1 162.1 111.7 161 111.7 161C111.7 161 112 159.1 112.1 159C112.5 159 114.2 159.7 115.2 159.4C116.8 159 119.2 157.7 119.9 157.5Z" fill="#DEDEDF"/>
<path fill-rule="evenodd" clip-rule="evenodd" d="M99 149.6C99.1 149.8 98.9 150.3 99 150.6C99.1 151.2 99.8 151.8 100 152C99.4 152.7 99.2 152.8 98.8 153.2C97.8 153.2 97.2 152.3 97.2 152.3C97.2 151.1 98.3 150.2 99 149.6Z" fill="#DEDEDF"/>
<path d="M101.1 159.7L106.4 162.9V161.5L101.1 158.3V159.7Z" fill="#DEDEDF"/>
<path d="M101.2 157.4C100.5 157 100.3 156.6 100 155.8C99.9 155.4 99.7 154.9 99.9 154.5C100.3 153.9 101.3 153.5 102.6 154.3C102.8 154.4 106.8 156.9 108 157.5C108.5 157.8 109.5 158.2 110 158.4C110.3 158.6 110.5 158.9 110.5 159.3C110.5 159.3 110.5 160.1 110.2 160.5C110.1 160.7 109.5 160.9 108.8 161C108.1 161.1 107.4 161 106.7 160.6C105.7 160 102.2 158 101.2 157.4Z" fill="#7D7D7F"/>
<path d="M114.7 159.6C114.8 159.6 114.9 159.6 114.9 159.6C116.8 159.4 121.6 156.7 121.8 156.6L121.7 156.4C121.7 156.4 116.7 159.1 114.9 159.3C113 159.5 101.9 155.2 99.3 150.9C98.9 149.9 99.9 148.8 99.9 148.8C99.9 148.8 99.4 149.2 99.1 149.6C98.9 150 98.9 150.5 99.1 151C100.7 153.6 106.3 156.7 108.3 157.6C111 158.9 113.6 159.6 114.7 159.6Z" fill="#515154"/>
<path d="M155.5 141.3C155 137.6 154.6 137.1 154.4 137.1L153.2 131.5H153L154.3 137.2C154.4 137.2 154.8 137.4 155.4 141.3H155.5Z" fill="#515154"/>
<path d="M90.5 149.7L91.8001 148.9C92.1001 148.7 92.1001 148.5 91.8001 148.3L90.5 147.5C90.2 147.3 89.7 147.3 89.4 147.5L88.1 148.3C87.8 148.5 87.8 148.7 88.1 148.9L89.4 149.7C89.7 149.9 90.2 149.9 90.5 149.7Z" fill="#DEDEDF"/>
<path d="M90.5 120.4L91.8001 119.6C92.1001 119.4 92.1001 119.2 91.8001 119L90.5 118.2C90.2 118 89.7 118 89.4 118.2L88.1 119C87.8 119.2 87.8 119.4 88.1 119.6L89.4 120.4C89.7 120.5 90.2 120.5 90.5 120.4Z" fill="white"/>
<path d="M87.9 119.3V148.6C87.9 148.5 88 148.4 88.1 148.3L89.4 147.5V120.3L88.1 119.5C88 119.5 87.9 119.4 87.9 119.3Z" fill="#DEDEDF"/>
<path d="M92 119.3V148.6C92 148.5 91.9 148.4 91.8 148.3L90.5 147.5V120.3L91.8 119.5C91.9 119.5 92 119.4 92 119.3Z" fill="#262629"/>
<path d="M90.5 148.8V120.4C90.2 120.6 89.7 120.6 89.4 120.4V147.6V149.7C89.7 149.9 90.2 149.9 90.5 149.7V148.8Z" fill="#7D7D7F"/>
<path d="M90.5 147.6L91.8 148.4C92.1 148.6 92.1 148.8 91.8 149L90.5 149.8V147.6Z" fill="#262629"/>
<path d="M91 119L89.8 119.8V92.2L91 92.6V119Z" fill="#262629"/>
<path d="M103.7 99.7L89.5 91.5C89.3 91.4 89.2 91.5 89.2 91.7V119.5L89.8 119.8V92.7C89.8 92.5 89.9 92.5 90.1 92.5L103.7 100.4V99.7Z" fill="#DEDEDF"/>
<path d="M89.4 91.2L90.2 90.7C90.3 90.6 90.5 90.6 90.6 90.7L104.9 98.9L103.7 99.6L89.6 91.4H89.5C89.3 91.3 89.2 91.4 89.2 91.5V91.4C89.2 91.4 89.2 91.3 89.4 91.2Z" fill="white"/>
<path d="M107.8 100.3L105 99L104.4 99.4L103.8 99.8L106.1 101.4C107.5 102.4 111.2 105.4 111.6 105.6C112.7 106.2 113.3 105.8 114.4 105.2C115.5 104.6 116.2 104.2 115.1 103.6C114.7 103.3 109.4 101.1 107.8 100.3Z" fill="white"/>
<path d="M115.6 104C115.6 104.2 115.5 104.3 115.3 104.5C115.1 104.7 114.7 104.9 114.4 105.1C113.8 105.4 113.4 105.7 112.9 105.8V106.7C113.4 106.6 113.8 106.3 114.4 106C115.1 105.6 115.7 105.3 115.7 104.9C115.6 105 115.6 104 115.6 104Z" fill="#262629"/>
<path d="M111.8 105.7V106.6C112.2 106.8 112.5 106.8 112.8 106.7V105.8C112.5 105.9 112.2 105.8 111.8 105.7Z" fill="#7D7D7F"/>
<path d="M111.8 105.7C111.7 105.7 111.6 105.6 111.5 105.6C111.1 105.4 107.3 102.3 106 101.4L104.9 100.7L103.6 99.8V100.5L105.9 102.4C107.3 103.4 111 106.4 111.4 106.6C111.5 106.7 111.6 106.7 111.7 106.7V105.7H111.8Z" fill="#DEDEDF"/>
<path d="M92.1999 138.3V149.6C92.1999 150.8 91.5999 152 90.4999 152.6L79.0999 159.7C77.8999 160.4 77.8999 162.2 79.1999 162.9L94.4999 171.4C95.3999 171.9 96.5999 171.9 97.4999 171.3L100.3 169.6C101 169.1 101.5 168.3 101.5 167.5V160.7C101.5 159.9 101.9 159.1 102.6 158.6L104.4 157.4" stroke="#262629" stroke-width="1.4173" stroke-miterlimit="10" stroke-linecap="round" stroke-linejoin="round"/>
<path d="M91.4 140.6C90.9 140.9 92.1 142.1 91.7 142.1C91.4 142.1 89.4 141 89.1 140.8C88.3 140.4 87.8 139.4 87.8 137.9V126.2C87.8 125.4 88.3 124.5 88.9 124.1L93.8 121.2C94.1 121 94.3 121.1 94.6 121.2C95.1 121.4 95.4 121.6 96.5 122.2L94.9 133.7C95 136.4 93.4 139.4 91.4 140.6Z" fill="#515154" stroke="#7D7D7F" stroke-width="0.2835" stroke-miterlimit="10"/>
<path d="M93.5 141.7C91.5 142.8 89.9 141.6 89.9 139V127.3C89.9 126.5 90.4 125.6 91 125.2L95.9 122.3C96.5 122 97 122.3 97 123.1V134.8C97.1 137.5 95.5 140.5 93.5 141.7Z" fill="#A8A8A9" stroke="#7D7D7F" stroke-width="0.2835" stroke-miterlimit="10"/>
<path d="M93.5 139.9C92.3 140.6 91.4 139.9 91.4 138.3C91.4 136.7 92.3 134.9 93.5 134.3C94.7 133.6 95.6 134.3 95.6 135.9C95.6 137.5 94.7 139.3 93.5 139.9Z" fill="#515154"/>
<path d="M95.9 128.1L91.1 130.9V126.6L95.9 123.8V128.1Z" fill="#262629"/>
<path d="M93 128.8L94.3 128L94.8 126.6C94.8 126.5 94.8 126.5 94.8 126.5L94.2 125.4H94.1L92.9 126.1L92.8 126.2L92.7 126.4L94 125.7L94.5 126.6V126.7L94.1 127.8L92.8 128.6L93 128.8Z" fill="#A8A8A9"/>
<path d="M93.5 126.7L93.8 127.3L93.6 127.4V128L93.3 127.4L93.5 127.3V126.7C93.4 126.7 93.4 126.7 93.5 126.7C93.5 126.7 93.4 126.7 93.5 126.7ZM94 125.9L94.1 126.1L92.8 126.9L92.4 128V128.1L92.9 129L94.2 128.2L94.1 128.4L92.7 129.2L92.1 128.1V128L92.6 126.6L94 125.9Z" fill="#A8A8A9"/>
<path d="M91.5 133.1L90.9 133.5L90.7 133.1C90.7 133.1 90.7 133.1 90.7 133L91 132.2C91 132.2 91 132.2 91 132.1L91.6 131.8V131.9L91 132.3L90.7 133C90.7 133 90.7 133 90.7 133.1L90.9 133.4L91.5 133V133.1Z" fill="#3B3A3C"/>
<path d="M91.9 132.4L91.6 133.2C91.6 133.2 91.6 133.2 91.6 133.3L91 133.6V133.5L91.6 133.1L91.9 132.4C91.8 132.4 91.8 132.4 91.9 132.4L91.6 132.1L91 132.5V132.4L91.6 132L91.9 132.4C91.9 132.3 91.9 132.3 91.9 132.4ZM91.3 132.3V132.6L91.4 132.5L91.2 133V132.7L91.1 132.8L91.3 132.3Z" fill="white"/>
<path d="M93 131.5C93 131.5 93.1 131.5 93.1 131.4C93.1 131.5 93.1 131.7 93.1 131.8H93.2C93.2 131.7 93.2 131.5 93.2 131.4C93.2 131.4 93.3 131.4 93.3 131.3V131.2C93.2 131.3 93.1 131.3 93 131.4C93 131.5 93 131.5 93 131.5Z" fill="#3B3A3C"/>
<path d="M92.5 131.8C92.4 131.8 92.4 131.8 92.5 131.8C92.4 131.8 92.4 131.8 92.5 131.8C92.4 132 92.4 132.1 92.4 132.2V132.3C92.4 132.4 92.3 132.4 92.3 132.3H92.2C92.2 132.4 92.2 132.4 92.2 132.4H92.3C92.4 132.3 92.4 132.2 92.4 132.2C92.5 132 92.5 131.9 92.5 131.8Z" fill="#3B3A3C"/>
<path d="M95.3 130.4C95.4 130.3 95.4 130.2 95.3 130.1H95.2L95.1 130.2C95.1 130.4 95.1 130.5 95.1 130.7H95.2C95.2 130.6 95.2 130.6 95.2 130.5C95.2 130.5 95.2 130.5 95.3 130.4C95.2 130.5 95.2 130.5 95.3 130.4C95.2 130.5 95.3 130.6 95.3 130.6C95.3 130.6 95.3 130.6 95.4 130.6C95.3 130.5 95.3 130.5 95.3 130.4ZM95.2 130.4C95.1 130.4 95.1 130.3 95.2 130.4C95.1 130.3 95.1 130.3 95.2 130.4C95.2 130.3 95.2 130.3 95.2 130.3C95.2 130.2 95.3 130.3 95.2 130.4C95.2 130.4 95.3 130.3 95.2 130.4Z" fill="#3B3A3C"/>
<path d="M94.3 130.9L94.2 131C94.2 130.9 94.2 130.9 94.2 130.8H94.1C94.1 131 94.1 131.1 94.1 131.3H94.2C94.2 131.2 94.2 131.2 94.2 131.1L94.3 131C94.3 131.1 94.3 131.1 94.3 131.2H94.4C94.4 131 94.4 130.9 94.4 130.7H94.3C94.3 130.8 94.3 130.8 94.3 130.9Z" fill="#3B3A3C"/>
<path d="M93.8 131.3C93.8 131.4 93.8 131.4 93.7 131.4H93.6V131.3C93.6 131.2 93.6 131.2 93.7 131.2C93.8 131.1 93.8 131.1 93.8 131.2C93.8 131.2 93.8 131.2 93.9 131.2C93.9 131.1 93.9 131.1 93.8 131.1C93.7 131.1 93.6 131.1 93.6 131.3C93.5 131.4 93.5 131.5 93.5 131.6C93.5 131.7 93.6 131.8 93.7 131.7C93.8 131.5 93.8 131.4 93.8 131.3C93.9 131.2 93.9 131.3 93.8 131.3Z" fill="#3B3A3C"/>
<path d="M94.7 130.4C94.7 130.4 94.7 130.5 94.7 130.4C94.7 130.5 94.7 130.5 94.7 130.4C94.6 130.6 94.5 130.8 94.5 130.9V131H94.6L94.7 130.7V130.6V130.7C94.7 130.7 94.7 130.7 94.7 130.8V130.9C94.7 130.9 94.7 130.9 94.7 131H94.8C94.8 130.7 94.8 130.6 94.7 130.4Z" fill="#3B3A3C"/>
<path d="M96.2 130V129.9L96.3 129.8V129.7L96.2 129.8V129.7C96.2 129.7 96.3 129.6 96.4 129.6V129.5C96.3 129.5 96.2 129.6 96.2 129.6C96.2 129.8 96.2 129.9 96.2 130.1C96.3 130.1 96.4 130 96.4 130V129.9C96.3 130 96.2 130 96.2 130Z" fill="#3B3A3C"/>
<path d="M95.7 129.8C95.6 129.9 95.5 130 95.5 130.2C95.5 130.4 95.6 130.4 95.7 130.3C95.8 130.2 95.9 130.1 95.9 129.9C95.9 129.9 95.9 129.9 95.9 129.8H95.8L95.7 129.9V130L95.8 129.9C95.8 130 95.7 130.1 95.7 130.1C95.6 130.1 95.6 130.1 95.6 130C95.6 129.9 95.7 129.8 95.7 129.8H95.8L95.9 129.7C95.9 129.8 95.8 129.8 95.7 129.8Z" fill="#3B3A3C"/>
<path d="M92.7 132V131.9L92.8 131.8V131.7L92.7 131.8V131.7C92.7 131.7 92.8 131.6 92.9 131.6V131.5C92.8 131.5 92.7 131.6 92.7 131.6C92.7 131.8 92.7 131.9 92.7 132.1C92.8 132.1 92.9 132 92.9 132V131.9C92.8 131.9 92.8 132 92.7 132Z" fill="#3B3A3C"/>
<path d="M90.4 135L96.6 131.3" stroke="#7D7D7F" stroke-width="0.2835" stroke-miterlimit="10" stroke-linecap="round" stroke-linejoin="round"/>
<path d="M142.9 89.1L133.9 94.3C133.7 94.4 133.5 94.6 133.5 94.8L128.8 108.3C128.7 108.6 128.7 108.9 128.9 109.1L133.2 116.5C133.3 116.7 133.5 116.8 133.7 116.9L136.5 118.5L144.4 112.8C144.6 112.7 144.8 112.5 144.8 112.3L149.5 98.8C149.6 98.5 146.5 90.9 146.4 90.7L143.6 89.1C143.3 89 143.1 89 142.9 89.1Z" fill="#515154"/>
<path d="M145.6 90.7L136.6 95.9001C136.4 96.0001 136.2 96.2001 136.2 96.4001L131.5 109.9C131.4 110.2 131.4 110.5 131.6 110.7L135.9 118.1C136.2 118.6 136.8 118.7 137.2 118.5L146 113.4C146.2 113.3 146.4 113.1 146.4 112.9L151.1 99.4001C151.2 99.1001 151.2 98.8 151 98.6L146.6 91C146.4 90.6 146 90.5 145.6 90.7Z" fill="#DEDEDF"/>
<path d="M142.4 96.8V103.4L144.8 102C144.9 102 144.9 102 144.9 102.1L141.3 112.6C141.3 112.7 141.2 112.7 141.2 112.6V106L138.9 107.4C138.8 107.4 138.8 107.4 138.8 107.3L142.4 96.8C142.3 96.7 142.4 96.7 142.4 96.8Z" fill="white"/>
<path opacity="0.35" d="M148.6 130.7C153.5 127.9 153.5 123.2 148.6 120.4C143.7 117.6 135.6 117.6 130.7 120.4C125.8 123.2 125.8 127.9 130.7 130.7C135.6 133.5 143.6 133.5 148.6 130.7Z" fill="url(#paint0_radial_1_404)"/>
<path d="M223.2 48.7L214.2 53.9C214 54 213.8 54.2 213.8 54.4L209.1 67.9C209 68.2 209 68.5 209.2 68.7L213.5 76.1C213.6 76.3 213.8 76.4 214 76.5L216.8 78.1L224.7 72.4C224.9 72.3 225.1 72.1 225.1 71.9L229.8 58.4C229.9 58.1 226.8 50.5 226.7 50.3L223.9 48.7C223.6 48.6 223.4 48.6 223.2 48.7Z" fill="#515154"/>
<path d="M225.9 50.3L216.9 55.5C216.7 55.6 216.5 55.8 216.5 56L211.8 69.5C211.7 69.8 211.7 70.1 211.9 70.3L216.2 77.7C216.5 78.2 217.1 78.3 217.5 78.1L226.3 73C226.5 72.9 226.7 72.7 226.7 72.5L231.4 59C231.5 58.7 231.5 58.4 231.3 58.2L226.9 50.6C226.7 50.2 226.3 50.1 225.9 50.3Z" fill="#DEDEDF"/>
<path d="M222.7 56.4V63L225.1 61.6C225.2 61.6 225.2 61.6 225.2 61.7L221.6 72.2C221.6 72.3 221.5 72.3 221.5 72.2V65.6L219.2 67C219.1 67 219.1 67 219.1 66.9L222.7 56.4C222.6 56.3 222.7 56.3 222.7 56.4Z" fill="white"/>
<path opacity="0.35" d="M228.9 90.3C233.8 87.5 233.8 82.8 228.9 80C224 77.2 215.9 77.2 211 80C206.1 82.8 206.1 87.5 211 90.3C215.9 93.1 223.9 93.1 228.9 90.3Z" fill="url(#paint1_radial_1_404)"/>
<defs>
<radialGradient id="paint0_radial_1_404" cx="0" cy="0" r="1" gradientUnits="userSpaceOnUse" gradientTransform="translate(139.614 125.577) scale(12.7086 7.31379)">
<stop stop-color="#7D7D7F"/>
<stop offset="0.00827684" stop-color="#7F7F81"/>
<stop offset="0.1974" stop-color="#ADADAE"/>
<stop offset="0.3786" stop-color="#D0D0D1"/>
<stop offset="0.5477" stop-color="#EAEAEA"/>
<stop offset="0.7002" stop-color="#FAFAFA"/>
<stop offset="0.8213" stop-color="white"/>
</radialGradient>
<radialGradient id="paint1_radial_1_404" cx="0" cy="0" r="1" gradientUnits="userSpaceOnUse" gradientTransform="translate(219.937 85.1553) scale(12.7086 7.31379)">
<stop stop-color="#7D7D7F"/>
<stop offset="0.00827684" stop-color="#7F7F81"/>
<stop offset="0.1974" stop-color="#ADADAE"/>
<stop offset="0.3786" stop-color="#D0D0D1"/>
<stop offset="0.5477" stop-color="#EAEAEA"/>
<stop offset="0.7002" stop-color="#FAFAFA"/>
<stop offset="0.8213" stop-color="white"/>
</radialGradient>
</defs>
</svg>
