<svg width="276" height="218" viewBox="0 0 276 218" fill="none" xmlns="http://www.w3.org/2000/svg">
<path d="M268.3 106L184.8 57.8C182.9 56.7 180.7 56.3 178.6 56.7L47.6 81.9C45 82.4 42.8 84 41.4 86.3L1.99998 154.7C-0.500019 159 0.999969 164.6 5.29997 167.1L86.8 214.2C88.7 215.3 90.9 215.7 93 215.3L224 190.1C226.6 189.6 228.8 188 230.2 185.7L270.8 115.3C272.7 112.1 271.5 107.9 268.3 106Z" fill="#DEDEDF"/>
<path d="M72.8 80.5L82.9 74.7L84.6 75.6L82.9 98L74.5 104.8L72.8 103.9V80.5Z" fill="#515154"/>
<path d="M74.5 81.4L84.6 75.6V98.9L74.5 104.8V81.4Z" fill="#A8A8A9"/>
<path d="M76 81.9L83.2 77.7V86L76 90.2V81.9Z" fill="black"/>
<path d="M76 91.8L83.2 87.7V89.7L76 93.9V91.8Z" fill="#DEDEDF"/>
<path d="M76 95.8L79.6 93.7V95.8L76 97.8V95.8Z" fill="#DEDEDF"/>
<path d="M78.7 86.6L81.1 85.2L82 82.7C82 82.6 82 82.5 82 82.5L80.9 80.6C80.9 80.5 80.8 80.5 80.7 80.6L78.5 81.9C78.4 81.9 78.4 82 78.4 82.1L78.3 82.5L80.7 81.1H80.8L81.8 82.8C81.8 82.8 81.8 82.9 81.8 83L81.1 85L78.7 86.4V86.6Z" fill="#DEDEDF"/>
<path d="M79.5 82.8L80.1 83.9L79.7 84.1V85.2L79.1 84.1L79.5 83.9V82.8C79.5 82.7 79.5 82.7 79.5 82.8ZM80.5 81.3L80.7 81.6L78.3 83L77.6 85C77.6 85.1 77.6 85.2 77.6 85.2L78.6 86.9H78.7L81.1 85.5L81 85.9C81 85.9 81 85.9 81 86L78.5 87.4L77.4 85.5C77.4 85.4 77.4 85.4 77.4 85.3L78.3 82.8L80.5 81.3Z" fill="#DEDEDF"/>
<path d="M4.5 145.3L151.3 61L153.9 62.5L7.29999 146.7L4.5 145.3Z" fill="white"/>
<path d="M179.6 182.5L186.8 178.4L189.4 179.8L182.4 183.8L179.6 182.5Z" fill="white"/>
<path d="M62.3 112.2L182.4 181.1L185.1 179.7L65.1 110.7L62.3 112.2Z" fill="white"/>
<path d="M208.5 166L215.7 161.8L218.3 163.3L211.3 167.3L208.5 166Z" fill="white"/>
<path d="M91.2 95.7L211.2 164.6L214 163.1L94 94.2L91.2 95.7Z" fill="white"/>
<path d="M150.7 199.2L157.9 195.1L160.5 196.5L153.5 200.5L150.7 199.2Z" fill="white"/>
<path d="M33.4 128.9L153.5 197.8L156.2 196.4L36.2 127.4L33.4 128.9Z" fill="white"/>
<path d="M121.8 215.8L129.1 211.7L131.6 213.1L124.6 217.1L121.8 215.8Z" fill="white"/>
<path d="M4.5 145.5L124.6 214.4L127.3 213L7.29999 144.1L4.5 145.5Z" fill="white"/>
<path d="M237.3 149.5L244.6 145.3L247.1 146.8L240.1 150.8L237.3 149.5Z" fill="white"/>
<path d="M120 79.1L240.1 148L242.8 146.6L122.8 77.7L120 79.1Z" fill="white"/>
<path d="M266.1 132.9L273.4 128.8L275.9 130.3L268.9 134.3L266.1 132.9Z" fill="white"/>
<path d="M148.8 62.6L268.9 131.5L271.6 130.1L151.6 61.2L148.8 62.6Z" fill="white"/>
<path d="M220 129L222.8 127.2L222.7 122.5L218.4 117L214.6 115.9L212.9 116.8L211.8 119.2L212.2 123.2L213.9 122.4L220 129Z" fill="#262629"/>
<path d="M165.9 97.8L168.7 96L168.6 91.3L164.3 85.8L160.5 84.7L158.8 85.5L157.7 88L157.9 91.8L159.8 91.2L165.9 97.8Z" fill="#262629"/>
<path d="M237.2 126.1L236.7 125.9L236.4 125.3V119.6L236.3 117.7L236.2 114.6L235.5 112.3L233.8 110.3L233.4 110.1L225.3 105.4L224.9 105.2L221.9 103.5L217.2 100.8L212.5 98.1L203.9 93.1L187.2 83.5L186.7 83.2L177.9 78.1L177.4 77.8L167.3 72L165.8 71.1L165.4 70.9L162.8 69.4L158.3 66.8L149.8 61.9H148.1L147.4 63.3V83.6L148.3 84.1L149.2 84.6V86.8L157.7 91.7C157.7 91.7 157.7 89.6 157.7 88.9C157.7 87.2 158.4 85.8 159.5 85.2C161.7 84.1 164.9 86.3 166.9 90.1C168 92.3 167.9 95.5 167.9 97.6L177.4 103.1L177.9 103.4L186.7 108.5L187.2 108.8L203.9 118.4L212.2 123.2L212.1 121.8C212.1 119.2 212.4 117.5 213.9 116.8C216 115.7 219.3 118 221.2 121.7C221.2 121.7 221.2 121.7 221.2 121.8C222.5 124.5 222.2 127 222.2 129L224.8 130.5L225.2 130.7L233.3 135.4L233.7 135.6L235.7 136.8V135L236.1 134.8L237.3 135.5V129.2L237.2 126.1Z" fill="#A8A8A9"/>
<path d="M150 72.3V61.9L233.8 110.3L235.5 112.3L236.2 114.6L237.3 127.2L228.9 122.8L223.9 114.9L150 72.3Z" fill="#262629"/>
<path d="M149 84.9V87.2L147 86V83.8L148.7 84.8L149 84.9Z" fill="#A8A8A9"/>
<path d="M147.6 81.4V83.6L147 83.8V81.7L147.6 81.4Z" fill="#DEDEDF"/>
<path d="M220.016 129.051C221.893 128.113 222.134 124.789 220.554 121.627C218.974 118.466 216.171 116.663 214.294 117.601C212.417 118.539 212.176 121.863 213.756 125.025C215.336 128.186 218.138 129.989 220.016 129.051Z" fill="#7D7D7F"/>
<path d="M218.589 126.677C219.627 126.158 219.747 124.296 218.859 122.518C217.97 120.739 216.408 119.718 215.371 120.236C214.334 120.755 214.213 122.617 215.102 124.395C215.991 126.174 217.552 127.195 218.589 126.677Z" fill="white"/>
<path d="M218.008 125.514C218.651 125.193 218.711 124.011 218.143 122.875C217.575 121.739 216.594 121.078 215.952 121.399C215.31 121.72 215.25 122.901 215.817 124.037C216.385 125.174 217.366 125.835 218.008 125.514Z" fill="#D4D4D4"/>
<path d="M260.7 115.7L259.7 103.1L259.6 102.3L255.9 104.4L242.9 111.9L239.2 114L239.3 114.8L239.5 117.7V118.1L239.7 121.1L240.2 127.5L240.3 129.1V135.4L241.9 134.5L244 133.3L257 125.8L257.8 125.3L258.6 124.8L260.7 123.6V117.3V115.7ZM244.1 132L240.9 133.9L240.7 133.8V132.3L243.9 130.4L244.1 130.5V132ZM260.8 122.4L257.6 124.3L257.4 124.2V122.7L260.6 120.8L260.8 120.9V122.4Z" fill="#515154"/>
<path d="M261.5 123.8V126.1L257.6 128.3L244.6 135.8L240.7 138.1H237.1L235.8 137.3V135L237.1 135.8H240.7L242.5 134.8L244.6 133.6L257.6 126.1L261.5 123.8Z" fill="#515154"/>
<path d="M255.5 95.8L247.4 91.1L246.8 90.8L243.8 89.1L239.1 86.4L234.4 83.7L225.8 78.7L209.1 69.1L208.6 68.8L199.8 63.7L199.3 63.4L189.2 57.6L184.7 55L180.2 52.4L171.4 47.3L167.7 49.4L154.7 56.9L151 59L152.6 59.9L159.8 64L164.3 66.6L168.8 69.2L169.3 69.5L169.9 69.9L172.6 71.4L173 71.6L178.8 75L179.3 75.3L188.1 80.4L188.6 80.7L205.3 90.3L213.9 95.3L218.6 98L223.3 100.7L226.3 102.4L226.9 102.7L235 107.4L235.6 107.7L239.3 105.6L252.3 98.1L256 96L255.5 95.8ZM192.5 66.4L184.9 70.8L184.2 71.2L183.5 70.8L175.9 66.4V65.6L176.4 65.3L184.2 60.8L192 65.3L192.5 65.6V66.4Z" fill="#DEDEDF"/>
<path d="M261.5 121.8V123.8L257.6 126.1L244.6 133.6L242.5 134.8L240.7 135.8H237.1L235.8 135L236.2 134.8H236.3L237.4 135.5H240.5L242 134.5L244.1 133.3L257.2 125.8L257.9 125.4L258.7 124.9L260.8 123.7V121.4L261.5 121.8Z" fill="#DEDEDF"/>
<path d="M264.1 111.2L263.1 111.1V103.8L259.8 103.1H259.7L259.6 102.3L263 103L264.1 103.6V111.2Z" fill="#7D7D7F"/>
<path d="M264.1 103.6L263 103L259.6 102.3V101L263.8 101.8L264.9 102.3L264.1 103.6Z" fill="#262629"/>
<path d="M240.5 129.2V135.5H237.4V129.2L237.3 127.5L237.2 126.1L238.8 125.8H238.9L239.5 125.4V118.6V117.8L239.2 116.8V114.1L239.3 114.9L239.5 117.8L239.6 118.1L239.8 121.1L240.3 127.5L240.5 129.2Z" fill="#A8A8A9"/>
<path d="M238.1 110.8L236.3 111.8L238.1 110.7V110.8Z" fill="white"/>
<path d="M169 47.3L165.3 49.4L152.3 56.9L151.9 57.1L148.6 59L147.5 61.1V63.3L148.2 61.9H149.9L151.1 59L154.8 56.9L167.8 49.4L171.5 47.3H169ZM258.5 99L238.1 110.8L236.3 111.8L235.4 112.3L236.3 111.8L238.1 110.8L241.8 108.7L254.8 101.2L258.5 99Z" fill="#DEDEDF"/>
<path d="M260.8 120.9L257.6 122.7V124.2L257.4 124.1V122.6L260.6 120.8L260.8 120.9Z" fill="#515154"/>
<path d="M260.8 120.9V122.4L257.6 124.2V122.7L260.8 120.9Z" fill="#DEDEDF"/>
<path d="M244.1 130.5L240.9 132.4L240.7 132.3L243.9 130.4L244.1 130.5Z" fill="#515154"/>
<path d="M151.2 59.1L150 61.9H148.3L148.6 59.1H151.2Z" fill="#DEDEDF"/>
<path d="M239.5 118.6V125.4L238.9 125.8H238.8L237.2 126.1H237.1L236.6 125.9V119.5L236.5 118.7L237.5 118.4L239.5 117.8V118.6Z" fill="#262629"/>
<path d="M239.2 114.1V116.8L237.3 117.4L236.3 117.7L236.2 114.6L235.5 112.3L236.3 111.8L238.1 110.8L239.2 114.1Z" fill="#7D7D7F"/>
<path d="M238.1 110.7L236.3 111.8L235.5 112.3L233.8 110.3L233.4 110.1L225.3 105.4L224.9 105.2L221.9 103.4L217.2 100.8L212.6 98.1L204 93.1L187.3 83.5L186.8 83.2L178.1 78.1L177.6 77.9L167.5 72.1L166 71.2L165.6 70.9L163 69.4L158.5 66.8L150 61.9L151.2 59.1L152.8 60L160 64.2L164.5 66.8L169.1 69.4L169.6 69.7L170.2 70.1L172.9 71.6L173.3 71.9L179.1 75.2L179.6 75.5L188.4 80.6L188.8 80.8L205.5 90.5L214.1 95.4L218.8 98.1L223.4 100.8L226.4 102.5L226.9 102.8L235.1 107.5L235.6 107.9L238.1 110.7Z" fill="#A8A8A9"/>
<path d="M258.9 98.7L258.5 99L238.1 110.7L235.6 107.9L239.3 105.7L252.3 98.2L256 96.1L257.2 96.8L258.9 98.7Z" fill="#DEDEDF"/>
<path d="M259.6 101V102.3L255.9 104.4L242.9 111.9L239.2 114.1L238.1 110.8L241.8 108.6L254.8 101.1L258.5 99L258.9 98.7L259.6 101Z" fill="#515154"/>
<path d="M149.4 84.7V86.9L149 87.2V84.9L149.4 84.7Z" fill="#515154"/>
<path d="M149.4 84.7L149 84.9L148.7 84.8L147 83.8L147.6 83.6L148.5 84.2L149.4 84.7Z" fill="#DEDEDF"/>
<path d="M244.1 130.5V132L240.9 133.9V132.4L244.1 130.5Z" fill="#DEDEDF"/>
<path d="M240.9 132.4V133.9L240.7 133.8V132.3L240.9 132.4Z" fill="#515154"/>
<path d="M236.6 119.5V125.9L236.4 125.3V119.6L236.3 117.7L236.5 118.7L236.6 119.5Z" fill="#7D7D7F"/>
<path d="M264.9 103.1V109.5L264.1 111.2V103.6L264.9 102.3V103.1Z" fill="#262629"/>
<path d="M239.5 117.8L237.5 118.4L236.5 118.7L236.3 117.7L237.3 117.4L239.2 116.8L239.5 117.8Z" fill="#7D7D7F"/>
<path d="M148.6 59.1L148.3 61.9L147.6 63.3V61.2L148.6 59.1Z" fill="#A8A8A9"/>
<path d="M235.8 135L237.1 135.8V138.1L235.8 137.3V135Z" fill="#A8A8A9"/>
<path d="M240.7 135.8H237.1V138.1H240.7V135.8Z" fill="#515154"/>
<path d="M235.5 112.3L238.1 110.8L239.2 114.1L236.2 114.6L235.5 112.3Z" fill="#A8A8A9"/>
<path d="M263 103L263.8 101.8L264.9 102.3L264.1 103.6L263 103Z" fill="#262629"/>
<path d="M240.5 135.5H241.3L261.5 123.8V121.8L260.8 121.4V123.7L240.5 135.5Z" fill="#DEDEDF"/>
<path d="M240.5 129.2H237.4V135.5H240.5V129.2Z" fill="#515154"/>
<path d="M263.1 106.4L264.1 108.4V111.2L263.1 111.1V106.4Z" fill="#A8A8A9"/>
<path d="M259.6 102.3L261.2 102.6L261.8 103.6L259.7 103.1L259.6 102.3Z" fill="#7D7D7F"/>
<path d="M259.6 101V102.3L261.2 102.6L261.1 101.3L259.6 101Z" fill="#262629"/>
<path d="M239.2 114.1L240.5 129.2L260.8 117.4L259.6 102.3L239.2 114.1Z" fill="#262629"/>
<path d="M192.5 65.6L191.8 66L184.8 70.1L184.3 70.4L176 65.6L176.5 65.3L177 65.6L184.3 69.8L191.3 65.7L191.5 65.6L192 65.3L192.5 65.6Z" fill="#DEDEDF"/>
<path d="M192.5 65.6V66.4L185 70.8L184.3 71.2L183.6 70.8L176 66.4V65.6L184.3 70.4L184.8 70.1L191.8 66L192.5 65.6Z" fill="#A8A8A9"/>
<path d="M192 65.3L191.5 65.6L191.3 65.7L184.3 69.8L177 65.6L176.5 65.3L184.3 60.9L192 65.3Z" fill="#A8A8A9"/>
<path d="M184.3 70.4V71.2L192.5 66.4V65.6L184.3 70.4Z" fill="#515154"/>
<path d="M184.3 69.8V70.4L192.5 65.6L192 65.3L184.3 69.8Z" fill="#515154"/>
<path d="M184.3 71.2H185.6L193.5 66.6L192.5 66V66.4L184.3 71.2Z" fill="#A8A8A9"/>
<path d="M228.3 86.2L227.6 86.6L220.5 90.7L220 90.9L211.8 86.2L212.3 85.9L212.8 86.2L220 90.4L227.1 86.3L227.3 86.2L227.8 85.9L228.3 86.2Z" fill="#DEDEDF"/>
<path d="M228.3 86.2V87L220.7 91.3L220 91.7L219.4 91.3L211.8 87V86.2L220 90.9L220.5 90.7L227.6 86.6L228.3 86.2Z" fill="#A8A8A9"/>
<path d="M227.8 85.9L227.3 86.2L227.1 86.3L220 90.4L212.8 86.2L212.3 85.9L220 81.4L227.8 85.9Z" fill="#A8A8A9"/>
<path d="M220 90.9V91.7L228.3 87V86.2L220 90.9Z" fill="#515154"/>
<path d="M220 90.4V90.9L228.3 86.2L227.8 85.9L220 90.4Z" fill="#515154"/>
<path d="M220 91.7H221.3L229.3 87.1L228.3 86.6V87L220 91.7Z" fill="#A8A8A9"/>
<path d="M149.4 84.7L149.8 85.4V87.2L149.4 86.9V84.7Z" fill="#A8A8A9"/>
<path d="M150.6 71.9L159 76.8V68.1L150.6 63.3V71.9Z" fill="#A8A8A9"/>
<path d="M159.9 77.2L168.3 82.1V73.5L159.9 68.6V77.2Z" fill="#A8A8A9"/>
<path d="M169.1 82.6L177.5 87.5V78.8L169.1 74V82.6Z" fill="#A8A8A9"/>
<path d="M178.4 87.9L186.8 92.8V84.2L178.4 79.3V87.9Z" fill="#A8A8A9"/>
<path d="M187.7 93.3L196 98.2V89.5L187.7 84.7V93.3Z" fill="#A8A8A9"/>
<path d="M196.9 98.6L205.3 103.5V94.9L196.9 90V98.6Z" fill="#A8A8A9"/>
<path d="M206.2 104L214.6 108.8V100.2L206.2 95.4V104Z" fill="#A8A8A9"/>
<path d="M215.4 109.3L223.8 114.2V105.6L215.4 100.7V109.3Z" fill="#A8A8A9"/>
<path d="M224.5 106V114.5L229.5 122.2L235.6 125.5L235.3 114.5L234.7 112.7L233.2 110.9L224.5 106Z" fill="#A8A8A9"/>
<path d="M228.9 122.8V132.8L229.3 133.1V123L228.9 122.8Z" fill="#262629"/>
<path d="M228.9 122.8L147.6 76.2V70.9L150 72.3L223.9 114.9L228.9 122.8Z" fill="#515154"/>
<path d="M147.6 63.3L148.3 61.9H150V72.3L147.6 70.9V63.3Z" fill="#A8A8A9"/>
<path d="M165.934 97.843C167.811 96.9049 168.052 93.5813 166.472 90.4195C164.892 87.2578 162.089 85.4553 160.212 86.3934C158.335 87.3315 158.094 90.655 159.674 93.8167C161.254 96.9785 164.056 98.7811 165.934 97.843Z" fill="#7D7D7F"/>
<path d="M164.463 95.3791C165.5 94.8607 165.621 92.9987 164.732 91.2202C163.843 89.4417 162.282 88.4203 161.244 88.9387C160.207 89.4572 160.086 91.3192 160.975 93.0976C161.864 94.8761 163.425 95.8976 164.463 95.3791Z" fill="white"/>
<path d="M163.882 94.2163C164.524 93.8954 164.584 92.714 164.016 91.5778C163.448 90.4416 162.468 89.7806 161.825 90.1016C161.183 90.4225 161.123 91.6038 161.691 92.74C162.258 93.8763 163.239 94.5372 163.882 94.2163Z" fill="#D4D4D4"/>
<path d="M240.1 113.6L241.1 122.9L251.7 116.9V115.3L252.5 114.2L255.9 112.5L257.9 113.4L258.9 112.9L258.2 103.1L240.1 113.6Z" fill="#A8A8A9"/>
<path d="M153.328 83.0858C153.734 82.9128 153.853 82.2781 153.594 81.6683C153.334 81.0584 152.794 80.7043 152.388 80.8773C151.981 81.0503 151.862 81.6849 152.122 82.2948C152.381 82.9047 152.921 83.2588 153.328 83.0858Z" fill="white"/>
<path d="M130.4 47.6L140.5 41.7L142.2 42.6L140.5 65.1L132.1 71.8L130.4 70.9V47.6Z" fill="#515154"/>
<path d="M132.1 48.5L142.2 42.6V66L132.1 71.8V48.5Z" fill="#A8A8A9"/>
<path d="M133.5 48.9L140.7 44.8V53.1L133.5 57.2V48.9Z" fill="black"/>
<path d="M133.5 58.9L140.7 54.7V56.8L133.5 60.9V58.9Z" fill="#DEDEDF"/>
<path d="M133.5 62.9L137.1 60.8V62.8L133.5 64.9V62.9Z" fill="#DEDEDF"/>
<path d="M136.2 53.7L138.6 52.3L139.5 49.8C139.5 49.7 139.5 49.6 139.5 49.6L138.4 47.7C138.4 47.6 138.3 47.6 138.2 47.7L136 49C135.9 49 135.9 49.1 135.9 49.2L135.8 49.6L138.2 48.2H138.3L139.3 49.9C139.3 49.9 139.3 50 139.3 50.1L138.6 52.1L136.2 53.5V53.7Z" fill="#DEDEDF"/>
<path d="M137 49.8L137.6 50.9L137.2 51.1V52.2L136.6 51.1L137 50.9V49.8ZM138 48.4L138.2 48.7L135.8 50.1L135.1 52.1C135.1 52.2 135.1 52.3 135.1 52.3L136.1 54H136.2L138.6 52.6L138.5 53C138.5 53 138.5 53 138.5 53.1L136 54.5L134.9 52.6C134.9 52.5 134.9 52.5 134.9 52.4L135.8 49.9L138 48.4Z" fill="#DEDEDF"/>
<path d="M131.3 53L127.4 55.4C126 56.2 125.2 57.7 125.2 59.3V74C125.2 75.7 126.1 77.2 127.5 78.1L148.4 90.1C149.6 90.8 151 89.9 151 88.6V84.6C151 83.6 151.5 82.6 152.3 82.1L152.6 81.9" stroke="#262629" stroke-width="1.4173" stroke-miterlimit="10" stroke-linecap="round" stroke-linejoin="round"/>
<path d="M15.9 113.4L26 107.5L27.7 108.5L26 130.9L17.6 137.6L15.9 136.7V113.4Z" fill="#515154"/>
<path d="M17.6 114.3L27.7 108.5V131.8L17.6 137.6V114.3Z" fill="#A8A8A9"/>
<path d="M19.1 114.8L26.3 110.6V118.9L19.1 123.1V114.8Z" fill="black"/>
<path d="M19.1 124.7L26.3 120.6V122.6L19.1 126.7V124.7Z" fill="#DEDEDF"/>
<path d="M19.1 128.7L22.7 126.6V128.6L19.1 130.7V128.7Z" fill="#DEDEDF"/>
<path d="M21.8 119.5L24.2 118.1L25.1 115.6C25.1 115.5 25.1 115.4 25.1 115.4L24 113.5C24 113.4 23.9 113.4 23.8 113.5L21.6 114.8C21.5 114.8 21.5 114.9 21.5 115L21.4 115.4L23.8 114H23.9L24.9 115.7C24.9 115.7 24.9 115.8 24.9 115.9L24.2 117.9L21.8 119.3V119.5Z" fill="#DEDEDF"/>
<path d="M22.6 115.6L23.2 116.7L22.8 116.9V118L22.2 116.9L22.6 116.7V115.6ZM23.6 114.2L23.8 114.5L21.4 115.9L20.7 117.9C20.7 118 20.7 118.1 20.7 118.1L21.7 119.8H21.8L24.2 118.4L24.1 118.8C24.1 118.8 24.1 118.8 24.1 118.9L21.6 120.3L20.5 118.4C20.5 118.3 20.5 118.3 20.5 118.2L21.4 115.7L23.6 114.2Z" fill="#DEDEDF"/>
<path d="M181.1 128.3C178.4 128.3 176 127.7 174 126.8C174.3 129.4 174.1 132.2 173.3 134.8C173.3 134.9 173.4 134.9 173.4 134.9C173.4 134.9 176.2 136.4 176.9 136.6C177.6 136.9 178.8 136.4 179.2 136.1C179.5 135.8 179.2 133.7 179.2 133.7C179.2 133.7 178.9 131.4 179.8 130.9C180.7 130.4 182.8 131.5 182.8 131.5V128.1C182.2 128.3 181.6 128.3 181.1 128.3Z" fill="#515154"/>
<path d="M138.8 105C137.5 105 136.3 104.8 135.2 104.6C134.8 106.4 134.2 108.1 133.4 109.7C134.1 110.7 134.7 111.5 134.7 112.2C134.7 112.2 135.8 112.8 136.5 113.1C137.2 113.4 138.4 112.9 138.7 112.6C139 112.3 138.7 110.2 138.7 110.2C138.7 110.2 139.8 108.7 140.7 108.2C141.6 107.7 142.3 108 142.3 108V104.7C141.2 104.9 140 105 138.8 105Z" fill="#515154"/>
<path d="M179.2 136C179.7 137.6 179.6 140.4 180.9 140.9C181.6 141.2 183.7 139.8 184.4 139.5C186.6 138.7 187.2 135.4 185.6 132.6C184.3 130.3 181.9 129.5 180.4 130.5C179.6 131 177.7 131.8 177.6 132.8C177.4 133.8 178.8 135.1 179.2 136Z" fill="#262629"/>
<path d="M176.3 137.7C177.1 140.2 179.2 142 181.1 141.3C183.2 140.5 183.8 137.3 182.4 134.6C181.2 132.3 179 131.4 177.5 132.4C176.2 133.2 175.7 135.5 176.3 137.7Z" fill="#7D7D7F"/>
<path d="M177.5 137.3C178 138.9 179.4 140.1 180.6 139.6C182 139.1 182.4 137 181.4 135.2C180.6 133.7 179.2 133.2 178.2 133.8C177.4 134.4 177.1 135.9 177.5 137.3Z" fill="#D4D4D4"/>
<path d="M139.1 113C139.7 114.6 139.5 117.4 140.8 117.9C141.5 118.2 143.6 116.8 144.3 116.5C146.5 115.7 147.1 112.4 145.5 109.7C144.2 107.4 141.8 106.6 140.3 107.6C139.5 108.1 137.6 108.9 137.5 109.9C137.4 110.8 138.8 112 139.1 113Z" fill="#262629"/>
<path d="M136.3 114.6C137.1 117.1 139.2 118.9 141.1 118.2C143.2 117.4 143.8 114.2 142.4 111.5C141.2 109.2 139 108.3 137.5 109.3C136.2 110.2 135.7 112.4 136.3 114.6Z" fill="#7D7D7F"/>
<path d="M125.1 102.3L125 80.6L135.8 84.3L194.6 122L208.4 113.2L215.1 112.2C215.1 112.2 219.8 134.5 220 136C220.2 137.6 218.6 138.7 218.6 138.7C218.6 138.7 202.5 146.6 201.6 147C199.9 147.7 199.4 148.2 198.1 148C197 147.9 194 146.3 194 146.3L185.7 141.9C185.7 141.9 184.9 141.4 184.2 140.5C183.7 139.8 183.6 138.3 183.6 138.3L183.4 136.2L183.3 135.5C183.3 135.5 183.1 133.5 182.7 132.9C182.1 132 181.5 131.7 181.5 131.6C181 131.1 180.7 131 180.4 130.8C179.4 130.3 179.2 130.2 178.2 129.8C176.1 128.9 176.2 131.2 176.2 131.2C176.2 131.2 176.3 133.9 175.9 134.8C175.5 135.7 174.6 135.5 174.6 135.5C174.6 135.5 147 119.1 145.2 117.9C143.3 116.8 143.3 114.9 143.3 114.9C143.3 114.9 142.6 110.5 142.3 109.6C142 108.7 140.1 107.5 138.2 106.7C136.3 106 136.3 106.7 136 107.4C135.7 108.1 135.8 109.7 135.6 111C135.5 112 134.6 111.9 134.6 111.9C134.6 111.9 127.8 107.6 126.2 106.3C124.7 105.3 125.1 102.3 125.1 102.3Z" fill="#A8A8A9"/>
<path d="M194.5 122L194.6 122.1L202.6 111.2L215.1 112.3C215.1 112.3 219.8 134.6 220 136.1C220.2 137.7 218.6 138.8 218.6 138.8C218.6 138.8 207.6 144.4 203.2 146.3L201.5 147.1C201.2 147.2 200.9 147.4 200.7 147.4C200.7 147.4 198.6 147.8 198.2 146.9C197.7 145.9 197 139.7 197 139.7L194.5 122Z" fill="#515154"/>
<path d="M215.1 112.2L145.1 70.8C145.1 70.8 140.5 72.3 136.3 74.2C132.1 76.1 125 80.6 125 80.6L194.6 122C194.6 122 199.7 119.4 205.6 116.5C211.5 113.7 215.1 112.2 215.1 112.2Z" fill="#DEDEDF"/>
<path d="M217.3 129.7L198.7 138.5L196.1 123L214.2 114.3L217.3 129.7Z" fill="#262629"/>
<path d="M216.1 127.8L199.1 135.8L197 123.2L213.5 115.3L216.1 127.8Z" fill="#A8A8A9"/>
<path d="M195.7 136.7L188.7 132.6C188.7 130.2 188.7 122.5 188.7 120.2L193.8 123.3L195.7 136.7Z" fill="#262629"/>
<path d="M189.2 132.3V121L193.4 123.6L195.1 135.7L189.2 132.3Z" fill="#A8A8A9"/>
<path d="M126.2 82.9L153.7 99.2V99.3L181.2 115.6L187.4 119.4V131.9L181.6 128.5L181.1 128.2L153 111.4L126.1 95.5V82.9H126.2Z" fill="#262629"/>
<path d="M181.8 127.9L153.6 111.1L153.4 110.9L126.7 95.1V83.8L153.2 99.5L153.5 99.7L181.3 116.2L186.9 119.6V130.9L181.8 127.9Z" fill="#A8A8A9"/>
<path d="M170.1 132.9V108.5L160.5 102.8V127.3L170.1 132.9Z" fill="#262629"/>
<path d="M169.4 108.7V131.5L165.5 129.1V106.3L169.4 108.7Z" fill="#DEDEDF"/>
<path d="M165.1 106.1V128.9L161.2 126.5V103.7L165.1 106.1Z" fill="#DEDEDF"/>
<path d="M134.7 87.4V111.3L134 111.8L129.5 108.9V84.4L134.7 87.4Z" fill="#262629"/>
<path d="M134 87.7V110.5L130.1 108.1V85.3L134 87.7Z" fill="#DEDEDF"/>
<path d="M216.3 117.7L218.4 116.8C218.4 116.8 218.9 116.8 219 117.2C219.2 117.6 220.4 122.9 220.4 122.9C220.4 122.9 220.1 123.4 219.5 123.4C219 123.4 218.7 122.9 218.7 122.9L218.3 122.3L217.4 118L216.5 118.4L216.3 117.7Z" fill="#262629"/>
<path d="M195.1 126.4L192.5 127C192.5 127 191.9 127.6 192 127.9C192 128.3 192.9 133.7 192.9 133.7C192.9 133.7 193.3 134.2 194 134C194.8 133.8 195.1 133 195.1 133L194.4 127.6L195.3 127.3L195.1 126.4Z" fill="#262629"/>
<path d="M188.9 136C189.1 136.3 189.8 136.6 190.1 136.5C190.5 136.4 190.8 135.9 190.7 135.6C190.6 135.2 190.3 134.9 190 134.7C189.7 134.6 189.5 134.5 189.2 134.6C188.8 134.8 188.5 135.2 188.6 135.5C188.7 135.9 188.9 136 188.9 136Z" fill="white"/>
<path d="M125.1 96.1L126.2 96.7V102.5C126.2 102.5 126.1 103.3 125.6 103.3C125.2 103.4 125 103.1 125 103.1L125.1 102.3V96.1Z" fill="#A8A8A9"/>
<path d="M126.2 101.3L125.1 100.7V103.1C125.1 103.1 125.8 103.7 126 103.1C126.3 102.5 126.3 102.5 126.3 102.5V101.3H126.2Z" fill="white"/>
<path d="M201 144.1C201.2 144.9 201.8 145.5 202.5 145.3C203.2 145.2 203.6 144.4 203.4 143.6C203.2 142.8 202.6 142.2 201.9 142.4C201.3 142.5 200.9 143.3 201 144.1Z" fill="white"/>
<path d="M199.3 141.9C199.4 142.5 199.9 142.9 200.4 142.8C200.9 142.7 201.2 142.2 201.1 141.6C201 141 200.5 140.6 200 140.7C199.5 140.7 199.2 141.3 199.3 141.9Z" fill="white"/>
<path d="M198.4 140.3C198.5 140.7 198.8 140.9 199.1 140.9C199.4 140.8 199.6 140.5 199.5 140.1C199.4 139.7 199.1 139.5 198.8 139.5C198.5 139.6 198.3 139.9 198.4 140.3Z" fill="white"/>
<path d="M216.5 136.3C216.4 137.1 216.9 137.7 217.5 137.8C218.1 137.9 218.7 137.3 218.8 136.5C218.9 135.7 218.4 135 217.8 135C217.2 135 216.6 135.5 216.5 136.3Z" fill="white"/>
<path d="M217.4 133.7C217.4 134.2 217.6 134.6 218.1 134.7C218.5 134.7 218.9 134.4 218.9 133.9C219 133.4 218.7 133 218.2 132.9C217.8 132.8 217.5 133.2 217.4 133.7Z" fill="white"/>
<path d="M217.9 131.9C217.9 132.2 218 132.5 218.3 132.5C218.5 132.5 218.8 132.3 218.8 132C218.8 131.7 218.7 131.4 218.4 131.4C218.2 131.3 217.9 131.6 217.9 131.9Z" fill="white"/>
<path d="M192.4 131.3L192.7 133.1C192.7 133.1 192.9 133.5 193.2 133.4C193.4 133.3 193.5 133.2 193.5 133.1C193.5 133 193.2 131.3 193.2 131.3C193.2 131.3 193 130.9 192.7 130.9C192.3 130.8 192.4 131.3 192.4 131.3Z" fill="white"/>
<path d="M137.5 114.3C138 115.9 139.4 117.1 140.6 116.6C142 116.1 142.4 114 141.4 112.2C140.6 110.7 139.2 110.2 138.2 110.8C137.4 111.4 137 112.9 137.5 114.3Z" fill="#D4D4D4"/>
<path d="M100.8 64.6L110.9 58.7L112.6 59.6L110.9 82.1L102.5 88.8L100.8 87.9V64.6Z" fill="#515154"/>
<path d="M102.5 65.5L112.6 59.6V83L102.5 88.8V65.5Z" fill="#A8A8A9"/>
<path d="M103.9 65.9L111.1 61.8V70.1L103.9 74.2V65.9Z" fill="black"/>
<path d="M103.9 75.9L111.1 71.7V73.8L103.9 77.9V75.9Z" fill="#DEDEDF"/>
<path d="M103.9 79.9L107.5 77.8V79.8L103.9 81.9V79.9Z" fill="#DEDEDF"/>
<path d="M106.6 70.7L109 69.3L109.9 66.8C109.9 66.7 109.9 66.6 109.9 66.6L108.8 64.7C108.8 64.6 108.7 64.6 108.6 64.7L106.4 66C106.3 66 106.3 66.1 106.3 66.2L106.2 66.6L108.6 65.2H108.7L109.7 66.9C109.7 66.9 109.7 67 109.7 67.1L109 69.1L106.6 70.5V70.7Z" fill="#DEDEDF"/>
<path d="M107.4 66.8L108 67.9L107.6 68.1V69.2L107 68.1L107.4 67.9V66.8ZM108.4 65.4L108.6 65.7L106.2 67.1L105.5 69.1C105.5 69.2 105.5 69.3 105.5 69.3L106.5 71H106.6L109 69.6L108.9 70C108.9 70 108.9 70 108.9 70.1L106.4 71.5L105.3 69.6C105.3 69.5 105.3 69.5 105.3 69.4L106.2 66.9L108.4 65.4Z" fill="#DEDEDF"/>
<path d="M101.2 71.6L99.3 72.7C97.9 73.5 97 75 97 76.6V92C97 93.2 97.6 94.4 98.7 95L102.6 97.4C103.8 98.1 104.1 99.7 103.4 100.8L102.7 101.9C101.6 103.6 102.2 105.9 103.9 106.9L174.8 149.3C176.4 150.3 178.3 150.6 180.2 150.2L184 149.4C185.4 149.1 186.4 147.8 186.4 146.4V140.2C186.4 139 187 137.8 188 137.1" stroke="#262629" stroke-width="1.4173" stroke-miterlimit="10" stroke-linecap="round" stroke-linejoin="round"/>
<path d="M152.6 158.1L155.4 156.3L155.3 151.6L151 146.1L147.2 145L145.5 145.8L144.4 148.3L144.8 152.3L146.5 151.5L152.6 158.1Z" fill="#262629"/>
<path d="M98.5 126.9L101.3 125.1L101.2 120.3L96.9 114.9L93.1 113.8L91.4 114.6L90.3 117L90.5 120.9L92.4 120.3L98.5 126.9Z" fill="#262629"/>
<path d="M169.7 155.1L169.2 154.9L168.9 154.3V148.6L168.8 146.7L168.7 143.6L168 141.3L166.3 139.3L165.9 139.1L157.8 134.4L157.4 134.2L154.4 132.5L149.7 129.8L145 127.1L136.4 122.1L119.7 112.5L119.2 112.2L110.4 107.1L109.9 106.8L99.8 101L98.3 100.1L97.9 99.9L95.3 98.4L90.8 95.8L82.3 90.9H80.6L79.9 92.3V112.6L80.8 113.1L81.7 113.6V115.8L90.2 120.7C90.2 120.7 90.2 118.6 90.2 117.9C90.2 116.2 90.9 114.8 92 114.2C94.2 113.1 97.4 115.3 99.4 119.1C100.5 121.3 100.4 124.5 100.4 126.6L109.9 132.1L110.4 132.4L119.2 137.5L119.7 137.8L136.4 147.4L144.7 152.2L144.6 150.8C144.6 148.2 144.9 146.5 146.4 145.8C148.5 144.7 151.8 147 153.7 150.7C153.7 150.7 153.7 150.7 153.7 150.8C155 153.5 154.7 156 154.7 158L157.3 159.5L157.7 159.7L165.8 164.4L166.2 164.6L168.2 165.8V164L168.6 163.8L169.8 164.5V158.2L169.7 155.1Z" fill="#A8A8A9"/>
<path d="M82.6 101.4V91L166.4 139.4L168 141.4L168.8 143.6L169.8 156.3L161.5 151.9L156.5 144L82.6 101.4Z" fill="#262629"/>
<path d="M81.6 114V116.3L79.5 115.1V112.9L81.3 113.9L81.6 114Z" fill="#A8A8A9"/>
<path d="M80.2 110.4V112.7L79.5 112.9V110.8L80.2 110.4Z" fill="#DEDEDF"/>
<path d="M152.619 158.141C154.496 157.203 154.737 153.879 153.157 150.717C151.577 147.556 148.774 145.753 146.897 146.691C145.02 147.629 144.779 150.953 146.359 154.115C147.939 157.276 150.741 159.079 152.619 158.141Z" fill="#7D7D7F"/>
<path d="M151.148 155.677C152.185 155.159 152.306 153.297 151.417 151.518C150.528 149.74 148.967 148.718 147.929 149.237C146.892 149.755 146.771 151.617 147.66 153.396C148.549 155.174 150.11 156.195 151.148 155.677Z" fill="white"/>
<path d="M150.567 154.514C151.209 154.193 151.269 153.012 150.701 151.876C150.134 150.739 149.153 150.079 148.51 150.399C147.868 150.72 147.808 151.902 148.376 153.038C148.943 154.174 149.924 154.835 150.567 154.514Z" fill="#D4D4D4"/>
<path d="M193.3 144.8L192.3 132.2L192.2 131.4L188.5 133.5L175.5 141L171.8 143.1L171.9 143.9L172.1 146.8V147.2L172.3 150.2L172.8 156.6L172.9 158.2V164.5L174.5 163.6L176.6 162.4L189.6 154.9L190.4 154.4L191.2 153.9L193.3 152.7V146.4V144.8ZM176.7 161.1L173.5 163L173.3 162.9V161.4L176.5 159.5L176.7 159.6V161.1ZM193.4 151.5L190.2 153.4L190 153.3V151.8L193.2 149.9L193.4 150V151.5Z" fill="#515154"/>
<path d="M194 152.9V155.2L190.2 157.4L177.2 164.9L173.3 167.1H169.7L168.4 166.4V164.1L169.7 164.9H173.3L175.1 163.9L177.2 162.7L190.2 155.1L194 152.9Z" fill="#515154"/>
<path d="M188 124.8L179.9 120.1L179.3 119.8L176.3 118.1L171.6 115.4L166.9 112.7L158.3 107.7L141.6 98.1L141.1 97.8L132.3 92.7L131.8 92.4L121.7 86.6L117.2 84L112.7 81.4L103.9 76.3L100.2 78.4L87.2 85.9L83.5 88L85.1 88.9L92.3 93L96.8 95.6L101.3 98.2L101.8 98.5L102.4 98.9L105.1 100.4L105.5 100.6L111.3 104L111.8 104.3L120.6 109.4L121.1 109.7L137.8 119.3L146.4 124.3L151.1 127L155.8 129.7L158.8 131.4L159.4 131.7L167.5 136.4L168.1 136.7L171.8 134.6L184.8 127.1L188.5 125L188 124.8ZM125.1 95.5L117.5 99.9L116.8 100.3L116.1 99.9L108.5 95.5V94.7L109 94.4L116.8 89.9L124.6 94.4L125.1 94.7V95.5V95.5Z" fill="#DEDEDF"/>
<path d="M194 150.9V152.9L190.2 155.1L177.2 162.7L175.1 163.9L173.3 164.9H169.7L168.4 164.1L168.8 163.9H168.9L170 164.5H173L174.6 163.6L176.7 162.4L189.7 154.9L190.5 154.4L191.3 154L193.4 152.8V150.5L194 150.9Z" fill="#DEDEDF"/>
<path d="M196.7 140.3L195.7 140.2V132.9L192.4 132.2H192.3L192.2 131.4L195.6 132.1L196.7 132.6V140.3Z" fill="#7D7D7F"/>
<path d="M196.7 132.6L195.6 132.1L192.2 131.4V130.1L196.4 130.9L197.5 131.4L196.7 132.6Z" fill="#262629"/>
<path d="M173 158.2V164.5H170V158.2L169.9 156.6L169.7 155.1L171.4 154.9H171.5L172.1 154.5V147.7V146.9L171.8 145.8V143.2L171.9 144L172.1 146.8V147.2L172.4 150.2L172.9 156.6L173 158.2Z" fill="#A8A8A9"/>
<path d="M170.7 139.9L168.9 140.9L170.7 139.8V139.9Z" fill="white"/>
<path d="M101.6 76.4L97.9 78.5L84.9 86L84.5 86.2L81.2 88.1L80.1 90.2V92.4L80.8 91H82.5L83.7 88.1L87.4 86L100.4 78.5L104.1 76.4H101.6ZM191.1 128.1L170.7 139.9L168.9 140.9L168 141.4L168.9 140.9L170.7 139.9L174.4 137.8L187.4 130.3L191.1 128.1Z" fill="#DEDEDF"/>
<path d="M193.4 149.9L190.2 151.8V153.3L190 153.2V151.7L193.2 149.8L193.4 149.9Z" fill="#515154"/>
<path d="M193.4 149.9V151.5L190.2 153.3V151.8L193.4 149.9Z" fill="#DEDEDF"/>
<path d="M176.7 159.6L173.5 161.4L173.3 161.3L176.5 159.5L176.7 159.6Z" fill="#515154"/>
<path d="M83.7 88.2L82.6 91H80.9L81.2 88.2H83.7Z" fill="#DEDEDF"/>
<path d="M172.1 147.7V154.5L171.5 154.9H171.4L169.7 155.1V155.2L169.2 155V148.6L169.1 147.8L170.1 147.5L172.1 146.9V147.7Z" fill="#262629"/>
<path d="M171.8 143.2V145.8L169.9 146.4L168.9 146.8L168.8 143.6L168 141.4L168.9 140.9L170.7 139.9L171.8 143.2Z" fill="#7D7D7F"/>
<path d="M170.7 139.8L168.9 140.9L168 141.4L166.4 139.4L166 139.2L157.9 134.5L157.5 134.3L154.5 132.5L149.8 129.8L145.2 127.2L136.6 122.2L119.9 112.6L119.4 112.3L110.7 107.2L110.2 107L100.1 101.2L98.6 100.3L98.2 100L95.6 98.5L91 95.9L82.6 91L83.7 88.2L85.4 89.1L92.6 93.3L97.1 95.9L101.6 98.5L102.2 98.8L102.8 99.2L105.5 100.7L105.9 101L111.7 104.3L112.2 104.6L120.9 109.6L121.4 109.9L138.1 119.5L146.7 124.5L151.3 127.2L156 129.9L159 131.6L159.5 131.9L167.7 136.6L168.2 137L170.7 139.8Z" fill="#A8A8A9"/>
<path d="M191.5 127.8L191.1 128.1L170.7 139.8L168.2 137L171.9 134.8L184.9 127.3L188.6 125.2L189.8 125.9L191.5 127.8Z" fill="#DEDEDF"/>
<path d="M192.2 130.1V131.4L188.5 133.5L175.5 141L171.8 143.2L170.7 139.9L174.4 137.7L187.4 130.2L191.1 128.1L191.5 127.8L192.2 130.1Z" fill="#515154"/>
<path d="M82 113.8V116L81.6 116.3V114L82 113.8Z" fill="#515154"/>
<path d="M82 113.8L81.6 114L81.3 113.9L79.5 112.9L80.2 112.7L81.1 113.3L82 113.8Z" fill="#DEDEDF"/>
<path d="M176.7 159.6V161.1L173.5 162.9V161.4L176.7 159.6Z" fill="#DEDEDF"/>
<path d="M173.5 161.4V162.9L173.3 162.8V161.3L173.5 161.4Z" fill="#515154"/>
<path d="M169.2 148.6V155L168.9 154.4V148.7V146.8L169.1 147.8L169.2 148.6Z" fill="#7D7D7F"/>
<path d="M197.5 132.2V138.6L196.7 140.3V132.6L197.5 131.4V132.2Z" fill="#262629"/>
<path d="M172.1 146.9L170.1 147.5L169.1 147.8L168.9 146.8L169.9 146.4L171.8 145.8L172.1 146.9Z" fill="#7D7D7F"/>
<path d="M81.2 88.2L80.9 91L80.2 92.4V90.2L81.2 88.2Z" fill="#A8A8A9"/>
<path d="M168.4 164.1L169.7 164.9V167.1L168.4 166.4V164.1Z" fill="#A8A8A9"/>
<path d="M173.3 164.9H169.7V167.2H173.3V164.9Z" fill="#515154"/>
<path d="M168 141.4L170.7 139.9L171.8 143.2L168.8 143.6L168 141.4Z" fill="#A8A8A9"/>
<path d="M195.6 132.1L196.4 130.9L197.5 131.4L196.7 132.6L195.6 132.1Z" fill="#262629"/>
<path d="M173 164.5H173.9L194 152.9V150.9L193.4 150.5V152.8L173 164.5Z" fill="#DEDEDF"/>
<path d="M173.1 158.2H170V164.5H173.1V158.2Z" fill="#515154"/>
<path d="M195.7 135.5L196.7 137.5V140.3L195.7 140.2V135.5Z" fill="#A8A8A9"/>
<path d="M192.2 131.4L193.8 131.7L194.4 132.6L192.3 132.2L192.2 131.4Z" fill="#7D7D7F"/>
<path d="M192.2 130.1V131.4L193.8 131.7L193.7 130.4L192.2 130.1Z" fill="#262629"/>
<path d="M171.8 143.2L173 158.2L193.4 146.5L192.2 131.4L171.8 143.2Z" fill="#262629"/>
<path d="M125.1 94.7L124.4 95.1L117.4 99.2L116.9 99.5L108.6 94.7L109.1 94.4L109.6 94.7L116.9 98.9L123.9 94.8L124.1 94.7L124.6 94.4L125.1 94.7Z" fill="#DEDEDF"/>
<path d="M125.1 94.7V95.5L117.6 99.9L116.9 100.3L116.2 99.9L108.6 95.5V94.7L116.9 99.5L117.4 99.2L124.4 95.1L125.1 94.7Z" fill="#A8A8A9"/>
<path d="M124.6 94.4L124.1 94.7L123.9 94.8L116.9 98.9L109.6 94.7L109.1 94.4L116.9 90L124.6 94.4Z" fill="#A8A8A9"/>
<path d="M116.9 99.5V100.3L125.1 95.5V94.7L116.9 99.5Z" fill="#515154"/>
<path d="M116.9 98.9V99.5L125.1 94.7L124.6 94.4L116.9 98.9Z" fill="#515154"/>
<path d="M116.9 100.3H118.2L126.1 95.7L125.1 95.1V95.5L116.9 100.3Z" fill="#A8A8A9"/>
<path d="M160.9 115.3L160.2 115.7L153.1 119.7L152.6 120L144.4 115.3L144.9 115L145.4 115.3L152.6 119.5L159.7 115.4L159.9 115.3L160.4 115L160.9 115.3Z" fill="#DEDEDF"/>
<path d="M160.9 115.3V116.1L153.3 120.4L152.6 120.8L151.9 120.4L144.4 116.1V115.3L152.6 120L153.1 119.7L160.2 115.7L160.9 115.3Z" fill="#A8A8A9"/>
<path d="M160.4 115L159.9 115.3L159.7 115.4L152.6 119.5L145.4 115.3L144.9 115L152.6 110.5L160.4 115Z" fill="#A8A8A9"/>
<path d="M152.6 120V120.8L160.9 116.1V115.3L152.6 120Z" fill="#515154"/>
<path d="M152.6 119.5V120L160.9 115.3L160.4 115L152.6 119.5Z" fill="#515154"/>
<path d="M152.6 120.8H153.9L161.9 116.2L160.9 115.7V116.1L152.6 120.8Z" fill="#A8A8A9"/>
<path d="M82 113.8L82.4 114.5V116.2L82 116V113.8Z" fill="#A8A8A9"/>
<path d="M83.2 101L91.6 105.8V97.2L83.2 92.4V101Z" fill="#A8A8A9"/>
<path d="M92.5 106.3L100.8 111.2V102.6L92.5 97.7V106.3Z" fill="#A8A8A9"/>
<path d="M101.7 111.7L110.1 116.5V107.9L101.7 103.1V111.7Z" fill="#A8A8A9"/>
<path d="M111 117L119.4 121.9V113.3L111 108.4V117Z" fill="#A8A8A9"/>
<path d="M120.2 122.4L128.6 127.2V118.6L120.2 113.8V122.4Z" fill="#A8A8A9"/>
<path d="M129.5 127.7L137.9 132.6V124L129.5 119.1V127.7Z" fill="#A8A8A9"/>
<path d="M138.8 133.1L147.2 137.9V129.3L138.8 124.5V133.1Z" fill="#A8A8A9"/>
<path d="M148 138.4L156.4 143.3V134.7L148 129.8V138.4Z" fill="#A8A8A9"/>
<path d="M157.1 135.1V143.6L162 151.3L168.2 154.6L167.9 143.6L167.3 141.8L165.8 140L157.1 135.1Z" fill="#A8A8A9"/>
<path d="M161.5 151.9V161.9L161.9 162.1V152.1L161.5 151.9Z" fill="#262629"/>
<path d="M161.5 151.9L80.2 105.3V100L82.6 101.4L156.5 144L161.5 151.9Z" fill="#515154"/>
<path d="M80.2 92.4L80.9 91H82.6V101.4L80.2 100V92.4Z" fill="#A8A8A9"/>
<path d="M98.4026 126.888C100.28 125.95 100.521 122.626 98.9409 119.465C97.361 116.303 94.5583 114.5 92.681 115.439C90.8037 116.377 90.5627 119.7 92.1427 122.862C93.7227 126.024 96.5253 127.826 98.4026 126.888Z" fill="#7D7D7F"/>
<path d="M97.0658 124.469C98.1032 123.951 98.2237 122.089 97.335 120.31C96.4463 118.532 94.8848 117.51 93.8474 118.029C92.8099 118.547 92.6894 120.409 93.5781 122.188C94.4669 123.966 96.0283 124.987 97.0658 124.469Z" fill="white"/>
<path d="M96.4847 123.306C97.1269 122.985 97.1872 121.804 96.6194 120.668C96.0516 119.532 95.0707 118.871 94.4285 119.192C93.7862 119.512 93.7259 120.694 94.2937 121.83C94.8615 122.966 95.8424 123.627 96.4847 123.306Z" fill="#D4D4D4"/>
<path d="M172.7 142.6L173.7 152L184.3 146V144.4L185.1 143.3L188.5 141.5L190.5 142.5L191.5 142L190.8 132.2L172.7 142.6Z" fill="#A8A8A9"/>
<path d="M88.7 111.9C89 112.3 89.7 112.5 90.2 112.4C90.7 112.3 91 111.7 90.9 111.4C90.8 111 90.4 110.6 90 110.4C89.6 110.2 89.4 110.2 89 110.3C88.5 110.5 88.2 110.9 88.3 111.3C88.5 111.8 88.7 111.9 88.7 111.9Z" fill="white"/>
<path d="M73.5 87.5L71.6 88.6C70.2 89.4 69.3 90.9 69.3 92.5V107.9C69.3 109.1 69.9 110.3 71 110.9L74.9 113.3C76.1 114 76.4 115.6 75.7 116.7L73.7 117.8C72.9 118.2 72.9 119.3 73.7 119.7L80.1 123.5C81.1 124.1 82.3 124.3 83.5 124.1L85.5 123.7C86.9 123.4 87.9 122.1 87.9 120.7V114.5C87.9 113.3 88.5 112.1 89.5 111.4" stroke="#262629" stroke-width="1.4173" stroke-miterlimit="10" stroke-linecap="round" stroke-linejoin="round"/>
<path d="M44.8 96.7L54.9 90.9L56.6 91.8L54.9 114.3L46.5 121L44.8 120.1V96.7Z" fill="#262629"/>
<path d="M46.5 97.7L56.6 91.8V115.2L46.5 121V97.7Z" fill="white"/>
<path d="M47.9 98.1L55.1 94V102.3L47.9 106.4V98.1Z" fill="#262629"/>
<path d="M47.9 108.1L55.1 103.9V106L47.9 110.1V108.1Z" fill="#D4D4D4"/>
<path d="M47.9 112.1L51.5 110V112L47.9 114.1V112.1Z" fill="#D4D4D4"/>
<path d="M50.6 102.9L53 101.5L53.9 99C53.9 98.9 53.9 98.8 53.9 98.8L52.8 96.9C52.8 96.8 52.7 96.8 52.6 96.9L50.4 98.2C50.3 98.2 50.3 98.3 50.3 98.4L50.2 98.8L52.6 97.4H52.7L53.7 99.1C53.7 99.1 53.7 99.2 53.7 99.3L53 101.3L50.6 102.7V102.9Z" fill="#7D7D7F"/>
<path d="M51.4 99L52 100.1L51.6 100.3V101.4L51 100.3L51.4 100.1V99ZM52.4 97.6L52.6 97.9L50.2 99.3L49.5 101.3C49.5 101.4 49.5 101.5 49.5 101.5L50.5 103.2H50.6L53 101.8L52.9 102.2C52.9 102.2 52.9 102.2 52.9 102.3L50.4 103.7L49.3 101.8C49.3 101.7 49.3 101.7 49.3 101.6L50.2 99.1L52.4 97.6Z" fill="#7D7D7F"/>
<path d="M81.2 170.4C78.5 170.4 76.1 169.8 74.1 168.9C74.4 171.5 74.2 174.3 73.4 176.9C73.4 177 73.5 177 73.5 177C73.5 177 76.3 178.5 77 178.7C77.7 179 78.9 178.5 79.3 178.2C79.6 177.9 79.3 175.8 79.3 175.8C79.3 175.8 79 173.5 79.9 173C80.8 172.5 82.9 173.6 82.9 173.6V170.2C82.3 170.4 81.8 170.4 81.2 170.4Z" fill="#515154"/>
<path d="M38.9 147.1C37.6 147.1 36.4 146.9 35.3 146.7C34.9 148.5 34.3 150.2 33.5 151.8C34.2 152.8 34.8 153.6 34.8 154.3C34.8 154.3 35.9 154.9 36.6 155.2C37.3 155.5 38.5 155 38.8 154.7C39.1 154.4 38.8 152.3 38.8 152.3C38.8 152.3 39.9 150.8 40.8 150.3C41.7 149.8 42.4 150.1 42.4 150.1V146.8C41.3 147 40.2 147.1 38.9 147.1Z" fill="#515154"/>
<path d="M79.3 178.1C79.8 179.7 79.7 182.5 81 183C81.7 183.3 83.8 181.9 84.5 181.6C86.7 180.8 87.3 177.5 85.7 174.7C84.4 172.4 82 171.6 80.5 172.6C79.7 173.1 77.8 173.9 77.7 174.9C77.5 175.9 79 177.1 79.3 178.1Z" fill="#262629"/>
<path d="M76.5 179.8C77.3 182.3 79.4 184.1 81.3 183.4C83.4 182.6 84 179.4 82.6 176.7C81.4 174.4 79.2 173.5 77.7 174.5C76.4 175.3 75.8 177.6 76.5 179.8Z" fill="#7D7D7F"/>
<path d="M77.7 179.4C78.2 181 79.6 182.2 80.8 181.7C82.2 181.2 82.6 179.1 81.6 177.3C80.8 175.8 79.4 175.3 78.4 175.9C77.6 176.5 77.2 178 77.7 179.4Z" fill="#D4D4D4"/>
<path d="M39.3 155.1C39.9 156.7 39.7 159.5 41 160C41.7 160.3 43.8 158.9 44.5 158.6C46.7 157.8 47.3 154.5 45.7 151.8C44.4 149.5 42 148.7 40.5 149.7C39.7 150.2 37.8 151 37.7 152C37.5 152.8 38.9 154.1 39.3 155.1Z" fill="#262629"/>
<path d="M36.5 156.7C37.3 159.2 39.4 161 41.3 160.3C43.4 159.5 44 156.3 42.6 153.6C41.4 151.3 39.2 150.4 37.7 151.4C36.4 152.3 35.8 154.5 36.5 156.7Z" fill="#7D7D7F"/>
<path d="M25.2 144.4L25.1 122.7L35.9 126.4L94.7 164.1L108.5 155.3L115.2 154.3C115.2 154.3 119.9 176.6 120.1 178.1C120.3 179.7 118.7 180.8 118.7 180.8C118.7 180.8 102.6 188.7 101.7 189.1C100 189.8 99.5 190.3 98.2 190.1C97.1 190 94.1 188.4 94.1 188.4L86 184C86 184 85.2 183.5 84.5 182.6C84 181.9 83.9 180.4 83.9 180.4L83.7 178.3L83.6 177.6C83.6 177.6 83.4 175.6 83 175C82.4 174.1 81.8 173.8 81.8 173.7C81.3 173.2 81 173.1 80.7 172.9C79.7 172.4 79.5 172.3 78.5 171.9C76.4 171 76.5 173.3 76.5 173.3C76.5 173.3 76.6 176 76.2 176.9C75.8 177.8 74.9 177.6 74.9 177.6C74.9 177.6 47.3 161.2 45.5 160C43.6 158.9 43.6 157 43.6 157C43.6 157 42.9 152.6 42.6 151.7C42.3 150.8 40.4 149.6 38.5 148.8C36.6 148.1 36.6 148.8 36.3 149.5C36 150.2 36.1 151.8 35.9 153.1C35.8 154.1 34.9 154 34.9 154C34.9 154 28.1 149.7 26.5 148.4C24.8 147.4 25.2 144.4 25.2 144.4Z" fill="#A8A8A9"/>
<path d="M94.6 164.1L94.7 164.2L102.7 153.3L115.2 154.4C115.2 154.4 119.9 176.7 120.1 178.2C120.3 179.8 118.7 180.9 118.7 180.9C118.7 180.9 107.7 186.5 103.3 188.4L101.6 189.2C101.3 189.3 101 189.5 100.8 189.5C100.8 189.5 98.7 189.9 98.3 189C97.8 188 97.1 181.8 97.1 181.8L94.6 164.1Z" fill="#515154"/>
<path d="M115.3 154.3L45.3 112.9C45.3 112.9 40.7 114.4 36.5 116.3C32.3 118.2 25.2 122.7 25.2 122.7L94.8 164.1C94.8 164.1 99.9 161.5 105.8 158.6C111.7 155.8 115.3 154.3 115.3 154.3Z" fill="#DEDEDF"/>
<path d="M117.5 171.8L98.9 180.6L96.2 165.1L114.3 156.4L117.5 171.8Z" fill="#262629"/>
<path d="M116.3 169.9L99.3 177.9L97.2 165.3L113.7 157.4L116.3 169.9Z" fill="#A8A8A9"/>
<path d="M95.9 178.8L88.9 174.7C88.9 172.3 88.9 164.6 88.9 162.3L94 165.4L95.9 178.8Z" fill="#262629"/>
<path d="M89.4 174.4V163.1L93.5 165.7L95.3 177.8L89.4 174.4Z" fill="#A8A8A9"/>
<path d="M26.3 125L53.8 141.3V141.4L81.3 157.7L87.5 161.5V174L81.7 170.6L81.2 170.3L53.1 153.5L26.2 137.6V125H26.3Z" fill="#262629"/>
<path d="M81.9 170L53.8 153.2L53.5 153L26.8 137.2V125.9L53.4 141.6L53.6 141.8L81.5 158.3L87.1 161.7V173L81.9 170Z" fill="#A8A8A9"/>
<path d="M70.2 175V150.6L60.6 144.9V169.4L70.2 175Z" fill="#262629"/>
<path d="M69.5 150.8V173.6L65.6 171.2V148.4L69.5 150.8Z" fill="#D4D4D4"/>
<path d="M65.2 148.2V171L61.3 168.6V145.8L65.2 148.2Z" fill="#D4D4D4"/>
<path d="M34.8 129.5V153.4L34.1 153.9L29.6 151V126.5L34.8 129.5Z" fill="#262629"/>
<path d="M34.1 129.8V152.6L30.3 150.2V127.4L34.1 129.8Z" fill="#D4D4D4"/>
<path d="M116.4 159.8L118.5 158.9C118.5 158.9 119 158.9 119.1 159.3C119.3 159.7 120.5 165 120.5 165C120.5 165 120.2 165.5 119.6 165.5C119.1 165.5 118.8 165 118.8 165L118.4 164.4L117.5 160.1L116.6 160.5L116.4 159.8Z" fill="#262629"/>
<path d="M95.2 168.5L92.6 169.1C92.6 169.1 92 169.7 92.1 170C92.1 170.4 93 175.8 93 175.8C93 175.8 93.4 176.3 94.1 176.1C94.9 175.9 95.2 175.1 95.2 175.1L94.5 169.7L95.4 169.4L95.2 168.5Z" fill="#262629"/>
<path d="M25.2 138.1L26.3 138.7V144.5C26.3 144.5 26.2 145.3 25.7 145.3C25.3 145.4 25.1 145.1 25.1 145.1L25.2 144.3V138.1Z" fill="#A8A8A9"/>
<path d="M26.3 143.4L25.2 142.8V145.2C25.2 145.2 25.9 145.8 26.1 145.2C26.4 144.6 26.4 144.6 26.4 144.6V143.4H26.3Z" fill="white"/>
<path d="M101.2 186.2C101.4 187 102 187.6 102.7 187.4C103.4 187.3 103.8 186.5 103.6 185.7C103.4 184.9 102.8 184.3 102.1 184.5C101.4 184.6 101 185.3 101.2 186.2Z" fill="white"/>
<path d="M99.5 184C99.6 184.6 100.1 185 100.6 184.9C101.1 184.8 101.4 184.3 101.3 183.7C101.2 183.1 100.7 182.7 100.2 182.8C99.6 182.8 99.4 183.4 99.5 184Z" fill="white"/>
<path d="M98.5 182.4C98.6 182.8 98.9 183 99.2 183C99.5 182.9 99.7 182.6 99.6 182.2C99.5 181.8 99.2 181.6 98.9 181.6C98.6 181.7 98.4 182 98.5 182.4Z" fill="white"/>
<path d="M116.7 178.4C116.6 179.2 117.1 179.8 117.7 179.9C118.3 180 118.9 179.4 119 178.6C119.1 177.8 118.6 177.1 118 177.1C117.3 177.1 116.8 177.6 116.7 178.4Z" fill="white"/>
<path d="M117.6 175.8C117.6 176.3 117.8 176.7 118.3 176.8C118.7 176.8 119.1 176.5 119.1 176C119.2 175.5 118.9 175.1 118.4 175C118 174.9 117.6 175.3 117.6 175.8Z" fill="white"/>
<path d="M118.1 174C118.1 174.3 118.2 174.6 118.5 174.6C118.7 174.6 119 174.4 119 174.1C119 173.8 118.9 173.5 118.6 173.5C118.3 173.4 118.1 173.7 118.1 174Z" fill="white"/>
<path d="M92.5 173.4L92.8 175.2C92.8 175.2 93 175.6 93.3 175.5C93.5 175.4 93.6 175.3 93.6 175.2C93.6 175.1 93.3 173.4 93.3 173.4C93.3 173.4 93.1 173 92.8 173C92.4 172.9 92.5 173.4 92.5 173.4Z" fill="white"/>
<path d="M37.6 156.4C38.1 158 39.5 159.2 40.7 158.7C42.1 158.2 42.5 156.1 41.5 154.3C40.7 152.8 39.3 152.3 38.3 152.9C37.6 153.5 37.2 154.9 37.6 156.4Z" fill="#D4D4D4"/>
<path d="M27.0999 141.9C27.2999 142.3 28 142.5 28.4 142.4C28.8 142.3 29.1 141.7 29 141.4C28.9 141 28.6 140.6 28.2 140.4C27.8 140.2 27.6 140.2 27.3 140.3C26.9 140.5 26.6 140.9 26.7 141.3C27 141.8 27.0999 141.9 27.0999 141.9Z" fill="white"/>
<path d="M16.6 120.4L14.7 121.5C13.3 122.3 12.4 123.8 12.4 125.4V137.6C12.4 138.8 13 140 14.1 140.6L17.3 142.6C17.9 143 17.9 143.9 17.3 144.3L14.8 145.8C14.1 146.2 14.1 147.2 14.8 147.5L23.7 152.7C25.1 153.5 26.7 152.5 26.7 150.9L26.5 143.2C26.5 142.6 26.7 142.1 27.2 141.8L27.9 141.3" stroke="#262629" stroke-width="1.4173" stroke-miterlimit="10" stroke-linecap="round" stroke-linejoin="round"/>
<path opacity="0.35" d="M213.4 82.4C219 79.2 219 73.9 213.4 70.7C207.8 67.5 198.7 67.5 193.1 70.7C187.5 73.9 187.5 79.2 193.1 82.4C198.7 85.7 207.8 85.7 213.4 82.4Z" fill="url(#paint0_radial_1_4245)"/>
<path d="M201.4 31.7L211.9 37.8C212.1 37.9 212.3 38.2 212.4 38.4L217.9 54.3C218 54.6 218 55 217.8 55.2L212.8 63.8C212.7 64 212.5 64.2 212.3 64.3L209 66.2L199.8 59.5C199.6 59.4 199.4 59.1 199.3 58.9L193.8 43C193.7 42.7 197.3 33.8 197.5 33.5C197.5 33.5 200.7 31.5999 200.8 31.5999C200.9 31.4999 201.2 31.6 201.4 31.7Z" fill="#515154"/>
<path d="M198.2 33.5L208.7 39.6C208.9 39.7 209.1 40 209.2 40.2L214.7 56.1C214.8 56.4 214.8 56.8 214.6 57L209.6 65.6C209.3 66.1 208.6 66.3 208 66L197.7 60.1C197.5 60 197.3 59.7 197.2 59.5L191.7 43.6C191.6 43.3 191.6 42.9 191.8 42.7L196.9 33.9C197.3 33.4 197.8 33.3 198.2 33.5Z" fill="#DEDEDF"/>
<path d="M203.5 41.2V49.1L206.3 50.7C206.4 50.7 206.4 50.9 206.4 50.9L202 58.5C202 58.6 201.8 58.5 201.8 58.3V50.4L199 48.8C198.9 48.8 198.9 48.6 198.9 48.6L203.3 41C203.4 41 203.5 41.1 203.5 41.2Z" fill="white"/>
<path opacity="0.35" d="M174.5 97.4C180.1 94.2 180.1 88.9 174.5 85.7C168.9 82.5 159.8 82.5 154.2 85.7C148.6 88.9 148.6 94.2 154.2 97.4C159.7 100.6 168.9 100.6 174.5 97.4Z" fill="url(#paint1_radial_1_4245)"/>
<path d="M163.1 48L173.6 54.1C173.8 54.2 174 54.5 174.1 54.7L179.6 70.6C179.7 70.9 179.7 71.3 179.5 71.5L174.5 80.1C174.4 80.3 174.2 80.5 174 80.6L170.7 82.5L161.5 75.8C161.3 75.7 161.1 75.4 161 75.2L155.5 59.3C155.4 59 159 50.1 159.2 49.8C159.2 49.8 162.4 47.9 162.5 47.9C162.6 47.8 162.9 47.9 163.1 48Z" fill="#515154"/>
<path d="M159.9 49.8L170.4 55.9C170.6 56 170.8 56.3 170.9 56.5L176.4 72.4C176.5 72.7 176.5 73.1 176.3 73.3L171.3 81.9C171 82.4 170.3 82.6 169.7 82.3L159.4 76.4C159.2 76.3 159 76 158.9 75.8L153.4 59.9C153.3 59.6 153.3 59.2 153.5 59L158.6 50.2C159 49.7 159.5 49.6 159.9 49.8Z" fill="#DEDEDF"/>
<path d="M165.2 57.5V65.4L168 67C168.1 67 168.1 67.2 168.1 67.2L163.7 74.8C163.7 74.9 163.5 74.8 163.5 74.6V66.7L160.7 65.1C160.6 65.1 160.6 64.9 160.6 64.9L165 57.3C165 57.3 165.2 57.4 165.2 57.5Z" fill="white"/>
<path opacity="0.35" d="M146.1 112.2C151.7 109 151.7 103.7 146.1 100.5C140.5 97.3 131.4 97.3 125.8 100.5C120.2 103.7 120.2 109 125.8 112.2C131.4 115.4 140.5 115.4 146.1 112.2Z" fill="url(#paint2_radial_1_4245)"/>
<path d="M134.1 61.4L144.6 67.5C144.8 67.6 145 67.9 145.1 68.1L150.6 84C150.7 84.3 150.7 84.7 150.5 84.9L145.5 93.5C145.4 93.7 145.2 93.9 145 94L141.7 95.9L132.5 89.2C132.3 89.1 132.1 88.8 132 88.6L126.5 72.7C126.4 72.4 130 63.5 130.2 63.2C130.2 63.2 133.4 61.3 133.5 61.3C133.6 61.3 133.9 61.3 134.1 61.4Z" fill="#515154"/>
<path d="M130.9 63.3L141.4 69.4C141.6 69.5 141.8 69.8 141.9 70L147.4 85.9C147.5 86.2 147.5 86.6 147.3 86.8L142.3 95.4C142 95.9 141.3 96.1 140.7 95.8L130.4 89.9C130.2 89.8 130 89.5 129.9 89.3L124.4 73.4C124.3 73.1 124.3 72.7 124.5 72.5L129.6 63.7C129.9 63.2 130.5 63 130.9 63.3Z" fill="#DEDEDF"/>
<path d="M136.1 71V78.9L138.9 80.5C139 80.5 139 80.7 139 80.7L134.6 88.3C134.6 88.4 134.4 88.3 134.4 88.1V80.2L131.6 78.6C131.5 78.6 131.5 78.4 131.5 78.4L135.9 70.8C136 70.7 136.1 70.8 136.1 71Z" fill="white"/>
<path opacity="0.35" d="M75.4 140.5C81 137.3 81 132 75.4 128.8C69.8 125.6 60.7 125.6 55.1 128.8C49.5 132 49.5 137.3 55.1 140.5C60.7 143.7 69.8 143.7 75.4 140.5Z" fill="url(#paint3_radial_1_4245)"/>
<path d="M63.4 91.3L73.9 97.4C74.1 97.5 74.3 97.8 74.4 98L79.9 113.9C80 114.2 80 114.6 79.8 114.8L74.8 123.4C74.7 123.6 74.5 123.8 74.3 123.9L71 125.8L61.8 119.1C61.6 119 61.4 118.7 61.3 118.5L55.8 102.6C55.7 102.3 59.3 93.4 59.5 93.1C59.5 93.1 62.7 91.2 62.8 91.2C62.9 91.1 63.2 91.1 63.4 91.3Z" fill="#515154"/>
<path d="M60.2 93.1L70.7 99.2C70.9 99.3 71.1 99.6 71.2 99.8L76.7 115.7C76.8 116 76.8 116.4 76.6 116.6L71.6 125.2C71.3 125.7 70.6 125.9 70 125.6L59.7 119.7C59.5 119.6 59.3 119.3 59.2 119.1L53.7 103.2C53.6 102.9 53.6 102.5 53.8 102.3L58.9 93.5C59.2 93 59.8 92.9 60.2 93.1Z" fill="#DEDEDF"/>
<path d="M65.4 100.8V108.7L68.2 110.3C68.3 110.3 68.3 110.5 68.3 110.5L63.9 118.1C63.9 118.2 63.7 118.1 63.7 117.9V110L60.9 108.4C60.8 108.4 60.8 108.2 60.8 108.2L65.2 100.6C65.3 100.6 65.4 100.7 65.4 100.8Z" fill="white"/>
<path opacity="0.35" d="M54.5 96.2C46.8 97.1 45.2 93.6 50.9 88.4C56.6 83.1 67.5 78.1 75.1 77.2C82.7 76.3 84.4 79.8 78.7 85C73.1 90.2 62.2 95.2 54.5 96.2Z" fill="url(#paint4_radial_1_4245)"/>
<path d="M42.4 93.3L84.2 66.4C85.5 65.7 86.5 63.7 86.5 62L89 2.40005C89 2.40005 86.2 1.10001 85.8 0.800012C85.4 0.500012 84.8 0.500012 84.2 0.800012L40.7 26C39.4 26.7 38.4 28.7 38.4 30.4V89.8C38.4 90.8 38.8 91.5 39.3 91.7C39.7 91.9 42.4 93.3 42.4 93.3Z" fill="#7D7D7F"/>
<path d="M87.5 68L43.9 93.2C42.6 93.9 41.6 93.2 41.6 91.5V32.1C41.6 30.4 42.6 28.4 43.9 27.7L87.5 2.5C88.8 1.8 89.8 2.50002 89.8 4.20002V63.6C89.8 65.3 88.7 67.3 87.5 68Z" fill="white"/>
<path d="M89.8 7.09999L41.6 34.9V32C41.6 30.3 42.6 28.3 43.9 27.6L87.5 2.40004C88.8 1.70004 89.8 2.39999 89.8 4.09999V7.09999V7.09999Z" fill="#A8A8A9"/>
<path d="M45.398 30.2947C45.6143 29.7864 45.5424 29.2692 45.2375 29.1395C44.9325 29.0097 44.51 29.3165 44.2938 29.8247C44.0775 30.3329 44.1493 30.8501 44.4543 30.9799C44.7592 31.1096 45.1817 30.8029 45.398 30.2947Z" fill="white"/>
<path d="M47.4031 29.1454C47.6194 28.6372 47.5475 28.12 47.2426 27.9902C46.9377 27.8605 46.5151 28.1672 46.2988 28.6754C46.0826 29.1837 46.1545 29.7009 46.4594 29.8306C46.7643 29.9604 47.1868 29.6536 47.4031 29.1454Z" fill="white"/>
<path d="M49.478 28.0243C49.6942 27.5161 49.6223 26.9989 49.3174 26.8691C49.0125 26.7393 48.59 27.0461 48.3737 27.5543C48.1574 28.0626 48.2293 28.5797 48.5342 28.7095C48.8391 28.8393 49.2617 28.5325 49.478 28.0243Z" fill="white"/>
<path d="M50 69.5L46.9 71.3V37.2L50 35.4V69.5Z" fill="#DEDEDF"/>
<path d="M58.1 64.8L55 66.6V32.5L58.1 30.7V64.8Z" fill="#D4D4D4"/>
<path d="M58.1 64.8L55 66.6V51.4L58.1 49.7V64.8Z" fill="#DEDEDF"/>
<path d="M66.3 60.1L63.2 61.9V27.8L66.3 26V60.1Z" fill="#D4D4D4"/>
<path d="M66.3 60.1L63.2 61.9V40.9L66.3 39.1V60.1Z" fill="#DEDEDF"/>
<path d="M47.3 84.7L46.6 85.1C46.5 85.2 46.4 85.3 46.4 85.4V86.6C46.4 86.7 46.5 86.8 46.6 86.7L47.3 86.3C47.4 86.2 47.5 86.1 47.5 86V84.8C47.4 84.7 47.3 84.7 47.3 84.7Z" fill="#DEDEDF"/>
<path d="M50.2 83L49.5 83.4C49.4 83.5 49.3 83.6 49.3 83.7V84.9C49.3 85 49.4 85.1 49.5 85L50.2 84.6C50.3 84.5 50.4 84.4 50.4 84.3V83.1C50.4 83 50.3 83 50.2 83Z" fill="#DEDEDF"/>
<path d="M50.6 81L50.4 81.1L50.1 79.6C50.1 79.4 49.9 79.3 49.7 79.4L47 81C46.8 81.1 46.7 81.3 46.6 81.6L46.3 83.4L46.1 83.5C45.9 83.6 45.8 83.9 45.8 84.2V85.9C45.8 86.2 46 86.3 46.1 86.2L50.4 83.7C50.6 83.6 50.7 83.3 50.7 83V81.3C50.9 81 50.8 80.8 50.6 81ZM47 81.6C47 81.4 47.1 81.2 47.3 81.1L49.5 79.8C49.6 79.7 49.8 79.8 49.8 80L50 81.3L46.9 83.1L47 81.6ZM46.9 84.8C46.7 84.9 46.5 84.8 46.5 84.5C46.5 84.2 46.7 83.9 46.9 83.8C47.1 83.7 47.3 83.8 47.3 84.1C47.3 84.3 47.1 84.7 46.9 84.8ZM49.9 83.1C49.7 83.2 49.5 83.1 49.5 82.8C49.5 82.5 49.7 82.2 49.9 82.1C50.1 82 50.3 82.1 50.3 82.4C50.3 82.6 50.1 82.9 49.9 83.1Z" fill="#DEDEDF"/>
<path d="M55.4 80L54.7 80.4C54.6 80.5 54.5 80.6 54.5 80.7V81.9C54.5 82 54.6 82.1 54.7 82L55.4 81.6C55.5 81.5 55.6 81.4 55.6 81.3V80.1C55.6 80 55.5 80 55.4 80Z" fill="#7D7D7F"/>
<path d="M58.4 78.3L57.7 78.7C57.6 78.8 57.5 78.9 57.5 79V80.2C57.5 80.3 57.6 80.4 57.7 80.3L58.4 79.9C58.5 79.8 58.6 79.7 58.6 79.6V78.4C58.6 78.3 58.5 78.3 58.4 78.3Z" fill="#7D7D7F"/>
<path d="M58.7 76.2L58.5 76.3L58.2 74.8C58.2 74.6 58 74.5 57.8 74.6L55.1 76.2C54.9 76.3 54.8 76.5 54.7 76.8L54.4 78.6L54.2 78.7C54 78.8 53.9 79.1 53.9 79.4V81.1C53.9 81.4 54.1 81.5 54.2 81.4L58.5 78.9C58.7 78.8 58.8 78.5 58.8 78.2V76.5C59.1 76.2 58.9 76.1 58.7 76.2ZM55.2 76.9C55.2 76.7 55.3 76.5 55.5 76.4L57.7 75.1C57.8 75 58 75.1 58 75.3L58.2 76.6L55.1 78.4L55.2 76.9ZM55.1 80.1C54.9 80.2 54.7 80.1 54.7 79.8C54.7 79.5 54.9 79.2 55.1 79.1C55.3 79 55.5 79.1 55.5 79.4C55.5 79.6 55.3 79.9 55.1 80.1ZM58.1 78.3C57.9 78.4 57.7 78.3 57.7 78C57.7 77.7 57.9 77.4 58.1 77.3C58.3 77.2 58.5 77.3 58.5 77.6C58.5 77.9 58.3 78.2 58.1 78.3Z" fill="#7D7D7F"/>
<path d="M58.3 72.4L54.9 74.4C54.5 74.7 54.1 75.3 54.1 75.9V79.4L59.1 76.5V73C59.1 72.4 58.7 72.1 58.3 72.4Z" fill="#7D7D7F"/>
<path d="M58.2 73.2L55 75C54.8 75.1 54.6 75.5 54.6 75.8V78.6L58.6 76.3V73.5C58.6 73.2 58.4 73.1 58.2 73.2Z" fill="white"/>
<path d="M63.6 75.3L62.9 75.7C62.8 75.8 62.7 75.9 62.7 76V77.2C62.7 77.3 62.8 77.4 62.9 77.3L63.6 76.9C63.7 76.8 63.8 76.6999 63.8 76.5999V75.4C63.8 75.3 63.7 75.2 63.6 75.3Z" fill="#7D7D7F"/>
<path d="M66.6 73.5999L65.9 74C65.8 74.1 65.7 74.2 65.7 74.3V75.5C65.7 75.6 65.8 75.6999 65.9 75.5999L66.6 75.2C66.7 75.1 66.8 75 66.8 74.9V73.7C66.7 73.6 66.7 73.4999 66.6 73.5999Z" fill="#7D7D7F"/>
<path d="M66.9 71.5L66.7 71.6L66.4 70.1C66.4 69.9 66.2 69.8 66 69.9L63.3 71.5C63.1 71.6 63 71.8 62.9 72.1L62.6 73.9L62.4 74C62.2 74.1 62.1 74.4 62.1 74.7V76.4C62.1 76.7 62.3 76.8 62.4 76.7L66.7 74.2C66.9 74.1 67 73.8 67 73.5V71.8C67.3 71.5 67.1 71.4 66.9 71.5ZM63.4 72.1C63.4 71.9 63.5 71.7 63.7 71.6L65.9 70.3C66 70.2 66.2 70.3 66.2 70.5L66.4 71.8L63.3 73.6L63.4 72.1ZM63.3 75.3C63.1 75.4 62.9 75.3 62.9 75C62.9 74.7 63.1 74.4 63.3 74.3C63.5 74.2 63.7 74.3 63.7 74.6C63.7 74.9 63.5 75.2 63.3 75.3ZM66.2 73.6C66 73.7 65.8 73.6 65.8 73.3C65.8 73 66 72.7 66.2 72.6C66.4 72.5 66.6 72.6 66.6 72.9C66.6 73.2 66.5 73.5 66.2 73.6Z" fill="#7D7D7F"/>
<path d="M66.5 67.7L63.1 69.7C62.7 70 62.3 70.6 62.3 71.2V74.7L67.3 71.8V68.3C67.3 67.7 66.9 67.4 66.5 67.7Z" fill="#7D7D7F"/>
<path d="M66.3 68.5L63.2 70.3C63 70.4 62.8 70.8 62.8 71.1V73.9001L66.8 71.6V68.8C66.7 68.5 66.6 68.4 66.3 68.5Z" fill="white"/>
<path d="M48.7 71.7V74.2L49.6 73.7L48.2 77.8H48.1V75.3L47.2 75.8L48.7 71.7C48.7 71.6 48.6 71.7 48.7 71.7Z" fill="#A8A8A9"/>
<path d="M56.8 67V69.5L57.7 69L56.3 73.1H56.2V70.6L55.3 71.1L56.8 67C56.8 66.9 56.8 66.9 56.8 67Z" fill="#A8A8A9"/>
<path d="M65 62.2V64.7L65.9 64.2L64.5 68.3H64.4V65.8L63.5 66.3L65 62.2Z" fill="#A8A8A9"/>
<path d="M83.4 50.2L81.8 51.1V17L83.4 16.2V50.2Z" fill="#D4D4D4"/>
<path d="M84.5321 28.4304C85.2891 26.6516 85.0787 24.859 84.0623 24.4265C83.0459 23.9939 81.6083 25.0852 80.8513 26.864C80.0944 28.6427 80.3047 30.4353 81.3211 30.8679C82.3375 31.3004 83.7752 30.2091 84.5321 28.4304Z" fill="white" stroke="#D4D4D4" stroke-miterlimit="10"/>
<path d="M75.1 55L73.6 55.9V21.8L75.1 20.9V55Z" fill="#D4D4D4"/>
<path d="M76.2059 43.6392C76.9629 41.8605 76.7526 40.0679 75.7361 39.6353C74.7197 39.2028 73.2821 40.2941 72.5251 42.0728C71.7682 43.8516 71.9785 45.6442 72.9949 46.0767C74.0114 46.5093 75.449 45.418 76.2059 43.6392Z" fill="white" stroke="#D4D4D4" stroke-miterlimit="10"/>
<path d="M81.9448 64.812C83.3506 61.5086 82.9659 58.182 81.0855 57.3818C79.2051 56.5816 76.5412 58.6108 75.1354 61.9142C73.7296 65.2175 74.1143 68.5442 75.9947 69.3444C77.8751 70.1446 80.539 68.1154 81.9448 64.812Z" stroke="#D4D4D4" stroke-miterlimit="10"/>
<path d="M79.7364 63.8722C80.2122 62.7541 80.0623 61.6198 79.4017 61.3386C78.741 61.0575 77.8196 61.7359 77.3438 62.854C76.868 63.972 77.0179 65.1064 77.6786 65.3875C78.3393 65.6687 79.2606 64.9902 79.7364 63.8722Z" fill="#D4D4D4"/>
<path d="M78.5 63.6V63.2L81.6 61.4V61.8L78.5 63.6Z" fill="#D4D4D4"/>
<path d="M50.1 77.1L46.7 79.1C46.3 79.4 45.9 80 45.9 80.6V84.1L50.9 81.2V77.7C50.9 77.1 50.5 76.9 50.1 77.1Z" fill="#DEDEDF"/>
<path d="M50 77.9001L46.9 79.7C46.7 79.8 46.5 80.2 46.5 80.5V83.3L50.5 81V78.2C50.4 77.9 50.2 77.8001 50 77.9001Z" fill="white"/>
<defs>
<radialGradient id="paint0_radial_1_4245" cx="0" cy="0" r="1" gradientUnits="userSpaceOnUse" gradientTransform="translate(203.268 76.6761) scale(14.3712 8.27063)">
<stop stop-color="#7D7D7F"/>
<stop offset="0.00827684" stop-color="#7F7F81"/>
<stop offset="0.1974" stop-color="#ADADAE"/>
<stop offset="0.3786" stop-color="#D0D0D1"/>
<stop offset="0.5477" stop-color="#EAEAEA"/>
<stop offset="0.7002" stop-color="#FAFAFA"/>
<stop offset="0.8213" stop-color="white"/>
</radialGradient>
<radialGradient id="paint1_radial_1_4245" cx="0" cy="0" r="1" gradientUnits="userSpaceOnUse" gradientTransform="translate(164.333 91.6694) scale(14.3712 8.27063)">
<stop stop-color="#7D7D7F"/>
<stop offset="0.00827684" stop-color="#7F7F81"/>
<stop offset="0.1974" stop-color="#ADADAE"/>
<stop offset="0.3786" stop-color="#D0D0D1"/>
<stop offset="0.5477" stop-color="#EAEAEA"/>
<stop offset="0.7002" stop-color="#FAFAFA"/>
<stop offset="0.8213" stop-color="white"/>
</radialGradient>
<radialGradient id="paint2_radial_1_4245" cx="0" cy="0" r="1" gradientUnits="userSpaceOnUse" gradientTransform="translate(135.943 106.412) scale(14.3712 8.27063)">
<stop stop-color="#7D7D7F"/>
<stop offset="0.00827684" stop-color="#7F7F81"/>
<stop offset="0.1974" stop-color="#ADADAE"/>
<stop offset="0.3786" stop-color="#D0D0D1"/>
<stop offset="0.5477" stop-color="#EAEAEA"/>
<stop offset="0.7002" stop-color="#FAFAFA"/>
<stop offset="0.8213" stop-color="white"/>
</radialGradient>
<radialGradient id="paint3_radial_1_4245" cx="0" cy="0" r="1" gradientUnits="userSpaceOnUse" gradientTransform="translate(65.2412 134.693) scale(14.3712 8.27063)">
<stop stop-color="#7D7D7F"/>
<stop offset="0.00827684" stop-color="#7F7F81"/>
<stop offset="0.1974" stop-color="#ADADAE"/>
<stop offset="0.3786" stop-color="#D0D0D1"/>
<stop offset="0.5477" stop-color="#EAEAEA"/>
<stop offset="0.7002" stop-color="#FAFAFA"/>
<stop offset="0.8213" stop-color="white"/>
</radialGradient>
<radialGradient id="paint4_radial_1_4245" cx="0" cy="0" r="1" gradientUnits="userSpaceOnUse" gradientTransform="translate(64.816 86.8308) rotate(155.121) scale(18.9194 6.12927)">
<stop stop-color="#515154"/>
<stop offset="0.1375" stop-color="#7F7F81"/>
<stop offset="0.2964" stop-color="#ACACAE"/>
<stop offset="0.4489" stop-color="#D0D0D1"/>
<stop offset="0.5913" stop-color="#EAEAEA"/>
<stop offset="0.7194" stop-color="#FAFAFA"/>
<stop offset="0.8213" stop-color="white"/>
</radialGradient>
</defs>
</svg>
