<svg width="272" height="216" viewBox="0 0 272 216" fill="none" xmlns="http://www.w3.org/2000/svg">
<path d="M268.2 106.3L184.7 58.1C182.8 57 180.6 56.6 178.5 57L47.5 82.2C44.9 82.7 42.7001 84.3 41.3001 86.6L2.00003 155C-0.499974 159.3 1.00007 164.9 5.30008 167.4L86.8001 214.5C88.7001 215.6 90.9 216 93 215.6L224 190.4C226.6 189.9 228.8 188.3 230.2 186L270.8 115.6C272.6 112.4 271.5 108.2 268.2 106.3Z" fill="#DEDEDF"/>
<path d="M94.1 50.2L94.4 50" stroke="#F48120" stroke-width="0.4252" stroke-miterlimit="10" stroke-linecap="round"/>
<path d="M96.8 48.6L142.3 22.3C145.2 20.6 149.6 20.4 152.2 21.9L200.3 49.7" stroke="#F48120" stroke-width="0.4252" stroke-miterlimit="10" stroke-linecap="round" stroke-dasharray="0.7 0.7"/>
<path d="M201.6 50.4L201.9 50.6" stroke="#F48120" stroke-width="0.4252" stroke-miterlimit="10" stroke-linecap="round"/>
<path d="M94.1 46.2L94.4 46" stroke="#F48120" stroke-width="0.4252" stroke-miterlimit="10" stroke-linecap="round"/>
<path d="M96.8 44.6L142.3 18.3C145.2 16.6 149.6 16.4 152.2 17.9L200.3 45.7" stroke="#F48120" stroke-width="0.4252" stroke-miterlimit="10" stroke-linecap="round" stroke-dasharray="0.7 0.7"/>
<path d="M201.6 46.4L201.9 46.6" stroke="#F48120" stroke-width="0.4252" stroke-miterlimit="10" stroke-linecap="round"/>
<path d="M94.1 42.2L94.4 42" stroke="#F48120" stroke-width="0.4252" stroke-miterlimit="10" stroke-linecap="round"/>
<path d="M96.8 40.6L142.3 14.3C145.2 12.6 149.6 12.4 152.2 13.9L200.3 41.7" stroke="#F48120" stroke-width="0.4252" stroke-miterlimit="10" stroke-linecap="round" stroke-dasharray="0.7 0.7"/>
<path d="M201.6 42.4L201.9 42.6" stroke="#F48120" stroke-width="0.4252" stroke-miterlimit="10" stroke-linecap="round"/>
<path d="M94.1 38.2L94.4 38" stroke="#F48120" stroke-width="0.4252" stroke-miterlimit="10" stroke-linecap="round"/>
<path d="M96.8 36.6L142.3 10.3C145.2 8.59997 149.6 8.40001 152.2 9.90001L200.3 37.7" stroke="#F48120" stroke-width="0.4252" stroke-miterlimit="10" stroke-linecap="round" stroke-dasharray="0.7 0.7"/>
<path d="M201.6 38.4L201.9 38.6" stroke="#F48120" stroke-width="0.4252" stroke-miterlimit="10" stroke-linecap="round"/>
<path d="M94.1 34.2L94.4 34" stroke="#F48120" stroke-width="0.4252" stroke-miterlimit="10" stroke-linecap="round"/>
<path d="M96.8 32.6L142.3 6.29997C145.2 4.59997 149.6 4.40001 152.2 5.90001L200.3 33.7" stroke="#F48120" stroke-width="0.4252" stroke-miterlimit="10" stroke-linecap="round" stroke-dasharray="0.7 0.7"/>
<path d="M201.6 34.4L201.9 34.6" stroke="#F48120" stroke-width="0.4252" stroke-miterlimit="10" stroke-linecap="round"/>
<path d="M94.1 30.2L94.4 30" stroke="#F48120" stroke-width="0.4252" stroke-miterlimit="10" stroke-linecap="round"/>
<path d="M96.8 28.6L142.3 2.29997C145.2 0.599971 149.6 0.400007 152.2 1.90001L200.3 29.7" stroke="#F48120" stroke-width="0.4252" stroke-miterlimit="10" stroke-linecap="round" stroke-dasharray="0.7 0.7"/>
<path d="M201.6 30.4L201.9 30.6" stroke="#F48120" stroke-width="0.4252" stroke-miterlimit="10" stroke-linecap="round"/>
<path d="M213.8 41.7C214.5 42.1 215.7 42.1 216.4 41.7C217.1 41.3 217.1 40.6 216.4 40.2C215.7 39.8 214.5 39.8 213.8 40.2C213.1 40.6 213.1 41.3 213.8 41.7Z" fill="#FFB510"/>
<path d="M215.2 96C216.194 96 217 95.5523 217 95C217 94.4477 216.194 94 215.2 94C214.206 94 213.4 94.4477 213.4 95C213.4 95.5523 214.206 96 215.2 96Z" fill="#FFB510"/>
<path d="M247.1 116.2L216.2 98.4C215.4 97.9 214.3 97.9 213.5 98.4L183 116L181.3 115.5V117.7C181.3 118.1 181.5 118.6 182 118.9L213.6 137.1C214.4 137.6 215.5 137.6 216.3 137.1L247.9 118.9C248.3 118.6 248.6 118.2 248.6 117.7V115.5L247.1 116.2Z" fill="#7D7D7F"/>
<path d="M213.5 96.1L181.9 114.3C181 114.8 181 116.1 181.9 116.6L213.5 134.8C214.3 135.3 215.4 135.3 216.2 134.8L247.8 116.6C248.7 116.1 248.7 114.8 247.8 114.3L216.2 96.1C215.4 95.6 214.3 95.6 213.5 96.1Z" fill="#D4D4D4"/>
<path d="M213.8 100.2L188.9 114.6C188.2 115 188.2 116 188.9 116.4L213.8 130.8C214.5 131.2 215.3 131.2 215.9 130.8L240.8 116.4C241.5 116 241.5 115 240.8 114.6L215.9 100.2C215.3 99.8 214.4 99.8 213.8 100.2Z" fill="#A8A8A9"/>
<path d="M188.9 115.2L213.8 100.8C214.5 100.4 215.3 100.4 215.9 100.8L240.8 115.2C241 115.3 241.2 115.6 241.3 115.8C241.4 115.4 241.3 114.8 240.8 114.6L215.9 100.2C215.2 99.8 214.4 99.8 213.8 100.2L188.9 114.6C188.4 114.9 188.3 115.4 188.4 115.8C188.5 115.5 188.7 115.3 188.9 115.2Z" fill="#7D7D7F"/>
<path opacity="0.3" d="M241.3 22H234.9V114.1H241.3V22Z" fill="url(#paint0_linear_1_9796)"/>
<path opacity="0.3" d="M230 16.7H223.8V118.9H230V16.7Z" fill="url(#paint1_linear_1_9796)"/>
<path opacity="0.3" d="M195.8 22.5H189.2V114.6H195.8V22.5Z" fill="url(#paint2_linear_1_9796)"/>
<path opacity="0.3" d="M215.2 16H208.6V121.8H215.2V16Z" fill="url(#paint3_linear_1_9796)"/>
<path opacity="0.3" d="M222.6 18.9H216.2V122H222.6V18.9Z" fill="url(#paint4_linear_1_9796)"/>
<path opacity="0.3" d="M218.3 18.9H216.2V124.5H218.3V18.9Z" fill="url(#paint5_linear_1_9796)"/>
<path opacity="0.3" d="M201.8 18.7H198.2V110.8H201.8V18.7Z" fill="url(#paint6_linear_1_9796)"/>
<path opacity="0.3" d="M212.1 10H205.7V121.9H212.1V10Z" fill="url(#paint7_linear_1_9796)"/>
<path opacity="0.3" d="M232.2 20H228V112.1H232.2V20Z" fill="url(#paint8_linear_1_9796)"/>
<path opacity="0.3" d="M204.3 11.6H200.1V103.7H204.3V11.6Z" fill="url(#paint9_linear_1_9796)"/>
<path d="M200 89.8C200 90 199.4 90 199.4 89.8C199.4 89.5 200 89.5 200 89.8Z" fill="#FFB510"/>
<path d="M202.4 89.3C202.4 89.6 201.7 89.6 201.7 89.3C201.7 89 202.4 89 202.4 89.3Z" fill="#FFB510"/>
<path d="M209.6 85.5C209.6 85.9 208.7 85.9 208.7 85.5C208.7 85.1 209.6 85.1 209.6 85.5Z" fill="#FFB510"/>
<path d="M198.9 76.5C198.9 76.7 198.4 76.7 198.4 76.5C198.4 76.3 198.9 76.3 198.9 76.5Z" fill="#FFB510"/>
<path d="M196.8 74.9C196.8 75.1 196.3 75.1 196.3 74.9C196.3 74.6 196.8 74.6 196.8 74.9Z" fill="#FFB510"/>
<path d="M194 72C194 72.2 193.4 72.2 193.4 72C193.4 71.8 194 71.8 194 72Z" fill="#FFB510"/>
<path d="M203 50.8C203 51 202.4 51 202.4 50.8C202.4 50.5 203 50.5 203 50.8Z" fill="#FFB510"/>
<path d="M217 44C217 44.2 216.4 44.2 216.4 44C216.4 43.7 217 43.7 217 44Z" fill="#FFB510"/>
<path d="M191.9 61C191.9 61.2 191.3 61.2 191.3 61C191.4 60.7 191.9 60.7 191.9 61Z" fill="#FFB510"/>
<path d="M204.3 64.6C204.3 64.7 204.1 64.7 204.1 64.6C204.1 64.5 204.3 64.5 204.3 64.6Z" fill="#FFB510"/>
<path d="M205.6 64.5C205.6 64.6 205.4 64.6 205.4 64.5C205.4 64.4 205.6 64.4 205.6 64.5Z" fill="#FFB510"/>
<path d="M209.5 68.7C209.5 68.8 209.3 68.8 209.3 68.7C209.3 68.6 209.5 68.6 209.5 68.7Z" fill="#FFB510"/>
<path d="M212.7 67C212.7 67.2 212.3 67.2 212.3 67C212.3 66.9 212.7 66.9 212.7 67Z" fill="#FFB510"/>
<path d="M211.4 68.1C211.4 68.2 211.1 68.2 211.1 68.1C211.1 67.9 211.4 67.9 211.4 68.1Z" fill="#FFB510"/>
<path d="M214.3 70.5C214.3 70.7 213.9 70.7 213.9 70.5C214 70.4 214.3 70.4 214.3 70.5Z" fill="#FFB510"/>
<path d="M210.5 74.7C210.5 74.9 210.1 74.9 210.1 74.7C210.1 74.6 210.5 74.6 210.5 74.7Z" fill="#FFB510"/>
<path d="M208.1 76.2C208.1 76.4 207.6 76.4 207.6 76.2C207.7 76 208.1 76 208.1 76.2Z" fill="#FFB510"/>
<path d="M218.2 76.6C218.2 76.8 217.8 76.8 217.9 76.6C217.8 76.4 218.2 76.4 218.2 76.6Z" fill="#FFB510"/>
<path d="M206.8 79.8C206.8 80.1 206.1 80.1 206.1 79.8C206.1 79.5 206.8 79.5 206.8 79.8Z" fill="#FFB510"/>
<path d="M211.9 78.6C211.9 78.9 211.3 78.9 211.3 78.6C211.2 78.3 211.9 78.3 211.9 78.6Z" fill="#FFB510"/>
<path d="M216.6 82.6C216.6 82.9 215.9 82.9 216 82.6C215.9 82.3 216.6 82.3 216.6 82.6Z" fill="#FFB510"/>
<path d="M225.4 82.5C225.4 82.7 225 82.7 225 82.5C224.9 82.3 225.4 82.3 225.4 82.5Z" fill="#FFB510"/>
<path d="M223.1 80.4C223.1 80.6 222.7 80.6 222.7 80.4C222.7 80.2 223.1 80.2 223.1 80.4Z" fill="#FFB510"/>
<path d="M226.6 78.9C226.6 79 226.4 79 226.4 78.9C226.3 78.8 226.6 78.8 226.6 78.9Z" fill="#FFB510"/>
<path d="M228.1 82.8C228.1 83 227.6 83 227.7 82.8C227.6 82.6 228.1 82.6 228.1 82.8Z" fill="#FFB510"/>
<path d="M233.4 78C233.4 78.1 233.2 78.1 233.2 78C233.2 77.9 233.4 77.9 233.4 78Z" fill="#FFB510"/>
<path d="M233.9 76.7C233.9 76.8 233.7 76.8 233.7 76.7C233.7 76.6 233.9 76.6 233.9 76.7Z" fill="#FFB510"/>
<path d="M237.9 85.6C237.9 85.9 237.2 85.9 237.2 85.6C237.2 85.3 237.9 85.3 237.9 85.6Z" fill="#FFB510"/>
<path d="M238.7 78.6C238.7 78.7 238.4 78.7 238.4 78.6C238.4 78.5 238.7 78.5 238.7 78.6Z" fill="#FFB510"/>
<path d="M237.4 77.7C237.4 77.8 237.2 77.8 237.2 77.7C237.2 77.6 237.4 77.6 237.4 77.7Z" fill="#FFB510"/>
<path d="M240.7 75.8C240.7 75.9 240.4 75.9 240.4 75.8C240.5 75.7 240.7 75.7 240.7 75.8Z" fill="#FFB510"/>
<path d="M233.3 72.5C233.3 72.6 233 72.6 233 72.5C232.9 72.4 233.3 72.4 233.3 72.5Z" fill="#FFB510"/>
<path d="M233.5 67C233.5 67.2 233 67.2 233 67C233 66.8 233.5 66.8 233.5 67Z" fill="#FFB510"/>
<path d="M235.7 66.4C235.7 66.6 235.1 66.6 235.1 66.4C235.2 66.1 235.7 66.1 235.7 66.4Z" fill="#FFB510"/>
<path d="M235.4 68.4C235.4 68.6 234.9 68.6 234.9 68.4C234.8 68.1 235.4 68.1 235.4 68.4Z" fill="#FFB510"/>
<path d="M233.1 61.4C233.1 61.6 232.6 61.6 232.6 61.4C232.7 61.2 233.2 61.2 233.1 61.4Z" fill="#FFB510"/>
<path d="M233.5 58C233.5 58.2 233.1 58.2 233.1 58C233.1 57.8 233.5 57.8 233.5 58Z" fill="#FFB510"/>
<path d="M231.8 52.9C231.8 53.1 231.4 53.1 231.4 52.9C231.4 52.7 231.8 52.7 231.8 52.9Z" fill="#FFB510"/>
<path d="M228.4 50.6C228.4 50.8 228 50.8 228 50.6C228 50.4 228.4 50.4 228.4 50.6Z" fill="#FFB510"/>
<path d="M230 47.8C230 48 229.6 48 229.6 47.8C229.6 47.6 230 47.6 230 47.8Z" fill="#FFB510"/>
<path d="M222.1 46C222.1 46.1 221.8 46.1 221.8 46C221.8 45.8 222.1 45.8 222.1 46Z" fill="#FFB510"/>
<path d="M224.1 42.8C224.1 42.9 223.8 42.9 223.8 42.8C223.8 42.7 224.1 42.7 224.1 42.8Z" fill="#FFB510"/>
<path d="M225.3 42.3C225.3 42.4 225 42.4 225 42.3C225 42.2 225.3 42.2 225.3 42.3Z" fill="#FFB510"/>
<path d="M210.9 57.4C210.9 57.6 210.5 57.6 210.5 57.4C210.4 57.2 210.9 57.2 210.9 57.4Z" fill="#FFB510"/>
<path d="M208.7 48.1C208.7 48.3 208.3 48.3 208.3 48.1C208.3 47.9 208.7 47.9 208.7 48.1Z" fill="#FFB510"/>
<path d="M206.8 45.9C206.8 46.1 206.2 46.1 206.2 45.9C206.3 45.7 206.8 45.7 206.8 45.9Z" fill="#FFB510"/>
<path d="M211.2 42.1C211.2 42.3 210.7 42.3 210.7 42.1C210.6 41.9 211.2 41.9 211.2 42.1Z" fill="#FFB510"/>
<path d="M215.4 38.2C215.4 38.5 214.8 38.5 214.8 38.2C214.8 38 215.4 38 215.4 38.2Z" fill="#FFB510"/>
<path d="M202.2 37.1C202.2 37.3 201.8 37.3 201.8 37.1C201.8 36.9 202.2 36.9 202.2 37.1Z" fill="#FFB510"/>
<path d="M208.8 32.1C208.8 32.4 208.2 32.4 208.2 32.1C208.1 31.8 208.8 31.8 208.8 32.1Z" fill="#FFB510"/>
<path d="M230.8 38.9C230.8 39.1 230.4 39.1 230.4 38.9C230.3 38.7 230.8 38.7 230.8 38.9Z" fill="#FFB510"/>
<path d="M230.7 33.6C230.7 33.9 230 33.9 230 33.6C230.1 33.4 230.7 33.4 230.7 33.6Z" fill="#FFB510"/>
<path d="M220.4 28.7C220.4 28.9 219.9 28.9 219.9 28.7C219.9 28.5 220.4 28.5 220.4 28.7Z" fill="#FFB510"/>
<path d="M222.9 25.1C222.9 25.3 222.5 25.3 222.5 25.1C222.6 24.9 222.9 24.9 222.9 25.1Z" fill="#FFB510"/>
<path d="M218.6 20.3C218.6 20.5 218 20.5 218 20.3C218 20.1 218.6 20.1 218.6 20.3Z" fill="#FFB510"/>
<path d="M197 24.8C197 25 196.6 25 196.6 24.8C196.6 24.7 197 24.7 197 24.8Z" fill="#FFB510"/>
<path d="M229.4 21.8C229.4 22 228.9 22 228.9 21.8C228.9 21.6 229.4 21.6 229.4 21.8Z" fill="#FFB510"/>
<path d="M233.3 28.5C233.3 28.7 232.7 28.7 232.7 28.5C232.7 28.3 233.3 28.3 233.3 28.5Z" fill="#FFB510"/>
<path d="M197 46.5C197 46.8 196.3 46.8 196.3 46.5C196.3 46.2 197 46.2 197 46.5Z" fill="#FFB510"/>
<path d="M191.3 54.3C191.3 54.5 190.9 54.5 190.9 54.3C190.9 54.1 191.3 54.1 191.3 54.3Z" fill="#FFB510"/>
<path d="M190 56.3C190 56.5 189.5 56.5 189.5 56.3C189.5 56.1 190 56.1 190 56.3Z" fill="#FFB510"/>
<path d="M191.4 50.6C191.4 50.8 190.9 50.8 190.9 50.6C190.9 50.4 191.4 50.4 191.4 50.6Z" fill="#FFB510"/>
<path d="M194.1 64.3C194.1 64.5 193.6 64.5 193.6 64.3C193.5 64.1 194.1 64.1 194.1 64.3Z" fill="#FFB510"/>
<path d="M194.4 68.4C194.4 68.6 193.9 68.6 193.9 68.4C193.9 68.2 194.4 68.2 194.4 68.4Z" fill="#FFB510"/>
<path d="M194.6 67C194.6 67.2 194.1 67.2 194.1 67C194.1 66.8 194.6 66.8 194.6 67Z" fill="#FFB510"/>
<path d="M205.9 52.6C205.9 52.7 205.6 52.7 205.6 52.6C205.6 52.5 205.9 52.5 205.9 52.6Z" fill="#FFB510"/>
<path d="M207.6 53C207.6 53.1 207.3 53.1 207.3 53C207.3 52.9 207.6 52.9 207.6 53Z" fill="#FFB510"/>
<path d="M206.3 53.7C206.3 53.8 206 53.8 206 53.7C205.9 53.6 206.3 53.6 206.3 53.7Z" fill="#FFB510"/>
<path d="M190.4 76.3C190.4 76.4 190.1 76.4 190.1 76.3C190.1 76.1 190.4 76.1 190.4 76.3Z" fill="#FFB510"/>
<path d="M192.1 76.7C192.1 76.8 191.8 76.8 191.8 76.7C191.8 76.5 192.1 76.5 192.1 76.7Z" fill="#FFB510"/>
<path d="M190.8 77.4C190.8 77.5 190.5 77.5 190.5 77.4C190.4 77.2 190.8 77.2 190.8 77.4Z" fill="#FFB510"/>
<path d="M200.9 55.9C200.9 56 200.6 56 200.6 55.9C200.7 55.7 200.9 55.7 200.9 55.9Z" fill="#FFB510"/>
<path d="M196.8 50.7C196.8 50.9 196.4 50.9 196.4 50.7C196.4 50.5 196.8 50.5 196.8 50.7Z" fill="#FFB510"/>
<path d="M217.2 48C217.2 48.1 216.9 48.1 216.9 48C217 47.9 217.2 47.9 217.2 48Z" fill="#FFB510"/>
<path d="M216.7 50.4C216.7 50.6 216.3 50.6 216.3 50.4C216.4 50.3 216.7 50.3 216.7 50.4Z" fill="#FFB510"/>
<path d="M219.7 50.1C219.7 50.3 219.3 50.3 219.3 50.1C219.3 50 219.7 50 219.7 50.1Z" fill="#FFB510"/>
<path d="M220.9 49C220.9 49.1 220.6 49.1 220.6 49C220.6 48.9 220.9 48.9 220.9 49Z" fill="#FFB510"/>
<path d="M239.4 39.5C239.4 39.7 239 39.7 239 39.5C239 39.3 239.4 39.3 239.4 39.5Z" fill="#FFB510"/>
<path d="M239.8 40.5C239.8 40.7 239.4 40.7 239.4 40.5C239.3 40.3 239.8 40.3 239.8 40.5Z" fill="#FFB510"/>
<path d="M193.5 37.4C193.5 37.6 193.1 37.6 193.1 37.4C193.1 37.2 193.5 37.2 193.5 37.4Z" fill="#FFB510"/>
<path d="M193.5 35.7C193.5 35.9 193.1 35.9 193.1 35.7C193.1 35.6 193.5 35.6 193.5 35.7Z" fill="#FFB510"/>
<path d="M194.4 31.8C194.4 32 194 32 194 31.8C194 31.6 194.4 31.6 194.4 31.8Z" fill="#FFB510"/>
<path d="M194.4 30.7C194.4 30.9 194 30.9 194 30.7C194 30.5 194.4 30.5 194.4 30.7Z" fill="#FFB510"/>
<path d="M197.9 31C197.9 31.2 197.5 31.2 197.5 31C197.5 30.8 197.9 30.8 197.9 31Z" fill="#FFB510"/>
<path d="M190.6 86.1C190.6 86.2 190.3 86.2 190.3 86.1C190.3 86 190.6 86 190.6 86.1Z" fill="#FFB510"/>
<path d="M195.7 86.5C195.7 86.6 195.4 86.6 195.4 86.5C195.4 86.4 195.7 86.4 195.7 86.5Z" fill="#FFB510"/>
<path d="M202.3 84.9C202.3 85.2 201.7 85.2 201.7 84.9C201.7 84.6 202.3 84.6 202.3 84.9Z" fill="#FFB510"/>
<path d="M198.7 84.9C198.7 85.1 198.3 85.1 198.3 84.9C198.3 84.8 198.7 84.8 198.7 84.9Z" fill="#FFB510"/>
<path d="M199.3 83.9C199.3 84.1 198.9 84.1 198.9 83.9C198.9 83.7 199.4 83.7 199.3 83.9Z" fill="#FFB510"/>
<path d="M206.4 24.1C206.4 24.5 205.5 24.5 205.5 24.1C205.4 23.8 206.4 23.8 206.4 24.1Z" fill="#FFB510"/>
<path d="M192.6 45.2C192.6 45.6 191.7 45.6 191.7 45.2C191.6 44.8 192.6 44.8 192.6 45.2Z" fill="#FFB510"/>
<path d="M223 35.9C223 36.3 222.1 36.3 222.1 35.9C222.1 35.5 223 35.5 223 35.9Z" fill="#FFB510"/>
<path d="M238.6 71.6C238.6 72 237.7 72 237.7 71.6C237.6 71.2 238.6 71.2 238.6 71.6Z" fill="#FFB510"/>
<path d="M195.6 15.2C195.6 15.4 195.1 15.4 195.1 15.2C195.1 14.9 195.6 14.9 195.6 15.2Z" fill="#FFB510"/>
<path d="M204.8 14.9C204.8 15.1 204.3 15.1 204.3 14.9C204.4 14.7 204.8 14.7 204.8 14.9Z" fill="#FFB510"/>
<path d="M214.9 15.2C214.9 15.4 214.5 15.4 214.6 15.2C214.6 15.1 214.9 15.1 214.9 15.2Z" fill="#FFB510"/>
<path d="M203.5 18.4C203.5 18.7 202.8 18.7 202.8 18.4C202.8 18.1 203.5 18.1 203.5 18.4Z" fill="#FFB510"/>
<path d="M237.5 50.1C237.5 50.4 236.8 50.4 236.8 50.1C236.8 49.8 237.5 49.8 237.5 50.1Z" fill="#FFB510"/>
<path d="M208.6 17.3C208.6 17.6 208 17.6 208 17.3C208 17 208.6 17 208.6 17.3Z" fill="#FFB510"/>
<path d="M213.3 21.2C213.3 21.5 212.6 21.5 212.7 21.2C212.6 21 213.3 21 213.3 21.2Z" fill="#FFB510"/>
<path d="M202.4 42.9C202.4 43.2 201.7 43.2 201.8 42.9C201.7 42.6 202.4 42.6 202.4 42.9Z" fill="#FFB510"/>
<path d="M192.4 25.2C192.4 25.3 192.1 25.3 192.1 25.2C192.1 25 192.4 25 192.4 25.2Z" fill="#FFB510"/>
<path d="M199.1 23.5C199.1 23.8 198.5 23.8 198.5 23.5C198.5 23.3 199.1 23.3 199.1 23.5Z" fill="#FFB510"/>
<path d="M195.4 23.6C195.4 23.8 195 23.8 195 23.6C195 23.4 195.4 23.4 195.4 23.6Z" fill="#FFB510"/>
<path d="M196.1 22.5C196.1 22.7 195.7 22.7 195.7 22.5C195.7 22.3 196.1 22.3 196.1 22.5Z" fill="#FFB510"/>
<path d="M220.7 67.8C220.7 68 220.1 68 220.1 67.8C220.1 67.5 220.7 67.5 220.7 67.8Z" fill="#FFB510"/>
<path d="M224.5 68.4C224.5 68.7 223.8 68.7 223.8 68.4C223.8 68.1 224.5 68.1 224.5 68.4Z" fill="#FFB510"/>
<path d="M239.3 60.6C239.3 60.9 238.6 60.9 238.6 60.6C238.7 60.4 239.3 60.4 239.3 60.6Z" fill="#FFB510"/>
<path d="M203.5 70.7C203.5 71 202.8 71 202.8 70.7C202.8 70.5 203.5 70.5 203.5 70.7Z" fill="#FFB510"/>
<path d="M231.7 59.6C231.7 60 230.8 60 230.8 59.6C230.8 59.2 231.7 59.2 231.7 59.6Z" fill="#FFB510"/>
<path d="M200.1 61C200.1 61.4 199.2 61.4 199.2 61C199.2 60.6 200.1 60.6 200.1 61Z" fill="#FFB510"/>
<path d="M212.7 60.2C212.7 60.3 212.4 60.3 212.4 60.2C212.4 60.1 212.7 60.1 212.7 60.2Z" fill="#FFB510"/>
<path d="M217.8 60.6C217.8 60.7 217.5 60.7 217.5 60.6C217.5 60.5 217.8 60.5 217.8 60.6Z" fill="#FFB510"/>
<path d="M224.4 59C224.4 59.3 223.8 59.3 223.8 59C223.8 58.8 224.4 58.8 224.4 59Z" fill="#FFB510"/>
<path d="M224.8 63.7C224.8 63.9 224.4 63.9 224.4 63.7C224.5 63.6 224.9 63.6 224.8 63.7Z" fill="#FFB510"/>
<path d="M221.2 54.7C221.2 54.9 220.8 54.9 220.8 54.7C220.8 54.5 221.2 54.5 221.2 54.7Z" fill="#FFB510"/>
<path d="M216.9 76.7L239.2 87.2V114.3C239.2 115.2 238.7 116 238 116.4L216.9 128.3C215.6 129 213.9 129 212.6 128.3L191.5 116.3C190.7 115.9 190.3 115.1 190.3 114.2V86.8L212.6 76.7C213.8 75.9 215.5 75.9 216.9 76.7Z" fill="#F8F8F9"/>
<path d="M212.5 72.9L191.2 85.2C189.8 86 189.8 88 191.2 88.8L212.5 100.8C213.8 101.5 215.5 101.5 216.8 100.8L238.1 88.8C239.5 88 239.5 86 238.1 85.2L216.8 72.9C215.5 72.2 213.8 72.2 212.5 72.9Z" fill="#D4D4D4"/>
<path d="M230.1 114.3L221.7 119.2L218.7 114C218.6 113.8 218.6 113.5 218.7 113.2L222.6 102.1C222.7 101.8 222.9 101.5 223.1 101.4L230.9 96.9C231.1 96.8 231.3 96.8 231.3 97L231.8 97.8H231.7L223.5 102.5C223.4 102.6 223.3 102.7 223.2 102.9L219.9 112.5C219.8 112.8 219.8 113.1 219.9 113.2L222.3 117.4L230.7 112.5L230.1 114.3Z" fill="#FFB510"/>
<path d="M227.3 104.1L225.2 110.3V110.4L226.6 109.6V113.5C226.6 113.6 226.7 113.5 226.7 113.5L228.8 107.3V107.2L227.4 108L227.3 104.1C227.3 104.1 227.4 104.1 227.3 104.1ZM223.8 103.3L223.2 105.1L231.6 100.2L234 104.4C234.1 104.6 234.1 104.8 234 105.1L230.7 114.7C230.6 114.9 230.5 115 230.4 115.1L222.2 119.9L222.7 120.7C222.7 120.8 222.8 120.8 222.8 120.8L231.4 115.8C231.4 115.7 231.5 115.6 231.5 115.5L235.4 104.4C235.5 104.1 235.5 103.8 235.4 103.6L232.4 98.4L223.8 103.3Z" fill="#FFB510"/>
<path d="M210.6 119.1C210.7 119.1 210.7 119 210.7 119V109C210.7 108.9 210.6 108.9 210.6 108.9C210.5 108.9 210.5 109 210.5 109V119C210.4 119 210.5 119.1 210.6 119.1Z" fill="#F6CF2E"/>
<path d="M208.4 117.7C208.5 117.7 208.5 117.6 208.5 117.6V105.4C208.5 105.3 208.4 105.3 208.4 105.3C208.3 105.3 208.3 105.4 208.3 105.4V117.6C208.2 117.7 208.3 117.7 208.4 117.7Z" fill="#F6CF2E"/>
<path d="M206.2 120.1C206.3 120.1 206.3 120 206.3 120V107C206.3 106.9 206.2 106.9 206.2 106.9C206.1 106.9 206.1 107 206.1 107V119.9C206 120 206.1 120.1 206.2 120.1Z" fill="#F6CF2E"/>
<path d="M204 115.1C204.1 115.1 204.1 115 204.1 115V101.3C204.1 101.2 204 101.2 204 101.2C203.9 101.2 203.9 101.3 203.9 101.3V115C203.8 115.1 203.9 115.1 204 115.1Z" fill="#F6CF2E"/>
<path d="M201.8 114.5C201.9 114.5 201.9 114.4 201.9 114.4V104.4C201.9 104.3 201.8 104.3 201.8 104.3L201.7 104.4V114.4C201.6 114.5 201.7 114.5 201.8 114.5Z" fill="#F6CF2E"/>
<path d="M199.6 112.5C199.7 112.5 199.7 112.4 199.7 112.4V100.9C199.7 100.8 199.6 100.8 199.6 100.8L199.5 100.9V112.4C199.4 112.4 199.5 112.5 199.6 112.5Z" fill="#F6CF2E"/>
<path d="M197.4 113.4C197.5 113.4 197.5 113.3 197.5 113.3V101.8C197.5 101.7 197.4 101.7 197.4 101.7L197.3 101.8V113.3C197.2 113.3 197.3 113.4 197.4 113.4Z" fill="#F6CF2E"/>
<path d="M195.2 109.9C195.3 109.9 195.3 109.8 195.3 109.8V98.3C195.3 98.2 195.2 98.2 195.2 98.2L195.1 98.3V109.8C195 109.8 195.1 109.9 195.2 109.9Z" fill="#F6CF2E"/>
<path d="M193 110.7C193.1 110.7 193.1 110.6 193.1 110.6V97.7C193.1 97.6 193 97.6 193 97.6C192.9 97.6 192.9 97.7 192.9 97.7V110.6C192.8 110.7 192.9 110.7 193 110.7Z" fill="#F6CF2E"/>
<path d="M210.6 116.3C210.8 116.3 210.9 116.2 210.9 116V111.8C210.9 111.6 210.8 111.5 210.6 111.5C210.4 111.5 210.3 111.6 210.3 111.8V116C210.3 116.2 210.4 116.3 210.6 116.3Z" fill="#F6CF2E"/>
<path d="M208.4 115C208.6 115 208.7 114.9 208.7 114.7V108.3C208.7 108.1 208.6 108 208.4 108C208.2 108 208.1 108.1 208.1 108.3V114.7C208.1 114.8 208.2 115 208.4 115Z" fill="#F6CF2E"/>
<path d="M206.2 117.3C206.4 117.3 206.5 117.2 206.5 117V108.4C206.5 108.2 206.4 108.1 206.2 108.1C206 108.1 205.9 108.2 205.9 108.4V117C205.9 117.2 206 117.3 206.2 117.3Z" fill="#F6CF2E"/>
<path d="M204 113.8C204.2 113.8 204.3 113.7 204.3 113.5V102.8C204.3 102.6 204.2 102.5 204 102.5C203.8 102.5 203.7 102.6 203.7 102.8V113.5C203.7 113.7 203.8 113.8 204 113.8Z" fill="#F6CF2E"/>
<path d="M201.8 111.8C202 111.8 202.1 111.7 202.1 111.5V106.6C202.1 106.4 202 106.3 201.8 106.3C201.6 106.3 201.5 106.4 201.5 106.6V111.5C201.5 111.6 201.6 111.8 201.8 111.8Z" fill="#F6CF2E"/>
<path d="M199.6 110.5C199.8 110.5 199.9 110.4 199.9 110.2V103.8C199.9 103.6 199.8 103.5 199.6 103.5C199.4 103.5 199.3 103.6 199.3 103.8V110.2C199.3 110.3 199.4 110.5 199.6 110.5Z" fill="#F6CF2E"/>
<path d="M197.4 111.3C197.6 111.3 197.7 111.2 197.7 111V103.9C197.7 103.7 197.6 103.6 197.4 103.6C197.2 103.6 197.1 103.7 197.1 103.9V111C197.1 111.2 197.2 111.3 197.4 111.3Z" fill="#F6CF2E"/>
<path d="M195.2 107.8C195.4 107.8 195.5 107.7 195.5 107.5V100.4C195.5 100.2 195.4 100.1 195.2 100.1C195 100.1 194.9 100.2 194.9 100.4V107.5C194.9 107.7 195 107.8 195.2 107.8Z" fill="#F6CF2E"/>
<path d="M193 108.7C193.2 108.7 193.3 108.6 193.3 108.4V99.8C193.3 99.6 193.2 99.5 193 99.5C192.8 99.5 192.7 99.6 192.7 99.8V108.4C192.7 108.6 192.8 108.7 193 108.7Z" fill="#F6CF2E"/>
<path d="M215.1 96.7C224.489 96.7 232.1 92.3124 232.1 86.9C232.1 81.4876 224.489 77.1 215.1 77.1C205.711 77.1 198.1 81.4876 198.1 86.9C198.1 92.3124 205.711 96.7 215.1 96.7Z" fill="url(#paint10_radial_1_9796)"/>
<path d="M209.3 19.9L227.1 30.2C227.5 30.4 227.8 30.8 228 31.2L237.3 58.1C237.5 58.6 237.4 59.2 237.1 59.7L228.6 74.3C228.4 74.7 228.1 75 227.7 75.1C227.6 75.1 222.1 78.3 222.1 78.3L206.5 66.9C206.1 66.7 205.8 66.3 205.6 65.9L196.3 39C196.1 38.5 202.2 23.4 202.5 22.9C202.5 22.9 208 19.7 208.1 19.7C208.5 19.7 208.9 19.7 209.3 19.9Z" fill="#F48120"/>
<path d="M203.9 23.1L221.7 33.4C222.1 33.6 222.4 34 222.6 34.4L231.9 61.3C232.1 61.8 232 62.4 231.7 62.9L223.2 77.5C222.7 78.4 221.5 78.7 220.6 78.2L203.2 68.1C202.8 67.9 202.5 67.5 202.3 67.1L193 40.2C192.8 39.7 192.9 39.1 193.2 38.6L201.9 23.6C202.3 22.9 203.2 22.7 203.9 23.1Z" fill="#F6CF2E"/>
<path d="M212.8 36.1V49.6L217.6 52.4C217.7 52.5 217.8 52.7 217.7 52.8L210.2 65.7C210.1 65.8 209.9 65.6 209.9 65.4V51.9L205.1 49.1C205 49 204.9 48.8 205 48.7L212.4 35.8C212.6 35.8 212.8 35.9 212.8 36.1Z" fill="white"/>
<path d="M164.7 45.3V100.2L162.4 101.6V46.6L164.7 45.3Z" fill="white"/>
<path d="M162.4 101.6L155.6 97.7L160.5 45.5L162.4 46.6V101.6Z" fill="#A8A8A9"/>
<path d="M162.4 48.3L156.1 44.8C154.2 43.8 153.5 41.5 154.5 39.6C155.5 37.6 158 36.9 159.9 38L166.2 41.6L162.4 48.3Z" fill="#DEDEDF"/>
<path d="M154.5 39.6C154.7 39.1 155.1 38.7 155.4 38.4C154.4 40.3 155.1 42.6 157 43.6L163.1 46.9L162.4 48.2L156.1 44.7C154.3 43.8 153.6 41.5 154.5 39.6Z" fill="#7D7D7F"/>
<path d="M164.3 48L144.5 72.5L143.8 72L155.8 52.7L161.9 47.8L164.3 48Z" fill="#DEDEDF"/>
<path d="M157.1 53.7L162.4 48.3L164.3 48L161.9 47.8L155.8 52.7L143.8 72L157.1 53.7Z" fill="#F5F8FC"/>
<path d="M165.8 41.4L185.1 45.5L185 46.5L170.8 46.9L166.5 45.2L165.8 41.4Z" fill="#D4D4D4"/>
<path d="M185.1 45.7V45.5L165.8 41.4L165.4 43.4L185.1 45.7Z" fill="#F5F8FC"/>
<path d="M161.6 46.1V12.4H162L165.7 37.2L163.8 42.2L161.6 46.1Z" fill="#D4D4D4"/>
<path d="M162.1 13.3L162 12.4H161.6V46.1L162.1 45.2V13.3Z" fill="#F5F8FC"/>
<path d="M164 72.7V73.7L163.1 74.1V73.2L164 72.7Z" fill="#F6CF2E"/>
<path d="M164 75V76L163.1 76.4V75.5L164 75Z" fill="#F48120"/>
<path d="M164 77.3V78.2L163.1 78.7V77.8L164 77.3Z" fill="#F48120"/>
<path d="M164 79.6V80.5L163.1 81V80.1L164 79.6Z" fill="#F48120"/>
<path d="M164.3 41.8C165.8 40.9 167 41.6 167 43.4C167 45.1 165.8 47.3 164.3 48.1C162.8 49 161.6 48.3 161.6 46.5C161.6 44.8 162.8 42.7 164.3 41.8Z" fill="#D4D4D4"/>
<path d="M164.5 43.2C165.3 42.7 166 43.1 166 44.1C166 45.1 165.3 46.2 164.5 46.7C163.7 47.2 163 46.8 163 45.8C163 44.9 163.7 43.7 164.5 43.2Z" fill="#7D7D7F"/>
<path d="M137.8 59.2V114.2L135.5 115.5V60.6L137.8 59.2Z" fill="white"/>
<path d="M135.5 115.5L128.7 111.6L133.6 59.5L135.5 60.6V115.5Z" fill="#A8A8A9"/>
<path d="M135.5 62.3L129.2 58.8C127.3 57.8 126.6 55.5 127.6 53.6C128.6 51.6 131.1 50.9 133 52L139.3 55.6L135.5 62.3Z" fill="#DEDEDF"/>
<path d="M127.6 53.6C127.8 53.1 128.2 52.7 128.5 52.4C127.5 54.3 128.2 56.6 130.1 57.6L136.2 60.9L135.5 62.2L129.2 58.7C127.3 57.8 126.6 55.5 127.6 53.6Z" fill="#7D7D7F"/>
<path d="M137.4 62L117.6 86.5L116.9 86L128.9 66.7L135 61.8L137.4 62Z" fill="#DEDEDF"/>
<path d="M130.2 67.6L135.5 62.3L137.4 62L135 61.8L128.9 66.7L116.9 86L130.2 67.6Z" fill="#F5F8FC"/>
<path d="M138.9 55.4L158.2 59.5L158.1 60.4L143.9 60.9L139.6 59.2L138.9 55.4Z" fill="#D4D4D4"/>
<path d="M158.2 59.7V59.5L138.9 55.4L138.5 57.3L158.2 59.7Z" fill="#F5F8FC"/>
<path d="M134.7 60.1V26.4H135.1L138.8 51.2L136.9 56.1L134.7 60.1Z" fill="#D4D4D4"/>
<path d="M135.2 27.3L135.1 26.4H134.7V60.1L135.2 59.1V27.3Z" fill="#F5F8FC"/>
<path d="M137.1 86.6V87.6L136.2 88.1V87.1L137.1 86.6Z" fill="#F6CF2E"/>
<path d="M137.1 88.9V89.9L136.2 90.4V89.4L137.1 88.9Z" fill="#F48120"/>
<path d="M137.1 91.2V92.2L136.2 92.7V91.7L137.1 91.2Z" fill="#F48120"/>
<path d="M137.1 93.5V94.5L136.2 95V94L137.1 93.5Z" fill="#F48120"/>
<path d="M137.4 55.8C138.9 54.9 140.1 55.6 140.1 57.4C140.1 59.2 138.9 61.3 137.4 62.1C135.9 63 134.7 62.3 134.7 60.5C134.7 58.8 135.9 56.6 137.4 55.8Z" fill="#D4D4D4"/>
<path d="M137.6 57.2C138.4 56.7 139.1 57.1 139.1 58.1C139.1 59.1 138.4 60.2 137.6 60.7C136.8 61.2 136.1 60.8 136.1 59.8C136.1 58.8 136.8 57.7 137.6 57.2Z" fill="#7D7D7F"/>
<path d="M111.2 74.5V129.5L108.9 130.8V75.8L111.2 74.5Z" fill="white"/>
<path d="M108.9 130.8L102.2 126.9L107 74.7L108.9 75.8V130.8Z" fill="#A8A8A9"/>
<path d="M109 77.5L102.7 74C100.8 73 100.1 70.7 101.1 68.8C102.1 66.8 104.6 66.1 106.5 67.2L112.8 70.8L109 77.5Z" fill="#DEDEDF"/>
<path d="M101 68.9C101.2 68.4 101.6 68 101.9 67.7C100.9 69.6 101.6 71.9 103.5 72.9L109.6 76.2L108.9 77.5L102.6 74C100.8 73.1 100.1 70.8 101 68.9Z" fill="#7D7D7F"/>
<path d="M110.8 77.3L91 101.7L90.3 101.3L102.3 81.9L108.4 77L110.8 77.3Z" fill="#DEDEDF"/>
<path d="M103.6 82.9L108.9 77.5L110.8 77.3L108.4 77L102.3 81.9L90.3 101.3L103.6 82.9Z" fill="#F5F8FC"/>
<path d="M112.3 70.7L131.6 74.8V75.7L117.3 76.2L113 74.5L112.3 70.7Z" fill="#D4D4D4"/>
<path d="M131.6 75V74.8L112.3 70.7L111.9 72.6L131.6 75Z" fill="#F5F8FC"/>
<path d="M108.1 75.4V41.6H108.5L112.2 66.4L110.3 71.4L108.1 75.4Z" fill="#D4D4D4"/>
<path d="M108.6 42.6L108.5 41.6H108.1V75.4L108.6 74.4V42.6Z" fill="#F5F8FC"/>
<path d="M110.5 101.9V102.9L109.6 103.4V102.4L110.5 101.9Z" fill="#F6CF2E"/>
<path d="M110.5 104.2V105.2L109.6 105.7V104.7L110.5 104.2Z" fill="#F48120"/>
<path d="M110.5 106.5V107.5L109.6 108V107L110.5 106.5Z" fill="#F48120"/>
<path d="M110.5 108.8V109.8L109.6 110.3V109.3L110.5 108.8Z" fill="#F48120"/>
<path d="M110.8 71C112.3 70.1 113.5 70.8 113.5 72.6C113.5 74.3 112.3 76.5 110.8 77.3C109.3 78.2 108.1 77.5 108.1 75.7C108.1 74 109.3 71.9 110.8 71Z" fill="#D4D4D4"/>
<path d="M111.1 72.5C111.9 72 112.6 72.4 112.6 73.4C112.6 74.4 111.9 75.5 111.1 76C110.3 76.5 109.6 76.1 109.6 75.1C109.6 74.1 110.2 72.9 111.1 72.5Z" fill="#7D7D7F"/>
<path d="M54.4 102.9C55.1 102.5 55.6 101.6 55.6 100.8C55.6 100.4 55.4 100 55.1 99.9C54.8 99.7 54.4 99.8 54.1 100C53.4 100.4 52.9 101.3 52.9 102.1C52.9 102.5 53.1 102.9 53.4 103C53.5 103.1 53.7 103.1 53.8 103.1C54 103 54.2 103 54.4 102.9ZM54.6 100.7C54.7 100.7 54.7 100.8 54.7 101C54.7 101.4 54.4 101.8 54.1 102C54 102.1 53.9 102.1 53.8 102C53.7 102 53.7 101.9 53.7 101.7C53.7 101.3 54 100.9 54.3 100.7C54.4 100.7 54.5 100.7 54.6 100.7Z" fill="#FFB510"/>
<path d="M76.2 100.4C76.9 100 77.4 99.1 77.4 98.3C77.4 97.9 77.2 97.5 76.9 97.4C76.6 97.2 76.2 97.3 75.9 97.5C75.2 97.9 74.7 98.8 74.7 99.6C74.7 100 74.9 100.4 75.2 100.5C75.3 100.6 75.5 100.6 75.6 100.6C75.8 100.6 76 100.5 76.2 100.4ZM76.5 98.3C76.6 98.3 76.6 98.4 76.6 98.6C76.6 99 76.3 99.4 76 99.6C75.9 99.7 75.8 99.7 75.7 99.6C75.6 99.6 75.6 99.5 75.6 99.3C75.6 98.9 75.9 98.5 76.2 98.3C76.3 98.3 76.3 98.2 76.5 98.3C76.5 98.2 76.4 98.2 76.5 98.3Z" fill="#FFB510"/>
<path d="M94 78.9001C94.9 78.4001 95.5 77.2 95.5 76.3C95.5 75.8 95.3 75.4 94.9 75.1C94.5 74.9 94.1 74.9 93.6 75.2C92.7 75.7 92.1 76.9 92.1 77.8C92.1 78.3 92.3 78.7 92.7 79C92.9 79.1 93 79.1 93.2 79.1C93.5 79.1 93.7 79.0001 94 78.9001ZM94.3 76.2C94.4 76.3 94.4 76.4 94.4 76.6C94.4 77 94.1 77.6 93.7 77.8C93.6 77.9 93.4 77.9001 93.3 77.9001C93.2 77.8001 93.2 77.7 93.2 77.5C93.2 77.1 93.5 76.5 93.9 76.3C94 76.2 94.1 76.2 94.2 76.2C94.2 76.2 94.3 76.2 94.3 76.2Z" fill="#FFB510"/>
<path d="M30 127.7C30.7 127.3 31.2 126.4 31.2 125.6C31.2 125.2 31 124.8 30.7 124.7C30.4 124.5 30 124.6 29.7 124.8C29 125.2 28.5 126.1 28.5 126.9C28.5 127.3 28.7 127.7 29 127.8C29.1 127.9 29.3 127.9 29.4 127.9C29.6 127.8 29.8 127.8 30 127.7ZM30.2 125.5C30.3 125.5 30.3 125.6 30.3 125.8C30.3 126.2 30 126.6 29.7 126.8C29.6 126.9 29.5 126.9 29.4 126.8C29.3 126.8 29.3 126.7 29.3 126.5C29.3 126.1 29.6 125.7 29.9 125.5C30 125.5 30.1 125.5 30.2 125.5Z" fill="#FFB510"/>
<path d="M82.3 86.7C83 86.3 83.5 85.4 83.5 84.6C83.5 84.2 83.3 83.8 83 83.7C82.7 83.5 82.3 83.6 82 83.8C81.3 84.2 80.8 85.1 80.8 85.9C80.8 86.3 81 86.7 81.3 86.8C81.4 86.9 81.6 86.9 81.7 86.9C81.8 86.9 82.1 86.9 82.3 86.7ZM82.5 84.6C82.6 84.6 82.6 84.7 82.6 84.9C82.6 85.3 82.3 85.7 82 85.9C81.9 86 81.8 86 81.7 85.9C81.6 85.9 81.6 85.8 81.6 85.6C81.6 85.2 81.9 84.8 82.2 84.6C82.3 84.6 82.4 84.6 82.5 84.6Z" fill="#FFB510"/>
<path d="M90.1 97.4C91.2 96.8 92.1 95.2 92.1 93.9C92.1 93.2 91.8 92.7 91.4 92.4C90.9 92.1 90.3 92.2 89.7 92.5C88.6 93.1 87.7 94.7 87.7 96C87.7 96.7 88 97.2 88.4 97.5C88.6 97.6 88.8 97.7 89.1 97.7C89.5 97.7 89.8 97.6 90.1 97.4ZM90.5 93.9C90.6 94 90.7 94.1 90.7 94.4C90.7 95 90.3 95.7 89.8 96C89.6 96.1 89.4 96.1 89.3 96.1C89.2 96 89.1 95.9 89.1 95.6C89.1 95 89.5 94.3 90 94C90.1 93.9 90.2 93.9 90.3 93.9C90.5 93.9 90.5 93.9 90.5 93.9Z" fill="#FFB510"/>
<path d="M102.6 72.1C103.2 71.8 103.6 71 103.6 70.4C103.6 70.1 103.5 69.8 103.2 69.7C103 69.6 102.7 69.6 102.4 69.8C101.8 70.1 101.4 70.9 101.4 71.5C101.4 71.8 101.5 72.1 101.8 72.2C101.9 72.3 102 72.3 102.1 72.3C102.3 72.2 102.4 72.2 102.6 72.1ZM102.8 70.3C102.9 70.3 102.9 70.4 102.9 70.5C102.9 70.8 102.7 71.1 102.4 71.3C102.3 71.4 102.2 71.4 102.2 71.3C102.1 71.3 102.1 71.2 102.1 71.1C102.1 70.8 102.3 70.5 102.6 70.3C102.6 70.3 102.7 70.3 102.8 70.3Z" fill="#FFB510"/>
<path d="M40.4 107C41.2 106.6 41.8 105.5 41.8 104.6C41.8 104.1 41.6 103.7 41.3 103.6C41 103.4 40.6 103.4 40.1 103.7C39.3 104.1 38.7 105.2 38.7 106.1C38.7 106.6 38.9 107 39.2 107.1C39.3 107.2 39.5 107.2 39.7 107.2C39.9 107.2 40.2 107.1 40.4 107ZM40.7 104.6C40.8 104.6 40.8 104.8 40.8 104.9C40.8 105.3 40.5 105.8 40.2 106C40.1 106.1 39.9 106.1 39.9 106C39.8 106 39.8 105.8 39.8 105.7C39.8 105.3 40.1 104.8 40.4 104.6C40.5 104.6 40.6 104.5 40.6 104.5C40.6 104.5 40.7 104.5 40.7 104.6Z" fill="#FFB510"/>
<path d="M47.4 118.5C48.6 117.8 49.6 116.1 49.6 114.6C49.6 113.8 49.3 113.2 48.8 112.9C48.3 112.6 47.6 112.6 46.9 113C45.6 113.7 44.7 115.4 44.7 116.9C44.7 117.7 45 118.3 45.5 118.6C45.7 118.7 46 118.8 46.3 118.8C46.7 118.8 47 118.7 47.4 118.5ZM47.9 114.6C48 114.7 48.1 114.9 48.1 115.1C48.1 115.7 47.6 116.5 47.1 116.9C46.9 117 46.7 117.1 46.5 117C46.4 116.9 46.3 116.7 46.3 116.5C46.3 115.9 46.8 115.1 47.3 114.7C47.4 114.6 47.6 114.6 47.7 114.6C47.8 114.6 47.8 114.6 47.9 114.6Z" fill="#FFB510"/>
<path d="M23.8 111.8C25 111.1 26 109.4 26 107.9C26 107.1 25.7 106.5 25.2 106.2C24.7 105.9 24 105.9 23.3 106.3C22 107 21.1 108.7 21.1 110.2C21.1 111 21.4 111.6 21.9 111.9C22.1 112 22.4 112.1 22.7 112.1C23 112.1 23.4 112 23.8 111.8ZM24.3 107.9C24.4 108 24.5 108.2 24.5 108.4C24.5 109 24 109.8 23.5 110.2C23.3 110.3 23.1 110.4 22.9 110.3C22.8 110.2 22.7 110 22.7 109.8C22.7 109.2 23.2 108.4 23.7 108C23.8 107.9 24 107.9 24.1 107.9C24.1 107.9 24.2 107.9 24.3 107.9Z" fill="#FFB510"/>
<path d="M61.1 31.1C61.1 31.2 61.1 31.2 61.1 31.1C61.1 31.2 61.1 31.2 61.1 31.1Z" fill="white" stroke="black" stroke-width="0.4252" stroke-miterlimit="10"/>
<path d="M61.9 30.3C69.1 23.8 79.9 23.5001 87.6 29.4001L90.8 31.8C91.3 32.3 83.8 35.3 83.7 36C87.6 34.9 91.9 37.8 91.9 42.2C91.9 44.2 91.4 46.2001 90.4 47.9001L61.1 31.1C61.3 30.9 61.6 30.6 61.9 30.3Z" fill="#FAE58C"/>
<path d="M18.8 75.2C19.6 68.4 24.3 60.7 30 57.4C30.3 57.2 30.6 57.1 30.9 56.9L58.8 72.9L34.4 91.4C34.4 91.4 24.1 85.8 21.9 84.5C21.7 84.4 21.6 84.3 21.4 84.2C21 83.9 20.6 83.6 20.3 83.1C19.2 81.8 18.5 80.2 18.5 78.3V75.3L18.8 75.2Z" fill="#F48120"/>
<path d="M31.2 56.8C31.2 56.4 31.1 55.9 31.1 55.4C31.1 45.3 35.3 36.2 42 30.9C45.3 28.3 49 26.8 52.8 26.8C55.4 26.8 57.4 28.3 60.1 30.2C60.9 30.7 61.6 31.4 62.4 31.8C68.1 35.1 90.4 47.9 90.4 47.9C89.4 49.7 87.9 51.2 86.1 52.2L58.9 72.8L31 56.8C31.1 56.9 31.1 56.8 31.2 56.8Z" fill="#FFB510"/>
<path d="M32.9 83.6C33.7 76.8 38.4 69.1 44.1 65.8C44.5 65.6 44.8 65.4 45.2 65.2C45.2 64.8 45.1 64.3 45.1 63.8C45.1 53.7 52.3 41.2 61.1 36.1C68.2 32 74.2 33.9 76.3 40.1C78.4 37.5 80.8 35.3 83.4 33.8C91.4 29.2 97.9 33 97.9 42.2C97.9 42.9 97.8 43.7 97.8 44.4C101.7 43.3 106 46.2 106 50.6C106 54.7 103.8 58.6 100.2 60.6L43.7 92.9C41.2 94.3 38.3 94.1 36.2 92.7C36 92.6 35.9 92.5 35.7 92.4C35.3 92.1 34.9 91.8 34.6 91.3C33.5 90 32.8 88.4 32.8 86.5V83.5L32.9 83.6Z" fill="#F6CF2E"/>
<path d="M59.9001 70L62.1 68.6C62.4 68.4 62.7001 67.9 62.9001 67.4C63.1001 66.6 63.3001 65.7 63.4001 65.6L61.3001 64.5C60.9001 64.3 60.8 63.5 61.2 62.8L63.6 58.1C63.9 57.6 64.2 57.3 64.6 57.1C64.8 57 64.9001 57 65.0001 57.1L67.3001 57.8C67.4001 57.7 67.5 57.6 67.6 57.5C67.8 57.3 68 57 68.2 56.8C68.5 56.4 68.8 55.9 68.7 55.5L68.6 52.9C68.6 52.2 69 51.4 69.6 51L73.2 48.7C73.4 48.6 73.5 48.5 73.7 48.5L76.9001 50.5L76.6 51.5L74.4001 51.6V51.8C74.4001 52.2 74.6001 52.4 75.0001 52.4C75.2001 52.4 75.5 52.3 75.7 52.3C76 52.3 76.4 51.9 76.6 51.5L78.1 48.6C78.4 48 78.9001 47.6 79.3001 47.6L82.0001 48.9C82.1001 48.9 82.1 49 82.1 49L85.2 51.2C85.2 51.2 82.6 50 82.2 50.7L80.7 53.6C80.5 54.1 80.4 54.6 80.6 54.9C80.7 55.1 80.8001 55.3 80.9001 55.5C81.0001 55.8 81.4 55.9 81.7 55.7L83.9001 54.3C84.1001 54.2 84.3001 54.1 84.4001 54.1H85.5001C86.5001 54.1 87.3001 54.8 87.5001 55.7L87.6 56.1L85.1 57.4L85.2 59.1C85.2 59.8 84.8 60.6 84.2 61L82.0001 62.4C81.7001 62.6 81.4 63.1 81.2 63.6C81.1 63.9 81.0001 64.3 81.0001 64.6C80.9001 65.1 81 65.5 81.2 65.6L82.8001 66.4C83.2001 66.6 83.3001 67.4 82.9001 68.1L77.4001 72.9C77.1001 72.8 76.7001 72.9 76.4001 73.3C76.2001 73.5 76.0001 73.8 75.8001 74C75.5001 74.4 75.2001 74.9 75.3001 75.3L75.4001 77.9C75.4001 78.6 75.0001 79.4 74.4001 79.8L73.0001 80.7L72.8001 84L70.2 82.3C70 82.2 69.8001 82 69.8001 81.6L69.7 79C69.7 78.6 69.5 78.4 69.1 78.4C68.9 78.4 68.6001 78.5 68.4001 78.5C68.1001 78.5 67.7001 78.9 67.5001 79.3L66.7 80.8H67.8001V83.2H64.8001C64.7001 83.2 64.5001 83.4 64.5001 83.4L62.0001 81.8C61.6001 81.6 61.5001 80.8 61.9001 80.1L63.4001 77.2C63.6001 76.7 63.7001 76.2 63.5001 75.9C63.4001 75.7 63.3 75.5 63.2 75.3C63.1 75 62.7001 74.9 62.4001 75.1L62.1 78.3C62.1 78.3 60.4 77.3 59.7 76.7C59.7 76.7 59.2 76.4 59.2 76L59.0001 71.7C58.9001 71.2 59.3001 70.3 59.9001 70ZM70.2 72.3C72.4 72 75.1001 69.4 76.3001 66.1C78.0001 61.8 76.7001 58.2 73.8001 58.5C71.6001 58.8 68.9 61.4 67.7 64.7C66 69.1 67.3 72.7 70.2 72.3Z" fill="#7D7D7F"/>
<path d="M66.1 67.4L64 66.3C63.6 66.1 63.5 65.3 63.9 64.6L66.3 59.9C66.7 59.2 67.3 58.7 67.7 59L69.3 59.8C69.6 59.9 70 59.8 70.3 59.4C70.5 59.2 70.7 58.9 70.9 58.7C71.2 58.3 71.5 57.8 71.4 57.4L71.3 54.8C71.3 54.1 71.7 53.3 72.3 52.9L75.9 50.6C76.5 50.2 76.9 50.5 77 51.2L77.1 53.8C77.1 54.2 77.3 54.4 77.7 54.4C77.9 54.4 78.2 54.3 78.4 54.3C78.7 54.3 79.1 53.9 79.3 53.5L80.8 50.6C81.2 49.9 81.8 49.4 82.2 49.6L84.8 51C85.2 51.2 85.3 52 84.9 52.7L83.4 55.6C83.2 56.1 83.1 56.6 83.3 56.9C83.4 57.1 83.5 57.3 83.6 57.5C83.7 57.8 84.1 57.9 84.4 57.7L86.6 56.3C87.2 55.9 87.6 56.2 87.7 56.9L87.9 61.2C87.9 61.9 87.5 62.7 86.9 63.1L84.7 64.5C84.4 64.7 84.1 65.2 83.9 65.7C83.8 66 83.7 66.4 83.7 66.7C83.6 67.2 83.7 67.6 83.9 67.7L85.5 68.5C85.9 68.7 86 69.5 85.6 70.2L83.2 74.9C82.8 75.6 82.2 76.1 81.8 75.8L80.2 75C79.9 74.9 79.5 75 79.2 75.4C79 75.6 78.8 75.9 78.6 76.1C78.3 76.5 78 77 78.1 77.4L78.2 80C78.2 80.7 77.8 81.5 77.2 81.9L73.6 84.2C73 84.6 72.6 84.3 72.5 83.6L72.4 81C72.4 80.6 72.2 80.4 71.8 80.4C71.6 80.4 71.3 80.5 71.1 80.5C70.8 80.5 70.4 80.9 70.2 81.3L68.7 84.2C68.3 84.9 67.7 85.4 67.3 85.1L64.7 83.7C64.3 83.5 64.2 82.7 64.6 82L66.1 79.1C66.3 78.6 66.4 78.1 66.2 77.8C66.1 77.6 66 77.4 65.9 77.2C65.8 76.9 65.4 76.8 65.1 77L62.9 78.4C62.3 78.8 61.9 78.5 61.8 77.8L61.6 73.5C61.6 72.8 62 72 62.6 71.6L64.8 70.2C65.1 70 65.4 69.5 65.6 69C65.8 68.4 66 67.5 66.1 67.4ZM79.1 68C80.8 63.7 79.5 60.1 76.6 60.4C74.4 60.7 71.7 63.3 70.5 66.6C68.8 70.9 70.1 74.5 73 74.2C75.2 73.8 77.8 71.2 79.1 68Z" fill="white"/>
<path d="M109.9 115.5L111.8 116.7L122.8 128.9L104 139.2L94.5 133.7V124L109.9 115.5Z" fill="#FFB510"/>
<path d="M132.8 136L97.2 101.2L80 111.2L115.6 145.9L132.8 136Z" fill="#FFB510"/>
<path d="M132 136.4L96.3 101.7L80.8 110.7L116.4 145.4L132 136.4Z" fill="#262629"/>
<path d="M96.5 101.9L96.3 101.7L80.8 110.7L80.9 110.9L96.5 101.9Z" fill="#FFB510"/>
<path d="M108.6 113.7L108.5 113.6L92.9 122.6L93.1 122.7L108.6 113.7Z" fill="#F6CF2E"/>
<path d="M121 125.7L120.9 125.6L105.3 134.6L105.4 134.7L121 125.7Z" fill="#FFB510"/>
<path d="M132 136.4L96.3 101.7L95.9 102L131.6 136.6L132 136.4Z" fill="#FFB510"/>
<path d="M127.3 139.1L91.7 104.4L91.5 104.5L127.1 139.2L127.3 139.1Z" fill="#F6CF2E"/>
<path d="M122.1 142.1L86.5 107.4L86.3 107.6L121.9 142.2L122.1 142.1Z" fill="#F6CF2E"/>
<path d="M80 111.2V111.9L115.4 146.4L115.6 145.9L80 111.2Z" fill="#FFB510"/>
<path d="M132.8 136L115.6 145.9L115.4 146.4L132.5 136.5L132.8 136Z" fill="#FFB510"/>
<path d="M92.1 125.8L94 127.1L105 139.2L86.2 149.5L76.7 144.1V134.3L92.1 125.8Z" fill="#FFB510"/>
<path d="M115 146.3L79.4 111.6L62.2 121.5L97.8 156.2L115 146.3Z" fill="#FFB510"/>
<path d="M114.2 146.7L78.6 112L63 121L98.6 155.7L114.2 146.7Z" fill="#262629"/>
<path d="M78.7 112.2L78.6 112L63 121L63.1 121.2L78.7 112.2Z" fill="#FFB510"/>
<path d="M90.9 124L90.7 123.9L75.2 132.9L75.3 133L90.9 124Z" fill="#F6CF2E"/>
<path d="M103.2 136L103.1 135.9L87.5 144.9L87.7 145L103.2 136Z" fill="#FFB510"/>
<path d="M114.2 146.7L78.6 112L78.2 112.3L113.8 146.9L114.2 146.7Z" fill="#FFB510"/>
<path d="M109.5 149.4L73.9 114.7L73.7 114.9L109.3 149.5L109.5 149.4Z" fill="#F6CF2E"/>
<path d="M104.3 152.4L68.7 117.8L68.5 117.9L104.1 152.5L104.3 152.4Z" fill="#F6CF2E"/>
<path d="M62.2 121.5V122.2L97.6 156.7L97.8 156.2L62.2 121.5Z" fill="#FFB510"/>
<path d="M115 146.3L97.8 156.2L97.6 156.7L114.8 146.8L115 146.3Z" fill="#FFB510"/>
<path d="M74.4 136.1L76.2 137.4L87.3 149.5L68.4 159.8L58.9 154.4V144.7L74.4 136.1Z" fill="#FFB510"/>
<path d="M97.2 156.6L61.7 121.9L44.4 131.8L80 166.5L97.2 156.6Z" fill="#FFB510"/>
<path d="M96.5 157L60.8 122.4L45.2 131.3L80.9 166L96.5 157Z" fill="#262629"/>
<path d="M60.9 122.5L60.8 122.4L45.2 131.3L45.3 131.5L60.9 122.5Z" fill="#FFB510"/>
<path d="M73.1 134.3L73 134.2L57.4 143.2L57.5 143.3L73.1 134.3Z" fill="#F6CF2E"/>
<path d="M85.5 146.4L85.3 146.2L69.8 155.2L69.9 155.4L85.5 146.4Z" fill="#FFB510"/>
<path d="M96.5 157L60.8 122.4L60.4 122.6L96.1 157.3L96.5 157Z" fill="#FFB510"/>
<path d="M91.8 159.7L56.2 125.1L56 125.2L91.6 159.8L91.8 159.7Z" fill="#F6CF2E"/>
<path d="M86.6 162.7L51 128.1L50.8 128.2L86.4 162.8L86.6 162.7Z" fill="#F6CF2E"/>
<path d="M44.4 131.8V132.5L79.9 167L80 166.5L44.4 131.8Z" fill="#FFB510"/>
<path d="M97.2 156.6L80 166.5L79.9 167L97 157.1L97.2 156.6Z" fill="#FFB510"/>
<path d="M56.6 146.4L58.5 147.7L69.5 159.8L50.7 170.1L41.2 164.7V155L56.6 146.4Z" fill="#7D7D7F"/>
<path d="M79.5 166.9L43.9 132.2L26.7 142.1L62.2 176.8L79.5 166.9Z" fill="#FFB510"/>
<path d="M78.7 167.3L43 132.7L27.4 141.7L63.1 176.3L78.7 167.3Z" fill="#262629"/>
<path d="M43.1 132.8L43 132.7L27.4 141.7L27.6 141.8L43.1 132.8Z" fill="#FFB510"/>
<path d="M55.3 144.7L55.2 144.5L39.6 153.5L39.8 153.7L55.3 144.7Z" fill="#F6CF2E"/>
<path d="M67.7 156.7L67.6 156.5L52 165.5L52.1 165.7L67.7 156.7Z" fill="#F6CF2E"/>
<path d="M78.7 167.3L43 132.7L42.6 132.9L78.3 167.6L78.7 167.3Z" fill="#FFB510"/>
<path d="M74 170L38.4 135.4L38.2 135.5L73.8 170.1L74 170Z" fill="#F6CF2E"/>
<path d="M68.8 173L33.2 138.4L33 138.5L68.6 173.2L68.8 173Z" fill="#F6CF2E"/>
<path d="M26.7 142.1V142.9L62.1 177.3L62.2 176.8L26.7 142.1Z" fill="#FFB510"/>
<path d="M79.5 166.9L62.2 176.8L62.1 177.3L79.2 167.4L79.5 166.9Z" fill="#FFB510"/>
<path d="M145.6 138L147.5 139.3L158.5 151.4L139.7 161.7L130.2 156.3V146.5L145.6 138Z" fill="#FFB510"/>
<path d="M168.5 158.5L132.9 123.8L115.7 133.7L151.2 168.4L168.5 158.5Z" fill="#FFB510"/>
<path d="M167.7 158.9L132 124.2L116.4 133.2L152.1 167.9L167.7 158.9Z" fill="#262629"/>
<path d="M132.2 124.4L132 124.2L116.4 133.2L116.6 133.4L132.2 124.4Z" fill="#FFB510"/>
<path d="M144.3 136.2L144.2 136.1L128.6 145.1L128.8 145.2L144.3 136.2Z" fill="#F6CF2E"/>
<path d="M156.7 148.2L156.6 148.1L141 157.1L141.1 157.2L156.7 148.2Z" fill="#F6CF2E"/>
<path d="M167.7 158.9L132 124.2L131.6 124.5L167.3 159.1L167.7 158.9Z" fill="#FFB510"/>
<path d="M163 161.6L127.4 126.9L127.2 127.1L162.8 161.7L163 161.6Z" fill="#F6CF2E"/>
<path d="M157.8 164.6L122.2 130L122 130.1L157.6 164.7L157.8 164.6Z" fill="#F6CF2E"/>
<path d="M115.7 133.7V134.4L151.1 168.9L151.2 168.4L115.7 133.7Z" fill="#FFB510"/>
<path d="M168.5 158.5L151.2 168.4L151.1 168.9L168.2 159L168.5 158.5Z" fill="#FFB510"/>
<path d="M127.8 148.3L129.7 149.6L140.7 161.7L121.9 172L112.4 166.6V156.9L127.8 148.3Z" fill="#FFB510"/>
<path d="M150.7 168.8L115.1 134.1L97.9 144L133.5 178.7L150.7 168.8Z" fill="#FFB510"/>
<path d="M149.9 169.2L114.3 134.6L98.7 143.5L134.3 178.2L149.9 169.2Z" fill="#262629"/>
<path d="M114.4 134.7L114.3 134.6L98.7 143.5L98.8 143.7L114.4 134.7Z" fill="#FFB510"/>
<path d="M126.6 146.5L126.4 146.4L110.9 155.4L111 155.5L126.6 146.5Z" fill="#F6CF2E"/>
<path d="M138.9 158.6L138.8 158.4L123.2 167.4L123.4 167.5L138.9 158.6Z" fill="#F6CF2E"/>
<path d="M149.9 169.2L114.3 134.6L113.9 134.8L149.5 169.5L149.9 169.2Z" fill="#FFB510"/>
<path d="M145.2 171.9L109.6 137.3L109.4 137.4L145 172L145.2 171.9Z" fill="#F6CF2E"/>
<path d="M140 174.9L104.4 140.3L104.2 140.4L139.8 175L140 174.9Z" fill="#F6CF2E"/>
<path d="M97.9 144V144.7L133.3 179.2L133.5 178.7L97.9 144Z" fill="#FFB510"/>
<path d="M150.7 168.8L133.5 178.7L133.3 179.2L150.5 169.3L150.7 168.8Z" fill="#FFB510"/>
<path d="M110.1 158.6L111.9 159.9L123 172L104.1 182.3L94.6 176.9V167.2L110.1 158.6Z" fill="#FFB510"/>
<path d="M132.9 179.1L97.3 144.4L80.1 154.3L115.7 189L132.9 179.1Z" fill="#FFB510"/>
<path d="M132.2 179.5L96.5 144.9L80.9 153.9L116.6 188.5L132.2 179.5Z" fill="#262629"/>
<path d="M96.6 145L96.5 144.9L80.9 153.9L81 154L96.6 145Z" fill="#FFB510"/>
<path d="M108.8 156.9L108.7 156.7L93.1 165.7L93.2 165.9L108.8 156.9Z" fill="#F6CF2E"/>
<path d="M121.2 168.9L121 168.7L105.5 177.7L105.6 177.9L121.2 168.9Z" fill="#F6CF2E"/>
<path d="M132.2 179.5L96.5 144.9L96.1 145.1L131.8 179.8L132.2 179.5Z" fill="#FFB510"/>
<path d="M127.4 182.2L91.9 147.6L91.7 147.7L127.3 182.3L127.4 182.2Z" fill="#F6CF2E"/>
<path d="M122.3 185.2L86.7 150.6L86.5 150.7L122.1 185.3L122.3 185.2Z" fill="#F6CF2E"/>
<path d="M80.1 154.3V155.1L115.6 189.5L115.7 189L80.1 154.3Z" fill="#FFB510"/>
<path d="M132.9 179.1L115.7 189L115.6 189.5L132.7 179.6L132.9 179.1Z" fill="#FFB510"/>
<path d="M92.3 169L94.1 170.2L105.2 182.3L86.4 192.6L76.9 187.2V177.5L92.3 169Z" fill="#7D7D7F"/>
<path d="M115.2 189.4L79.6 154.7L62.4 164.6L97.9 199.3L115.2 189.4Z" fill="#FFB510"/>
<path d="M114.4 189.8L78.7 155.2L63.1 164.2L98.8 198.8L114.4 189.8Z" fill="#262629"/>
<path d="M78.8 155.3L78.7 155.2L63.1 164.2L63.3 164.3L78.8 155.3Z" fill="#FFB510"/>
<path d="M91 167.2L90.9 167L75.3 176L75.4 176.2L91 167.2Z" fill="#F6CF2E"/>
<path d="M103.4 179.2L103.3 179.1L87.7 188L87.8 188.2L103.4 179.2Z" fill="#F6CF2E"/>
<path d="M114.4 189.8L78.7 155.2L78.3 155.4L114 190.1L114.4 189.8Z" fill="#FFB510"/>
<path d="M109.7 192.5L74.1 157.9L73.9 158L109.5 192.6L109.7 192.5Z" fill="#F6CF2E"/>
<path d="M104.5 195.5L68.9 160.9L68.7 161L104.3 195.7L104.5 195.5Z" fill="#F6CF2E"/>
<path d="M62.4 164.6V165.4L97.8 199.9L97.9 199.3L62.4 164.6Z" fill="#FFB510"/>
<path d="M115.2 189.4L97.9 199.3L97.8 199.9L114.9 189.9L115.2 189.4Z" fill="#FFB510"/>
<path d="M71.5 111.9C73.7 110.6 75.5 111.7 75.5 114.2C75.5 116.8 73.7 119.9 71.4 121.2C69.2 122.5 67.4 121.4 67.4 118.9C67.5 116.4 69.3 113.2 71.5 111.9Z" fill="#F6CF2E"/>
<path d="M63.9001 117.8C64.4001 117.8 64.8001 117.5 64.9001 117C65.2001 115.7 65.7001 114.5 66.3001 113.3C66.9001 112.1 67.7 111 68.5 110C69.3 109 70.2 108.2 71.2 107.6C72.1 107 73.0001 106.7 73.8001 106.6C74.5001 106.5 75.1 106.6 75.7 106.9C76.2 107.2 76.7 107.6 77 108.3C77.3 108.8 77.9 109 78.5 108.7C79 108.4 79.2001 107.8 78.9001 107.2C78.4001 106.2 77.6 105.4 76.6 104.9C75.7 104.4 74.6001 104.3 73.4001 104.4C72.3001 104.6 71.1 105 70 105.8C68.9 106.5 67.8001 107.5 66.8001 108.7C65.9001 109.8 65.0001 111.1 64.3001 112.4C63.6001 113.8 63.1 115.2 62.7 116.6C62.6 117.2 62.9 117.8 63.5 117.9C63.7 117.8 63.8001 117.8 63.9001 117.8Z" fill="#F6CF2E"/>
<path d="M60.1 115.5C60.6 115.5 61 115.2 61.1 114.7C61.7 112.8 62.5001 111 63.5001 109.2C64.5001 107.4 65.7 105.8 67.1 104.4C68.5 102.9 69.9001 101.8 71.4001 100.9C72.8001 100.1 74.2001 99.6 75.5001 99.5C76.7001 99.4 77.7 99.6 78.6 100.1C79.5 100.6 80.2 101.4 80.7 102.5C80.9 103 81.6 103.3 82.1 103C82.6 102.7 82.9 102.1 82.6 101.6C81.9 100.1 80.9 99 79.7 98.3C78.4 97.6 77.0001 97.3 75.4001 97.4C73.8001 97.5 72.1001 98.1 70.4001 99.1C68.7001 100.1 67.1 101.4 65.6 103C64.2 104.5 62.9 106.3 61.7 108.2C60.6 110.1 59.7 112.1 59.1 114.2C58.9 114.8 59.2001 115.4 59.8001 115.5C59.8001 115.5 59.9 115.5 60.1 115.5Z" fill="#F6CF2E"/>
<path d="M56.2 114.3C56.7 114.3 57.1 114 57.2 113.5C58 110.9 59.1001 108.4 60.5001 105.9C61.9001 103.4 63.6001 101.2 65.4001 99.3C67.3001 97.3 69.3001 95.7 71.3001 94.5C73.3001 93.4 75.2001 92.7 77.0001 92.5C78.7001 92.4 80.1001 92.7 81.4001 93.4C82.7001 94.1 83.7001 95.3 84.4001 96.8C84.6001 97.3 85.3001 97.6 85.8001 97.3C86.3001 97 86.6001 96.4 86.3001 95.9C85.4001 94 84.1001 92.5 82.5001 91.6C80.9001 90.6 78.9001 90.2 76.8001 90.4C74.7001 90.6 72.5 91.3 70.2 92.6C68 93.9 65.8001 95.6 63.8001 97.8C61.9001 99.9 60.1 102.2 58.6 104.8C57.1 107.4 55.9 110.1 55.1 112.8C54.9 113.4 55.2001 114 55.8001 114.1C56.0001 114.3 56.1 114.3 56.2 114.3Z" fill="#F6CF2E"/>
<path d="M154.2 133.5C152.8 134.3 150.6 134.3 149.3 133.5C147.9 132.7 147.9 131.4 149.3 130.7C150.7 129.9 152.9 129.9 154.2 130.7C155.6 131.4 155.6 132.7 154.2 133.5Z" fill="#7D7D7F"/>
<path d="M151.2 110.3H152.3L152.6 131.8C152.6 131.9 152.5 132.1 152.3 132.2C152 132.4 151.4 132.4 151.1 132.2C150.9 132.1 150.8 132 150.8 131.8L151.2 110.3Z" fill="white" stroke="#7D7D7F" stroke-width="0.2835" stroke-miterlimit="10" stroke-linejoin="round"/>
<path d="M151.7 105.3C149.3 105.3 144.6 110 144.6 117.7C144.6 121 147.8 123.7 151.7 123.7C155.6 123.7 158.8 121 158.8 117.7C158.8 110 154.2 105.3 151.7 105.3Z" fill="#A8A8A9"/>
<path d="M170 143.1C168.6 143.9 166.4 143.9 165.1 143.1C163.7 142.3 163.7 141 165.1 140.3C166.5 139.5 168.7 139.5 170 140.3C171.3 141.1 171.4 142.3 170 143.1Z" fill="#7D7D7F"/>
<path d="M167 119.9H168.1L168.4 141.4C168.4 141.5 168.3 141.7 168.1 141.8C167.8 142 167.2 142 166.9 141.8C166.7 141.7 166.6 141.6 166.6 141.4L167 119.9Z" fill="white" stroke="#7D7D7F" stroke-width="0.2835" stroke-miterlimit="10" stroke-linejoin="round"/>
<path d="M167.5 115C165.1 115 160.4 119.7 160.4 127.4C160.4 130.7 163.6 133.4 167.5 133.4C171.4 133.4 174.6 130.7 174.6 127.4C174.6 119.7 170 115 167.5 115Z" fill="#A8A8A9"/>
<path d="M186.5 152C185.1 152.8 182.9 152.8 181.6 152C180.2 151.2 180.2 149.9 181.6 149.2C183 148.4 185.2 148.4 186.5 149.2C187.9 150 187.9 151.2 186.5 152Z" fill="#7D7D7F"/>
<path d="M183.5 128.8H184.6L184.9 150.3C184.9 150.4 184.8 150.6 184.6 150.7C184.3 150.9 183.7 150.9 183.4 150.7C183.2 150.6 183.1 150.5 183.1 150.3L183.5 128.8Z" fill="white" stroke="#7D7D7F" stroke-width="0.2835" stroke-miterlimit="10" stroke-linejoin="round"/>
<path d="M184.1 123.9C181.7 123.9 177 128.6 177 136.3C177 139.6 180.2 142.3 184.1 142.3C188 142.3 191.2 139.6 191.2 136.3C191.1 128.6 186.5 123.9 184.1 123.9Z" fill="#A8A8A9"/>
<defs>
<linearGradient id="paint0_linear_1_9796" x1="238.237" y1="17.7672" x2="237.947" y2="133.404" gradientUnits="userSpaceOnUse">
<stop offset="0.1657" stop-color="white"/>
<stop offset="0.2042" stop-color="#FFFDFA"/>
<stop offset="0.249" stop-color="#FFF9EC"/>
<stop offset="0.2971" stop-color="#FFF2D5"/>
<stop offset="0.3473" stop-color="#FFE8B4"/>
<stop offset="0.3993" stop-color="#FFDB8A"/>
<stop offset="0.4528" stop-color="#FFCB56"/>
<stop offset="0.5066" stop-color="#FFB81A"/>
<stop offset="0.5151" stop-color="#FFB510"/>
</linearGradient>
<linearGradient id="paint1_linear_1_9796" x1="227.056" y1="12.0084" x2="226.733" y2="140.271" gradientUnits="userSpaceOnUse">
<stop offset="0.1657" stop-color="white"/>
<stop offset="0.2042" stop-color="#FFFDFA"/>
<stop offset="0.249" stop-color="#FFF9EC"/>
<stop offset="0.2971" stop-color="#FFF2D5"/>
<stop offset="0.3473" stop-color="#FFE8B4"/>
<stop offset="0.3993" stop-color="#FFDB8A"/>
<stop offset="0.4528" stop-color="#FFCB56"/>
<stop offset="0.5066" stop-color="#FFB81A"/>
<stop offset="0.5151" stop-color="#FFB510"/>
</linearGradient>
<linearGradient id="paint2_linear_1_9796" x1="192.602" y1="18.2452" x2="192.311" y2="133.882" gradientUnits="userSpaceOnUse">
<stop offset="0.1657" stop-color="white"/>
<stop offset="0.2042" stop-color="#FFFDFA"/>
<stop offset="0.249" stop-color="#FFF9EC"/>
<stop offset="0.2971" stop-color="#FFF2D5"/>
<stop offset="0.3473" stop-color="#FFE8B4"/>
<stop offset="0.3993" stop-color="#FFDB8A"/>
<stop offset="0.4528" stop-color="#FFCB56"/>
<stop offset="0.5066" stop-color="#FFB81A"/>
<stop offset="0.5151" stop-color="#FFB510"/>
</linearGradient>
<linearGradient id="paint3_linear_1_9796" x1="212.029" y1="11.1089" x2="211.695" y2="143.973" gradientUnits="userSpaceOnUse">
<stop offset="0.1657" stop-color="white"/>
<stop offset="0.2042" stop-color="#FFFDFA"/>
<stop offset="0.249" stop-color="#FFF9EC"/>
<stop offset="0.2971" stop-color="#FFF2D5"/>
<stop offset="0.3473" stop-color="#FFE8B4"/>
<stop offset="0.3993" stop-color="#FFDB8A"/>
<stop offset="0.4528" stop-color="#FFCB56"/>
<stop offset="0.5066" stop-color="#FFB81A"/>
<stop offset="0.5151" stop-color="#FFB510"/>
</linearGradient>
<linearGradient id="paint4_linear_1_9796" x1="219.609" y1="14.1192" x2="219.284" y2="143.546" gradientUnits="userSpaceOnUse">
<stop offset="0.1657" stop-color="white"/>
<stop offset="0.2042" stop-color="#FFFDFA"/>
<stop offset="0.249" stop-color="#FFF9EC"/>
<stop offset="0.2971" stop-color="#FFF2D5"/>
<stop offset="0.3473" stop-color="#FFE8B4"/>
<stop offset="0.3993" stop-color="#FFDB8A"/>
<stop offset="0.4528" stop-color="#FFCB56"/>
<stop offset="0.5066" stop-color="#FFB81A"/>
<stop offset="0.5151" stop-color="#FFB510"/>
</linearGradient>
<linearGradient id="paint5_linear_1_9796" x1="217.436" y1="14.0102" x2="217.103" y2="146.541" gradientUnits="userSpaceOnUse">
<stop offset="0.1657" stop-color="white"/>
<stop offset="0.2042" stop-color="#FFFDFA"/>
<stop offset="0.249" stop-color="#FFF9EC"/>
<stop offset="0.2971" stop-color="#FFF2D5"/>
<stop offset="0.3473" stop-color="#FFE8B4"/>
<stop offset="0.3993" stop-color="#FFDB8A"/>
<stop offset="0.4528" stop-color="#FFCB56"/>
<stop offset="0.5066" stop-color="#FFB81A"/>
<stop offset="0.5151" stop-color="#FFB510"/>
</linearGradient>
<linearGradient id="paint6_linear_1_9796" x1="200.134" y1="14.4682" x2="199.844" y2="130.096" gradientUnits="userSpaceOnUse">
<stop offset="0.1657" stop-color="white"/>
<stop offset="0.2042" stop-color="#FFFDFA"/>
<stop offset="0.249" stop-color="#FFF9EC"/>
<stop offset="0.2971" stop-color="#FFF2D5"/>
<stop offset="0.3473" stop-color="#FFE8B4"/>
<stop offset="0.3993" stop-color="#FFDB8A"/>
<stop offset="0.4528" stop-color="#FFCB56"/>
<stop offset="0.5066" stop-color="#FFB81A"/>
<stop offset="0.5151" stop-color="#FFB510"/>
</linearGradient>
<linearGradient id="paint7_linear_1_9796" x1="209.085" y1="4.7635" x2="208.732" y2="145.24" gradientUnits="userSpaceOnUse">
<stop offset="0.1657" stop-color="white"/>
<stop offset="0.2042" stop-color="#FFFDFA"/>
<stop offset="0.249" stop-color="#FFF9EC"/>
<stop offset="0.2971" stop-color="#FFF2D5"/>
<stop offset="0.3473" stop-color="#FFE8B4"/>
<stop offset="0.3993" stop-color="#FFDB8A"/>
<stop offset="0.4528" stop-color="#FFCB56"/>
<stop offset="0.5066" stop-color="#FFB81A"/>
<stop offset="0.5151" stop-color="#FFB510"/>
</linearGradient>
<linearGradient id="paint8_linear_1_9796" x1="230.164" y1="15.7249" x2="229.873" y2="131.354" gradientUnits="userSpaceOnUse">
<stop offset="0.1657" stop-color="white"/>
<stop offset="0.2042" stop-color="#FFFDFA"/>
<stop offset="0.249" stop-color="#FFF9EC"/>
<stop offset="0.2971" stop-color="#FFF2D5"/>
<stop offset="0.3473" stop-color="#FFE8B4"/>
<stop offset="0.3993" stop-color="#FFDB8A"/>
<stop offset="0.4528" stop-color="#FFCB56"/>
<stop offset="0.5066" stop-color="#FFB81A"/>
<stop offset="0.5151" stop-color="#FFB510"/>
</linearGradient>
<linearGradient id="paint9_linear_1_9796" x1="202.281" y1="7.36397" x2="201.99" y2="122.993" gradientUnits="userSpaceOnUse">
<stop offset="0.1657" stop-color="white"/>
<stop offset="0.2042" stop-color="#FFFDFA"/>
<stop offset="0.249" stop-color="#FFF9EC"/>
<stop offset="0.2971" stop-color="#FFF2D5"/>
<stop offset="0.3473" stop-color="#FFE8B4"/>
<stop offset="0.3993" stop-color="#FFDB8A"/>
<stop offset="0.4528" stop-color="#FFCB56"/>
<stop offset="0.5066" stop-color="#FFB81A"/>
<stop offset="0.5151" stop-color="#FFB510"/>
</linearGradient>
<radialGradient id="paint10_radial_1_9796" cx="0" cy="0" r="1" gradientUnits="userSpaceOnUse" gradientTransform="translate(215.124 86.497) scale(16.4598 8.96238)">
<stop stop-color="#A8A8A9"/>
<stop offset="0.2722" stop-color="#CACACA"/>
<stop offset="0.5644" stop-color="#E7E7E7"/>
<stop offset="0.8172" stop-color="#F9F9F9"/>
<stop offset="1" stop-color="white"/>
</radialGradient>
</defs>
</svg>
